<?xml version="1.0" standalone="no"?>
<!DOCTYPE svg PUBLIC "-//W3C//DTD SVG 1.1//EN" "http://www.w3.org/Graphics/SVG/1.1/DTD/svg11.dtd">
<svg width="490mm" height="475mm" viewBox="0 -475 490 475" xmlns="http://www.w3.org/2000/svg" version="1.1">
<title>OpenSCAD Model</title>
<path d="
M 490,-475 L 0,-475 L 0,-0 L 490,-0 z
M 49.521,-463.526 L 49.0889,-463.746 L 48.746,-464.089 L 48.5258,-464.521 L 48.45,-465 L 48.5258,-465.479
 L 48.746,-465.911 L 49.0889,-466.254 L 49.521,-466.474 L 50,-466.55 L 50.479,-466.474 L 50.9111,-466.254
 L 51.254,-465.911 L 51.4741,-465.479 L 51.55,-465 L 51.4741,-464.521 L 51.254,-464.089 L 50.9111,-463.746
 L 50.479,-463.526 L 50,-463.45 z
M 439.521,-463.526 L 439.089,-463.746 L 438.746,-464.089 L 438.526,-464.521 L 438.45,-465 L 438.526,-465.479
 L 438.746,-465.911 L 439.089,-466.254 L 439.521,-466.474 L 440,-466.55 L 440.479,-466.474 L 440.911,-466.254
 L 441.254,-465.911 L 441.474,-465.479 L 441.55,-465 L 441.474,-464.521 L 441.254,-464.089 L 440.911,-463.746
 L 440.479,-463.526 L 440,-463.45 z
M 147.021,-463.526 L 146.589,-463.746 L 146.246,-464.089 L 146.026,-464.521 L 145.95,-465 L 146.026,-465.479
 L 146.246,-465.911 L 146.589,-466.254 L 147.021,-466.474 L 147.5,-466.55 L 147.979,-466.474 L 148.411,-466.254
 L 148.754,-465.911 L 148.974,-465.479 L 149.05,-465 L 148.974,-464.521 L 148.754,-464.089 L 148.411,-463.746
 L 147.979,-463.526 L 147.5,-463.45 z
M 244.521,-463.526 L 244.089,-463.746 L 243.746,-464.089 L 243.526,-464.521 L 243.45,-465 L 243.526,-465.479
 L 243.746,-465.911 L 244.089,-466.254 L 244.521,-466.474 L 245,-466.55 L 245.479,-466.474 L 245.911,-466.254
 L 246.254,-465.911 L 246.474,-465.479 L 246.55,-465 L 246.474,-464.521 L 246.254,-464.089 L 245.911,-463.746
 L 245.479,-463.526 L 245,-463.45 z
M 342.021,-463.526 L 341.589,-463.746 L 341.246,-464.089 L 341.026,-464.521 L 340.95,-465 L 341.026,-465.479
 L 341.246,-465.911 L 341.589,-466.254 L 342.021,-466.474 L 342.5,-466.55 L 342.979,-466.474 L 343.411,-466.254
 L 343.754,-465.911 L 343.974,-465.479 L 344.05,-465 L 343.974,-464.521 L 343.754,-464.089 L 343.411,-463.746
 L 342.979,-463.526 L 342.5,-463.45 z
M 9.52101,-423.526 L 9.08893,-423.746 L 8.74602,-424.089 L 8.52585,-424.521 L 8.45,-425 L 8.52585,-425.479
 L 8.74602,-425.911 L 9.08893,-426.254 L 9.52101,-426.474 L 10,-426.55 L 10.479,-426.474 L 10.9111,-426.254
 L 11.254,-425.911 L 11.4741,-425.479 L 11.55,-425 L 11.4741,-424.521 L 11.254,-424.089 L 10.9111,-423.746
 L 10.479,-423.526 L 10,-423.45 z
M 479.521,-423.526 L 479.089,-423.746 L 478.746,-424.089 L 478.526,-424.521 L 478.45,-425 L 478.526,-425.479
 L 478.746,-425.911 L 479.089,-426.254 L 479.521,-426.474 L 480,-426.55 L 480.479,-426.474 L 480.911,-426.254
 L 481.254,-425.911 L 481.474,-425.479 L 481.55,-425 L 481.474,-424.521 L 481.254,-424.089 L 480.911,-423.746
 L 480.479,-423.526 L 480,-423.45 z
M 9.52101,-329.776 L 9.08893,-329.996 L 8.74602,-330.339 L 8.52585,-330.771 L 8.45,-331.25 L 8.52585,-331.729
 L 8.74602,-332.161 L 9.08893,-332.504 L 9.52101,-332.724 L 10,-332.8 L 10.479,-332.724 L 10.9111,-332.504
 L 11.254,-332.161 L 11.4741,-331.729 L 11.55,-331.25 L 11.4741,-330.771 L 11.254,-330.339 L 10.9111,-329.996
 L 10.479,-329.776 L 10,-329.7 z
M 479.521,-329.776 L 479.089,-329.996 L 478.746,-330.339 L 478.526,-330.771 L 478.45,-331.25 L 478.526,-331.729
 L 478.746,-332.161 L 479.089,-332.504 L 479.521,-332.724 L 480,-332.8 L 480.479,-332.724 L 480.911,-332.504
 L 481.254,-332.161 L 481.474,-331.729 L 481.55,-331.25 L 481.474,-330.771 L 481.254,-330.339 L 480.911,-329.996
 L 480.479,-329.776 L 480,-329.7 z
M 9.52101,-236.026 L 9.08893,-236.246 L 8.74602,-236.589 L 8.52585,-237.021 L 8.45,-237.5 L 8.52585,-237.979
 L 8.74602,-238.411 L 9.08893,-238.754 L 9.52101,-238.974 L 10,-239.05 L 10.479,-238.974 L 10.9111,-238.754
 L 11.254,-238.411 L 11.4741,-237.979 L 11.55,-237.5 L 11.4741,-237.021 L 11.254,-236.589 L 10.9111,-236.246
 L 10.479,-236.026 L 10,-235.95 z
M 479.521,-236.026 L 479.089,-236.246 L 478.746,-236.589 L 478.526,-237.021 L 478.45,-237.5 L 478.526,-237.979
 L 478.746,-238.411 L 479.089,-238.754 L 479.521,-238.974 L 480,-239.05 L 480.479,-238.974 L 480.911,-238.754
 L 481.254,-238.411 L 481.474,-237.979 L 481.55,-237.5 L 481.474,-237.021 L 481.254,-236.589 L 480.911,-236.246
 L 480.479,-236.026 L 480,-235.95 z
M 9.52101,-142.276 L 9.08893,-142.496 L 8.74602,-142.839 L 8.52585,-143.271 L 8.45,-143.75 L 8.52585,-144.229
 L 8.74602,-144.661 L 9.08893,-145.004 L 9.52101,-145.224 L 10,-145.3 L 10.479,-145.224 L 10.9111,-145.004
 L 11.254,-144.661 L 11.4741,-144.229 L 11.55,-143.75 L 11.4741,-143.271 L 11.254,-142.839 L 10.9111,-142.496
 L 10.479,-142.276 L 10,-142.2 z
M 479.521,-142.276 L 479.089,-142.496 L 478.746,-142.839 L 478.526,-143.271 L 478.45,-143.75 L 478.526,-144.229
 L 478.746,-144.661 L 479.089,-145.004 L 479.521,-145.224 L 480,-145.3 L 480.479,-145.224 L 480.911,-145.004
 L 481.254,-144.661 L 481.474,-144.229 L 481.55,-143.75 L 481.474,-143.271 L 481.254,-142.839 L 480.911,-142.496
 L 480.479,-142.276 L 480,-142.2 z
M 127.521,-58.0258 L 127.089,-58.246 L 126.746,-58.5889 L 126.526,-59.021 L 126.45,-59.5 L 126.526,-59.979
 L 126.746,-60.4111 L 127.089,-60.754 L 127.521,-60.9741 L 128,-61.05 L 128.479,-60.9741 L 128.911,-60.754
 L 129.254,-60.4111 L 129.474,-59.979 L 129.55,-59.5 L 129.474,-59.021 L 129.254,-58.5889 L 128.911,-58.246
 L 128.479,-58.0258 L 128,-57.95 z
M 261.521,-58.0258 L 261.089,-58.246 L 260.746,-58.5889 L 260.526,-59.021 L 260.45,-59.5 L 260.526,-59.979
 L 260.746,-60.4111 L 261.089,-60.754 L 261.521,-60.9741 L 262,-61.05 L 262.479,-60.9741 L 262.911,-60.754
 L 263.254,-60.4111 L 263.474,-59.979 L 263.55,-59.5 L 263.474,-59.021 L 263.254,-58.5889 L 262.911,-58.246
 L 262.479,-58.0258 L 262,-57.95 z
M 170,-39.875 L 166.871,-40.3705 L 164.049,-41.8087 L 161.809,-44.0487 L 160.371,-46.8712 L 159.875,-50
 L 160.371,-53.1288 L 161.809,-55.9513 L 164.049,-58.1913 L 166.871,-59.6294 L 170,-60.125 L 220,-60.125
 L 223.129,-59.6294 L 225.951,-58.1913 L 228.191,-55.9513 L 229.629,-53.1288 L 230.125,-50 L 229.629,-46.8712
 L 228.191,-44.0487 L 225.951,-41.8087 L 223.129,-40.3705 L 220,-39.875 z
M 9.52101,-48.5258 L 9.08893,-48.746 L 8.74602,-49.0889 L 8.52585,-49.521 L 8.45,-50 L 8.52585,-50.479
 L 8.74602,-50.9111 L 9.08893,-51.254 L 9.52101,-51.4741 L 10,-51.55 L 10.479,-51.4741 L 10.9111,-51.254
 L 11.254,-50.9111 L 11.4741,-50.479 L 11.55,-50 L 11.4741,-49.521 L 11.254,-49.0889 L 10.9111,-48.746
 L 10.479,-48.5258 L 10,-48.45 z
M 479.521,-48.5258 L 479.089,-48.746 L 478.746,-49.0889 L 478.526,-49.521 L 478.45,-50 L 478.526,-50.479
 L 478.746,-50.9111 L 479.089,-51.254 L 479.521,-51.4741 L 480,-51.55 L 480.479,-51.4741 L 480.911,-51.254
 L 481.254,-50.9111 L 481.474,-50.479 L 481.55,-50 L 481.474,-49.521 L 481.254,-49.0889 L 480.911,-48.746
 L 480.479,-48.5258 L 480,-48.45 z
M 127.521,-39.0259 L 127.089,-39.246 L 126.746,-39.5889 L 126.526,-40.021 L 126.45,-40.5 L 126.526,-40.979
 L 126.746,-41.4111 L 127.089,-41.754 L 127.521,-41.9742 L 128,-42.05 L 128.479,-41.9742 L 128.911,-41.754
 L 129.254,-41.4111 L 129.474,-40.979 L 129.55,-40.5 L 129.474,-40.021 L 129.254,-39.5889 L 128.911,-39.246
 L 128.479,-39.0259 L 128,-38.95 z
M 261.521,-39.0259 L 261.089,-39.246 L 260.746,-39.5889 L 260.526,-40.021 L 260.45,-40.5 L 260.526,-40.979
 L 260.746,-41.4111 L 261.089,-41.754 L 261.521,-41.9742 L 262,-42.05 L 262.479,-41.9742 L 262.911,-41.754
 L 263.254,-41.4111 L 263.474,-40.979 L 263.55,-40.5 L 263.474,-40.021 L 263.254,-39.5889 L 262.911,-39.246
 L 262.479,-39.0259 L 262,-38.95 z
M 49.521,-8.52585 L 49.0889,-8.74602 L 48.746,-9.08893 L 48.5258,-9.52101 L 48.45,-10 L 48.5258,-10.479
 L 48.746,-10.9111 L 49.0889,-11.254 L 49.521,-11.4741 L 50,-11.55 L 50.479,-11.4741 L 50.9111,-11.254
 L 51.254,-10.9111 L 51.4741,-10.479 L 51.55,-10 L 51.4741,-9.52101 L 51.254,-9.08893 L 50.9111,-8.74602
 L 50.479,-8.52585 L 50,-8.45 z
M 439.521,-8.52585 L 439.089,-8.74602 L 438.746,-9.08893 L 438.526,-9.52101 L 438.45,-10 L 438.526,-10.479
 L 438.746,-10.9111 L 439.089,-11.254 L 439.521,-11.4741 L 440,-11.55 L 440.479,-11.4741 L 440.911,-11.254
 L 441.254,-10.9111 L 441.474,-10.479 L 441.55,-10 L 441.474,-9.52101 L 441.254,-9.08893 L 440.911,-8.74602
 L 440.479,-8.52585 L 440,-8.45 z
M 147.021,-8.52585 L 146.589,-8.74602 L 146.246,-9.08893 L 146.026,-9.52101 L 145.95,-10 L 146.026,-10.479
 L 146.246,-10.9111 L 146.589,-11.254 L 147.021,-11.4741 L 147.5,-11.55 L 147.979,-11.4741 L 148.411,-11.254
 L 148.754,-10.9111 L 148.974,-10.479 L 149.05,-10 L 148.974,-9.52101 L 148.754,-9.08893 L 148.411,-8.74602
 L 147.979,-8.52585 L 147.5,-8.45 z
M 244.521,-8.52585 L 244.089,-8.74602 L 243.746,-9.08893 L 243.526,-9.52101 L 243.45,-10 L 243.526,-10.479
 L 243.746,-10.9111 L 244.089,-11.254 L 244.521,-11.4741 L 245,-11.55 L 245.479,-11.4741 L 245.911,-11.254
 L 246.254,-10.9111 L 246.474,-10.479 L 246.55,-10 L 246.474,-9.52101 L 246.254,-9.08893 L 245.911,-8.74602
 L 245.479,-8.52585 L 245,-8.45 z
M 342.021,-8.52585 L 341.589,-8.74602 L 341.246,-9.08893 L 341.026,-9.52101 L 340.95,-10 L 341.026,-10.479
 L 341.246,-10.9111 L 341.589,-11.254 L 342.021,-11.4741 L 342.5,-11.55 L 342.979,-11.4741 L 343.411,-11.254
 L 343.754,-10.9111 L 343.974,-10.479 L 344.05,-10 L 343.974,-9.52101 L 343.754,-9.08893 L 343.411,-8.74602
 L 342.979,-8.52585 L 342.5,-8.45 z
" stroke="black" fill="lightgray" stroke-width="0.5"/>
</svg>
