<?xml version="1.0" standalone="no"?>
<!DOCTYPE svg PUBLIC "-//W3C//DTD SVG 1.1//EN" "http://www.w3.org/Graphics/SVG/1.1/DTD/svg11.dtd">
<svg width="150mm" height="35mm" viewBox="-75 -18 150 35" xmlns="http://www.w3.org/2000/svg" version="1.1">
<title>OpenSCAD Model</title>
<path d="
M 73.2725,16.3776 L 73.9695,16.0225 L 74.5225,15.4695 L 74.8776,14.7725 L 75,14 L 75,-15
 L 74.8776,-15.7725 L 74.5225,-16.4695 L 73.9695,-17.0225 L 73.2725,-17.3776 L 72.5,-17.5 L -72.5,-17.5
 L -73.2725,-17.3776 L -73.9695,-17.0225 L -74.5225,-16.4695 L -74.8776,-15.7725 L -75,-15 L -75,14
 L -74.8776,14.7725 L -74.5225,15.4695 L -73.9695,16.0225 L -73.2725,16.3776 L -72.5,16.5 L 72.5,16.5
 z
M -67.479,-8.02585 L -67.9111,-8.24602 L -68.254,-8.58893 L -68.4741,-9.02101 L -68.55,-9.5 L -68.4741,-9.97897
 L -68.254,-10.4111 L -67.9111,-10.754 L -67.479,-10.9741 L -67,-11.05 L -66.521,-10.9741 L -66.0889,-10.754
 L -65.746,-10.4111 L -65.5258,-9.97897 L -65.45,-9.5 L -65.5258,-9.02101 L -65.746,-8.58893 L -66.0889,-8.24602
 L -66.521,-8.02585 L -67,-7.95 z
M 66.521,-8.02585 L 66.0889,-8.24602 L 65.746,-8.58893 L 65.5258,-9.02101 L 65.45,-9.5 L 65.5258,-9.97897
 L 65.746,-10.4111 L 66.0889,-10.754 L 66.521,-10.9741 L 67,-11.05 L 67.479,-10.9741 L 67.9111,-10.754
 L 68.254,-10.4111 L 68.4741,-9.97897 L 68.55,-9.5 L 68.4741,-9.02101 L 68.254,-8.58893 L 67.9111,-8.24602
 L 67.479,-8.02585 L 67,-7.95 z
M -67.479,10.9741 L -67.9111,10.754 L -68.254,10.4111 L -68.4741,9.97897 L -68.55,9.5 L -68.4741,9.02101
 L -68.254,8.58893 L -67.9111,8.24602 L -67.479,8.02585 L -67,7.95 L -66.521,8.02585 L -66.0889,8.24602
 L -65.746,8.58893 L -65.5258,9.02101 L -65.45,9.5 L -65.5258,9.97897 L -65.746,10.4111 L -66.0889,10.754
 L -66.521,10.9741 L -67,11.05 z
M 66.521,10.9741 L 66.0889,10.754 L 65.746,10.4111 L 65.5258,9.97897 L 65.45,9.5 L 65.5258,9.02101
 L 65.746,8.58893 L 66.0889,8.24602 L 66.521,8.02585 L 67,7.95 L 67.479,8.02585 L 67.9111,8.24602
 L 68.254,8.58893 L 68.4741,9.02101 L 68.55,9.5 L 68.4741,9.97897 L 68.254,10.4111 L 67.9111,10.754
 L 67.479,10.9741 L 67,11.05 z
" stroke="black" fill="lightgray" stroke-width="0.5"/>
</svg>
