<?xml version="1.0" standalone="no"?>
<!DOCTYPE svg PUBLIC "-//W3C//DTD SVG 1.1//EN" "http://www.w3.org/Graphics/SVG/1.1/DTD/svg11.dtd">
<svg width="418mm" height="294mm" viewBox="50 -310 418 294" xmlns="http://www.w3.org/2000/svg" version="1.1">
<title>OpenSCAD Model</title>
<path d="
M 461.09,-16.4894 L 463.878,-17.9098 L 466.09,-20.1221 L 467.511,-22.9098 L 468,-26 L 468,-300
 L 467.511,-303.09 L 466.09,-305.878 L 463.878,-308.09 L 461.09,-309.511 L 458,-310 L 60,-310
 L 56.9098,-309.511 L 54.1221,-308.09 L 51.9098,-305.878 L 50.4894,-303.09 L 50,-300 L 50,-26
 L 50.4894,-22.9098 L 51.9098,-20.1221 L 54.1221,-17.9098 L 56.9098,-16.4894 L 60,-16 L 458,-16
 z
M 459.708,-281.563 L 458.994,-281.927 L 458.427,-282.494 L 458.063,-283.208 L 457.938,-284 L 458.063,-284.792
 L 458.427,-285.506 L 458.994,-286.073 L 459.708,-286.437 L 460.5,-286.562 L 461.292,-286.437 L 462.006,-286.073
 L 462.573,-285.506 L 462.937,-284.792 L 463.062,-284 L 462.937,-283.208 L 462.573,-282.494 L 462.006,-281.927
 L 461.292,-281.563 L 460.5,-281.438 z
M 104.521,-278.526 L 104.089,-278.746 L 103.746,-279.089 L 103.526,-279.521 L 103.45,-280 L 103.526,-280.479
 L 103.746,-280.911 L 104.089,-281.254 L 104.521,-281.474 L 105,-281.55 L 105.479,-281.474 L 105.911,-281.254
 L 106.254,-280.911 L 106.474,-280.479 L 106.55,-280 L 106.474,-279.521 L 106.254,-279.089 L 105.911,-278.746
 L 105.479,-278.526 L 105,-278.45 z
M 264.521,-278.526 L 264.089,-278.746 L 263.746,-279.089 L 263.526,-279.521 L 263.45,-280 L 263.526,-280.479
 L 263.746,-280.911 L 264.089,-281.254 L 264.521,-281.474 L 265,-281.55 L 265.479,-281.474 L 265.911,-281.254
 L 266.254,-280.911 L 266.474,-280.479 L 266.55,-280 L 266.474,-279.521 L 266.254,-279.089 L 265.911,-278.746
 L 265.479,-278.526 L 265,-278.45 z
M 424.521,-278.526 L 424.089,-278.746 L 423.746,-279.089 L 423.526,-279.521 L 423.45,-280 L 423.526,-280.479
 L 423.746,-280.911 L 424.089,-281.254 L 424.521,-281.474 L 425,-281.55 L 425.479,-281.474 L 425.911,-281.254
 L 426.254,-280.911 L 426.474,-280.479 L 426.55,-280 L 426.474,-279.521 L 426.254,-279.089 L 425.911,-278.746
 L 425.479,-278.526 L 425,-278.45 z
M 69.521,-271.526 L 69.0889,-271.746 L 68.746,-272.089 L 68.5259,-272.521 L 68.45,-273 L 68.5259,-273.479
 L 68.746,-273.911 L 69.0889,-274.254 L 69.521,-274.474 L 70,-274.55 L 70.479,-274.474 L 70.9111,-274.254
 L 71.254,-273.911 L 71.4741,-273.479 L 71.55,-273 L 71.4741,-272.521 L 71.254,-272.089 L 70.9111,-271.746
 L 70.479,-271.526 L 70,-271.45 z
M 459.708,-267.563 L 458.994,-267.927 L 458.427,-268.494 L 458.063,-269.208 L 457.938,-270 L 458.063,-270.792
 L 458.427,-271.506 L 458.994,-272.073 L 459.708,-272.437 L 460.5,-272.562 L 461.292,-272.437 L 462.006,-272.073
 L 462.573,-271.506 L 462.937,-270.792 L 463.062,-270 L 462.937,-269.208 L 462.573,-268.494 L 462.006,-267.927
 L 461.292,-267.563 L 460.5,-267.438 z
M 69.521,-251.526 L 69.0889,-251.746 L 68.746,-252.089 L 68.5259,-252.521 L 68.45,-253 L 68.5259,-253.479
 L 68.746,-253.911 L 69.0889,-254.254 L 69.521,-254.474 L 70,-254.55 L 70.479,-254.474 L 70.9111,-254.254
 L 71.254,-253.911 L 71.4741,-253.479 L 71.55,-253 L 71.4741,-252.521 L 71.254,-252.089 L 70.9111,-251.746
 L 70.479,-251.526 L 70,-251.45 z
M 69.2081,-202.563 L 68.4938,-202.927 L 67.9269,-203.494 L 67.5629,-204.208 L 67.4375,-205 L 67.5629,-205.792
 L 67.9269,-206.506 L 68.4938,-207.073 L 69.2081,-207.437 L 70,-207.562 L 70.7919,-207.437 L 71.5062,-207.073
 L 72.0731,-206.506 L 72.4371,-205.792 L 72.5625,-205 L 72.4371,-204.208 L 72.0731,-203.494 L 71.5062,-202.927
 L 70.7919,-202.563 L 70,-202.438 z
M 69.2081,-112.563 L 68.4938,-112.927 L 67.9269,-113.494 L 67.5629,-114.208 L 67.4375,-115 L 67.5629,-115.792
 L 67.9269,-116.506 L 68.4938,-117.073 L 69.2081,-117.437 L 70,-117.562 L 70.7919,-117.437 L 71.5062,-117.073
 L 72.0731,-116.506 L 72.4371,-115.792 L 72.5625,-115 L 72.4371,-114.208 L 72.0731,-113.494 L 71.5062,-112.927
 L 70.7919,-112.563 L 70,-112.438 z
M 459.708,-81.5629 L 458.994,-81.9269 L 458.427,-82.4938 L 458.063,-83.2081 L 457.938,-84 L 458.063,-84.7919
 L 458.427,-85.5062 L 458.994,-86.0731 L 459.708,-86.4371 L 460.5,-86.5625 L 461.292,-86.4371 L 462.006,-86.0731
 L 462.573,-85.5062 L 462.937,-84.7919 L 463.062,-84 L 462.937,-83.2081 L 462.573,-82.4938 L 462.006,-81.9269
 L 461.292,-81.5629 L 460.5,-81.4375 z
M 69.521,-83.5258 L 69.0889,-83.746 L 68.746,-84.0889 L 68.5259,-84.521 L 68.45,-85 L 68.5259,-85.479
 L 68.746,-85.9111 L 69.0889,-86.254 L 69.521,-86.4741 L 70,-86.55 L 70.479,-86.4741 L 70.9111,-86.254
 L 71.254,-85.9111 L 71.4741,-85.479 L 71.55,-85 L 71.4741,-84.521 L 71.254,-84.0889 L 70.9111,-83.746
 L 70.479,-83.5258 L 70,-83.45 z
M 459.708,-67.5629 L 458.994,-67.9269 L 458.427,-68.4938 L 458.063,-69.2081 L 457.938,-70 L 458.063,-70.7919
 L 458.427,-71.5062 L 458.994,-72.0731 L 459.708,-72.4371 L 460.5,-72.5625 L 461.292,-72.4371 L 462.006,-72.0731
 L 462.573,-71.5062 L 462.937,-70.7919 L 463.062,-70 L 462.937,-69.2081 L 462.573,-68.4938 L 462.006,-67.9269
 L 461.292,-67.5629 L 460.5,-67.4375 z
M 69.521,-63.5259 L 69.0889,-63.746 L 68.746,-64.0889 L 68.5259,-64.521 L 68.45,-65 L 68.5259,-65.479
 L 68.746,-65.9111 L 69.0889,-66.254 L 69.521,-66.4741 L 70,-66.55 L 70.479,-66.4741 L 70.9111,-66.254
 L 71.254,-65.9111 L 71.4741,-65.479 L 71.55,-65 L 71.4741,-64.521 L 71.254,-64.0889 L 70.9111,-63.746
 L 70.479,-63.5259 L 70,-63.45 z
M 104.521,-38.5259 L 104.089,-38.746 L 103.746,-39.0889 L 103.526,-39.521 L 103.45,-40 L 103.526,-40.479
 L 103.746,-40.9111 L 104.089,-41.254 L 104.521,-41.4741 L 105,-41.55 L 105.479,-41.4741 L 105.911,-41.254
 L 106.254,-40.9111 L 106.474,-40.479 L 106.55,-40 L 106.474,-39.521 L 106.254,-39.0889 L 105.911,-38.746
 L 105.479,-38.5259 L 105,-38.45 z
M 264.521,-38.5259 L 264.089,-38.746 L 263.746,-39.0889 L 263.526,-39.521 L 263.45,-40 L 263.526,-40.479
 L 263.746,-40.9111 L 264.089,-41.254 L 264.521,-41.4741 L 265,-41.55 L 265.479,-41.4741 L 265.911,-41.254
 L 266.254,-40.9111 L 266.474,-40.479 L 266.55,-40 L 266.474,-39.521 L 266.254,-39.0889 L 265.911,-38.746
 L 265.479,-38.5259 L 265,-38.45 z
M 424.521,-38.5259 L 424.089,-38.746 L 423.746,-39.0889 L 423.526,-39.521 L 423.45,-40 L 423.526,-40.479
 L 423.746,-40.9111 L 424.089,-41.254 L 424.521,-41.4741 L 425,-41.55 L 425.479,-41.4741 L 425.911,-41.254
 L 426.254,-40.9111 L 426.474,-40.479 L 426.55,-40 L 426.474,-39.521 L 426.254,-39.0889 L 425.911,-38.746
 L 425.479,-38.5259 L 425,-38.45 z
" stroke="black" fill="lightgray" stroke-width="0.5"/>
</svg>
