<?xml version="1.0" standalone="no"?>
<!DOCTYPE svg PUBLIC "-//W3C//DTD SVG 1.1//EN" "http://www.w3.org/Graphics/SVG/1.1/DTD/svg11.dtd">
<svg width="490mm" height="475mm" viewBox="0 -475 490 475" xmlns="http://www.w3.org/2000/svg" version="1.1">
<title>OpenSCAD Model</title>
<path d="
M 490,-475 L 0,-475 L 0,-0 L 490,-0 z
M 49.521,-463.526 L 49.0889,-463.746 L 48.746,-464.089 L 48.5258,-464.521 L 48.45,-465 L 48.5258,-465.479
 L 48.746,-465.911 L 49.0889,-466.254 L 49.521,-466.474 L 50,-466.55 L 50.479,-466.474 L 50.9111,-466.254
 L 51.254,-465.911 L 51.4741,-465.479 L 51.55,-465 L 51.4741,-464.521 L 51.254,-464.089 L 50.9111,-463.746
 L 50.479,-463.526 L 50,-463.45 z
M 439.521,-463.526 L 439.089,-463.746 L 438.746,-464.089 L 438.526,-464.521 L 438.45,-465 L 438.526,-465.479
 L 438.746,-465.911 L 439.089,-466.254 L 439.521,-466.474 L 440,-466.55 L 440.479,-466.474 L 440.911,-466.254
 L 441.254,-465.911 L 441.474,-465.479 L 441.55,-465 L 441.474,-464.521 L 441.254,-464.089 L 440.911,-463.746
 L 440.479,-463.526 L 440,-463.45 z
M 147.021,-463.526 L 146.589,-463.746 L 146.246,-464.089 L 146.026,-464.521 L 145.95,-465 L 146.026,-465.479
 L 146.246,-465.911 L 146.589,-466.254 L 147.021,-466.474 L 147.5,-466.55 L 147.979,-466.474 L 148.411,-466.254
 L 148.754,-465.911 L 148.974,-465.479 L 149.05,-465 L 148.974,-464.521 L 148.754,-464.089 L 148.411,-463.746
 L 147.979,-463.526 L 147.5,-463.45 z
M 244.521,-463.526 L 244.089,-463.746 L 243.746,-464.089 L 243.526,-464.521 L 243.45,-465 L 243.526,-465.479
 L 243.746,-465.911 L 244.089,-466.254 L 244.521,-466.474 L 245,-466.55 L 245.479,-466.474 L 245.911,-466.254
 L 246.254,-465.911 L 246.474,-465.479 L 246.55,-465 L 246.474,-464.521 L 246.254,-464.089 L 245.911,-463.746
 L 245.479,-463.526 L 245,-463.45 z
M 342.021,-463.526 L 341.589,-463.746 L 341.246,-464.089 L 341.026,-464.521 L 340.95,-465 L 341.026,-465.479
 L 341.246,-465.911 L 341.589,-466.254 L 342.021,-466.474 L 342.5,-466.55 L 342.979,-466.474 L 343.411,-466.254
 L 343.754,-465.911 L 343.974,-465.479 L 344.05,-465 L 343.974,-464.521 L 343.754,-464.089 L 343.411,-463.746
 L 342.979,-463.526 L 342.5,-463.45 z
M 385.208,-440.563 L 384.494,-440.927 L 383.927,-441.494 L 383.563,-442.208 L 383.438,-443 L 383.563,-443.792
 L 383.927,-444.506 L 384.494,-445.073 L 385.208,-445.437 L 386,-445.562 L 386.792,-445.437 L 387.506,-445.073
 L 388.073,-444.506 L 388.437,-443.792 L 388.562,-443 L 388.437,-442.208 L 388.073,-441.494 L 387.506,-440.927
 L 386.792,-440.563 L 386,-440.438 z
M 457.208,-440.563 L 456.494,-440.927 L 455.927,-441.494 L 455.563,-442.208 L 455.438,-443 L 455.563,-443.792
 L 455.927,-444.506 L 456.494,-445.073 L 457.208,-445.437 L 458,-445.562 L 458.792,-445.437 L 459.506,-445.073
 L 460.073,-444.506 L 460.437,-443.792 L 460.562,-443 L 460.437,-442.208 L 460.073,-441.494 L 459.506,-440.927
 L 458.792,-440.563 L 458,-440.438 z
M 411.684,-374.213 L 401.928,-379.184 L 394.184,-386.928 L 389.213,-396.684 L 387.5,-407.5 L 389.213,-418.316
 L 394.184,-428.072 L 401.928,-435.816 L 411.684,-440.787 L 422.5,-442.5 L 433.316,-440.787 L 443.072,-435.816
 L 450.816,-428.072 L 455.787,-418.316 L 457.5,-407.5 L 455.787,-396.684 L 450.816,-386.928 L 443.072,-379.184
 L 433.316,-374.213 L 422.5,-372.5 z
M 9.52101,-423.526 L 9.08893,-423.746 L 8.74602,-424.089 L 8.52585,-424.521 L 8.45,-425 L 8.52585,-425.479
 L 8.74602,-425.911 L 9.08893,-426.254 L 9.52101,-426.474 L 10,-426.55 L 10.479,-426.474 L 10.9111,-426.254
 L 11.254,-425.911 L 11.4741,-425.479 L 11.55,-425 L 11.4741,-424.521 L 11.254,-424.089 L 10.9111,-423.746
 L 10.479,-423.526 L 10,-423.45 z
M 479.521,-423.526 L 479.089,-423.746 L 478.746,-424.089 L 478.526,-424.521 L 478.45,-425 L 478.526,-425.479
 L 478.746,-425.911 L 479.089,-426.254 L 479.521,-426.474 L 480,-426.55 L 480.479,-426.474 L 480.911,-426.254
 L 481.254,-425.911 L 481.474,-425.479 L 481.55,-425 L 481.474,-424.521 L 481.254,-424.089 L 480.911,-423.746
 L 480.479,-423.526 L 480,-423.45 z
M 457.208,-368.563 L 456.494,-368.927 L 455.927,-369.494 L 455.563,-370.208 L 455.438,-371 L 455.563,-371.792
 L 455.927,-372.506 L 456.494,-373.073 L 457.208,-373.437 L 458,-373.562 L 458.792,-373.437 L 459.506,-373.073
 L 460.073,-372.506 L 460.437,-371.792 L 460.562,-371 L 460.437,-370.208 L 460.073,-369.494 L 459.506,-368.927
 L 458.792,-368.563 L 458,-368.438 z
M 385.208,-368.563 L 384.494,-368.927 L 383.927,-369.494 L 383.563,-370.208 L 383.438,-371 L 383.563,-371.792
 L 383.927,-372.506 L 384.494,-373.073 L 385.208,-373.437 L 386,-373.562 L 386.792,-373.437 L 387.506,-373.073
 L 388.073,-372.506 L 388.437,-371.792 L 388.562,-371 L 388.437,-370.208 L 388.073,-369.494 L 387.506,-368.927
 L 386.792,-368.563 L 386,-368.438 z
M 9.52101,-329.776 L 9.08893,-329.996 L 8.74602,-330.339 L 8.52585,-330.771 L 8.45,-331.25 L 8.52585,-331.729
 L 8.74602,-332.161 L 9.08893,-332.504 L 9.52101,-332.724 L 10,-332.8 L 10.479,-332.724 L 10.9111,-332.504
 L 11.254,-332.161 L 11.4741,-331.729 L 11.55,-331.25 L 11.4741,-330.771 L 11.254,-330.339 L 10.9111,-329.996
 L 10.479,-329.776 L 10,-329.7 z
M 479.521,-329.776 L 479.089,-329.996 L 478.746,-330.339 L 478.526,-330.771 L 478.45,-331.25 L 478.526,-331.729
 L 478.746,-332.161 L 479.089,-332.504 L 479.521,-332.724 L 480,-332.8 L 480.479,-332.724 L 480.911,-332.504
 L 481.254,-332.161 L 481.474,-331.729 L 481.55,-331.25 L 481.474,-330.771 L 481.254,-330.339 L 480.911,-329.996
 L 480.479,-329.776 L 480,-329.7 z
M 105,-30 L 101.91,-30.4894 L 99.1222,-31.9098 L 96.9098,-34.1222 L 95.4894,-36.9098 L 95,-40
 L 95,-280 L 95.4894,-283.09 L 96.9098,-285.878 L 99.1222,-288.09 L 101.91,-289.511 L 105,-290
 L 425,-290 L 428.09,-289.511 L 430.878,-288.09 L 433.09,-285.878 L 434.511,-283.09 L 435,-280
 L 435,-40 L 434.511,-36.9098 L 433.09,-34.1222 L 430.878,-31.9098 L 428.09,-30.4894 L 425,-30
 z
M 425.479,-278.526 L 425.911,-278.746 L 426.254,-279.089 L 426.474,-279.521 L 426.55,-280 L 426.474,-280.479
 L 426.254,-280.911 L 425.911,-281.254 L 425.479,-281.474 L 425,-281.55 L 424.521,-281.474 L 424.089,-281.254
 L 423.746,-280.911 L 423.526,-280.479 L 423.45,-280 L 423.526,-279.521 L 423.746,-279.089 L 424.089,-278.746
 L 424.521,-278.526 L 425,-278.45 z
M 265.479,-278.526 L 265.911,-278.746 L 266.254,-279.089 L 266.474,-279.521 L 266.55,-280 L 266.474,-280.479
 L 266.254,-280.911 L 265.911,-281.254 L 265.479,-281.474 L 265,-281.55 L 264.521,-281.474 L 264.089,-281.254
 L 263.746,-280.911 L 263.526,-280.479 L 263.45,-280 L 263.526,-279.521 L 263.746,-279.089 L 264.089,-278.746
 L 264.521,-278.526 L 265,-278.45 z
M 105.479,-278.526 L 105.911,-278.746 L 106.254,-279.089 L 106.474,-279.521 L 106.55,-280 L 106.474,-280.479
 L 106.254,-280.911 L 105.911,-281.254 L 105.479,-281.474 L 105,-281.55 L 104.521,-281.474 L 104.089,-281.254
 L 103.746,-280.911 L 103.526,-280.479 L 103.45,-280 L 103.526,-279.521 L 103.746,-279.089 L 104.089,-278.746
 L 104.521,-278.526 L 105,-278.45 z
M 408.09,-50.4894 L 410.878,-51.9098 L 413.09,-54.1221 L 414.511,-56.9098 L 415,-60 L 415,-260
 L 414.511,-263.09 L 413.09,-265.878 L 410.878,-268.09 L 408.09,-269.511 L 405,-270 L 125,-270
 L 121.91,-269.511 L 119.122,-268.09 L 116.91,-265.878 L 115.489,-263.09 L 115,-260 L 115,-60
 L 115.489,-56.9098 L 116.91,-54.1221 L 119.122,-51.9098 L 121.91,-50.4894 L 125,-50 L 405,-50
 z
M 105.479,-38.5259 L 105.911,-38.746 L 106.254,-39.0889 L 106.474,-39.521 L 106.55,-40 L 106.474,-40.479
 L 106.254,-40.9111 L 105.911,-41.254 L 105.479,-41.4741 L 105,-41.55 L 104.521,-41.4741 L 104.089,-41.254
 L 103.746,-40.9111 L 103.526,-40.479 L 103.45,-40 L 103.526,-39.521 L 103.746,-39.0889 L 104.089,-38.746
 L 104.521,-38.5259 L 105,-38.45 z
M 265.479,-38.5259 L 265.911,-38.746 L 266.254,-39.0889 L 266.474,-39.521 L 266.55,-40 L 266.474,-40.479
 L 266.254,-40.9111 L 265.911,-41.254 L 265.479,-41.4741 L 265,-41.55 L 264.521,-41.4741 L 264.089,-41.254
 L 263.746,-40.9111 L 263.526,-40.479 L 263.45,-40 L 263.526,-39.521 L 263.746,-39.0889 L 264.089,-38.746
 L 264.521,-38.5259 L 265,-38.45 z
M 425.479,-38.5259 L 425.911,-38.746 L 426.254,-39.0889 L 426.474,-39.521 L 426.55,-40 L 426.474,-40.479
 L 426.254,-40.9111 L 425.911,-41.254 L 425.479,-41.4741 L 425,-41.55 L 424.521,-41.4741 L 424.089,-41.254
 L 423.746,-40.9111 L 423.526,-40.479 L 423.45,-40 L 423.526,-39.521 L 423.746,-39.0889 L 424.089,-38.746
 L 424.521,-38.5259 L 425,-38.45 z
M 479.208,-281.563 L 478.494,-281.927 L 477.927,-282.494 L 477.563,-283.208 L 477.438,-284 L 477.563,-284.792
 L 477.927,-285.506 L 478.494,-286.073 L 479.208,-286.437 L 480,-286.562 L 480.792,-286.437 L 481.506,-286.073
 L 482.073,-285.506 L 482.437,-284.792 L 482.562,-284 L 482.437,-283.208 L 482.073,-282.494 L 481.506,-281.927
 L 480.792,-281.563 L 480,-281.438 z
M 9.20813,-281.563 L 8.49379,-281.927 L 7.92688,-282.494 L 7.56291,-283.208 L 7.4375,-284 L 7.56291,-284.792
 L 7.92688,-285.506 L 8.49379,-286.073 L 9.20813,-286.437 L 10,-286.562 L 10.7919,-286.437 L 11.5062,-286.073
 L 12.0731,-285.506 L 12.4371,-284.792 L 12.5625,-284 L 12.4371,-283.208 L 12.0731,-282.494 L 11.5062,-281.927
 L 10.7919,-281.563 L 10,-281.438 z
M 69.521,-271.526 L 69.0889,-271.746 L 68.746,-272.089 L 68.5259,-272.521 L 68.45,-273 L 68.5259,-273.479
 L 68.746,-273.911 L 69.0889,-274.254 L 69.521,-274.474 L 70,-274.55 L 70.479,-274.474 L 70.9111,-274.254
 L 71.254,-273.911 L 71.4741,-273.479 L 71.55,-273 L 71.4741,-272.521 L 71.254,-272.089 L 70.9111,-271.746
 L 70.479,-271.526 L 70,-271.45 z
M 479.208,-267.563 L 478.494,-267.927 L 477.927,-268.494 L 477.563,-269.208 L 477.438,-270 L 477.563,-270.792
 L 477.927,-271.506 L 478.494,-272.073 L 479.208,-272.437 L 480,-272.562 L 480.792,-272.437 L 481.506,-272.073
 L 482.073,-271.506 L 482.437,-270.792 L 482.562,-270 L 482.437,-269.208 L 482.073,-268.494 L 481.506,-267.927
 L 480.792,-267.563 L 480,-267.438 z
M 9.20813,-267.563 L 8.49379,-267.927 L 7.92688,-268.494 L 7.56291,-269.208 L 7.4375,-270 L 7.56291,-270.792
 L 7.92688,-271.506 L 8.49379,-272.073 L 9.20813,-272.437 L 10,-272.562 L 10.7919,-272.437 L 11.5062,-272.073
 L 12.0731,-271.506 L 12.4371,-270.792 L 12.5625,-270 L 12.4371,-269.208 L 12.0731,-268.494 L 11.5062,-267.927
 L 10.7919,-267.563 L 10,-267.438 z
M 69.521,-251.526 L 69.0889,-251.746 L 68.746,-252.089 L 68.5259,-252.521 L 68.45,-253 L 68.5259,-253.479
 L 68.746,-253.911 L 69.0889,-254.254 L 69.521,-254.474 L 70,-254.55 L 70.479,-254.474 L 70.9111,-254.254
 L 71.254,-253.911 L 71.4741,-253.479 L 71.55,-253 L 71.4741,-252.521 L 71.254,-252.089 L 70.9111,-251.746
 L 70.479,-251.526 L 70,-251.45 z
M 479.521,-236.026 L 479.089,-236.246 L 478.746,-236.589 L 478.526,-237.021 L 478.45,-237.5 L 478.526,-237.979
 L 478.746,-238.411 L 479.089,-238.754 L 479.521,-238.974 L 480,-239.05 L 480.479,-238.974 L 480.911,-238.754
 L 481.254,-238.411 L 481.474,-237.979 L 481.55,-237.5 L 481.474,-237.021 L 481.254,-236.589 L 480.911,-236.246
 L 480.479,-236.026 L 480,-235.95 z
M 9.52101,-236.026 L 9.08893,-236.246 L 8.74602,-236.589 L 8.52585,-237.021 L 8.45,-237.5 L 8.52585,-237.979
 L 8.74602,-238.411 L 9.08893,-238.754 L 9.52101,-238.974 L 10,-239.05 L 10.479,-238.974 L 10.9111,-238.754
 L 11.254,-238.411 L 11.4741,-237.979 L 11.55,-237.5 L 11.4741,-237.021 L 11.254,-236.589 L 10.9111,-236.246
 L 10.479,-236.026 L 10,-235.95 z
M 68.7639,-201.196 L 67.6489,-201.764 L 66.7639,-202.649 L 66.1958,-203.764 L 66,-205 L 66.1958,-206.236
 L 66.7639,-207.351 L 67.6489,-208.236 L 68.7639,-208.804 L 70,-209 L 71.2361,-208.804 L 72.3511,-208.236
 L 73.2361,-207.351 L 73.8042,-206.236 L 74,-205 L 73.8042,-203.764 L 73.2361,-202.649 L 72.3511,-201.764
 L 71.2361,-201.196 L 70,-201 z
M 479.521,-142.276 L 479.089,-142.496 L 478.746,-142.839 L 478.526,-143.271 L 478.45,-143.75 L 478.526,-144.229
 L 478.746,-144.661 L 479.089,-145.004 L 479.521,-145.224 L 480,-145.3 L 480.479,-145.224 L 480.911,-145.004
 L 481.254,-144.661 L 481.474,-144.229 L 481.55,-143.75 L 481.474,-143.271 L 481.254,-142.839 L 480.911,-142.496
 L 480.479,-142.276 L 480,-142.2 z
M 9.52101,-142.276 L 9.08893,-142.496 L 8.74602,-142.839 L 8.52585,-143.271 L 8.45,-143.75 L 8.52585,-144.229
 L 8.74602,-144.661 L 9.08893,-145.004 L 9.52101,-145.224 L 10,-145.3 L 10.479,-145.224 L 10.9111,-145.004
 L 11.254,-144.661 L 11.4741,-144.229 L 11.55,-143.75 L 11.4741,-143.271 L 11.254,-142.839 L 10.9111,-142.496
 L 10.479,-142.276 L 10,-142.2 z
M 68.7639,-111.196 L 67.6489,-111.764 L 66.7639,-112.649 L 66.1958,-113.764 L 66,-115 L 66.1958,-116.236
 L 66.7639,-117.351 L 67.6489,-118.236 L 68.7639,-118.804 L 70,-119 L 71.2361,-118.804 L 72.3511,-118.236
 L 73.2361,-117.351 L 73.8042,-116.236 L 74,-115 L 73.8042,-113.764 L 73.2361,-112.649 L 72.3511,-111.764
 L 71.2361,-111.196 L 70,-111 z
M 9.20813,-81.5629 L 8.49379,-81.9269 L 7.92688,-82.4938 L 7.56291,-83.2081 L 7.4375,-84 L 7.56291,-84.7919
 L 7.92688,-85.5062 L 8.49379,-86.0731 L 9.20813,-86.4371 L 10,-86.5625 L 10.7919,-86.4371 L 11.5062,-86.0731
 L 12.0731,-85.5062 L 12.4371,-84.7919 L 12.5625,-84 L 12.4371,-83.2081 L 12.0731,-82.4938 L 11.5062,-81.9269
 L 10.7919,-81.5629 L 10,-81.4375 z
M 479.208,-81.5629 L 478.494,-81.9269 L 477.927,-82.4938 L 477.563,-83.2081 L 477.438,-84 L 477.563,-84.7919
 L 477.927,-85.5062 L 478.494,-86.0731 L 479.208,-86.4371 L 480,-86.5625 L 480.792,-86.4371 L 481.506,-86.0731
 L 482.073,-85.5062 L 482.437,-84.7919 L 482.562,-84 L 482.437,-83.2081 L 482.073,-82.4938 L 481.506,-81.9269
 L 480.792,-81.5629 L 480,-81.4375 z
M 69.521,-83.5258 L 69.0889,-83.746 L 68.746,-84.0889 L 68.5259,-84.521 L 68.45,-85 L 68.5259,-85.479
 L 68.746,-85.9111 L 69.0889,-86.254 L 69.521,-86.4741 L 70,-86.55 L 70.479,-86.4741 L 70.9111,-86.254
 L 71.254,-85.9111 L 71.4741,-85.479 L 71.55,-85 L 71.4741,-84.521 L 71.254,-84.0889 L 70.9111,-83.746
 L 70.479,-83.5258 L 70,-83.45 z
M 479.208,-67.5629 L 478.494,-67.9269 L 477.927,-68.4938 L 477.563,-69.2081 L 477.438,-70 L 477.563,-70.7919
 L 477.927,-71.5062 L 478.494,-72.0731 L 479.208,-72.4371 L 480,-72.5625 L 480.792,-72.4371 L 481.506,-72.0731
 L 482.073,-71.5062 L 482.437,-70.7919 L 482.562,-70 L 482.437,-69.2081 L 482.073,-68.4938 L 481.506,-67.9269
 L 480.792,-67.5629 L 480,-67.4375 z
M 9.20813,-67.5629 L 8.49379,-67.9269 L 7.92688,-68.4938 L 7.56291,-69.2081 L 7.4375,-70 L 7.56291,-70.7919
 L 7.92688,-71.5062 L 8.49379,-72.0731 L 9.20813,-72.4371 L 10,-72.5625 L 10.7919,-72.4371 L 11.5062,-72.0731
 L 12.0731,-71.5062 L 12.4371,-70.7919 L 12.5625,-70 L 12.4371,-69.2081 L 12.0731,-68.4938 L 11.5062,-67.9269
 L 10.7919,-67.5629 L 10,-67.4375 z
M 69.521,-63.5259 L 69.0889,-63.746 L 68.746,-64.0889 L 68.5259,-64.521 L 68.45,-65 L 68.5259,-65.479
 L 68.746,-65.9111 L 69.0889,-66.254 L 69.521,-66.4741 L 70,-66.55 L 70.479,-66.4741 L 70.9111,-66.254
 L 71.254,-65.9111 L 71.4741,-65.479 L 71.55,-65 L 71.4741,-64.521 L 71.254,-64.0889 L 70.9111,-63.746
 L 70.479,-63.5259 L 70,-63.45 z
M 479.521,-48.5258 L 479.089,-48.746 L 478.746,-49.0889 L 478.526,-49.521 L 478.45,-50 L 478.526,-50.479
 L 478.746,-50.9111 L 479.089,-51.254 L 479.521,-51.4741 L 480,-51.55 L 480.479,-51.4741 L 480.911,-51.254
 L 481.254,-50.9111 L 481.474,-50.479 L 481.55,-50 L 481.474,-49.521 L 481.254,-49.0889 L 480.911,-48.746
 L 480.479,-48.5258 L 480,-48.45 z
M 9.52101,-48.5258 L 9.08893,-48.746 L 8.74602,-49.0889 L 8.52585,-49.521 L 8.45,-50 L 8.52585,-50.479
 L 8.74602,-50.9111 L 9.08893,-51.254 L 9.52101,-51.4741 L 10,-51.55 L 10.479,-51.4741 L 10.9111,-51.254
 L 11.254,-50.9111 L 11.4741,-50.479 L 11.55,-50 L 11.4741,-49.521 L 11.254,-49.0889 L 10.9111,-48.746
 L 10.479,-48.5258 L 10,-48.45 z
M 244.521,-8.52585 L 244.089,-8.74602 L 243.746,-9.08893 L 243.526,-9.52101 L 243.45,-10 L 243.526,-10.479
 L 243.746,-10.9111 L 244.089,-11.254 L 244.521,-11.4741 L 245,-11.55 L 245.479,-11.4741 L 245.911,-11.254
 L 246.254,-10.9111 L 246.474,-10.479 L 246.55,-10 L 246.474,-9.52101 L 246.254,-9.08893 L 245.911,-8.74602
 L 245.479,-8.52585 L 245,-8.45 z
M 147.021,-8.52585 L 146.589,-8.74602 L 146.246,-9.08893 L 146.026,-9.52101 L 145.95,-10 L 146.026,-10.479
 L 146.246,-10.9111 L 146.589,-11.254 L 147.021,-11.4741 L 147.5,-11.55 L 147.979,-11.4741 L 148.411,-11.254
 L 148.754,-10.9111 L 148.974,-10.479 L 149.05,-10 L 148.974,-9.52101 L 148.754,-9.08893 L 148.411,-8.74602
 L 147.979,-8.52585 L 147.5,-8.45 z
M 439.521,-8.52585 L 439.089,-8.74602 L 438.746,-9.08893 L 438.526,-9.52101 L 438.45,-10 L 438.526,-10.479
 L 438.746,-10.9111 L 439.089,-11.254 L 439.521,-11.4741 L 440,-11.55 L 440.479,-11.4741 L 440.911,-11.254
 L 441.254,-10.9111 L 441.474,-10.479 L 441.55,-10 L 441.474,-9.52101 L 441.254,-9.08893 L 440.911,-8.74602
 L 440.479,-8.52585 L 440,-8.45 z
M 49.521,-8.52585 L 49.0889,-8.74602 L 48.746,-9.08893 L 48.5258,-9.52101 L 48.45,-10 L 48.5258,-10.479
 L 48.746,-10.9111 L 49.0889,-11.254 L 49.521,-11.4741 L 50,-11.55 L 50.479,-11.4741 L 50.9111,-11.254
 L 51.254,-10.9111 L 51.4741,-10.479 L 51.55,-10 L 51.4741,-9.52101 L 51.254,-9.08893 L 50.9111,-8.74602
 L 50.479,-8.52585 L 50,-8.45 z
M 342.021,-8.52585 L 341.589,-8.74602 L 341.246,-9.08893 L 341.026,-9.52101 L 340.95,-10 L 341.026,-10.479
 L 341.246,-10.9111 L 341.589,-11.254 L 342.021,-11.4741 L 342.5,-11.55 L 342.979,-11.4741 L 343.411,-11.254
 L 343.754,-10.9111 L 343.974,-10.479 L 344.05,-10 L 343.974,-9.52101 L 343.754,-9.08893 L 343.411,-8.74602
 L 342.979,-8.52585 L 342.5,-8.45 z
" stroke="black" fill="lightgray" stroke-width="0.5"/>
</svg>
