<?xml version="1.0" standalone="no"?>
<!DOCTYPE svg PUBLIC "-//W3C//DTD SVG 1.1//EN" "http://www.w3.org/Graphics/SVG/1.1/DTD/svg11.dtd">
<svg width="486mm" height="486mm" viewBox="2 -488 486 486" xmlns="http://www.w3.org/2000/svg" version="1.1">
<title>OpenSCAD Model</title>
<path d="
M 488,-488 L 2,-488 L 2,-2 L 488,-2 z
M 49.521,-478.526 L 49.0889,-478.746 L 48.746,-479.089 L 48.5258,-479.521 L 48.45,-480 L 48.5258,-480.479
 L 48.746,-480.911 L 49.0889,-481.254 L 49.521,-481.474 L 50,-481.55 L 50.479,-481.474 L 50.9111,-481.254
 L 51.254,-480.911 L 51.4741,-480.479 L 51.55,-480 L 51.4741,-479.521 L 51.254,-479.089 L 50.9111,-478.746
 L 50.479,-478.526 L 50,-478.45 z
M 244.521,-478.526 L 244.089,-478.746 L 243.746,-479.089 L 243.526,-479.521 L 243.45,-480 L 243.526,-480.479
 L 243.746,-480.911 L 244.089,-481.254 L 244.521,-481.474 L 245,-481.55 L 245.479,-481.474 L 245.911,-481.254
 L 246.254,-480.911 L 246.474,-480.479 L 246.55,-480 L 246.474,-479.521 L 246.254,-479.089 L 245.911,-478.746
 L 245.479,-478.526 L 245,-478.45 z
M 439.521,-478.526 L 439.089,-478.746 L 438.746,-479.089 L 438.526,-479.521 L 438.45,-480 L 438.526,-480.479
 L 438.746,-480.911 L 439.089,-481.254 L 439.521,-481.474 L 440,-481.55 L 440.479,-481.474 L 440.911,-481.254
 L 441.254,-480.911 L 441.474,-480.479 L 441.55,-480 L 441.474,-479.521 L 441.254,-479.089 L 440.911,-478.746
 L 440.479,-478.526 L 440,-478.45 z
M 457.208,-455.563 L 456.494,-455.927 L 455.927,-456.494 L 455.563,-457.208 L 455.438,-458 L 455.563,-458.792
 L 455.927,-459.506 L 456.494,-460.073 L 457.208,-460.437 L 458,-460.562 L 458.792,-460.437 L 459.506,-460.073
 L 460.073,-459.506 L 460.437,-458.792 L 460.562,-458 L 460.437,-457.208 L 460.073,-456.494 L 459.506,-455.927
 L 458.792,-455.563 L 458,-455.438 z
M 385.208,-455.563 L 384.494,-455.927 L 383.927,-456.494 L 383.563,-457.208 L 383.438,-458 L 383.563,-458.792
 L 383.927,-459.506 L 384.494,-460.073 L 385.208,-460.437 L 386,-460.562 L 386.792,-460.437 L 387.506,-460.073
 L 388.073,-459.506 L 388.437,-458.792 L 388.562,-458 L 388.437,-457.208 L 388.073,-456.494 L 387.506,-455.927
 L 386.792,-455.563 L 386,-455.438 z
M 411.684,-389.213 L 401.928,-394.184 L 394.184,-401.928 L 389.213,-411.684 L 387.5,-422.5 L 389.213,-433.316
 L 394.184,-443.072 L 401.928,-450.816 L 411.684,-455.787 L 422.5,-457.5 L 433.316,-455.787 L 443.072,-450.816
 L 450.816,-443.072 L 455.787,-433.316 L 457.5,-422.5 L 455.787,-411.684 L 450.816,-401.928 L 443.072,-394.184
 L 433.316,-389.213 L 422.5,-387.5 z
M 9.52101,-438.526 L 9.08893,-438.746 L 8.74602,-439.089 L 8.52585,-439.521 L 8.45,-440 L 8.52585,-440.479
 L 8.74602,-440.911 L 9.08893,-441.254 L 9.52101,-441.474 L 10,-441.55 L 10.479,-441.474 L 10.9111,-441.254
 L 11.254,-440.911 L 11.4741,-440.479 L 11.55,-440 L 11.4741,-439.521 L 11.254,-439.089 L 10.9111,-438.746
 L 10.479,-438.526 L 10,-438.45 z
M 479.521,-438.526 L 479.089,-438.746 L 478.746,-439.089 L 478.526,-439.521 L 478.45,-440 L 478.526,-440.479
 L 478.746,-440.911 L 479.089,-441.254 L 479.521,-441.474 L 480,-441.55 L 480.479,-441.474 L 480.911,-441.254
 L 481.254,-440.911 L 481.474,-440.479 L 481.55,-440 L 481.474,-439.521 L 481.254,-439.089 L 480.911,-438.746
 L 480.479,-438.526 L 480,-438.45 z
M 457.208,-383.563 L 456.494,-383.927 L 455.927,-384.494 L 455.563,-385.208 L 455.438,-386 L 455.563,-386.792
 L 455.927,-387.506 L 456.494,-388.073 L 457.208,-388.437 L 458,-388.562 L 458.792,-388.437 L 459.506,-388.073
 L 460.073,-387.506 L 460.437,-386.792 L 460.562,-386 L 460.437,-385.208 L 460.073,-384.494 L 459.506,-383.927
 L 458.792,-383.563 L 458,-383.438 z
M 385.208,-383.563 L 384.494,-383.927 L 383.927,-384.494 L 383.563,-385.208 L 383.438,-386 L 383.563,-386.792
 L 383.927,-387.506 L 384.494,-388.073 L 385.208,-388.437 L 386,-388.562 L 386.792,-388.437 L 387.506,-388.073
 L 388.073,-387.506 L 388.437,-386.792 L 388.562,-386 L 388.437,-385.208 L 388.073,-384.494 L 387.506,-383.927
 L 386.792,-383.563 L 386,-383.438 z
M 105,-30 L 101.91,-30.4894 L 99.1222,-31.9098 L 96.9098,-34.1222 L 95.4894,-36.9098 L 95,-40
 L 95,-280 L 95.4894,-283.09 L 96.9098,-285.878 L 99.1222,-288.09 L 101.91,-289.511 L 105,-290
 L 425,-290 L 428.09,-289.511 L 430.878,-288.09 L 433.09,-285.878 L 434.511,-283.09 L 435,-280
 L 435,-40 L 434.511,-36.9098 L 433.09,-34.1222 L 430.878,-31.9098 L 428.09,-30.4894 L 425,-30
 z
M 425.479,-278.526 L 425.911,-278.746 L 426.254,-279.089 L 426.474,-279.521 L 426.55,-280 L 426.474,-280.479
 L 426.254,-280.911 L 425.911,-281.254 L 425.479,-281.474 L 425,-281.55 L 424.521,-281.474 L 424.089,-281.254
 L 423.746,-280.911 L 423.526,-280.479 L 423.45,-280 L 423.526,-279.521 L 423.746,-279.089 L 424.089,-278.746
 L 424.521,-278.526 L 425,-278.45 z
M 265.479,-278.526 L 265.911,-278.746 L 266.254,-279.089 L 266.474,-279.521 L 266.55,-280 L 266.474,-280.479
 L 266.254,-280.911 L 265.911,-281.254 L 265.479,-281.474 L 265,-281.55 L 264.521,-281.474 L 264.089,-281.254
 L 263.746,-280.911 L 263.526,-280.479 L 263.45,-280 L 263.526,-279.521 L 263.746,-279.089 L 264.089,-278.746
 L 264.521,-278.526 L 265,-278.45 z
M 105.479,-278.526 L 105.911,-278.746 L 106.254,-279.089 L 106.474,-279.521 L 106.55,-280 L 106.474,-280.479
 L 106.254,-280.911 L 105.911,-281.254 L 105.479,-281.474 L 105,-281.55 L 104.521,-281.474 L 104.089,-281.254
 L 103.746,-280.911 L 103.526,-280.479 L 103.45,-280 L 103.526,-279.521 L 103.746,-279.089 L 104.089,-278.746
 L 104.521,-278.526 L 105,-278.45 z
M 408.09,-50.4894 L 410.878,-51.9098 L 413.09,-54.1221 L 414.511,-56.9098 L 415,-60 L 415,-260
 L 414.511,-263.09 L 413.09,-265.878 L 410.878,-268.09 L 408.09,-269.511 L 405,-270 L 125,-270
 L 121.91,-269.511 L 119.122,-268.09 L 116.91,-265.878 L 115.489,-263.09 L 115,-260 L 115,-60
 L 115.489,-56.9098 L 116.91,-54.1221 L 119.122,-51.9098 L 121.91,-50.4894 L 125,-50 L 405,-50
 z
M 105.479,-38.5259 L 105.911,-38.746 L 106.254,-39.0889 L 106.474,-39.521 L 106.55,-40 L 106.474,-40.479
 L 106.254,-40.9111 L 105.911,-41.254 L 105.479,-41.4741 L 105,-41.55 L 104.521,-41.4741 L 104.089,-41.254
 L 103.746,-40.9111 L 103.526,-40.479 L 103.45,-40 L 103.526,-39.521 L 103.746,-39.0889 L 104.089,-38.746
 L 104.521,-38.5259 L 105,-38.45 z
M 265.479,-38.5259 L 265.911,-38.746 L 266.254,-39.0889 L 266.474,-39.521 L 266.55,-40 L 266.474,-40.479
 L 266.254,-40.9111 L 265.911,-41.254 L 265.479,-41.4741 L 265,-41.55 L 264.521,-41.4741 L 264.089,-41.254
 L 263.746,-40.9111 L 263.526,-40.479 L 263.45,-40 L 263.526,-39.521 L 263.746,-39.0889 L 264.089,-38.746
 L 264.521,-38.5259 L 265,-38.45 z
M 425.479,-38.5259 L 425.911,-38.746 L 426.254,-39.0889 L 426.474,-39.521 L 426.55,-40 L 426.474,-40.479
 L 426.254,-40.9111 L 425.911,-41.254 L 425.479,-41.4741 L 425,-41.55 L 424.521,-41.4741 L 424.089,-41.254
 L 423.746,-40.9111 L 423.526,-40.479 L 423.45,-40 L 423.526,-39.521 L 423.746,-39.0889 L 424.089,-38.746
 L 424.521,-38.5259 L 425,-38.45 z
M 479.208,-281.563 L 478.494,-281.927 L 477.927,-282.494 L 477.563,-283.208 L 477.438,-284 L 477.563,-284.792
 L 477.927,-285.506 L 478.494,-286.073 L 479.208,-286.437 L 480,-286.562 L 480.792,-286.437 L 481.506,-286.073
 L 482.073,-285.506 L 482.437,-284.792 L 482.562,-284 L 482.437,-283.208 L 482.073,-282.494 L 481.506,-281.927
 L 480.792,-281.563 L 480,-281.438 z
M 9.20813,-281.563 L 8.49379,-281.927 L 7.92688,-282.494 L 7.56291,-283.208 L 7.4375,-284 L 7.56291,-284.792
 L 7.92688,-285.506 L 8.49379,-286.073 L 9.20813,-286.437 L 10,-286.562 L 10.7919,-286.437 L 11.5062,-286.073
 L 12.0731,-285.506 L 12.4371,-284.792 L 12.5625,-284 L 12.4371,-283.208 L 12.0731,-282.494 L 11.5062,-281.927
 L 10.7919,-281.563 L 10,-281.438 z
M 69.521,-271.526 L 69.0889,-271.746 L 68.746,-272.089 L 68.5259,-272.521 L 68.45,-273 L 68.5259,-273.479
 L 68.746,-273.911 L 69.0889,-274.254 L 69.521,-274.474 L 70,-274.55 L 70.479,-274.474 L 70.9111,-274.254
 L 71.254,-273.911 L 71.4741,-273.479 L 71.55,-273 L 71.4741,-272.521 L 71.254,-272.089 L 70.9111,-271.746
 L 70.479,-271.526 L 70,-271.45 z
M 9.20813,-267.563 L 8.49379,-267.927 L 7.92688,-268.494 L 7.56291,-269.208 L 7.4375,-270 L 7.56291,-270.792
 L 7.92688,-271.506 L 8.49379,-272.073 L 9.20813,-272.437 L 10,-272.562 L 10.7919,-272.437 L 11.5062,-272.073
 L 12.0731,-271.506 L 12.4371,-270.792 L 12.5625,-270 L 12.4371,-269.208 L 12.0731,-268.494 L 11.5062,-267.927
 L 10.7919,-267.563 L 10,-267.438 z
M 479.208,-267.563 L 478.494,-267.927 L 477.927,-268.494 L 477.563,-269.208 L 477.438,-270 L 477.563,-270.792
 L 477.927,-271.506 L 478.494,-272.073 L 479.208,-272.437 L 480,-272.562 L 480.792,-272.437 L 481.506,-272.073
 L 482.073,-271.506 L 482.437,-270.792 L 482.562,-270 L 482.437,-269.208 L 482.073,-268.494 L 481.506,-267.927
 L 480.792,-267.563 L 480,-267.438 z
M 69.521,-251.526 L 69.0889,-251.746 L 68.746,-252.089 L 68.5259,-252.521 L 68.45,-253 L 68.5259,-253.479
 L 68.746,-253.911 L 69.0889,-254.254 L 69.521,-254.474 L 70,-254.55 L 70.479,-254.474 L 70.9111,-254.254
 L 71.254,-253.911 L 71.4741,-253.479 L 71.55,-253 L 71.4741,-252.521 L 71.254,-252.089 L 70.9111,-251.746
 L 70.479,-251.526 L 70,-251.45 z
M 479.521,-243.526 L 479.089,-243.746 L 478.746,-244.089 L 478.526,-244.521 L 478.45,-245 L 478.526,-245.479
 L 478.746,-245.911 L 479.089,-246.254 L 479.521,-246.474 L 480,-246.55 L 480.479,-246.474 L 480.911,-246.254
 L 481.254,-245.911 L 481.474,-245.479 L 481.55,-245 L 481.474,-244.521 L 481.254,-244.089 L 480.911,-243.746
 L 480.479,-243.526 L 480,-243.45 z
M 9.52101,-243.526 L 9.08893,-243.746 L 8.74602,-244.089 L 8.52585,-244.521 L 8.45,-245 L 8.52585,-245.479
 L 8.74602,-245.911 L 9.08893,-246.254 L 9.52101,-246.474 L 10,-246.55 L 10.479,-246.474 L 10.9111,-246.254
 L 11.254,-245.911 L 11.4741,-245.479 L 11.55,-245 L 11.4741,-244.521 L 11.254,-244.089 L 10.9111,-243.746
 L 10.479,-243.526 L 10,-243.45 z
M 68.7639,-201.196 L 67.6489,-201.764 L 66.7639,-202.649 L 66.1958,-203.764 L 66,-205 L 66.1958,-206.236
 L 66.7639,-207.351 L 67.6489,-208.236 L 68.7639,-208.804 L 70,-209 L 71.2361,-208.804 L 72.3511,-208.236
 L 73.2361,-207.351 L 73.8042,-206.236 L 74,-205 L 73.8042,-203.764 L 73.2361,-202.649 L 72.3511,-201.764
 L 71.2361,-201.196 L 70,-201 z
M 68.7639,-111.196 L 67.6489,-111.764 L 66.7639,-112.649 L 66.1958,-113.764 L 66,-115 L 66.1958,-116.236
 L 66.7639,-117.351 L 67.6489,-118.236 L 68.7639,-118.804 L 70,-119 L 71.2361,-118.804 L 72.3511,-118.236
 L 73.2361,-117.351 L 73.8042,-116.236 L 74,-115 L 73.8042,-113.764 L 73.2361,-112.649 L 72.3511,-111.764
 L 71.2361,-111.196 L 70,-111 z
M 9.20813,-81.5629 L 8.49379,-81.9269 L 7.92688,-82.4938 L 7.56291,-83.2081 L 7.4375,-84 L 7.56291,-84.7919
 L 7.92688,-85.5062 L 8.49379,-86.0731 L 9.20813,-86.4371 L 10,-86.5625 L 10.7919,-86.4371 L 11.5062,-86.0731
 L 12.0731,-85.5062 L 12.4371,-84.7919 L 12.5625,-84 L 12.4371,-83.2081 L 12.0731,-82.4938 L 11.5062,-81.9269
 L 10.7919,-81.5629 L 10,-81.4375 z
M 479.208,-81.5629 L 478.494,-81.9269 L 477.927,-82.4938 L 477.563,-83.2081 L 477.438,-84 L 477.563,-84.7919
 L 477.927,-85.5062 L 478.494,-86.0731 L 479.208,-86.4371 L 480,-86.5625 L 480.792,-86.4371 L 481.506,-86.0731
 L 482.073,-85.5062 L 482.437,-84.7919 L 482.562,-84 L 482.437,-83.2081 L 482.073,-82.4938 L 481.506,-81.9269
 L 480.792,-81.5629 L 480,-81.4375 z
M 69.521,-83.5258 L 69.0889,-83.746 L 68.746,-84.0889 L 68.5259,-84.521 L 68.45,-85 L 68.5259,-85.479
 L 68.746,-85.9111 L 69.0889,-86.254 L 69.521,-86.4741 L 70,-86.55 L 70.479,-86.4741 L 70.9111,-86.254
 L 71.254,-85.9111 L 71.4741,-85.479 L 71.55,-85 L 71.4741,-84.521 L 71.254,-84.0889 L 70.9111,-83.746
 L 70.479,-83.5258 L 70,-83.45 z
M 479.208,-67.5629 L 478.494,-67.9269 L 477.927,-68.4938 L 477.563,-69.2081 L 477.438,-70 L 477.563,-70.7919
 L 477.927,-71.5062 L 478.494,-72.0731 L 479.208,-72.4371 L 480,-72.5625 L 480.792,-72.4371 L 481.506,-72.0731
 L 482.073,-71.5062 L 482.437,-70.7919 L 482.562,-70 L 482.437,-69.2081 L 482.073,-68.4938 L 481.506,-67.9269
 L 480.792,-67.5629 L 480,-67.4375 z
M 9.20813,-67.5629 L 8.49379,-67.9269 L 7.92688,-68.4938 L 7.56291,-69.2081 L 7.4375,-70 L 7.56291,-70.7919
 L 7.92688,-71.5062 L 8.49379,-72.0731 L 9.20813,-72.4371 L 10,-72.5625 L 10.7919,-72.4371 L 11.5062,-72.0731
 L 12.0731,-71.5062 L 12.4371,-70.7919 L 12.5625,-70 L 12.4371,-69.2081 L 12.0731,-68.4938 L 11.5062,-67.9269
 L 10.7919,-67.5629 L 10,-67.4375 z
M 69.521,-63.5259 L 69.0889,-63.746 L 68.746,-64.0889 L 68.5259,-64.521 L 68.45,-65 L 68.5259,-65.479
 L 68.746,-65.9111 L 69.0889,-66.254 L 69.521,-66.4741 L 70,-66.55 L 70.479,-66.4741 L 70.9111,-66.254
 L 71.254,-65.9111 L 71.4741,-65.479 L 71.55,-65 L 71.4741,-64.521 L 71.254,-64.0889 L 70.9111,-63.746
 L 70.479,-63.5259 L 70,-63.45 z
M 9.52101,-48.5258 L 9.08893,-48.746 L 8.74602,-49.0889 L 8.52585,-49.521 L 8.45,-50 L 8.52585,-50.479
 L 8.74602,-50.9111 L 9.08893,-51.254 L 9.52101,-51.4741 L 10,-51.55 L 10.479,-51.4741 L 10.9111,-51.254
 L 11.254,-50.9111 L 11.4741,-50.479 L 11.55,-50 L 11.4741,-49.521 L 11.254,-49.0889 L 10.9111,-48.746
 L 10.479,-48.5258 L 10,-48.45 z
M 479.521,-48.5258 L 479.089,-48.746 L 478.746,-49.0889 L 478.526,-49.521 L 478.45,-50 L 478.526,-50.479
 L 478.746,-50.9111 L 479.089,-51.254 L 479.521,-51.4741 L 480,-51.55 L 480.479,-51.4741 L 480.911,-51.254
 L 481.254,-50.9111 L 481.474,-50.479 L 481.55,-50 L 481.474,-49.521 L 481.254,-49.0889 L 480.911,-48.746
 L 480.479,-48.5258 L 480,-48.45 z
M 49.521,-8.52585 L 49.0889,-8.74602 L 48.746,-9.08893 L 48.5258,-9.52101 L 48.45,-10 L 48.5258,-10.479
 L 48.746,-10.9111 L 49.0889,-11.254 L 49.521,-11.4741 L 50,-11.55 L 50.479,-11.4741 L 50.9111,-11.254
 L 51.254,-10.9111 L 51.4741,-10.479 L 51.55,-10 L 51.4741,-9.52101 L 51.254,-9.08893 L 50.9111,-8.74602
 L 50.479,-8.52585 L 50,-8.45 z
M 439.521,-8.52585 L 439.089,-8.74602 L 438.746,-9.08893 L 438.526,-9.52101 L 438.45,-10 L 438.526,-10.479
 L 438.746,-10.9111 L 439.089,-11.254 L 439.521,-11.4741 L 440,-11.55 L 440.479,-11.4741 L 440.911,-11.254
 L 441.254,-10.9111 L 441.474,-10.479 L 441.55,-10 L 441.474,-9.52101 L 441.254,-9.08893 L 440.911,-8.74602
 L 440.479,-8.52585 L 440,-8.45 z
M 244.521,-8.52585 L 244.089,-8.74602 L 243.746,-9.08893 L 243.526,-9.52101 L 243.45,-10 L 243.526,-10.479
 L 243.746,-10.9111 L 244.089,-11.254 L 244.521,-11.4741 L 245,-11.55 L 245.479,-11.4741 L 245.911,-11.254
 L 246.254,-10.9111 L 246.474,-10.479 L 246.55,-10 L 246.474,-9.52101 L 246.254,-9.08893 L 245.911,-8.74602
 L 245.479,-8.52585 L 245,-8.45 z
" stroke="black" fill="lightgray" stroke-width="0.5"/>
</svg>
