<?xml version="1.0" standalone="no"?>
<!DOCTYPE svg PUBLIC "-//W3C//DTD SVG 1.1//EN" "http://www.w3.org/Graphics/SVG/1.1/DTD/svg11.dtd">
<svg width="18mm" height="44mm" viewBox="0 -22 18 44" xmlns="http://www.w3.org/2000/svg" version="1.1">
<title>OpenSCAD Model</title>
<path d="
M 16.618,21.9021 L 17.1756,21.618 L 17.618,21.1756 L 17.9021,20.618 L 18,20 L 18,-20
 L 17.9021,-20.618 L 17.618,-21.1756 L 17.1756,-21.618 L 16.618,-21.9021 L 16,-22 L 2,-22
 L 1.38196,-21.9021 L 0.824417,-21.618 L 0.381958,-21.1756 L 0.0978851,-20.618 L 0,-20 L 0,20
 L 0.0978851,20.618 L 0.381958,21.1756 L 0.824417,21.618 L 1.38196,21.9021 L 2,22 L 16,22
 z
M 9.20813,-4.56291 L 8.49379,-4.92688 L 7.92688,-5.49379 L 7.56291,-6.20813 L 7.4375,-7 L 7.56291,-7.79185
 L 7.92688,-8.5062 L 8.49379,-9.0731 L 9.20813,-9.43707 L 10,-9.5625 L 10.7919,-9.43707 L 11.5062,-9.0731
 L 12.0731,-8.5062 L 12.4371,-7.79185 L 12.5625,-7 L 12.4371,-6.20813 L 12.0731,-5.49379 L 11.5062,-4.92688
 L 10.7919,-4.56291 L 10,-4.4375 z
M 9.20813,9.43707 L 8.49379,9.0731 L 7.92688,8.5062 L 7.56291,7.79185 L 7.4375,7 L 7.56291,6.20813
 L 7.92688,5.49379 L 8.49379,4.92688 L 9.20813,4.56291 L 10,4.4375 L 10.7919,4.56291 L 11.5062,4.92688
 L 12.0731,5.49379 L 12.4371,6.20813 L 12.5625,7 L 12.4371,7.79185 L 12.0731,8.5062 L 11.5062,9.0731
 L 10.7919,9.43707 L 10,9.5625 z
" stroke="black" fill="lightgray" stroke-width="0.5"/>
</svg>
