<?xml version="1.0" encoding="UTF-8" standalone="no"?>
<svg
   xmlns:dc="http://purl.org/dc/elements/1.1/"
   xmlns:cc="http://creativecommons.org/ns#"
   xmlns:rdf="http://www.w3.org/1999/02/22-rdf-syntax-ns#"
   xmlns:svg="http://www.w3.org/2000/svg"
   xmlns="http://www.w3.org/2000/svg"
   xmlns:sodipodi="http://sodipodi.sourceforge.net/DTD/sodipodi-0.dtd"
   xmlns:inkscape="http://www.inkscape.org/namespaces/inkscape"
   width="210mm"
   height="297mm"
   viewBox="0 0 210 297"
   version="1.1"
   id="svg8"
   inkscape:version="1.0.1 (c497b03c, 2020-09-10)"
   sodipodi:docname="Left.svg">
  <defs
     id="defs2">
    <marker
       id="DistanceX"
       orient="auto"
       refX="0.0"
       refY="0.0"
       style="overflow:visible">
      <path
         d="M 3,-3 L -3,3 M 0,-5 L  0,5"
         style="stroke:#000000; stroke-width:0.5"
         id="path851" />
    </marker>
    <pattern
       id="Hatch"
       patternUnits="userSpaceOnUse"
       width="8"
       height="8"
       x="0"
       y="0">
      <path
         d="M8 4 l-4,4"
         stroke="#000000"
         stroke-width="0.25"
         linecap="square"
         id="path854" />
      <path
         d="M6 2 l-4,4"
         stroke="#000000"
         stroke-width="0.25"
         linecap="square"
         id="path856" />
      <path
         d="M4 0 l-4,4"
         stroke="#000000"
         stroke-width="0.25"
         linecap="square"
         id="path858" />
    </pattern>
  </defs>
  <sodipodi:namedview
     id="base"
     pagecolor="#ffffff"
     bordercolor="#666666"
     borderopacity="1.0"
     inkscape:pageopacity="0.0"
     inkscape:pageshadow="2"
     inkscape:zoom="0.76"
     inkscape:cx="337.95178"
     inkscape:cy="1556.5984"
     inkscape:document-units="mm"
     inkscape:current-layer="layer1"
     inkscape:document-rotation="0"
     showgrid="false"
     inkscape:window-width="1252"
     inkscape:window-height="715"
     inkscape:window-x="0"
     inkscape:window-y="25"
     inkscape:window-maximized="0" />
  <metadata
     id="metadata5">
    <rdf:RDF>
      <cc:Work
         rdf:about="">
        <dc:format>image/svg+xml</dc:format>
        <dc:type
           rdf:resource="http://purl.org/dc/dcmitype/StillImage" />
        <dc:title></dc:title>
      </cc:Work>
    </rdf:RDF>
  </metadata>
  <g
     inkscape:label="Layer 1"
     inkscape:groupmode="layer"
     id="layer1">
    <g
       inkscape:label="0"
       id="g1545"
       transform="matrix(0.26458333,0,0,0.26458333,1.1306635,158.13066)">
      <path
         d="m 1288.097,1126.1142 1.0545,-0.5369"
         style="fill:none;stroke:#000000"
         id="path865" />
      <path
         d="m 1289.1515,1125.5773 0.8353,-0.8361"
         style="fill:none;stroke:#000000"
         id="path867" />
      <path
         d="m 1289.9868,1124.7412 0.5367,-1.0536"
         style="fill:none;stroke:#000000"
         id="path869" />
      <path
         d="m 1290.5235,1123.6876 0.1852,-1.1679"
         style="fill:none;stroke:#000000"
         id="path871" />
      <path
         d="m 1290.7087,1122.5197 h 425.1968"
         style="fill:none;stroke:#000000"
         id="path873" />
      <path
         d="M 1715.9055,1122.5197 V 840.31484"
         style="fill:none;stroke:#000000"
         id="path875" />
      <path
         d="m 1715.9055,840.31484 1.1679,-0.18482"
         style="fill:none;stroke:#000000"
         id="path877" />
      <path
         d="m 1717.0734,840.13002 1.0545,-0.5367"
         style="fill:none;stroke:#000000"
         id="path879" />
      <path
         d="m 1718.1279,839.59332 0.8353,-0.83641"
         style="fill:none;stroke:#000000"
         id="path881" />
      <path
         d="m 1718.9632,838.75691 0.5366,-1.05335"
         style="fill:none;stroke:#000000"
         id="path883" />
      <path
         d="m 1719.4998,837.70356 0.1852,-1.16825"
         style="fill:none;stroke:#000000"
         id="path885" />
      <path
         d="m 1719.685,836.53531 -0.1852,-1.16788"
         style="fill:none;stroke:#000000"
         id="path887" />
      <path
         d="m 1719.4998,835.36743 -0.5366,-1.05335"
         style="fill:none;stroke:#000000"
         id="path889" />
      <path
         d="m 1718.9632,834.31408 -0.8353,-0.83641"
         style="fill:none;stroke:#000000"
         id="path891" />
      <path
         d="m 1718.1279,833.47767 -1.0545,-0.53669"
         style="fill:none;stroke:#000000"
         id="path893" />
      <path
         d="m 1717.0734,832.94098 -1.1679,-0.1852"
         style="fill:none;stroke:#000000"
         id="path895" />
      <path
         d="M 1715.9055,832.75578 V 554.33197"
         style="fill:none;stroke:#000000"
         id="path897" />
      <path
         d="m 1715.9055,554.33197 1.1679,-0.1852"
         style="fill:none;stroke:#000000"
         id="path899" />
      <path
         d="m 1717.0734,554.14677 1.0545,-0.53669"
         style="fill:none;stroke:#000000"
         id="path901" />
      <path
         d="m 1718.1279,553.61008 0.8353,-0.83906"
         style="fill:none;stroke:#000000"
         id="path903" />
      <path
         d="m 1718.9632,552.77102 0.5366,-1.0507"
         style="fill:none;stroke:#000000"
         id="path905" />
      <path
         d="m 1719.4998,551.72032 0.1852,-1.16788"
         style="fill:none;stroke:#000000"
         id="path907" />
      <path
         d="m 1719.685,550.55244 -0.1852,-1.16787"
         style="fill:none;stroke:#000000"
         id="path909" />
      <path
         d="m 1719.4998,549.38457 -0.5366,-1.05449"
         style="fill:none;stroke:#000000"
         id="path911" />
      <path
         d="m 1718.9632,548.33008 -0.8353,-0.83528"
         style="fill:none;stroke:#000000"
         id="path913" />
      <path
         d="m 1718.1279,547.4948 -1.0545,-0.53669"
         style="fill:none;stroke:#000000"
         id="path915" />
      <path
         d="m 1717.0734,546.95811 -1.1679,-0.1852"
         style="fill:none;stroke:#000000"
         id="path917" />
      <path
         d="M 1715.9055,546.77291 V 268.34646"
         style="fill:none;stroke:#000000"
         id="path919" />
      <path
         d="m 1715.9055,268.34646 1.1679,-0.1852"
         style="fill:none;stroke:#000000"
         id="path921" />
      <path
         d="m 1717.0734,268.16126 1.0545,-0.53669"
         style="fill:none;stroke:#000000"
         id="path923" />
      <path
         d="m 1718.1279,267.62457 0.8353,-0.83528"
         style="fill:none;stroke:#000000"
         id="path925" />
      <path
         d="m 1718.9632,266.78929 0.5366,-1.05449"
         style="fill:none;stroke:#000000"
         id="path927" />
      <path
         d="m 1719.4998,265.7348 0.1852,-1.16787"
         style="fill:none;stroke:#000000"
         id="path929" />
      <path
         d="m 1719.685,264.56693 -0.1852,-1.16788"
         style="fill:none;stroke:#000000"
         id="path931" />
      <path
         d="m 1719.4998,263.39905 -0.5366,-1.05448"
         style="fill:none;stroke:#000000"
         id="path933" />
      <path
         d="m 1718.9632,262.34457 -0.8353,-0.83528"
         style="fill:none;stroke:#000000"
         id="path935" />
      <path
         d="m 1718.1279,261.50929 -1.0545,-0.53669"
         style="fill:none;stroke:#000000"
         id="path937" />
      <path
         d="m 1717.0734,260.9726 -1.1679,-0.1852"
         style="fill:none;stroke:#000000"
         id="path939" />
      <path
         d="M 1715.9055,260.7874 V -17.639055"
         style="fill:none;stroke:#000000"
         id="path941" />
      <path
         d="m 1715.9055,-17.639055 1.1679,-0.185197"
         style="fill:none;stroke:#000000"
         id="path943" />
      <path
         d="m 1717.0734,-17.824252 1.0545,-0.536693"
         style="fill:none;stroke:#000000"
         id="path945" />
      <path
         d="m 1718.1279,-18.360945 0.8353,-0.835275"
         style="fill:none;stroke:#000000"
         id="path947" />
      <path
         d="m 1718.9632,-19.19622 0.5366,-1.054489"
         style="fill:none;stroke:#000000"
         id="path949" />
      <path
         d="m 1719.4998,-20.250709 0.1852,-1.167874"
         style="fill:none;stroke:#000000"
         id="path951" />
      <path
         d="m 1719.685,-21.418583 -0.1852,-1.167874"
         style="fill:none;stroke:#000000"
         id="path953" />
      <path
         d="m 1719.4998,-22.586457 -0.5366,-1.050708"
         style="fill:none;stroke:#000000"
         id="path955" />
      <path
         d="m 1718.9632,-23.637165 -0.8353,-0.839055"
         style="fill:none;stroke:#000000"
         id="path957" />
      <path
         d="m 1718.1279,-24.47622 -1.0545,-0.536693"
         style="fill:none;stroke:#000000"
         id="path959" />
      <path
         d="m 1717.0734,-25.012913 -1.1679,-0.185197"
         style="fill:none;stroke:#000000"
         id="path961" />
      <path
         d="M 1715.9055,-25.19811 V -303.62079"
         style="fill:none;stroke:#000000"
         id="path963" />
      <path
         d="m 1715.9055,-303.62079 1.1679,-0.18519"
         style="fill:none;stroke:#000000"
         id="path965" />
      <path
         d="m 1717.0734,-303.80598 1.0545,-0.5367"
         style="fill:none;stroke:#000000"
         id="path967" />
      <path
         d="m 1718.1279,-304.34268 0.8353,-0.83905"
         style="fill:none;stroke:#000000"
         id="path969" />
      <path
         d="m 1718.9632,-305.18173 0.5366,-1.05071"
         style="fill:none;stroke:#000000"
         id="path971" />
      <path
         d="m 1719.4998,-306.23244 0.1852,-1.16787"
         style="fill:none;stroke:#000000"
         id="path973" />
      <path
         d="m 1719.685,-307.40031 -0.1852,-1.16788"
         style="fill:none;stroke:#000000"
         id="path975" />
      <path
         d="m 1719.4998,-308.56819 -0.5366,-1.05449"
         style="fill:none;stroke:#000000"
         id="path977" />
      <path
         d="m 1718.9632,-309.62268 -0.8353,-0.83527"
         style="fill:none;stroke:#000000"
         id="path979" />
      <path
         d="m 1718.1279,-310.45795 -1.0545,-0.5367"
         style="fill:none;stroke:#000000"
         id="path981" />
      <path
         d="m 1717.0734,-310.99465 -1.1679,-0.18519"
         style="fill:none;stroke:#000000"
         id="path983" />
      <path
         d="M 1715.9055,-311.17984 V -593.38583"
         style="fill:none;stroke:#000000"
         id="path985" />
      <path
         d="M 1715.9055,-593.38583 H 1290.7087"
         style="fill:none;stroke:#000000"
         id="path987" />
      <path
         d="m 1290.7087,-593.38583 -0.1852,-1.16787"
         style="fill:none;stroke:#000000"
         id="path989" />
      <path
         d="m 1290.5235,-594.5537 -0.5367,-1.05449"
         style="fill:none;stroke:#000000"
         id="path991" />
      <path
         d="m 1289.9868,-595.60819 -0.8353,-0.83527"
         style="fill:none;stroke:#000000"
         id="path993" />
      <path
         d="m 1289.1515,-596.44346 -1.0545,-0.5367"
         style="fill:none;stroke:#000000"
         id="path995" />
      <path
         d="m 1288.097,-596.98016 -1.1679,-0.18519"
         style="fill:none;stroke:#000000"
         id="path997" />
      <path
         d="m 1286.9291,-597.16535 -1.1678,0.18519"
         style="fill:none;stroke:#000000"
         id="path999" />
      <path
         d="m 1285.7613,-596.98016 -1.0545,0.5367"
         style="fill:none;stroke:#000000"
         id="path1001" />
      <path
         d="m 1284.7068,-596.44346 -0.8353,0.83527"
         style="fill:none;stroke:#000000"
         id="path1003" />
      <path
         d="m 1283.8715,-595.60819 -0.5367,1.05449"
         style="fill:none;stroke:#000000"
         id="path1005" />
      <path
         d="m 1283.3348,-594.5537 -0.1852,1.16787"
         style="fill:none;stroke:#000000"
         id="path1007" />
      <path
         d="M 1283.1496,-593.38583 H 861.73228"
         style="fill:none;stroke:#000000"
         id="path1009" />
      <path
         d="m 861.73228,-593.38583 -0.18519,-1.16787"
         style="fill:none;stroke:#000000"
         id="path1011" />
      <path
         d="m 861.54709,-594.5537 -0.5367,-1.05449"
         style="fill:none;stroke:#000000"
         id="path1013" />
      <path
         d="m 861.01039,-595.60819 -0.83527,-0.83527"
         style="fill:none;stroke:#000000"
         id="path1015" />
      <path
         d="m 860.17512,-596.44346 -1.05449,-0.5367"
         style="fill:none;stroke:#000000"
         id="path1017" />
      <path
         d="m 859.12063,-596.98016 -1.16787,-0.18519"
         style="fill:none;stroke:#000000"
         id="path1019" />
      <path
         d="m 857.95276,-597.16535 -1.16788,0.18519"
         style="fill:none;stroke:#000000"
         id="path1021" />
      <path
         d="m 856.78488,-596.98016 -1.05449,0.5367"
         style="fill:none;stroke:#000000"
         id="path1023" />
      <path
         d="m 855.73039,-596.44346 -0.83527,0.83527"
         style="fill:none;stroke:#000000"
         id="path1025" />
      <path
         d="m 854.89512,-595.60819 -0.5367,1.05449"
         style="fill:none;stroke:#000000"
         id="path1027" />
      <path
         d="m 854.35842,-594.5537 -0.18519,1.16787"
         style="fill:none;stroke:#000000"
         id="path1029" />
      <path
         d="M 854.17323,-593.38583 H 432.75591"
         style="fill:none;stroke:#000000"
         id="path1031" />
      <path
         d="m 432.75591,-593.38583 -0.1852,-1.16787"
         style="fill:none;stroke:#000000"
         id="path1033" />
      <path
         d="m 432.57071,-594.5537 -0.53669,-1.05449"
         style="fill:none;stroke:#000000"
         id="path1035" />
      <path
         d="m 432.03402,-595.60819 -0.83528,-0.83527"
         style="fill:none;stroke:#000000"
         id="path1037" />
      <path
         d="m 431.19874,-596.44346 -1.05449,-0.5367"
         style="fill:none;stroke:#000000"
         id="path1039" />
      <path
         d="m 430.14425,-596.98016 -1.16787,-0.18519"
         style="fill:none;stroke:#000000"
         id="path1041" />
      <path
         d="m 428.97638,-597.16535 -1.16788,0.18519"
         style="fill:none;stroke:#000000"
         id="path1043" />
      <path
         d="m 427.8085,-596.98016 -1.05448,0.5367"
         style="fill:none;stroke:#000000"
         id="path1045" />
      <path
         d="m 426.75402,-596.44346 -0.83528,0.83527"
         style="fill:none;stroke:#000000"
         id="path1047" />
      <path
         d="m 425.91874,-595.60819 -0.53669,1.05449"
         style="fill:none;stroke:#000000"
         id="path1049" />
      <path
         d="m 425.38205,-594.5537 -0.1852,1.16787"
         style="fill:none;stroke:#000000"
         id="path1051" />
      <path
         d="M 425.19685,-593.38583 H 0"
         style="fill:none;stroke:#000000"
         id="path1053" />
      <path
         d="m 0,-593.38583 v 282.20599"
         style="fill:none;stroke:#000000"
         id="path1055" />
      <path
         d="m 0,-311.17984 -1.167897,0.18519"
         style="fill:none;stroke:#000000"
         id="path1057" />
      <path
         d="m -1.167897,-310.99465 -1.053649,0.5367"
         style="fill:none;stroke:#000000"
         id="path1059" />
      <path
         d="m -2.221546,-310.45795 -0.836114,0.83527"
         style="fill:none;stroke:#000000"
         id="path1061" />
      <path
         d="m -3.05766,-309.62268 -0.53686,1.05449"
         style="fill:none;stroke:#000000"
         id="path1063" />
      <path
         d="m -3.59452,-308.56819 -0.185008,1.16788"
         style="fill:none;stroke:#000000"
         id="path1065" />
      <path
         d="m -3.779528,-307.40031 0.185008,1.16787"
         style="fill:none;stroke:#000000"
         id="path1067" />
      <path
         d="m -3.59452,-306.23244 0.53686,1.05071"
         style="fill:none;stroke:#000000"
         id="path1069" />
      <path
         d="m -3.05766,-305.18173 0.836114,0.83905"
         style="fill:none;stroke:#000000"
         id="path1071" />
      <path
         d="m -2.221546,-304.34268 1.053649,0.5367"
         style="fill:none;stroke:#000000"
         id="path1073" />
      <path
         d="M -1.167897,-303.80598 0,-303.62079"
         style="fill:none;stroke:#000000"
         id="path1075" />
      <path
         d="M 0,-303.62079 V -25.19811"
         style="fill:none;stroke:#000000"
         id="path1077" />
      <path
         d="m 0,-25.19811 -1.167897,0.185197"
         style="fill:none;stroke:#000000"
         id="path1079" />
      <path
         d="m -1.167897,-25.012913 -1.053649,0.536693"
         style="fill:none;stroke:#000000"
         id="path1081" />
      <path
         d="m -2.221546,-24.47622 -0.836114,0.839055"
         style="fill:none;stroke:#000000"
         id="path1083" />
      <path
         d="m -3.05766,-23.637165 -0.53686,1.050708"
         style="fill:none;stroke:#000000"
         id="path1085" />
      <path
         d="m -3.59452,-22.586457 -0.185008,1.167874"
         style="fill:none;stroke:#000000"
         id="path1087" />
      <path
         d="m -3.779528,-21.418583 0.185008,1.167874"
         style="fill:none;stroke:#000000"
         id="path1089" />
      <path
         d="m -3.59452,-20.250709 0.53686,1.054489"
         style="fill:none;stroke:#000000"
         id="path1091" />
      <path
         d="m -3.05766,-19.19622 0.836114,0.835275"
         style="fill:none;stroke:#000000"
         id="path1093" />
      <path
         d="m -2.221546,-18.360945 1.053649,0.536693"
         style="fill:none;stroke:#000000"
         id="path1095" />
      <path
         d="M -1.167897,-17.824252 0,-17.639055"
         style="fill:none;stroke:#000000"
         id="path1097" />
      <path
         d="M 0,-17.639055 V 260.7874"
         style="fill:none;stroke:#000000"
         id="path1099" />
      <path
         d="m 0,260.7874 -1.167897,0.1852"
         style="fill:none;stroke:#000000"
         id="path1101" />
      <path
         d="m -1.167897,260.9726 -1.053649,0.53669"
         style="fill:none;stroke:#000000"
         id="path1103" />
      <path
         d="m -2.221546,261.50929 -0.836114,0.83528"
         style="fill:none;stroke:#000000"
         id="path1105" />
      <path
         d="m -3.05766,262.34457 -0.53686,1.05448"
         style="fill:none;stroke:#000000"
         id="path1107" />
      <path
         d="m -3.59452,263.39905 -0.185008,1.16788"
         style="fill:none;stroke:#000000"
         id="path1109" />
      <path
         d="m -3.779528,264.56693 0.185008,1.16787"
         style="fill:none;stroke:#000000"
         id="path1111" />
      <path
         d="m -3.59452,265.7348 0.53686,1.05449"
         style="fill:none;stroke:#000000"
         id="path1113" />
      <path
         d="m -3.05766,266.78929 0.836114,0.83528"
         style="fill:none;stroke:#000000"
         id="path1115" />
      <path
         d="m -2.221546,267.62457 1.053649,0.53669"
         style="fill:none;stroke:#000000"
         id="path1117" />
      <path
         d="M -1.167897,268.16126 0,268.34646"
         style="fill:none;stroke:#000000"
         id="path1119" />
      <path
         d="M 0,268.34646 V 546.77291"
         style="fill:none;stroke:#000000"
         id="path1121" />
      <path
         d="m 0,546.77291 -1.167897,0.1852"
         style="fill:none;stroke:#000000"
         id="path1123" />
      <path
         d="m -1.167897,546.95811 -1.053649,0.53669"
         style="fill:none;stroke:#000000"
         id="path1125" />
      <path
         d="m -2.221546,547.4948 -0.836114,0.83528"
         style="fill:none;stroke:#000000"
         id="path1127" />
      <path
         d="m -3.05766,548.33008 -0.53686,1.05449"
         style="fill:none;stroke:#000000"
         id="path1129" />
      <path
         d="m -3.59452,549.38457 -0.185008,1.16787"
         style="fill:none;stroke:#000000"
         id="path1131" />
      <path
         d="m -3.779528,550.55244 0.185008,1.16788"
         style="fill:none;stroke:#000000"
         id="path1133" />
      <path
         d="m -3.59452,551.72032 0.53686,1.0507"
         style="fill:none;stroke:#000000"
         id="path1135" />
      <path
         d="m -3.05766,552.77102 0.836114,0.83906"
         style="fill:none;stroke:#000000"
         id="path1137" />
      <path
         d="m -2.221546,553.61008 1.053649,0.53669"
         style="fill:none;stroke:#000000"
         id="path1139" />
      <path
         d="M -1.167897,554.14677 0,554.33197"
         style="fill:none;stroke:#000000"
         id="path1141" />
      <path
         d="M 0,554.33197 V 832.75578"
         style="fill:none;stroke:#000000"
         id="path1143" />
      <path
         d="m 0,832.75578 -1.167897,0.1852"
         style="fill:none;stroke:#000000"
         id="path1145" />
      <path
         d="m -1.167897,832.94098 -1.053649,0.53669"
         style="fill:none;stroke:#000000"
         id="path1147" />
      <path
         d="m -2.221546,833.47767 -0.836114,0.83641"
         style="fill:none;stroke:#000000"
         id="path1149" />
      <path
         d="m -3.05766,834.31408 -0.53686,1.05335"
         style="fill:none;stroke:#000000"
         id="path1151" />
      <path
         d="m -3.59452,835.36743 -0.185008,1.16788"
         style="fill:none;stroke:#000000"
         id="path1153" />
      <path
         d="m -3.779528,836.53531 0.185008,1.16825"
         style="fill:none;stroke:#000000"
         id="path1155" />
      <path
         d="m -3.59452,837.70356 0.53686,1.05335"
         style="fill:none;stroke:#000000"
         id="path1157" />
      <path
         d="m -3.05766,838.75691 0.836114,0.83641"
         style="fill:none;stroke:#000000"
         id="path1159" />
      <path
         d="m -2.221546,839.59332 1.053649,0.5367"
         style="fill:none;stroke:#000000"
         id="path1161" />
      <path
         d="M -1.167897,840.13002 0,840.31484"
         style="fill:none;stroke:#000000"
         id="path1163" />
      <path
         d="M 0,840.31484 V 1122.5197"
         style="fill:none;stroke:#000000"
         id="path1165" />
      <path
         d="M 0,1122.5197 H 425.19685"
         style="fill:none;stroke:#000000"
         id="path1167" />
      <path
         d="m 425.19685,1122.5197 0.1852,1.1679"
         style="fill:none;stroke:#000000"
         id="path1169" />
      <path
         d="m 425.38205,1123.6876 0.53669,1.0536"
         style="fill:none;stroke:#000000"
         id="path1171" />
      <path
         d="m 425.91874,1124.7412 0.83528,0.8361"
         style="fill:none;stroke:#000000"
         id="path1173" />
      <path
         d="m 426.75402,1125.5773 1.05448,0.5369"
         style="fill:none;stroke:#000000"
         id="path1175" />
      <path
         d="m 427.8085,1126.1142 1.16788,0.185"
         style="fill:none;stroke:#000000"
         id="path1177" />
      <path
         d="m 428.97638,1126.2992 1.16787,-0.185"
         style="fill:none;stroke:#000000"
         id="path1179" />
      <path
         d="m 430.14425,1126.1142 1.05449,-0.5369"
         style="fill:none;stroke:#000000"
         id="path1181" />
      <path
         d="m 431.19874,1125.5773 0.83528,-0.8361"
         style="fill:none;stroke:#000000"
         id="path1183" />
      <path
         d="m 432.03402,1124.7412 0.53669,-1.0536"
         style="fill:none;stroke:#000000"
         id="path1185" />
      <path
         d="m 432.57071,1123.6876 0.1852,-1.1679"
         style="fill:none;stroke:#000000"
         id="path1187" />
      <path
         d="M 432.75591,1122.5197 H 854.17323"
         style="fill:none;stroke:#000000"
         id="path1189" />
      <path
         d="m 854.17323,1122.5197 0.18519,1.1679"
         style="fill:none;stroke:#000000"
         id="path1191" />
      <path
         d="m 854.35842,1123.6876 0.5367,1.0536"
         style="fill:none;stroke:#000000"
         id="path1193" />
      <path
         d="m 854.89512,1124.7412 0.83527,0.8361"
         style="fill:none;stroke:#000000"
         id="path1195" />
      <path
         d="m 855.73039,1125.5773 1.05449,0.5369"
         style="fill:none;stroke:#000000"
         id="path1197" />
      <path
         d="m 856.78488,1126.1142 1.16788,0.185"
         style="fill:none;stroke:#000000"
         id="path1199" />
      <path
         d="m 857.95276,1126.2992 1.16787,-0.185"
         style="fill:none;stroke:#000000"
         id="path1201" />
      <path
         d="m 859.12063,1126.1142 1.05449,-0.5369"
         style="fill:none;stroke:#000000"
         id="path1203" />
      <path
         d="m 860.17512,1125.5773 0.83527,-0.8361"
         style="fill:none;stroke:#000000"
         id="path1205" />
      <path
         d="m 861.01039,1124.7412 0.5367,-1.0536"
         style="fill:none;stroke:#000000"
         id="path1207" />
      <path
         d="m 861.54709,1123.6876 0.18519,-1.1679"
         style="fill:none;stroke:#000000"
         id="path1209" />
      <path
         d="M 861.73228,1122.5197 H 1283.1496"
         style="fill:none;stroke:#000000"
         id="path1211" />
      <path
         d="m 1283.1496,1122.5197 0.1852,1.1679"
         style="fill:none;stroke:#000000"
         id="path1213" />
      <path
         d="m 1283.3348,1123.6876 0.5367,1.0536"
         style="fill:none;stroke:#000000"
         id="path1215" />
      <path
         d="m 1283.8715,1124.7412 0.8353,0.8361"
         style="fill:none;stroke:#000000"
         id="path1217" />
      <path
         d="m 1284.7068,1125.5773 1.0545,0.5369"
         style="fill:none;stroke:#000000"
         id="path1219" />
      <path
         d="m 1285.7613,1126.1142 1.1678,0.185"
         style="fill:none;stroke:#000000"
         id="path1221" />
      <path
         d="m 1286.9291,1126.2992 1.1679,-0.185"
         style="fill:none;stroke:#000000"
         id="path1223" />
      <path
         d="m 160.70929,903.20957 -1.63313,-0.83225"
         style="fill:none;stroke:#000000"
         id="path1225" />
      <path
         d="m 159.07616,902.37732 -1.296,-1.296"
         style="fill:none;stroke:#000000"
         id="path1227" />
      <path
         d="m 157.78016,901.08132 -0.83188,-1.63313"
         style="fill:none;stroke:#000000"
         id="path1229" />
      <path
         d="m 156.94828,899.44819 -0.28686,-1.8104"
         style="fill:none;stroke:#000000"
         id="path1231" />
      <path
         d="m 156.66142,897.63779 0.28686,-1.81039"
         style="fill:none;stroke:#000000"
         id="path1233" />
      <path
         d="m 156.94828,895.8274 0.83188,-1.63313"
         style="fill:none;stroke:#000000"
         id="path1235" />
      <path
         d="m 157.78016,894.19427 1.296,-1.296"
         style="fill:none;stroke:#000000"
         id="path1237" />
      <path
         d="m 159.07616,892.89827 1.63313,-0.83188"
         style="fill:none;stroke:#000000"
         id="path1239" />
      <path
         d="m 160.70929,892.06639 1.81039,-0.28686"
         style="fill:none;stroke:#000000"
         id="path1241" />
      <path
         d="m 162.51968,891.77953 1.8104,0.28686"
         style="fill:none;stroke:#000000"
         id="path1243" />
      <path
         d="m 164.33008,892.06639 1.63313,0.83188"
         style="fill:none;stroke:#000000"
         id="path1245" />
      <path
         d="m 165.96321,892.89827 1.296,1.296"
         style="fill:none;stroke:#000000"
         id="path1247" />
      <path
         d="m 167.25921,894.19427 0.83225,1.63313"
         style="fill:none;stroke:#000000"
         id="path1249" />
      <path
         d="m 168.09146,895.8274 0.28649,1.81039"
         style="fill:none;stroke:#000000"
         id="path1251" />
      <path
         d="m 168.37795,897.63779 -0.28649,1.8104"
         style="fill:none;stroke:#000000"
         id="path1253" />
      <path
         d="m 168.09146,899.44819 -0.83225,1.63313"
         style="fill:none;stroke:#000000"
         id="path1255" />
      <path
         d="m 167.25921,901.08132 -1.296,1.296"
         style="fill:none;stroke:#000000"
         id="path1257" />
      <path
         d="m 165.96321,902.37732 -1.63313,0.83225"
         style="fill:none;stroke:#000000"
         id="path1259" />
      <path
         d="m 164.33008,903.20957 -1.8104,0.28649"
         style="fill:none;stroke:#000000"
         id="path1261" />
      <path
         d="m 162.51968,903.49606 -1.81039,-0.28649"
         style="fill:none;stroke:#000000"
         id="path1263" />
      <path
         d="m 667.16598,903.20957 -1.63275,-0.83225"
         style="fill:none;stroke:#000000"
         id="path1265" />
      <path
         d="m 665.53323,902.37732 -1.29638,-1.296"
         style="fill:none;stroke:#000000"
         id="path1267" />
      <path
         d="m 664.23685,901.08132 -0.8315,-1.63313"
         style="fill:none;stroke:#000000"
         id="path1269" />
      <path
         d="m 663.40535,899.44819 -0.28724,-1.8104"
         style="fill:none;stroke:#000000"
         id="path1271" />
      <path
         d="m 663.11811,897.63779 0.28724,-1.81039"
         style="fill:none;stroke:#000000"
         id="path1273" />
      <path
         d="m 663.40535,895.8274 0.8315,-1.63313"
         style="fill:none;stroke:#000000"
         id="path1275" />
      <path
         d="m 664.23685,894.19427 1.29638,-1.296"
         style="fill:none;stroke:#000000"
         id="path1277" />
      <path
         d="m 665.53323,892.89827 1.63275,-0.83188"
         style="fill:none;stroke:#000000"
         id="path1279" />
      <path
         d="m 667.16598,892.06639 1.8104,-0.28686"
         style="fill:none;stroke:#000000"
         id="path1281" />
      <path
         d="m 668.97638,891.77953 1.81039,0.28686"
         style="fill:none;stroke:#000000"
         id="path1283" />
      <path
         d="m 670.78677,892.06639 1.63276,0.83188"
         style="fill:none;stroke:#000000"
         id="path1285" />
      <path
         d="m 672.41953,892.89827 1.29638,1.296"
         style="fill:none;stroke:#000000"
         id="path1287" />
      <path
         d="m 673.71591,894.19427 0.83149,1.63313"
         style="fill:none;stroke:#000000"
         id="path1289" />
      <path
         d="m 674.5474,895.8274 0.28725,1.81039"
         style="fill:none;stroke:#000000"
         id="path1291" />
      <path
         d="m 674.83465,897.63779 -0.28725,1.8104"
         style="fill:none;stroke:#000000"
         id="path1293" />
      <path
         d="m 674.5474,899.44819 -0.83149,1.63313"
         style="fill:none;stroke:#000000"
         id="path1295" />
      <path
         d="m 673.71591,901.08132 -1.29638,1.296"
         style="fill:none;stroke:#000000"
         id="path1297" />
      <path
         d="m 672.41953,902.37732 -1.63276,0.83225"
         style="fill:none;stroke:#000000"
         id="path1299" />
      <path
         d="m 670.78677,903.20957 -1.81039,0.28649"
         style="fill:none;stroke:#000000"
         id="path1301" />
      <path
         d="m 668.97638,903.49606 -1.8104,-0.28649"
         style="fill:none;stroke:#000000"
         id="path1303" />
      <path
         d="m 252.74154,969.93789 -10.66771,-5.43534"
         style="fill:none;stroke:#000000"
         id="path1305" />
      <path
         d="m 242.07383,964.50255 -8.46615,-8.46614"
         style="fill:none;stroke:#000000"
         id="path1307" />
      <path
         d="m 233.60768,956.03641 -5.43533,-10.66772"
         style="fill:none;stroke:#000000"
         id="path1309" />
      <path
         d="m 228.17235,945.36869 -1.87314,-11.82538"
         style="fill:none;stroke:#000000"
         id="path1311" />
      <path
         d="m 226.29921,933.54331 1.87314,-11.82539"
         style="fill:none;stroke:#000000"
         id="path1313" />
      <path
         d="m 228.17235,921.71792 5.43533,-10.66772"
         style="fill:none;stroke:#000000"
         id="path1315" />
      <path
         d="m 233.60768,911.0502 8.46615,-8.46614"
         style="fill:none;stroke:#000000"
         id="path1317" />
      <path
         d="m 242.07383,902.58406 10.66771,-5.43534"
         style="fill:none;stroke:#000000"
         id="path1319" />
      <path
         d="m 252.74154,897.14872 11.82539,-1.87313"
         style="fill:none;stroke:#000000"
         id="path1321" />
      <path
         d="m 264.56693,895.27559 11.82538,1.87313"
         style="fill:none;stroke:#000000"
         id="path1323" />
      <path
         d="m 276.39231,897.14872 10.66772,5.43534"
         style="fill:none;stroke:#000000"
         id="path1325" />
      <path
         d="m 287.06003,902.58406 8.46614,8.46614"
         style="fill:none;stroke:#000000"
         id="path1327" />
      <path
         d="m 295.52617,911.0502 5.43572,10.66772"
         style="fill:none;stroke:#000000"
         id="path1329" />
      <path
         d="m 300.96189,921.71792 1.87276,11.82539"
         style="fill:none;stroke:#000000"
         id="path1331" />
      <path
         d="m 302.83465,933.54331 -1.87276,11.82538"
         style="fill:none;stroke:#000000"
         id="path1333" />
      <path
         d="m 300.96189,945.36869 -5.43572,10.66772"
         style="fill:none;stroke:#000000"
         id="path1335" />
      <path
         d="m 295.52617,956.03641 -8.46614,8.46614"
         style="fill:none;stroke:#000000"
         id="path1337" />
      <path
         d="m 287.06003,964.50255 -10.66772,5.43534"
         style="fill:none;stroke:#000000"
         id="path1339" />
      <path
         d="m 276.39231,969.93789 -11.82538,1.87313"
         style="fill:none;stroke:#000000"
         id="path1341" />
      <path
         d="m 264.56693,971.81102 -11.82539,-1.87313"
         style="fill:none;stroke:#000000"
         id="path1343" />
      <path
         d="M 389.84315,955.11042 383.52,951.88951"
         style="fill:none;stroke:#000000"
         id="path1345" />
      <path
         d="m 383.52,951.88951 -5.01543,-5.01694"
         style="fill:none;stroke:#000000"
         id="path1347" />
      <path
         d="m 378.50457,946.87257 -3.22129,-6.32164"
         style="fill:none;stroke:#000000"
         id="path1349" />
      <path
         d="m 375.28328,940.55093 -1.11005,-7.00762"
         style="fill:none;stroke:#000000"
         id="path1351" />
      <path
         d="m 374.17323,933.54331 1.11005,-7.00763"
         style="fill:none;stroke:#000000"
         id="path1353" />
      <path
         d="m 375.28328,926.53568 3.22129,-6.32163"
         style="fill:none;stroke:#000000"
         id="path1355" />
      <path
         d="M 378.50457,920.21405 383.52,915.1971"
         style="fill:none;stroke:#000000"
         id="path1357" />
      <path
         d="m 383.52,915.1971 6.32315,-3.22091"
         style="fill:none;stroke:#000000"
         id="path1359" />
      <path
         d="m 389.84315,911.97619 7.00724,-1.11005"
         style="fill:none;stroke:#000000"
         id="path1361" />
      <path
         d="m 396.85039,910.86614 7.00725,1.11005"
         style="fill:none;stroke:#000000"
         id="path1363" />
      <path
         d="m 403.85764,911.97619 6.32315,3.22091"
         style="fill:none;stroke:#000000"
         id="path1365" />
      <path
         d="m 410.18079,915.1971 5.01543,5.01695"
         style="fill:none;stroke:#000000"
         id="path1367" />
      <path
         d="m 415.19622,920.21405 3.22016,6.32163"
         style="fill:none;stroke:#000000"
         id="path1369" />
      <path
         d="m 418.41638,926.53568 1.11118,7.00763"
         style="fill:none;stroke:#000000"
         id="path1371" />
      <path
         d="m 419.52756,933.54331 -1.11118,7.00762"
         style="fill:none;stroke:#000000"
         id="path1373" />
      <path
         d="m 418.41638,940.55093 -3.22016,6.32164"
         style="fill:none;stroke:#000000"
         id="path1375" />
      <path
         d="m 415.19622,946.87257 -5.01543,5.01694"
         style="fill:none;stroke:#000000"
         id="path1377" />
      <path
         d="m 410.18079,951.88951 -6.32315,3.22091"
         style="fill:none;stroke:#000000"
         id="path1379" />
      <path
         d="m 403.85764,955.11042 -7.00725,1.11005"
         style="fill:none;stroke:#000000"
         id="path1381" />
      <path
         d="m 396.85039,956.22047 -7.00724,-1.11005"
         style="fill:none;stroke:#000000"
         id="path1383" />
      <path
         d="m 484.33134,955.11042 -6.32315,-3.22091"
         style="fill:none;stroke:#000000"
         id="path1385" />
      <path
         d="m 478.00819,951.88951 -5.01543,-5.01694"
         style="fill:none;stroke:#000000"
         id="path1387" />
      <path
         d="m 472.99276,946.87257 -3.22016,-6.32164"
         style="fill:none;stroke:#000000"
         id="path1389" />
      <path
         d="m 469.7726,940.55093 -1.11118,-7.00762"
         style="fill:none;stroke:#000000"
         id="path1391" />
      <path
         d="m 468.66142,933.54331 1.11118,-7.00763"
         style="fill:none;stroke:#000000"
         id="path1393" />
      <path
         d="m 469.7726,926.53568 3.22016,-6.32163"
         style="fill:none;stroke:#000000"
         id="path1395" />
      <path
         d="m 472.99276,920.21405 5.01543,-5.01695"
         style="fill:none;stroke:#000000"
         id="path1397" />
      <path
         d="m 478.00819,915.1971 6.32315,-3.22091"
         style="fill:none;stroke:#000000"
         id="path1399" />
      <path
         d="m 484.33134,911.97619 7.00724,-1.11005"
         style="fill:none;stroke:#000000"
         id="path1401" />
      <path
         d="m 491.33858,910.86614 7.00725,1.11005"
         style="fill:none;stroke:#000000"
         id="path1403" />
      <path
         d="m 498.34583,911.97619 6.32315,3.22091"
         style="fill:none;stroke:#000000"
         id="path1405" />
      <path
         d="m 504.66898,915.1971 5.01543,5.01695"
         style="fill:none;stroke:#000000"
         id="path1407" />
      <path
         d="m 509.68441,920.21405 3.22016,6.32163"
         style="fill:none;stroke:#000000"
         id="path1409" />
      <path
         d="m 512.90457,926.53568 1.11118,7.00763"
         style="fill:none;stroke:#000000"
         id="path1411" />
      <path
         d="m 514.01575,933.54331 -1.11118,7.00762"
         style="fill:none;stroke:#000000"
         id="path1413" />
      <path
         d="m 512.90457,940.55093 -3.22016,6.32164"
         style="fill:none;stroke:#000000"
         id="path1415" />
      <path
         d="m 509.68441,946.87257 -5.01543,5.01694"
         style="fill:none;stroke:#000000"
         id="path1417" />
      <path
         d="m 504.66898,951.88951 -6.32315,3.22091"
         style="fill:none;stroke:#000000"
         id="path1419" />
      <path
         d="m 498.34583,955.11042 -7.00725,1.11005"
         style="fill:none;stroke:#000000"
         id="path1421" />
      <path
         d="m 491.33858,956.22047 -7.00724,-1.11005"
         style="fill:none;stroke:#000000"
         id="path1423" />
      <path
         d="m 578.81953,955.11042 -6.32315,-3.22091"
         style="fill:none;stroke:#000000"
         id="path1425" />
      <path
         d="m 572.49638,951.88951 -5.01543,-5.01694"
         style="fill:none;stroke:#000000"
         id="path1427" />
      <path
         d="m 567.48095,946.87257 -3.22016,-6.32164"
         style="fill:none;stroke:#000000"
         id="path1429" />
      <path
         d="m 564.26079,940.55093 -1.11118,-7.00762"
         style="fill:none;stroke:#000000"
         id="path1431" />
      <path
         d="m 563.14961,933.54331 1.11118,-7.00763"
         style="fill:none;stroke:#000000"
         id="path1433" />
      <path
         d="m 564.26079,926.53568 3.22016,-6.32163"
         style="fill:none;stroke:#000000"
         id="path1435" />
      <path
         d="m 567.48095,920.21405 5.01543,-5.01695"
         style="fill:none;stroke:#000000"
         id="path1437" />
      <path
         d="m 572.49638,915.1971 6.32315,-3.22091"
         style="fill:none;stroke:#000000"
         id="path1439" />
      <path
         d="m 578.81953,911.97619 7.00724,-1.11005"
         style="fill:none;stroke:#000000"
         id="path1441" />
      <path
         d="m 585.82677,910.86614 7.00725,1.11005"
         style="fill:none;stroke:#000000"
         id="path1443" />
      <path
         d="m 592.83402,911.97619 6.32314,3.22091"
         style="fill:none;stroke:#000000"
         id="path1445" />
      <path
         d="m 599.15716,915.1971 5.01544,5.01695"
         style="fill:none;stroke:#000000"
         id="path1447" />
      <path
         d="m 604.1726,920.21405 3.22016,6.32163"
         style="fill:none;stroke:#000000"
         id="path1449" />
      <path
         d="m 607.39276,926.53568 1.11118,7.00763"
         style="fill:none;stroke:#000000"
         id="path1451" />
      <path
         d="m 608.50394,933.54331 -1.11118,7.00762"
         style="fill:none;stroke:#000000"
         id="path1453" />
      <path
         d="m 607.39276,940.55093 -3.22016,6.32164"
         style="fill:none;stroke:#000000"
         id="path1455" />
      <path
         d="m 604.1726,946.87257 -5.01544,5.01694"
         style="fill:none;stroke:#000000"
         id="path1457" />
      <path
         d="m 599.15716,951.88951 -6.32314,3.22091"
         style="fill:none;stroke:#000000"
         id="path1459" />
      <path
         d="m 592.83402,955.11042 -7.00725,1.11005"
         style="fill:none;stroke:#000000"
         id="path1461" />
      <path
         d="m 585.82677,956.22047 -7.00724,-1.11005"
         style="fill:none;stroke:#000000"
         id="path1463" />
      <path
         d="m 160.70929,975.02022 -1.63313,-0.83187"
         style="fill:none;stroke:#000000"
         id="path1465" />
      <path
         d="m 159.07616,974.18835 -1.296,-1.296"
         style="fill:none;stroke:#000000"
         id="path1467" />
      <path
         d="m 157.78016,972.89235 -0.83188,-1.63314"
         style="fill:none;stroke:#000000"
         id="path1469" />
      <path
         d="m 156.94828,971.25921 -0.28686,-1.81039"
         style="fill:none;stroke:#000000"
         id="path1471" />
      <path
         d="m 156.66142,969.44882 0.28686,-1.8104"
         style="fill:none;stroke:#000000"
         id="path1473" />
      <path
         d="m 156.94828,967.63842 0.83188,-1.63313"
         style="fill:none;stroke:#000000"
         id="path1475" />
      <path
         d="m 157.78016,966.00529 1.296,-1.296"
         style="fill:none;stroke:#000000"
         id="path1477" />
      <path
         d="m 159.07616,964.70929 1.63313,-0.83225"
         style="fill:none;stroke:#000000"
         id="path1479" />
      <path
         d="m 160.70929,963.87704 1.81039,-0.28649"
         style="fill:none;stroke:#000000"
         id="path1481" />
      <path
         d="m 162.51968,963.59055 1.8104,0.28649"
         style="fill:none;stroke:#000000"
         id="path1483" />
      <path
         d="m 164.33008,963.87704 1.63313,0.83225"
         style="fill:none;stroke:#000000"
         id="path1485" />
      <path
         d="m 165.96321,964.70929 1.296,1.296"
         style="fill:none;stroke:#000000"
         id="path1487" />
      <path
         d="m 167.25921,966.00529 0.83225,1.63313"
         style="fill:none;stroke:#000000"
         id="path1489" />
      <path
         d="m 168.09146,967.63842 0.28649,1.8104"
         style="fill:none;stroke:#000000"
         id="path1491" />
      <path
         d="m 168.37795,969.44882 -0.28649,1.81039"
         style="fill:none;stroke:#000000"
         id="path1493" />
      <path
         d="m 168.09146,971.25921 -0.83225,1.63314"
         style="fill:none;stroke:#000000"
         id="path1495" />
      <path
         d="m 167.25921,972.89235 -1.296,1.296"
         style="fill:none;stroke:#000000"
         id="path1497" />
      <path
         d="m 165.96321,974.18835 -1.63313,0.83187"
         style="fill:none;stroke:#000000"
         id="path1499" />
      <path
         d="m 164.33008,975.02022 -1.8104,0.28687"
         style="fill:none;stroke:#000000"
         id="path1501" />
      <path
         d="m 162.51968,975.30709 -1.81039,-0.28687"
         style="fill:none;stroke:#000000"
         id="path1503" />
      <path
         d="m 667.16598,975.02022 -1.63275,-0.83187"
         style="fill:none;stroke:#000000"
         id="path1505" />
      <path
         d="m 665.53323,974.18835 -1.29638,-1.296"
         style="fill:none;stroke:#000000"
         id="path1507" />
      <path
         d="m 664.23685,972.89235 -0.8315,-1.63314"
         style="fill:none;stroke:#000000"
         id="path1509" />
      <path
         d="m 663.40535,971.25921 -0.28724,-1.81039"
         style="fill:none;stroke:#000000"
         id="path1511" />
      <path
         d="m 663.11811,969.44882 0.28724,-1.8104"
         style="fill:none;stroke:#000000"
         id="path1513" />
      <path
         d="m 663.40535,967.63842 0.8315,-1.63313"
         style="fill:none;stroke:#000000"
         id="path1515" />
      <path
         d="m 664.23685,966.00529 1.29638,-1.296"
         style="fill:none;stroke:#000000"
         id="path1517" />
      <path
         d="m 665.53323,964.70929 1.63275,-0.83225"
         style="fill:none;stroke:#000000"
         id="path1519" />
      <path
         d="m 667.16598,963.87704 1.8104,-0.28649"
         style="fill:none;stroke:#000000"
         id="path1521" />
      <path
         d="m 668.97638,963.59055 1.81039,0.28649"
         style="fill:none;stroke:#000000"
         id="path1523" />
      <path
         d="m 670.78677,963.87704 1.63276,0.83225"
         style="fill:none;stroke:#000000"
         id="path1525" />
      <path
         d="m 672.41953,964.70929 1.29638,1.296"
         style="fill:none;stroke:#000000"
         id="path1527" />
      <path
         d="m 673.71591,966.00529 0.83149,1.63313"
         style="fill:none;stroke:#000000"
         id="path1529" />
      <path
         d="m 674.5474,967.63842 0.28725,1.8104"
         style="fill:none;stroke:#000000"
         id="path1531" />
      <path
         d="m 674.83465,969.44882 -0.28725,1.81039"
         style="fill:none;stroke:#000000"
         id="path1533" />
      <path
         d="m 674.5474,971.25921 -0.83149,1.63314"
         style="fill:none;stroke:#000000"
         id="path1535" />
      <path
         d="m 673.71591,972.89235 -1.29638,1.296"
         style="fill:none;stroke:#000000"
         id="path1537" />
      <path
         d="m 672.41953,974.18835 -1.63276,0.83187"
         style="fill:none;stroke:#000000"
         id="path1539" />
      <path
         d="m 670.78677,975.02022 -1.81039,0.28687"
         style="fill:none;stroke:#000000"
         id="path1541" />
      <path
         d="m 668.97638,975.30709 -1.8104,-0.28687"
         style="fill:none;stroke:#000000"
         id="path1543" />
    </g>
  </g>
</svg>
