<?xml version="1.0" standalone="no"?>
<!DOCTYPE svg PUBLIC "-//W3C//DTD SVG 1.1//EN" "http://www.w3.org/Graphics/SVG/1.1/DTD/svg11.dtd">
<svg width="456mm" height="486mm" viewBox="2 -488 456 486" xmlns="http://www.w3.org/2000/svg" version="1.1">
<title>OpenSCAD Model</title>
<path d="
M 458,-488 L 2,-488 L 2,-2 L 458,-2 z
M 49.521,-476.976 L 49.0889,-477.196 L 48.746,-477.539 L 48.5259,-477.971 L 48.45,-478.45 L 48.45,-481.55
 L 48.5259,-482.029 L 48.746,-482.461 L 49.0889,-482.804 L 49.521,-483.024 L 50,-483.1 L 50.479,-483.024
 L 50.9111,-482.804 L 51.254,-482.461 L 51.4741,-482.029 L 51.55,-481.55 L 51.55,-478.45 L 51.4741,-477.971
 L 51.254,-477.539 L 50.9111,-477.196 L 50.479,-476.976 L 50,-476.9 z
M 229.521,-476.976 L 229.089,-477.196 L 228.746,-477.539 L 228.526,-477.971 L 228.45,-478.45 L 228.45,-481.55
 L 228.526,-482.029 L 228.746,-482.461 L 229.089,-482.804 L 229.521,-483.024 L 230,-483.1 L 230.479,-483.024
 L 230.911,-482.804 L 231.254,-482.461 L 231.474,-482.029 L 231.55,-481.55 L 231.55,-478.45 L 231.474,-477.971
 L 231.254,-477.539 L 230.911,-477.196 L 230.479,-476.976 L 230,-476.9 z
M 409.521,-476.976 L 409.089,-477.196 L 408.746,-477.539 L 408.526,-477.971 L 408.45,-478.45 L 408.45,-481.55
 L 408.526,-482.029 L 408.746,-482.461 L 409.089,-482.804 L 409.521,-483.024 L 410,-483.1 L 410.479,-483.024
 L 410.911,-482.804 L 411.254,-482.461 L 411.474,-482.029 L 411.55,-481.55 L 411.55,-478.45 L 411.474,-477.971
 L 411.254,-477.539 L 410.911,-477.196 L 410.479,-476.976 L 410,-476.9 z
M 9.52101,-438.526 L 9.08893,-438.746 L 8.74602,-439.089 L 8.52585,-439.521 L 8.45,-440 L 8.52585,-440.479
 L 8.74602,-440.911 L 9.08893,-441.254 L 9.52101,-441.474 L 10,-441.55 L 10.479,-441.474 L 10.9111,-441.254
 L 11.254,-440.911 L 11.4741,-440.479 L 11.55,-440 L 11.4741,-439.521 L 11.254,-439.089 L 10.9111,-438.746
 L 10.479,-438.526 L 10,-438.45 z
M 449.521,-438.526 L 449.089,-438.746 L 448.746,-439.089 L 448.526,-439.521 L 448.45,-440 L 448.526,-440.479
 L 448.746,-440.911 L 449.089,-441.254 L 449.521,-441.474 L 450,-441.55 L 450.479,-441.474 L 450.911,-441.254
 L 451.254,-440.911 L 451.474,-440.479 L 451.55,-440 L 451.474,-439.521 L 451.254,-439.089 L 450.911,-438.746
 L 450.479,-438.526 L 450,-438.45 z
M 9.52101,-243.526 L 9.08893,-243.746 L 8.74602,-244.089 L 8.52585,-244.521 L 8.45,-245 L 8.52585,-245.479
 L 8.74602,-245.911 L 9.08893,-246.254 L 9.52101,-246.474 L 10,-246.55 L 10.479,-246.474 L 10.9111,-246.254
 L 11.254,-245.911 L 11.4741,-245.479 L 11.55,-245 L 11.4741,-244.521 L 11.254,-244.089 L 10.9111,-243.746
 L 10.479,-243.526 L 10,-243.45 z
M 449.521,-243.526 L 449.089,-243.746 L 448.746,-244.089 L 448.526,-244.521 L 448.45,-245 L 448.526,-245.479
 L 448.746,-245.911 L 449.089,-246.254 L 449.521,-246.474 L 450,-246.55 L 450.479,-246.474 L 450.911,-246.254
 L 451.254,-245.911 L 451.474,-245.479 L 451.55,-245 L 451.474,-244.521 L 451.254,-244.089 L 450.911,-243.746
 L 450.479,-243.526 L 450,-243.45 z
M 419.021,-185.526 L 418.589,-185.746 L 418.246,-186.089 L 418.026,-186.521 L 417.95,-187 L 418.026,-187.479
 L 418.246,-187.911 L 418.589,-188.254 L 419.021,-188.474 L 419.5,-188.55 L 419.979,-188.474 L 420.411,-188.254
 L 420.754,-187.911 L 420.974,-187.479 L 421.05,-187 L 420.974,-186.521 L 420.754,-186.089 L 420.411,-185.746
 L 419.979,-185.526 L 419.5,-185.45 z
M 400.021,-185.526 L 399.589,-185.746 L 399.246,-186.089 L 399.026,-186.521 L 398.95,-187 L 399.026,-187.479
 L 399.246,-187.911 L 399.589,-188.254 L 400.021,-188.474 L 400.5,-188.55 L 400.979,-188.474 L 401.411,-188.254
 L 401.754,-187.911 L 401.974,-187.479 L 402.05,-187 L 401.974,-186.521 L 401.754,-186.089 L 401.411,-185.746
 L 400.979,-185.526 L 400.5,-185.45 z
M 408.146,-134.294 L 406.473,-135.146 L 405.146,-136.473 L 404.294,-138.146 L 404,-140 L 404.294,-141.854
 L 405.146,-143.527 L 406.473,-144.854 L 408.146,-145.706 L 410,-146 L 411.854,-145.706 L 413.527,-144.854
 L 414.854,-143.527 L 415.706,-141.854 L 416,-140 L 415.706,-138.146 L 414.854,-136.473 L 413.527,-135.146
 L 411.854,-134.294 L 410,-134 z
M 408.146,-109.294 L 406.473,-110.146 L 405.146,-111.473 L 404.294,-113.146 L 404,-115 L 404.294,-116.854
 L 405.146,-118.527 L 406.473,-119.854 L 408.146,-120.706 L 410,-121 L 411.854,-120.706 L 413.527,-119.854
 L 414.854,-118.527 L 415.706,-116.854 L 416,-115 L 415.706,-113.146 L 414.854,-111.473 L 413.527,-110.146
 L 411.854,-109.294 L 410,-109 z
M 52.521,-58.0258 L 52.0889,-58.246 L 51.746,-58.5889 L 51.5259,-59.021 L 51.45,-59.5 L 51.5259,-59.979
 L 51.746,-60.4111 L 52.0889,-60.754 L 52.521,-60.9741 L 53,-61.05 L 53.479,-60.9741 L 53.9111,-60.754
 L 54.254,-60.4111 L 54.4742,-59.979 L 54.55,-59.5 L 54.4742,-59.021 L 54.254,-58.5889 L 53.9111,-58.246
 L 53.479,-58.0258 L 53,-57.95 z
M 186.521,-58.0258 L 186.089,-58.246 L 185.746,-58.5889 L 185.526,-59.021 L 185.45,-59.5 L 185.526,-59.979
 L 185.746,-60.4111 L 186.089,-60.754 L 186.521,-60.9741 L 187,-61.05 L 187.479,-60.9741 L 187.911,-60.754
 L 188.254,-60.4111 L 188.474,-59.979 L 188.55,-59.5 L 188.474,-59.021 L 188.254,-58.5889 L 187.911,-58.246
 L 187.479,-58.0258 L 187,-57.95 z
M 76.8712,-40.3706 L 74.0487,-41.8087 L 71.8087,-44.0487 L 70.3706,-46.8712 L 69.875,-50 L 70.3706,-53.1288
 L 71.8087,-55.9513 L 74.0487,-58.1913 L 76.8712,-59.6294 L 80,-60.125 L 83.1288,-59.6294 L 85.9513,-58.1913
 L 88.1913,-55.9513 L 89.6295,-53.1288 L 90.125,-50 L 89.6295,-46.8712 L 88.1913,-44.0487 L 85.9513,-41.8087
 L 83.1288,-40.3706 L 80,-39.875 z
M 113.146,-44.2937 L 111.473,-45.1459 L 110.146,-46.4733 L 109.294,-48.1459 L 109,-50 L 109.294,-51.8541
 L 110.146,-53.5267 L 111.473,-54.8541 L 113.146,-55.7063 L 115,-56 L 116.854,-55.7063 L 118.527,-54.8541
 L 119.854,-53.5267 L 120.706,-51.8541 L 121,-50 L 120.706,-48.1459 L 119.854,-46.4733 L 118.527,-45.1459
 L 116.854,-44.2937 L 115,-44 z
M 138.146,-44.2937 L 136.473,-45.1459 L 135.146,-46.4733 L 134.294,-48.1459 L 134,-50 L 134.294,-51.8541
 L 135.146,-53.5267 L 136.473,-54.8541 L 138.146,-55.7063 L 140,-56 L 141.854,-55.7063 L 143.527,-54.8541
 L 144.854,-53.5267 L 145.706,-51.8541 L 146,-50 L 145.706,-48.1459 L 144.854,-46.4733 L 143.527,-45.1459
 L 141.854,-44.2937 L 140,-44 z
M 163.146,-44.2937 L 161.473,-45.1459 L 160.146,-46.4733 L 159.294,-48.1459 L 159,-50 L 159.294,-51.8541
 L 160.146,-53.5267 L 161.473,-54.8541 L 163.146,-55.7063 L 165,-56 L 166.854,-55.7063 L 168.527,-54.8541
 L 169.854,-53.5267 L 170.706,-51.8541 L 171,-50 L 170.706,-48.1459 L 169.854,-46.4733 L 168.527,-45.1459
 L 166.854,-44.2937 L 165,-44 z
M 419.021,-51.5259 L 418.589,-51.746 L 418.246,-52.0889 L 418.026,-52.521 L 417.95,-53 L 418.026,-53.479
 L 418.246,-53.9111 L 418.589,-54.254 L 419.021,-54.4742 L 419.5,-54.55 L 419.979,-54.4742 L 420.411,-54.254
 L 420.754,-53.9111 L 420.974,-53.479 L 421.05,-53 L 420.974,-52.521 L 420.754,-52.0889 L 420.411,-51.746
 L 419.979,-51.5259 L 419.5,-51.45 z
M 400.021,-51.5259 L 399.589,-51.746 L 399.246,-52.0889 L 399.026,-52.521 L 398.95,-53 L 399.026,-53.479
 L 399.246,-53.9111 L 399.589,-54.254 L 400.021,-54.4742 L 400.5,-54.55 L 400.979,-54.4742 L 401.411,-54.254
 L 401.754,-53.9111 L 401.974,-53.479 L 402.05,-53 L 401.974,-52.521 L 401.754,-52.0889 L 401.411,-51.746
 L 400.979,-51.5259 L 400.5,-51.45 z
M 9.52101,-48.5258 L 9.08893,-48.746 L 8.74602,-49.0889 L 8.52585,-49.521 L 8.45,-50 L 8.52585,-50.479
 L 8.74602,-50.9111 L 9.08893,-51.254 L 9.52101,-51.4741 L 10,-51.55 L 10.479,-51.4741 L 10.9111,-51.254
 L 11.254,-50.9111 L 11.4741,-50.479 L 11.55,-50 L 11.4741,-49.521 L 11.254,-49.0889 L 10.9111,-48.746
 L 10.479,-48.5258 L 10,-48.45 z
M 449.521,-48.5258 L 449.089,-48.746 L 448.746,-49.0889 L 448.526,-49.521 L 448.45,-50 L 448.526,-50.479
 L 448.746,-50.9111 L 449.089,-51.254 L 449.521,-51.4741 L 450,-51.55 L 450.479,-51.4741 L 450.911,-51.254
 L 451.254,-50.9111 L 451.474,-50.479 L 451.55,-50 L 451.474,-49.521 L 451.254,-49.0889 L 450.911,-48.746
 L 450.479,-48.5258 L 450,-48.45 z
M 186.521,-39.0259 L 186.089,-39.246 L 185.746,-39.5889 L 185.526,-40.021 L 185.45,-40.5 L 185.526,-40.979
 L 185.746,-41.4111 L 186.089,-41.754 L 186.521,-41.9742 L 187,-42.05 L 187.479,-41.9742 L 187.911,-41.754
 L 188.254,-41.4111 L 188.474,-40.979 L 188.55,-40.5 L 188.474,-40.021 L 188.254,-39.5889 L 187.911,-39.246
 L 187.479,-39.0259 L 187,-38.95 z
M 52.521,-39.0259 L 52.0889,-39.246 L 51.746,-39.5889 L 51.5259,-40.021 L 51.45,-40.5 L 51.5259,-40.979
 L 51.746,-41.4111 L 52.0889,-41.754 L 52.521,-41.9742 L 53,-42.05 L 53.479,-41.9742 L 53.9111,-41.754
 L 54.254,-41.4111 L 54.4742,-40.979 L 54.55,-40.5 L 54.4742,-40.021 L 54.254,-39.5889 L 53.9111,-39.246
 L 53.479,-39.0259 L 53,-38.95 z
M 409.521,-6.97588 L 409.089,-7.19603 L 408.746,-7.53894 L 408.526,-7.97104 L 408.45,-8.45001 L 408.45,-11.55
 L 408.526,-12.029 L 408.746,-12.4611 L 409.089,-12.804 L 409.521,-13.0241 L 410,-13.1 L 410.479,-13.0241
 L 410.911,-12.804 L 411.254,-12.4611 L 411.474,-12.029 L 411.55,-11.55 L 411.55,-8.45001 L 411.474,-7.97104
 L 411.254,-7.53894 L 410.911,-7.19603 L 410.479,-6.97588 L 410,-6.90001 z
M 229.521,-6.97588 L 229.089,-7.19603 L 228.746,-7.53894 L 228.526,-7.97104 L 228.45,-8.45001 L 228.45,-11.55
 L 228.526,-12.029 L 228.746,-12.4611 L 229.089,-12.804 L 229.521,-13.0241 L 230,-13.1 L 230.479,-13.0241
 L 230.911,-12.804 L 231.254,-12.4611 L 231.474,-12.029 L 231.55,-11.55 L 231.55,-8.45001 L 231.474,-7.97104
 L 231.254,-7.53894 L 230.911,-7.19603 L 230.479,-6.97588 L 230,-6.90001 z
M 49.521,-6.97588 L 49.0889,-7.19603 L 48.746,-7.53894 L 48.5259,-7.97104 L 48.45,-8.45001 L 48.45,-11.55
 L 48.5259,-12.029 L 48.746,-12.4611 L 49.0889,-12.804 L 49.521,-13.0241 L 50,-13.1 L 50.479,-13.0241
 L 50.9111,-12.804 L 51.254,-12.4611 L 51.4741,-12.029 L 51.55,-11.55 L 51.55,-8.45001 L 51.4741,-7.97104
 L 51.254,-7.53894 L 50.9111,-7.19603 L 50.479,-6.97588 L 50,-6.90001 z
" stroke="black" fill="lightgray" stroke-width="0.5"/>
</svg>
