<?xml version="1.0" standalone="no"?>
<!DOCTYPE svg PUBLIC "-//W3C//DTD SVG 1.1//EN" "http://www.w3.org/Graphics/SVG/1.1/DTD/svg11.dtd">
<svg width="456mm" height="456mm" viewBox="-1 -455 456 456" xmlns="http://www.w3.org/2000/svg" version="1.1">
<title>OpenSCAD Model</title>
<path d="
M 340.809,0.95105 L 341.088,0.809006 L 341.309,0.587784 L 341.451,0.309006 L 341.5,-0 L 454,-0
 L 454,-74.6667 L 454.309,-74.7156 L 454.588,-74.8576 L 454.809,-75.0789 L 454.951,-75.3576 L 455,-75.6667
 L 454.951,-75.9757 L 454.809,-76.2544 L 454.588,-76.4757 L 454.309,-76.6177 L 454,-76.6667 L 454,-150.333
 L 454.309,-150.382 L 454.588,-150.524 L 454.809,-150.746 L 454.951,-151.024 L 455,-151.333 L 454.951,-151.642
 L 454.809,-151.921 L 454.588,-152.142 L 454.309,-152.284 L 454,-152.333 L 454,-226 L 454.309,-226.049
 L 454.588,-226.191 L 454.809,-226.412 L 454.951,-226.691 L 455,-227 L 454.951,-227.309 L 454.809,-227.588
 L 454.588,-227.809 L 454.309,-227.951 L 454,-228 L 454,-301.667 L 454.309,-301.716 L 454.588,-301.858
 L 454.809,-302.079 L 454.951,-302.358 L 455,-302.667 L 454.951,-302.976 L 454.809,-303.254 L 454.588,-303.476
 L 454.309,-303.618 L 454,-303.667 L 454,-377.333 L 454.309,-377.382 L 454.588,-377.524 L 454.809,-377.746
 L 454.951,-378.024 L 455,-378.333 L 454.951,-378.642 L 454.809,-378.921 L 454.588,-379.142 L 454.309,-379.284
 L 454,-379.333 L 454,-454 L 341.5,-454 L 341.451,-454.309 L 341.309,-454.588 L 341.088,-454.809
 L 340.809,-454.951 L 340.5,-455 L 340.191,-454.951 L 339.912,-454.809 L 339.691,-454.588 L 339.549,-454.309
 L 339.5,-454 L 228,-454 L 227.951,-454.309 L 227.809,-454.588 L 227.588,-454.809 L 227.309,-454.951
 L 227,-455 L 226.691,-454.951 L 226.412,-454.809 L 226.191,-454.588 L 226.049,-454.309 L 226,-454
 L 114.5,-454 L 114.451,-454.309 L 114.309,-454.588 L 114.088,-454.809 L 113.809,-454.951 L 113.5,-455
 L 113.191,-454.951 L 112.912,-454.809 L 112.691,-454.588 L 112.549,-454.309 L 112.5,-454 L 0,-454
 L 0,-379.333 L -0.309006,-379.284 L -0.587784,-379.142 L -0.809006,-378.921 L -0.95105,-378.642 L -1,-378.333
 L -0.95105,-378.024 L -0.809006,-377.746 L -0.587784,-377.524 L -0.309006,-377.382 L 0,-377.333 L 0,-303.667
 L -0.309006,-303.618 L -0.587784,-303.476 L -0.809006,-303.254 L -0.95105,-302.976 L -1,-302.667 L -0.95105,-302.358
 L -0.809006,-302.079 L -0.587784,-301.858 L -0.309006,-301.716 L 0,-301.667 L 0,-228 L -0.309006,-227.951
 L -0.587784,-227.809 L -0.809006,-227.588 L -0.95105,-227.309 L -1,-227 L -0.95105,-226.691 L -0.809006,-226.412
 L -0.587784,-226.191 L -0.309006,-226.049 L 0,-226 L 0,-152.333 L -0.309006,-152.284 L -0.587784,-152.142
 L -0.809006,-151.921 L -0.95105,-151.642 L -1,-151.333 L -0.95105,-151.024 L -0.809006,-150.746 L -0.587784,-150.524
 L -0.309006,-150.382 L 0,-150.333 L 0,-76.6667 L -0.309006,-76.6177 L -0.587784,-76.4757 L -0.809006,-76.2544
 L -0.95105,-75.9757 L -1,-75.6667 L -0.95105,-75.3576 L -0.809006,-75.0789 L -0.587784,-74.8576 L -0.309006,-74.7156
 L 0,-74.6667 L 0,-0 L 112.5,-0 L 112.549,0.309006 L 112.691,0.587784 L 112.912,0.809006
 L 113.191,0.95105 L 113.5,1 L 113.809,0.95105 L 114.088,0.809006 L 114.309,0.587784 L 114.451,0.309006
 L 114.5,-0 L 226,-0 L 226.049,0.309006 L 226.191,0.587784 L 226.412,0.809006 L 226.691,0.95105
 L 227,1 L 227.309,0.95105 L 227.588,0.809006 L 227.809,0.587784 L 227.951,0.309006 L 228,-0
 L 339.5,-0 L 339.549,0.309006 L 339.691,0.587784 L 339.912,0.809006 L 340.191,0.95105 L 340.5,1
 z
M 42.521,-58.0258 L 42.0889,-58.246 L 41.746,-58.5889 L 41.5259,-59.021 L 41.45,-59.5 L 41.5259,-59.979
 L 41.746,-60.4111 L 42.0889,-60.754 L 42.521,-60.9741 L 43,-61.05 L 43.479,-60.9741 L 43.9111,-60.754
 L 44.254,-60.4111 L 44.4742,-59.979 L 44.55,-59.5 L 44.4742,-59.021 L 44.254,-58.5889 L 43.9111,-58.246
 L 43.479,-58.0258 L 43,-57.95 z
M 176.521,-58.0258 L 176.089,-58.246 L 175.746,-58.5889 L 175.526,-59.021 L 175.45,-59.5 L 175.526,-59.979
 L 175.746,-60.4111 L 176.089,-60.754 L 176.521,-60.9741 L 177,-61.05 L 177.479,-60.9741 L 177.911,-60.754
 L 178.254,-60.4111 L 178.474,-59.979 L 178.55,-59.5 L 178.474,-59.021 L 178.254,-58.5889 L 177.911,-58.246
 L 177.479,-58.0258 L 177,-57.95 z
M 66.8712,-40.3706 L 64.0487,-41.8087 L 61.8087,-44.0487 L 60.3706,-46.8712 L 59.875,-50 L 60.3706,-53.1288
 L 61.8087,-55.9513 L 64.0487,-58.1913 L 66.8712,-59.6294 L 70,-60.125 L 73.1288,-59.6294 L 75.9513,-58.1913
 L 78.1913,-55.9513 L 79.6295,-53.1288 L 80.125,-50 L 79.6295,-46.8712 L 78.1913,-44.0487 L 75.9513,-41.8087
 L 73.1288,-40.3706 L 70,-39.875 z
M 103.146,-44.2937 L 101.473,-45.1459 L 100.146,-46.4733 L 99.2937,-48.1459 L 99,-50 L 99.2937,-51.8541
 L 100.146,-53.5267 L 101.473,-54.8541 L 103.146,-55.7063 L 105,-56 L 106.854,-55.7063 L 108.527,-54.8541
 L 109.854,-53.5267 L 110.706,-51.8541 L 111,-50 L 110.706,-48.1459 L 109.854,-46.4733 L 108.527,-45.1459
 L 106.854,-44.2937 L 105,-44 z
M 128.146,-44.2937 L 126.473,-45.1459 L 125.146,-46.4733 L 124.294,-48.1459 L 124,-50 L 124.294,-51.8541
 L 125.146,-53.5267 L 126.473,-54.8541 L 128.146,-55.7063 L 130,-56 L 131.854,-55.7063 L 133.527,-54.8541
 L 134.854,-53.5267 L 135.706,-51.8541 L 136,-50 L 135.706,-48.1459 L 134.854,-46.4733 L 133.527,-45.1459
 L 131.854,-44.2937 L 130,-44 z
M 153.146,-44.2937 L 151.473,-45.1459 L 150.146,-46.4733 L 149.294,-48.1459 L 149,-50 L 149.294,-51.8541
 L 150.146,-53.5267 L 151.473,-54.8541 L 153.146,-55.7063 L 155,-56 L 156.854,-55.7063 L 158.527,-54.8541
 L 159.854,-53.5267 L 160.706,-51.8541 L 161,-50 L 160.706,-48.1459 L 159.854,-46.4733 L 158.527,-45.1459
 L 156.854,-44.2937 L 155,-44 z
M 42.521,-39.0259 L 42.0889,-39.246 L 41.746,-39.5889 L 41.5259,-40.021 L 41.45,-40.5 L 41.5259,-40.979
 L 41.746,-41.4111 L 42.0889,-41.754 L 42.521,-41.9742 L 43,-42.05 L 43.479,-41.9742 L 43.9111,-41.754
 L 44.254,-41.4111 L 44.4742,-40.979 L 44.55,-40.5 L 44.4742,-40.021 L 44.254,-39.5889 L 43.9111,-39.246
 L 43.479,-39.0259 L 43,-38.95 z
M 176.521,-39.0259 L 176.089,-39.246 L 175.746,-39.5889 L 175.526,-40.021 L 175.45,-40.5 L 175.526,-40.979
 L 175.746,-41.4111 L 176.089,-41.754 L 176.521,-41.9742 L 177,-42.05 L 177.479,-41.9742 L 177.911,-41.754
 L 178.254,-41.4111 L 178.474,-40.979 L 178.55,-40.5 L 178.474,-40.021 L 178.254,-39.5889 L 177.911,-39.246
 L 177.479,-39.0259 L 177,-38.95 z
" stroke="black" fill="lightgray" stroke-width="0.5"/>
</svg>
