<?xml version="1.0" standalone="no"?>
<!DOCTYPE svg PUBLIC "-//W3C//DTD SVG 1.1//EN" "http://www.w3.org/Graphics/SVG/1.1/DTD/svg11.dtd">
<svg width="449mm" height="449mm" viewBox="-1 -448 449 449" xmlns="http://www.w3.org/2000/svg" version="1.1">
<title>OpenSCAD Model</title>
<path d="
M 335.184,0.95105 L 335.463,0.809006 L 335.684,0.587784 L 335.826,0.309006 L 335.875,-0 L 446.5,-0
 L 446.5,-73.4167 L 446.809,-73.4656 L 447.088,-73.6076 L 447.309,-73.8289 L 447.451,-74.1076 L 447.5,-74.4167
 L 447.451,-74.7257 L 447.309,-75.0044 L 447.088,-75.2257 L 446.809,-75.3677 L 446.5,-75.4167 L 446.5,-147.833
 L 446.809,-147.882 L 447.088,-148.024 L 447.309,-148.246 L 447.451,-148.524 L 447.5,-148.833 L 447.451,-149.142
 L 447.309,-149.421 L 447.088,-149.642 L 446.809,-149.784 L 446.5,-149.833 L 446.5,-222.25 L 446.809,-222.299
 L 447.088,-222.441 L 447.309,-222.662 L 447.451,-222.941 L 447.5,-223.25 L 447.451,-223.559 L 447.309,-223.838
 L 447.088,-224.059 L 446.809,-224.201 L 446.5,-224.25 L 446.5,-296.667 L 446.809,-296.716 L 447.088,-296.858
 L 447.309,-297.079 L 447.451,-297.358 L 447.5,-297.667 L 447.451,-297.976 L 447.309,-298.254 L 447.088,-298.476
 L 446.809,-298.618 L 446.5,-298.667 L 446.5,-371.083 L 446.809,-371.132 L 447.088,-371.274 L 447.309,-371.496
 L 447.451,-371.774 L 447.5,-372.083 L 447.451,-372.392 L 447.309,-372.671 L 447.088,-372.892 L 446.809,-373.034
 L 446.5,-373.083 L 446.5,-446.5 L 335.875,-446.5 L 335.826,-446.809 L 335.684,-447.088 L 335.463,-447.309
 L 335.184,-447.451 L 334.875,-447.5 L 334.566,-447.451 L 334.287,-447.309 L 334.066,-447.088 L 333.924,-446.809
 L 333.875,-446.5 L 224.25,-446.5 L 224.201,-446.809 L 224.059,-447.088 L 223.838,-447.309 L 223.559,-447.451
 L 223.25,-447.5 L 222.941,-447.451 L 222.662,-447.309 L 222.441,-447.088 L 222.299,-446.809 L 222.25,-446.5
 L 112.625,-446.5 L 112.576,-446.809 L 112.434,-447.088 L 112.213,-447.309 L 111.934,-447.451 L 111.625,-447.5
 L 111.316,-447.451 L 111.037,-447.309 L 110.816,-447.088 L 110.674,-446.809 L 110.625,-446.5 L 0,-446.5
 L 0,-373.083 L -0.309006,-373.034 L -0.587784,-372.892 L -0.809006,-372.671 L -0.95105,-372.392 L -1,-372.083
 L -0.95105,-371.774 L -0.809006,-371.496 L -0.587784,-371.274 L -0.309006,-371.132 L 0,-371.083 L 0,-298.667
 L -0.309006,-298.618 L -0.587784,-298.476 L -0.809006,-298.254 L -0.95105,-297.976 L -1,-297.667 L -0.95105,-297.358
 L -0.809006,-297.079 L -0.587784,-296.858 L -0.309006,-296.716 L 0,-296.667 L 0,-224.25 L -0.309006,-224.201
 L -0.587784,-224.059 L -0.809006,-223.838 L -0.95105,-223.559 L -1,-223.25 L -0.95105,-222.941 L -0.809006,-222.662
 L -0.587784,-222.441 L -0.309006,-222.299 L 0,-222.25 L 0,-149.833 L -0.309006,-149.784 L -0.587784,-149.642
 L -0.809006,-149.421 L -0.95105,-149.142 L -1,-148.833 L -0.95105,-148.524 L -0.809006,-148.246 L -0.587784,-148.024
 L -0.309006,-147.882 L 0,-147.833 L 0,-75.4167 L -0.309006,-75.3677 L -0.587784,-75.2257 L -0.809006,-75.0044
 L -0.95105,-74.7257 L -1,-74.4167 L -0.95105,-74.1076 L -0.809006,-73.8289 L -0.587784,-73.6076 L -0.309006,-73.4656
 L 0,-73.4167 L 0,-0 L 110.625,-0 L 110.674,0.309006 L 110.816,0.587784 L 111.037,0.809006
 L 111.316,0.95105 L 111.625,1 L 111.934,0.95105 L 112.213,0.809006 L 112.434,0.587784 L 112.576,0.309006
 L 112.625,-0 L 222.25,-0 L 222.299,0.309006 L 222.441,0.587784 L 222.662,0.809006 L 222.941,0.95105
 L 223.25,1 L 223.559,0.95105 L 223.838,0.809006 L 224.059,0.587784 L 224.201,0.309006 L 224.25,-0
 L 333.875,-0 L 333.924,0.309006 L 334.066,0.587784 L 334.287,0.809006 L 334.566,0.95105 L 334.875,1
 z
M 42.521,-58.0258 L 42.0889,-58.246 L 41.746,-58.5889 L 41.5259,-59.021 L 41.45,-59.5 L 41.5259,-59.979
 L 41.746,-60.4111 L 42.0889,-60.754 L 42.521,-60.9741 L 43,-61.05 L 43.479,-60.9741 L 43.9111,-60.754
 L 44.254,-60.4111 L 44.4742,-59.979 L 44.55,-59.5 L 44.4742,-59.021 L 44.254,-58.5889 L 43.9111,-58.246
 L 43.479,-58.0258 L 43,-57.95 z
M 176.521,-58.0258 L 176.089,-58.246 L 175.746,-58.5889 L 175.526,-59.021 L 175.45,-59.5 L 175.526,-59.979
 L 175.746,-60.4111 L 176.089,-60.754 L 176.521,-60.9741 L 177,-61.05 L 177.479,-60.9741 L 177.911,-60.754
 L 178.254,-60.4111 L 178.474,-59.979 L 178.55,-59.5 L 178.474,-59.021 L 178.254,-58.5889 L 177.911,-58.246
 L 177.479,-58.0258 L 177,-57.95 z
M 66.8712,-40.3706 L 64.0487,-41.8087 L 61.8087,-44.0487 L 60.3706,-46.8712 L 59.875,-50 L 60.3706,-53.1288
 L 61.8087,-55.9513 L 64.0487,-58.1913 L 66.8712,-59.6294 L 70,-60.125 L 73.1288,-59.6294 L 75.9513,-58.1913
 L 78.1913,-55.9513 L 79.6295,-53.1288 L 80.125,-50 L 79.6295,-46.8712 L 78.1913,-44.0487 L 75.9513,-41.8087
 L 73.1288,-40.3706 L 70,-39.875 z
M 103.146,-44.2937 L 101.473,-45.1459 L 100.146,-46.4733 L 99.2937,-48.1459 L 99,-50 L 99.2937,-51.8541
 L 100.146,-53.5267 L 101.473,-54.8541 L 103.146,-55.7063 L 105,-56 L 106.854,-55.7063 L 108.527,-54.8541
 L 109.854,-53.5267 L 110.706,-51.8541 L 111,-50 L 110.706,-48.1459 L 109.854,-46.4733 L 108.527,-45.1459
 L 106.854,-44.2937 L 105,-44 z
M 128.146,-44.2937 L 126.473,-45.1459 L 125.146,-46.4733 L 124.294,-48.1459 L 124,-50 L 124.294,-51.8541
 L 125.146,-53.5267 L 126.473,-54.8541 L 128.146,-55.7063 L 130,-56 L 131.854,-55.7063 L 133.527,-54.8541
 L 134.854,-53.5267 L 135.706,-51.8541 L 136,-50 L 135.706,-48.1459 L 134.854,-46.4733 L 133.527,-45.1459
 L 131.854,-44.2937 L 130,-44 z
M 153.146,-44.2937 L 151.473,-45.1459 L 150.146,-46.4733 L 149.294,-48.1459 L 149,-50 L 149.294,-51.8541
 L 150.146,-53.5267 L 151.473,-54.8541 L 153.146,-55.7063 L 155,-56 L 156.854,-55.7063 L 158.527,-54.8541
 L 159.854,-53.5267 L 160.706,-51.8541 L 161,-50 L 160.706,-48.1459 L 159.854,-46.4733 L 158.527,-45.1459
 L 156.854,-44.2937 L 155,-44 z
M 42.521,-39.0259 L 42.0889,-39.246 L 41.746,-39.5889 L 41.5259,-40.021 L 41.45,-40.5 L 41.5259,-40.979
 L 41.746,-41.4111 L 42.0889,-41.754 L 42.521,-41.9742 L 43,-42.05 L 43.479,-41.9742 L 43.9111,-41.754
 L 44.254,-41.4111 L 44.4742,-40.979 L 44.55,-40.5 L 44.4742,-40.021 L 44.254,-39.5889 L 43.9111,-39.246
 L 43.479,-39.0259 L 43,-38.95 z
M 176.521,-39.0259 L 176.089,-39.246 L 175.746,-39.5889 L 175.526,-40.021 L 175.45,-40.5 L 175.526,-40.979
 L 175.746,-41.4111 L 176.089,-41.754 L 176.521,-41.9742 L 177,-42.05 L 177.479,-41.9742 L 177.911,-41.754
 L 178.254,-41.4111 L 178.474,-40.979 L 178.55,-40.5 L 178.474,-40.021 L 178.254,-39.5889 L 177.911,-39.246
 L 177.479,-39.0259 L 177,-38.95 z
" stroke="black" fill="lightgray" stroke-width="0.5"/>
</svg>
