<?xml version="1.0" standalone="no"?>
<!DOCTYPE svg PUBLIC "-//W3C//DTD SVG 1.1//EN" "http://www.w3.org/Graphics/SVG/1.1/DTD/svg11.dtd">
<svg width="150mm" height="35mm" viewBox="-75 -18 150 35" xmlns="http://www.w3.org/2000/svg" version="1.1">
<title>OpenSCAD Model</title>
<path d="
M 73.2725,16.3776 L 73.9695,16.0225 L 74.5225,15.4695 L 74.8776,14.7725 L 75,14 L 75,-15
 L 74.8776,-15.7725 L 74.5225,-16.4695 L 73.9695,-17.0225 L 73.2725,-17.3776 L 72.5,-17.5 L 47,-17.5
 L 47,-0 L 46.9021,0.618027 L 46.618,1.17557 L 46.1756,1.61803 L 45.618,1.9021 L 45,2
 L 44.382,1.9021 L 43.8244,1.61803 L 43.382,1.17557 L 43.0979,0.618027 L 43,-0 L 43,-17.5
 L 22,-17.5 L 22,-0 L 21.9021,0.618027 L 21.618,1.17557 L 21.1756,1.61803 L 20.618,1.9021
 L 20,2 L 19.382,1.9021 L 18.8244,1.61803 L 18.382,1.17557 L 18.0979,0.618027 L 18,-0
 L 18,-17.5 L -3,-17.5 L -3,-0 L -3.09789,0.618027 L -3.38196,1.17557 L -3.82442,1.61803
 L -4.38196,1.9021 L -5,2 L -5.61803,1.9021 L -6.17557,1.61803 L -6.61803,1.17557 L -6.9021,0.618027
 L -7,-0 L -7,-17.5 L -36,-17.5 L -36,-0 L -36.1958,1.23605 L -36.7639,2.35114
 L -37.6488,3.23605 L -38.7639,3.80421 L -40,4 L -41.2361,3.80421 L -42.3511,3.23605 L -43.2361,2.35114
 L -43.8042,1.23605 L -44,-0 L -44,-17.5 L -72.5,-17.5 L -73.2725,-17.3776 L -73.9695,-17.0225
 L -74.5225,-16.4695 L -74.8776,-15.7725 L -75,-15 L -75,14 L -74.8776,14.7725 L -74.5225,15.4695
 L -73.9695,16.0225 L -73.2725,16.3776 L -72.5,16.5 L 72.5,16.5 z
M -67.479,-8.02585 L -67.9111,-8.24602 L -68.254,-8.58893 L -68.4741,-9.02101 L -68.55,-9.5 L -68.4741,-9.97897
 L -68.254,-10.4111 L -67.9111,-10.754 L -67.479,-10.9741 L -67,-11.05 L -66.521,-10.9741 L -66.0889,-10.754
 L -65.746,-10.4111 L -65.5258,-9.97897 L -65.45,-9.5 L -65.5258,-9.02101 L -65.746,-8.58893 L -66.0889,-8.24602
 L -66.521,-8.02585 L -67,-7.95 z
M 66.521,-8.02585 L 66.0889,-8.24602 L 65.746,-8.58893 L 65.5258,-9.02101 L 65.45,-9.5 L 65.5258,-9.97897
 L 65.746,-10.4111 L 66.0889,-10.754 L 66.521,-10.9741 L 67,-11.05 L 67.479,-10.9741 L 67.9111,-10.754
 L 68.254,-10.4111 L 68.4741,-9.97897 L 68.55,-9.5 L 68.4741,-9.02101 L 68.254,-8.58893 L 67.9111,-8.24602
 L 67.479,-8.02585 L 67,-7.95 z
M -67.479,10.9741 L -67.9111,10.754 L -68.254,10.4111 L -68.4741,9.97897 L -68.55,9.5 L -68.4741,9.02101
 L -68.254,8.58893 L -67.9111,8.24602 L -67.479,8.02585 L -67,7.95 L -66.521,8.02585 L -66.0889,8.24602
 L -65.746,8.58893 L -65.5258,9.02101 L -65.45,9.5 L -65.5258,9.97897 L -65.746,10.4111 L -66.0889,10.754
 L -66.521,10.9741 L -67,11.05 z
M 66.521,10.9741 L 66.0889,10.754 L 65.746,10.4111 L 65.5258,9.97897 L 65.45,9.5 L 65.5258,9.02101
 L 65.746,8.58893 L 66.0889,8.24602 L 66.521,8.02585 L 67,7.95 L 67.479,8.02585 L 67.9111,8.24602
 L 68.254,8.58893 L 68.4741,9.02101 L 68.55,9.5 L 68.4741,9.97897 L 68.254,10.4111 L 67.9111,10.754
 L 67.479,10.9741 L 67,11.05 z
" stroke="black" fill="lightgray" stroke-width="0.5"/>
</svg>
