  0
SECTION
  2
BLOCKS
  0
ENDSEC
  0
SECTION
  2
ENTITIES
  0
LINE
  8
0
 10
490
 20
475
 11
0
 21
475
  0
LINE
  8
0
 10
0
 20
475
 11
0
 21
0
  0
LINE
  8
0
 10
0
 20
0
 11
490
 21
0
  0
LINE
  8
0
 10
490
 20
0
 11
490
 21
475
  0
LINE
  8
0
 10
342.021
 20
463.526
 11
341.589
 21
463.746
  0
LINE
  8
0
 10
341.589
 20
463.746
 11
341.246
 21
464.089
  0
LINE
  8
0
 10
341.246
 20
464.089
 11
341.026
 21
464.521
  0
LINE
  8
0
 10
341.026
 20
464.521
 11
340.95
 21
465
  0
LINE
  8
0
 10
340.95
 20
465
 11
341.026
 21
465.479
  0
LINE
  8
0
 10
341.026
 20
465.479
 11
341.246
 21
465.911
  0
LINE
  8
0
 10
341.246
 20
465.911
 11
341.589
 21
466.254
  0
LINE
  8
0
 10
341.589
 20
466.254
 11
342.021
 21
466.474
  0
LINE
  8
0
 10
342.021
 20
466.474
 11
342.5
 21
466.55
  0
LINE
  8
0
 10
342.5
 20
466.55
 11
342.979
 21
466.474
  0
LINE
  8
0
 10
342.979
 20
466.474
 11
343.411
 21
466.254
  0
LINE
  8
0
 10
343.411
 20
466.254
 11
343.754
 21
465.911
  0
LINE
  8
0
 10
343.754
 20
465.911
 11
343.974
 21
465.479
  0
LINE
  8
0
 10
343.974
 20
465.479
 11
344.05
 21
465
  0
LINE
  8
0
 10
344.05
 20
465
 11
343.974
 21
464.521
  0
LINE
  8
0
 10
343.974
 20
464.521
 11
343.754
 21
464.089
  0
LINE
  8
0
 10
343.754
 20
464.089
 11
343.411
 21
463.746
  0
LINE
  8
0
 10
343.411
 20
463.746
 11
342.979
 21
463.526
  0
LINE
  8
0
 10
342.979
 20
463.526
 11
342.5
 21
463.45
  0
LINE
  8
0
 10
342.5
 20
463.45
 11
342.021
 21
463.526
  0
LINE
  8
0
 10
49.521
 20
463.526
 11
49.0889
 21
463.746
  0
LINE
  8
0
 10
49.0889
 20
463.746
 11
48.746
 21
464.089
  0
LINE
  8
0
 10
48.746
 20
464.089
 11
48.5258
 21
464.521
  0
LINE
  8
0
 10
48.5258
 20
464.521
 11
48.45
 21
465
  0
LINE
  8
0
 10
48.45
 20
465
 11
48.5258
 21
465.479
  0
LINE
  8
0
 10
48.5258
 20
465.479
 11
48.746
 21
465.911
  0
LINE
  8
0
 10
48.746
 20
465.911
 11
49.0889
 21
466.254
  0
LINE
  8
0
 10
49.0889
 20
466.254
 11
49.521
 21
466.474
  0
LINE
  8
0
 10
49.521
 20
466.474
 11
50
 21
466.55
  0
LINE
  8
0
 10
50
 20
466.55
 11
50.479
 21
466.474
  0
LINE
  8
0
 10
50.479
 20
466.474
 11
50.9111
 21
466.254
  0
LINE
  8
0
 10
50.9111
 20
466.254
 11
51.254
 21
465.911
  0
LINE
  8
0
 10
51.254
 20
465.911
 11
51.4741
 21
465.479
  0
LINE
  8
0
 10
51.4741
 20
465.479
 11
51.55
 21
465
  0
LINE
  8
0
 10
51.55
 20
465
 11
51.4741
 21
464.521
  0
LINE
  8
0
 10
51.4741
 20
464.521
 11
51.254
 21
464.089
  0
LINE
  8
0
 10
51.254
 20
464.089
 11
50.9111
 21
463.746
  0
LINE
  8
0
 10
50.9111
 20
463.746
 11
50.479
 21
463.526
  0
LINE
  8
0
 10
50.479
 20
463.526
 11
50
 21
463.45
  0
LINE
  8
0
 10
50
 20
463.45
 11
49.521
 21
463.526
  0
LINE
  8
0
 10
439.521
 20
463.526
 11
439.089
 21
463.746
  0
LINE
  8
0
 10
439.089
 20
463.746
 11
438.746
 21
464.089
  0
LINE
  8
0
 10
438.746
 20
464.089
 11
438.526
 21
464.521
  0
LINE
  8
0
 10
438.526
 20
464.521
 11
438.45
 21
465
  0
LINE
  8
0
 10
438.45
 20
465
 11
438.526
 21
465.479
  0
LINE
  8
0
 10
438.526
 20
465.479
 11
438.746
 21
465.911
  0
LINE
  8
0
 10
438.746
 20
465.911
 11
439.089
 21
466.254
  0
LINE
  8
0
 10
439.089
 20
466.254
 11
439.521
 21
466.474
  0
LINE
  8
0
 10
439.521
 20
466.474
 11
440
 21
466.55
  0
LINE
  8
0
 10
440
 20
466.55
 11
440.479
 21
466.474
  0
LINE
  8
0
 10
440.479
 20
466.474
 11
440.911
 21
466.254
  0
LINE
  8
0
 10
440.911
 20
466.254
 11
441.254
 21
465.911
  0
LINE
  8
0
 10
441.254
 20
465.911
 11
441.474
 21
465.479
  0
LINE
  8
0
 10
441.474
 20
465.479
 11
441.55
 21
465
  0
LINE
  8
0
 10
441.55
 20
465
 11
441.474
 21
464.521
  0
LINE
  8
0
 10
441.474
 20
464.521
 11
441.254
 21
464.089
  0
LINE
  8
0
 10
441.254
 20
464.089
 11
440.911
 21
463.746
  0
LINE
  8
0
 10
440.911
 20
463.746
 11
440.479
 21
463.526
  0
LINE
  8
0
 10
440.479
 20
463.526
 11
440
 21
463.45
  0
LINE
  8
0
 10
440
 20
463.45
 11
439.521
 21
463.526
  0
LINE
  8
0
 10
147.021
 20
463.526
 11
146.589
 21
463.746
  0
LINE
  8
0
 10
146.589
 20
463.746
 11
146.246
 21
464.089
  0
LINE
  8
0
 10
146.246
 20
464.089
 11
146.026
 21
464.521
  0
LINE
  8
0
 10
146.026
 20
464.521
 11
145.95
 21
465
  0
LINE
  8
0
 10
145.95
 20
465
 11
146.026
 21
465.479
  0
LINE
  8
0
 10
146.026
 20
465.479
 11
146.246
 21
465.911
  0
LINE
  8
0
 10
146.246
 20
465.911
 11
146.589
 21
466.254
  0
LINE
  8
0
 10
146.589
 20
466.254
 11
147.021
 21
466.474
  0
LINE
  8
0
 10
147.021
 20
466.474
 11
147.5
 21
466.55
  0
LINE
  8
0
 10
147.5
 20
466.55
 11
147.979
 21
466.474
  0
LINE
  8
0
 10
147.979
 20
466.474
 11
148.411
 21
466.254
  0
LINE
  8
0
 10
148.411
 20
466.254
 11
148.754
 21
465.911
  0
LINE
  8
0
 10
148.754
 20
465.911
 11
148.974
 21
465.479
  0
LINE
  8
0
 10
148.974
 20
465.479
 11
149.05
 21
465
  0
LINE
  8
0
 10
149.05
 20
465
 11
148.974
 21
464.521
  0
LINE
  8
0
 10
148.974
 20
464.521
 11
148.754
 21
464.089
  0
LINE
  8
0
 10
148.754
 20
464.089
 11
148.411
 21
463.746
  0
LINE
  8
0
 10
148.411
 20
463.746
 11
147.979
 21
463.526
  0
LINE
  8
0
 10
147.979
 20
463.526
 11
147.5
 21
463.45
  0
LINE
  8
0
 10
147.5
 20
463.45
 11
147.021
 21
463.526
  0
LINE
  8
0
 10
244.521
 20
463.526
 11
244.089
 21
463.746
  0
LINE
  8
0
 10
244.089
 20
463.746
 11
243.746
 21
464.089
  0
LINE
  8
0
 10
243.746
 20
464.089
 11
243.526
 21
464.521
  0
LINE
  8
0
 10
243.526
 20
464.521
 11
243.45
 21
465
  0
LINE
  8
0
 10
243.45
 20
465
 11
243.526
 21
465.479
  0
LINE
  8
0
 10
243.526
 20
465.479
 11
243.746
 21
465.911
  0
LINE
  8
0
 10
243.746
 20
465.911
 11
244.089
 21
466.254
  0
LINE
  8
0
 10
244.089
 20
466.254
 11
244.521
 21
466.474
  0
LINE
  8
0
 10
244.521
 20
466.474
 11
245
 21
466.55
  0
LINE
  8
0
 10
245
 20
466.55
 11
245.479
 21
466.474
  0
LINE
  8
0
 10
245.479
 20
466.474
 11
245.911
 21
466.254
  0
LINE
  8
0
 10
245.911
 20
466.254
 11
246.254
 21
465.911
  0
LINE
  8
0
 10
246.254
 20
465.911
 11
246.474
 21
465.479
  0
LINE
  8
0
 10
246.474
 20
465.479
 11
246.55
 21
465
  0
LINE
  8
0
 10
246.55
 20
465
 11
246.474
 21
464.521
  0
LINE
  8
0
 10
246.474
 20
464.521
 11
246.254
 21
464.089
  0
LINE
  8
0
 10
246.254
 20
464.089
 11
245.911
 21
463.746
  0
LINE
  8
0
 10
245.911
 20
463.746
 11
245.479
 21
463.526
  0
LINE
  8
0
 10
245.479
 20
463.526
 11
245
 21
463.45
  0
LINE
  8
0
 10
245
 20
463.45
 11
244.521
 21
463.526
  0
LINE
  8
0
 10
9.52101
 20
423.526
 11
9.08893
 21
423.746
  0
LINE
  8
0
 10
9.08893
 20
423.746
 11
8.74602
 21
424.089
  0
LINE
  8
0
 10
8.74602
 20
424.089
 11
8.52585
 21
424.521
  0
LINE
  8
0
 10
8.52585
 20
424.521
 11
8.45
 21
425
  0
LINE
  8
0
 10
8.45
 20
425
 11
8.52585
 21
425.479
  0
LINE
  8
0
 10
8.52585
 20
425.479
 11
8.74602
 21
425.911
  0
LINE
  8
0
 10
8.74602
 20
425.911
 11
9.08893
 21
426.254
  0
LINE
  8
0
 10
9.08893
 20
426.254
 11
9.52101
 21
426.474
  0
LINE
  8
0
 10
9.52101
 20
426.474
 11
10
 21
426.55
  0
LINE
  8
0
 10
10
 20
426.55
 11
10.479
 21
426.474
  0
LINE
  8
0
 10
10.479
 20
426.474
 11
10.9111
 21
426.254
  0
LINE
  8
0
 10
10.9111
 20
426.254
 11
11.254
 21
425.911
  0
LINE
  8
0
 10
11.254
 20
425.911
 11
11.4741
 21
425.479
  0
LINE
  8
0
 10
11.4741
 20
425.479
 11
11.55
 21
425
  0
LINE
  8
0
 10
11.55
 20
425
 11
11.4741
 21
424.521
  0
LINE
  8
0
 10
11.4741
 20
424.521
 11
11.254
 21
424.089
  0
LINE
  8
0
 10
11.254
 20
424.089
 11
10.9111
 21
423.746
  0
LINE
  8
0
 10
10.9111
 20
423.746
 11
10.479
 21
423.526
  0
LINE
  8
0
 10
10.479
 20
423.526
 11
10
 21
423.45
  0
LINE
  8
0
 10
10
 20
423.45
 11
9.52101
 21
423.526
  0
LINE
  8
0
 10
479.521
 20
423.526
 11
479.089
 21
423.746
  0
LINE
  8
0
 10
479.089
 20
423.746
 11
478.746
 21
424.089
  0
LINE
  8
0
 10
478.746
 20
424.089
 11
478.526
 21
424.521
  0
LINE
  8
0
 10
478.526
 20
424.521
 11
478.45
 21
425
  0
LINE
  8
0
 10
478.45
 20
425
 11
478.526
 21
425.479
  0
LINE
  8
0
 10
478.526
 20
425.479
 11
478.746
 21
425.911
  0
LINE
  8
0
 10
478.746
 20
425.911
 11
479.089
 21
426.254
  0
LINE
  8
0
 10
479.089
 20
426.254
 11
479.521
 21
426.474
  0
LINE
  8
0
 10
479.521
 20
426.474
 11
480
 21
426.55
  0
LINE
  8
0
 10
480
 20
426.55
 11
480.479
 21
426.474
  0
LINE
  8
0
 10
480.479
 20
426.474
 11
480.911
 21
426.254
  0
LINE
  8
0
 10
480.911
 20
426.254
 11
481.254
 21
425.911
  0
LINE
  8
0
 10
481.254
 20
425.911
 11
481.474
 21
425.479
  0
LINE
  8
0
 10
481.474
 20
425.479
 11
481.55
 21
425
  0
LINE
  8
0
 10
481.55
 20
425
 11
481.474
 21
424.521
  0
LINE
  8
0
 10
481.474
 20
424.521
 11
481.254
 21
424.089
  0
LINE
  8
0
 10
481.254
 20
424.089
 11
480.911
 21
423.746
  0
LINE
  8
0
 10
480.911
 20
423.746
 11
480.479
 21
423.526
  0
LINE
  8
0
 10
480.479
 20
423.526
 11
480
 21
423.45
  0
LINE
  8
0
 10
480
 20
423.45
 11
479.521
 21
423.526
  0
LINE
  8
0
 10
9.52101
 20
329.776
 11
9.08893
 21
329.996
  0
LINE
  8
0
 10
9.08893
 20
329.996
 11
8.74602
 21
330.339
  0
LINE
  8
0
 10
8.74602
 20
330.339
 11
8.52585
 21
330.771
  0
LINE
  8
0
 10
8.52585
 20
330.771
 11
8.45
 21
331.25
  0
LINE
  8
0
 10
8.45
 20
331.25
 11
8.52585
 21
331.729
  0
LINE
  8
0
 10
8.52585
 20
331.729
 11
8.74602
 21
332.161
  0
LINE
  8
0
 10
8.74602
 20
332.161
 11
9.08893
 21
332.504
  0
LINE
  8
0
 10
9.08893
 20
332.504
 11
9.52101
 21
332.724
  0
LINE
  8
0
 10
9.52101
 20
332.724
 11
10
 21
332.8
  0
LINE
  8
0
 10
10
 20
332.8
 11
10.479
 21
332.724
  0
LINE
  8
0
 10
10.479
 20
332.724
 11
10.9111
 21
332.504
  0
LINE
  8
0
 10
10.9111
 20
332.504
 11
11.254
 21
332.161
  0
LINE
  8
0
 10
11.254
 20
332.161
 11
11.4741
 21
331.729
  0
LINE
  8
0
 10
11.4741
 20
331.729
 11
11.55
 21
331.25
  0
LINE
  8
0
 10
11.55
 20
331.25
 11
11.4741
 21
330.771
  0
LINE
  8
0
 10
11.4741
 20
330.771
 11
11.254
 21
330.339
  0
LINE
  8
0
 10
11.254
 20
330.339
 11
10.9111
 21
329.996
  0
LINE
  8
0
 10
10.9111
 20
329.996
 11
10.479
 21
329.776
  0
LINE
  8
0
 10
10.479
 20
329.776
 11
10
 21
329.7
  0
LINE
  8
0
 10
10
 20
329.7
 11
9.52101
 21
329.776
  0
LINE
  8
0
 10
479.521
 20
329.776
 11
479.089
 21
329.996
  0
LINE
  8
0
 10
479.089
 20
329.996
 11
478.746
 21
330.339
  0
LINE
  8
0
 10
478.746
 20
330.339
 11
478.526
 21
330.771
  0
LINE
  8
0
 10
478.526
 20
330.771
 11
478.45
 21
331.25
  0
LINE
  8
0
 10
478.45
 20
331.25
 11
478.526
 21
331.729
  0
LINE
  8
0
 10
478.526
 20
331.729
 11
478.746
 21
332.161
  0
LINE
  8
0
 10
478.746
 20
332.161
 11
479.089
 21
332.504
  0
LINE
  8
0
 10
479.089
 20
332.504
 11
479.521
 21
332.724
  0
LINE
  8
0
 10
479.521
 20
332.724
 11
480
 21
332.8
  0
LINE
  8
0
 10
480
 20
332.8
 11
480.479
 21
332.724
  0
LINE
  8
0
 10
480.479
 20
332.724
 11
480.911
 21
332.504
  0
LINE
  8
0
 10
480.911
 20
332.504
 11
481.254
 21
332.161
  0
LINE
  8
0
 10
481.254
 20
332.161
 11
481.474
 21
331.729
  0
LINE
  8
0
 10
481.474
 20
331.729
 11
481.55
 21
331.25
  0
LINE
  8
0
 10
481.55
 20
331.25
 11
481.474
 21
330.771
  0
LINE
  8
0
 10
481.474
 20
330.771
 11
481.254
 21
330.339
  0
LINE
  8
0
 10
481.254
 20
330.339
 11
480.911
 21
329.996
  0
LINE
  8
0
 10
480.911
 20
329.996
 11
480.479
 21
329.776
  0
LINE
  8
0
 10
480.479
 20
329.776
 11
480
 21
329.7
  0
LINE
  8
0
 10
480
 20
329.7
 11
479.521
 21
329.776
  0
LINE
  8
0
 10
9.52101
 20
236.026
 11
9.08893
 21
236.246
  0
LINE
  8
0
 10
9.08893
 20
236.246
 11
8.74602
 21
236.589
  0
LINE
  8
0
 10
8.74602
 20
236.589
 11
8.52585
 21
237.021
  0
LINE
  8
0
 10
8.52585
 20
237.021
 11
8.45
 21
237.5
  0
LINE
  8
0
 10
8.45
 20
237.5
 11
8.52585
 21
237.979
  0
LINE
  8
0
 10
8.52585
 20
237.979
 11
8.74602
 21
238.411
  0
LINE
  8
0
 10
8.74602
 20
238.411
 11
9.08893
 21
238.754
  0
LINE
  8
0
 10
9.08893
 20
238.754
 11
9.52101
 21
238.974
  0
LINE
  8
0
 10
9.52101
 20
238.974
 11
10
 21
239.05
  0
LINE
  8
0
 10
10
 20
239.05
 11
10.479
 21
238.974
  0
LINE
  8
0
 10
10.479
 20
238.974
 11
10.9111
 21
238.754
  0
LINE
  8
0
 10
10.9111
 20
238.754
 11
11.254
 21
238.411
  0
LINE
  8
0
 10
11.254
 20
238.411
 11
11.4741
 21
237.979
  0
LINE
  8
0
 10
11.4741
 20
237.979
 11
11.55
 21
237.5
  0
LINE
  8
0
 10
11.55
 20
237.5
 11
11.4741
 21
237.021
  0
LINE
  8
0
 10
11.4741
 20
237.021
 11
11.254
 21
236.589
  0
LINE
  8
0
 10
11.254
 20
236.589
 11
10.9111
 21
236.246
  0
LINE
  8
0
 10
10.9111
 20
236.246
 11
10.479
 21
236.026
  0
LINE
  8
0
 10
10.479
 20
236.026
 11
10
 21
235.95
  0
LINE
  8
0
 10
10
 20
235.95
 11
9.52101
 21
236.026
  0
LINE
  8
0
 10
479.521
 20
236.026
 11
479.089
 21
236.246
  0
LINE
  8
0
 10
479.089
 20
236.246
 11
478.746
 21
236.589
  0
LINE
  8
0
 10
478.746
 20
236.589
 11
478.526
 21
237.021
  0
LINE
  8
0
 10
478.526
 20
237.021
 11
478.45
 21
237.5
  0
LINE
  8
0
 10
478.45
 20
237.5
 11
478.526
 21
237.979
  0
LINE
  8
0
 10
478.526
 20
237.979
 11
478.746
 21
238.411
  0
LINE
  8
0
 10
478.746
 20
238.411
 11
479.089
 21
238.754
  0
LINE
  8
0
 10
479.089
 20
238.754
 11
479.521
 21
238.974
  0
LINE
  8
0
 10
479.521
 20
238.974
 11
480
 21
239.05
  0
LINE
  8
0
 10
480
 20
239.05
 11
480.479
 21
238.974
  0
LINE
  8
0
 10
480.479
 20
238.974
 11
480.911
 21
238.754
  0
LINE
  8
0
 10
480.911
 20
238.754
 11
481.254
 21
238.411
  0
LINE
  8
0
 10
481.254
 20
238.411
 11
481.474
 21
237.979
  0
LINE
  8
0
 10
481.474
 20
237.979
 11
481.55
 21
237.5
  0
LINE
  8
0
 10
481.55
 20
237.5
 11
481.474
 21
237.021
  0
LINE
  8
0
 10
481.474
 20
237.021
 11
481.254
 21
236.589
  0
LINE
  8
0
 10
481.254
 20
236.589
 11
480.911
 21
236.246
  0
LINE
  8
0
 10
480.911
 20
236.246
 11
480.479
 21
236.026
  0
LINE
  8
0
 10
480.479
 20
236.026
 11
480
 21
235.95
  0
LINE
  8
0
 10
480
 20
235.95
 11
479.521
 21
236.026
  0
LINE
  8
0
 10
9.52101
 20
142.276
 11
9.08893
 21
142.496
  0
LINE
  8
0
 10
9.08893
 20
142.496
 11
8.74602
 21
142.839
  0
LINE
  8
0
 10
8.74602
 20
142.839
 11
8.52585
 21
143.271
  0
LINE
  8
0
 10
8.52585
 20
143.271
 11
8.45
 21
143.75
  0
LINE
  8
0
 10
8.45
 20
143.75
 11
8.52585
 21
144.229
  0
LINE
  8
0
 10
8.52585
 20
144.229
 11
8.74602
 21
144.661
  0
LINE
  8
0
 10
8.74602
 20
144.661
 11
9.08893
 21
145.004
  0
LINE
  8
0
 10
9.08893
 20
145.004
 11
9.52101
 21
145.224
  0
LINE
  8
0
 10
9.52101
 20
145.224
 11
10
 21
145.3
  0
LINE
  8
0
 10
10
 20
145.3
 11
10.479
 21
145.224
  0
LINE
  8
0
 10
10.479
 20
145.224
 11
10.9111
 21
145.004
  0
LINE
  8
0
 10
10.9111
 20
145.004
 11
11.254
 21
144.661
  0
LINE
  8
0
 10
11.254
 20
144.661
 11
11.4741
 21
144.229
  0
LINE
  8
0
 10
11.4741
 20
144.229
 11
11.55
 21
143.75
  0
LINE
  8
0
 10
11.55
 20
143.75
 11
11.4741
 21
143.271
  0
LINE
  8
0
 10
11.4741
 20
143.271
 11
11.254
 21
142.839
  0
LINE
  8
0
 10
11.254
 20
142.839
 11
10.9111
 21
142.496
  0
LINE
  8
0
 10
10.9111
 20
142.496
 11
10.479
 21
142.276
  0
LINE
  8
0
 10
10.479
 20
142.276
 11
10
 21
142.2
  0
LINE
  8
0
 10
10
 20
142.2
 11
9.52101
 21
142.276
  0
LINE
  8
0
 10
479.521
 20
142.276
 11
479.089
 21
142.496
  0
LINE
  8
0
 10
479.089
 20
142.496
 11
478.746
 21
142.839
  0
LINE
  8
0
 10
478.746
 20
142.839
 11
478.526
 21
143.271
  0
LINE
  8
0
 10
478.526
 20
143.271
 11
478.45
 21
143.75
  0
LINE
  8
0
 10
478.45
 20
143.75
 11
478.526
 21
144.229
  0
LINE
  8
0
 10
478.526
 20
144.229
 11
478.746
 21
144.661
  0
LINE
  8
0
 10
478.746
 20
144.661
 11
479.089
 21
145.004
  0
LINE
  8
0
 10
479.089
 20
145.004
 11
479.521
 21
145.224
  0
LINE
  8
0
 10
479.521
 20
145.224
 11
480
 21
145.3
  0
LINE
  8
0
 10
480
 20
145.3
 11
480.479
 21
145.224
  0
LINE
  8
0
 10
480.479
 20
145.224
 11
480.911
 21
145.004
  0
LINE
  8
0
 10
480.911
 20
145.004
 11
481.254
 21
144.661
  0
LINE
  8
0
 10
481.254
 20
144.661
 11
481.474
 21
144.229
  0
LINE
  8
0
 10
481.474
 20
144.229
 11
481.55
 21
143.75
  0
LINE
  8
0
 10
481.55
 20
143.75
 11
481.474
 21
143.271
  0
LINE
  8
0
 10
481.474
 20
143.271
 11
481.254
 21
142.839
  0
LINE
  8
0
 10
481.254
 20
142.839
 11
480.911
 21
142.496
  0
LINE
  8
0
 10
480.911
 20
142.496
 11
480.479
 21
142.276
  0
LINE
  8
0
 10
480.479
 20
142.276
 11
480
 21
142.2
  0
LINE
  8
0
 10
480
 20
142.2
 11
479.521
 21
142.276
  0
LINE
  8
0
 10
127.521
 20
58.0258
 11
127.089
 21
58.246
  0
LINE
  8
0
 10
127.089
 20
58.246
 11
126.746
 21
58.5889
  0
LINE
  8
0
 10
126.746
 20
58.5889
 11
126.526
 21
59.021
  0
LINE
  8
0
 10
126.526
 20
59.021
 11
126.45
 21
59.5
  0
LINE
  8
0
 10
126.45
 20
59.5
 11
126.526
 21
59.979
  0
LINE
  8
0
 10
126.526
 20
59.979
 11
126.746
 21
60.4111
  0
LINE
  8
0
 10
126.746
 20
60.4111
 11
127.089
 21
60.754
  0
LINE
  8
0
 10
127.089
 20
60.754
 11
127.521
 21
60.9741
  0
LINE
  8
0
 10
127.521
 20
60.9741
 11
128
 21
61.05
  0
LINE
  8
0
 10
128
 20
61.05
 11
128.479
 21
60.9741
  0
LINE
  8
0
 10
128.479
 20
60.9741
 11
128.911
 21
60.754
  0
LINE
  8
0
 10
128.911
 20
60.754
 11
129.254
 21
60.4111
  0
LINE
  8
0
 10
129.254
 20
60.4111
 11
129.474
 21
59.979
  0
LINE
  8
0
 10
129.474
 20
59.979
 11
129.55
 21
59.5
  0
LINE
  8
0
 10
129.55
 20
59.5
 11
129.474
 21
59.021
  0
LINE
  8
0
 10
129.474
 20
59.021
 11
129.254
 21
58.5889
  0
LINE
  8
0
 10
129.254
 20
58.5889
 11
128.911
 21
58.246
  0
LINE
  8
0
 10
128.911
 20
58.246
 11
128.479
 21
58.0258
  0
LINE
  8
0
 10
128.479
 20
58.0258
 11
128
 21
57.95
  0
LINE
  8
0
 10
128
 20
57.95
 11
127.521
 21
58.0258
  0
LINE
  8
0
 10
261.521
 20
58.0258
 11
261.089
 21
58.246
  0
LINE
  8
0
 10
261.089
 20
58.246
 11
260.746
 21
58.5889
  0
LINE
  8
0
 10
260.746
 20
58.5889
 11
260.526
 21
59.021
  0
LINE
  8
0
 10
260.526
 20
59.021
 11
260.45
 21
59.5
  0
LINE
  8
0
 10
260.45
 20
59.5
 11
260.526
 21
59.979
  0
LINE
  8
0
 10
260.526
 20
59.979
 11
260.746
 21
60.4111
  0
LINE
  8
0
 10
260.746
 20
60.4111
 11
261.089
 21
60.754
  0
LINE
  8
0
 10
261.089
 20
60.754
 11
261.521
 21
60.9741
  0
LINE
  8
0
 10
261.521
 20
60.9741
 11
262
 21
61.05
  0
LINE
  8
0
 10
262
 20
61.05
 11
262.479
 21
60.9741
  0
LINE
  8
0
 10
262.479
 20
60.9741
 11
262.911
 21
60.754
  0
LINE
  8
0
 10
262.911
 20
60.754
 11
263.254
 21
60.4111
  0
LINE
  8
0
 10
263.254
 20
60.4111
 11
263.474
 21
59.979
  0
LINE
  8
0
 10
263.474
 20
59.979
 11
263.55
 21
59.5
  0
LINE
  8
0
 10
263.55
 20
59.5
 11
263.474
 21
59.021
  0
LINE
  8
0
 10
263.474
 20
59.021
 11
263.254
 21
58.5889
  0
LINE
  8
0
 10
263.254
 20
58.5889
 11
262.911
 21
58.246
  0
LINE
  8
0
 10
262.911
 20
58.246
 11
262.479
 21
58.0258
  0
LINE
  8
0
 10
262.479
 20
58.0258
 11
262
 21
57.95
  0
LINE
  8
0
 10
262
 20
57.95
 11
261.521
 21
58.0258
  0
LINE
  8
0
 10
170
 20
39.875
 11
166.871
 21
40.3705
  0
LINE
  8
0
 10
166.871
 20
40.3705
 11
164.049
 21
41.8087
  0
LINE
  8
0
 10
164.049
 20
41.8087
 11
161.809
 21
44.0487
  0
LINE
  8
0
 10
161.809
 20
44.0487
 11
160.371
 21
46.8712
  0
LINE
  8
0
 10
160.371
 20
46.8712
 11
159.875
 21
50
  0
LINE
  8
0
 10
159.875
 20
50
 11
160.371
 21
53.1288
  0
LINE
  8
0
 10
160.371
 20
53.1288
 11
161.809
 21
55.9513
  0
LINE
  8
0
 10
161.809
 20
55.9513
 11
164.049
 21
58.1913
  0
LINE
  8
0
 10
164.049
 20
58.1913
 11
166.871
 21
59.6294
  0
LINE
  8
0
 10
166.871
 20
59.6294
 11
170
 21
60.125
  0
LINE
  8
0
 10
170
 20
60.125
 11
220
 21
60.125
  0
LINE
  8
0
 10
220
 20
60.125
 11
223.129
 21
59.6294
  0
LINE
  8
0
 10
223.129
 20
59.6294
 11
225.951
 21
58.1913
  0
LINE
  8
0
 10
225.951
 20
58.1913
 11
228.191
 21
55.9513
  0
LINE
  8
0
 10
228.191
 20
55.9513
 11
229.629
 21
53.1288
  0
LINE
  8
0
 10
229.629
 20
53.1288
 11
230.125
 21
50
  0
LINE
  8
0
 10
230.125
 20
50
 11
229.629
 21
46.8712
  0
LINE
  8
0
 10
229.629
 20
46.8712
 11
228.191
 21
44.0487
  0
LINE
  8
0
 10
228.191
 20
44.0487
 11
225.951
 21
41.8087
  0
LINE
  8
0
 10
225.951
 20
41.8087
 11
223.129
 21
40.3705
  0
LINE
  8
0
 10
223.129
 20
40.3705
 11
220
 21
39.875
  0
LINE
  8
0
 10
220
 20
39.875
 11
170
 21
39.875
  0
LINE
  8
0
 10
479.521
 20
48.5258
 11
479.089
 21
48.746
  0
LINE
  8
0
 10
479.089
 20
48.746
 11
478.746
 21
49.0889
  0
LINE
  8
0
 10
478.746
 20
49.0889
 11
478.526
 21
49.521
  0
LINE
  8
0
 10
478.526
 20
49.521
 11
478.45
 21
50
  0
LINE
  8
0
 10
478.45
 20
50
 11
478.526
 21
50.479
  0
LINE
  8
0
 10
478.526
 20
50.479
 11
478.746
 21
50.9111
  0
LINE
  8
0
 10
478.746
 20
50.9111
 11
479.089
 21
51.254
  0
LINE
  8
0
 10
479.089
 20
51.254
 11
479.521
 21
51.4741
  0
LINE
  8
0
 10
479.521
 20
51.4741
 11
480
 21
51.55
  0
LINE
  8
0
 10
480
 20
51.55
 11
480.479
 21
51.4741
  0
LINE
  8
0
 10
480.479
 20
51.4741
 11
480.911
 21
51.254
  0
LINE
  8
0
 10
480.911
 20
51.254
 11
481.254
 21
50.9111
  0
LINE
  8
0
 10
481.254
 20
50.9111
 11
481.474
 21
50.479
  0
LINE
  8
0
 10
481.474
 20
50.479
 11
481.55
 21
50
  0
LINE
  8
0
 10
481.55
 20
50
 11
481.474
 21
49.521
  0
LINE
  8
0
 10
481.474
 20
49.521
 11
481.254
 21
49.0889
  0
LINE
  8
0
 10
481.254
 20
49.0889
 11
480.911
 21
48.746
  0
LINE
  8
0
 10
480.911
 20
48.746
 11
480.479
 21
48.5258
  0
LINE
  8
0
 10
480.479
 20
48.5258
 11
480
 21
48.45
  0
LINE
  8
0
 10
480
 20
48.45
 11
479.521
 21
48.5258
  0
LINE
  8
0
 10
9.52101
 20
48.5258
 11
9.08893
 21
48.746
  0
LINE
  8
0
 10
9.08893
 20
48.746
 11
8.74602
 21
49.0889
  0
LINE
  8
0
 10
8.74602
 20
49.0889
 11
8.52585
 21
49.521
  0
LINE
  8
0
 10
8.52585
 20
49.521
 11
8.45
 21
50
  0
LINE
  8
0
 10
8.45
 20
50
 11
8.52585
 21
50.479
  0
LINE
  8
0
 10
8.52585
 20
50.479
 11
8.74602
 21
50.9111
  0
LINE
  8
0
 10
8.74602
 20
50.9111
 11
9.08893
 21
51.254
  0
LINE
  8
0
 10
9.08893
 20
51.254
 11
9.52101
 21
51.4741
  0
LINE
  8
0
 10
9.52101
 20
51.4741
 11
10
 21
51.55
  0
LINE
  8
0
 10
10
 20
51.55
 11
10.479
 21
51.4741
  0
LINE
  8
0
 10
10.479
 20
51.4741
 11
10.9111
 21
51.254
  0
LINE
  8
0
 10
10.9111
 20
51.254
 11
11.254
 21
50.9111
  0
LINE
  8
0
 10
11.254
 20
50.9111
 11
11.4741
 21
50.479
  0
LINE
  8
0
 10
11.4741
 20
50.479
 11
11.55
 21
50
  0
LINE
  8
0
 10
11.55
 20
50
 11
11.4741
 21
49.521
  0
LINE
  8
0
 10
11.4741
 20
49.521
 11
11.254
 21
49.0889
  0
LINE
  8
0
 10
11.254
 20
49.0889
 11
10.9111
 21
48.746
  0
LINE
  8
0
 10
10.9111
 20
48.746
 11
10.479
 21
48.5258
  0
LINE
  8
0
 10
10.479
 20
48.5258
 11
10
 21
48.45
  0
LINE
  8
0
 10
10
 20
48.45
 11
9.52101
 21
48.5258
  0
LINE
  8
0
 10
127.521
 20
39.0259
 11
127.089
 21
39.246
  0
LINE
  8
0
 10
127.089
 20
39.246
 11
126.746
 21
39.5889
  0
LINE
  8
0
 10
126.746
 20
39.5889
 11
126.526
 21
40.021
  0
LINE
  8
0
 10
126.526
 20
40.021
 11
126.45
 21
40.5
  0
LINE
  8
0
 10
126.45
 20
40.5
 11
126.526
 21
40.979
  0
LINE
  8
0
 10
126.526
 20
40.979
 11
126.746
 21
41.4111
  0
LINE
  8
0
 10
126.746
 20
41.4111
 11
127.089
 21
41.754
  0
LINE
  8
0
 10
127.089
 20
41.754
 11
127.521
 21
41.9742
  0
LINE
  8
0
 10
127.521
 20
41.9742
 11
128
 21
42.05
  0
LINE
  8
0
 10
128
 20
42.05
 11
128.479
 21
41.9742
  0
LINE
  8
0
 10
128.479
 20
41.9742
 11
128.911
 21
41.754
  0
LINE
  8
0
 10
128.911
 20
41.754
 11
129.254
 21
41.4111
  0
LINE
  8
0
 10
129.254
 20
41.4111
 11
129.474
 21
40.979
  0
LINE
  8
0
 10
129.474
 20
40.979
 11
129.55
 21
40.5
  0
LINE
  8
0
 10
129.55
 20
40.5
 11
129.474
 21
40.021
  0
LINE
  8
0
 10
129.474
 20
40.021
 11
129.254
 21
39.5889
  0
LINE
  8
0
 10
129.254
 20
39.5889
 11
128.911
 21
39.246
  0
LINE
  8
0
 10
128.911
 20
39.246
 11
128.479
 21
39.0259
  0
LINE
  8
0
 10
128.479
 20
39.0259
 11
128
 21
38.95
  0
LINE
  8
0
 10
128
 20
38.95
 11
127.521
 21
39.0259
  0
LINE
  8
0
 10
261.521
 20
39.0259
 11
261.089
 21
39.246
  0
LINE
  8
0
 10
261.089
 20
39.246
 11
260.746
 21
39.5889
  0
LINE
  8
0
 10
260.746
 20
39.5889
 11
260.526
 21
40.021
  0
LINE
  8
0
 10
260.526
 20
40.021
 11
260.45
 21
40.5
  0
LINE
  8
0
 10
260.45
 20
40.5
 11
260.526
 21
40.979
  0
LINE
  8
0
 10
260.526
 20
40.979
 11
260.746
 21
41.4111
  0
LINE
  8
0
 10
260.746
 20
41.4111
 11
261.089
 21
41.754
  0
LINE
  8
0
 10
261.089
 20
41.754
 11
261.521
 21
41.9742
  0
LINE
  8
0
 10
261.521
 20
41.9742
 11
262
 21
42.05
  0
LINE
  8
0
 10
262
 20
42.05
 11
262.479
 21
41.9742
  0
LINE
  8
0
 10
262.479
 20
41.9742
 11
262.911
 21
41.754
  0
LINE
  8
0
 10
262.911
 20
41.754
 11
263.254
 21
41.4111
  0
LINE
  8
0
 10
263.254
 20
41.4111
 11
263.474
 21
40.979
  0
LINE
  8
0
 10
263.474
 20
40.979
 11
263.55
 21
40.5
  0
LINE
  8
0
 10
263.55
 20
40.5
 11
263.474
 21
40.021
  0
LINE
  8
0
 10
263.474
 20
40.021
 11
263.254
 21
39.5889
  0
LINE
  8
0
 10
263.254
 20
39.5889
 11
262.911
 21
39.246
  0
LINE
  8
0
 10
262.911
 20
39.246
 11
262.479
 21
39.0259
  0
LINE
  8
0
 10
262.479
 20
39.0259
 11
262
 21
38.95
  0
LINE
  8
0
 10
262
 20
38.95
 11
261.521
 21
39.0259
  0
LINE
  8
0
 10
49.521
 20
8.52585
 11
49.0889
 21
8.74602
  0
LINE
  8
0
 10
49.0889
 20
8.74602
 11
48.746
 21
9.08893
  0
LINE
  8
0
 10
48.746
 20
9.08893
 11
48.5258
 21
9.52101
  0
LINE
  8
0
 10
48.5258
 20
9.52101
 11
48.45
 21
10
  0
LINE
  8
0
 10
48.45
 20
10
 11
48.5258
 21
10.479
  0
LINE
  8
0
 10
48.5258
 20
10.479
 11
48.746
 21
10.9111
  0
LINE
  8
0
 10
48.746
 20
10.9111
 11
49.0889
 21
11.254
  0
LINE
  8
0
 10
49.0889
 20
11.254
 11
49.521
 21
11.4741
  0
LINE
  8
0
 10
49.521
 20
11.4741
 11
50
 21
11.55
  0
LINE
  8
0
 10
50
 20
11.55
 11
50.479
 21
11.4741
  0
LINE
  8
0
 10
50.479
 20
11.4741
 11
50.9111
 21
11.254
  0
LINE
  8
0
 10
50.9111
 20
11.254
 11
51.254
 21
10.9111
  0
LINE
  8
0
 10
51.254
 20
10.9111
 11
51.4741
 21
10.479
  0
LINE
  8
0
 10
51.4741
 20
10.479
 11
51.55
 21
10
  0
LINE
  8
0
 10
51.55
 20
10
 11
51.4741
 21
9.52101
  0
LINE
  8
0
 10
51.4741
 20
9.52101
 11
51.254
 21
9.08893
  0
LINE
  8
0
 10
51.254
 20
9.08893
 11
50.9111
 21
8.74602
  0
LINE
  8
0
 10
50.9111
 20
8.74602
 11
50.479
 21
8.52585
  0
LINE
  8
0
 10
50.479
 20
8.52585
 11
50
 21
8.45
  0
LINE
  8
0
 10
50
 20
8.45
 11
49.521
 21
8.52585
  0
LINE
  8
0
 10
439.521
 20
8.52585
 11
439.089
 21
8.74602
  0
LINE
  8
0
 10
439.089
 20
8.74602
 11
438.746
 21
9.08893
  0
LINE
  8
0
 10
438.746
 20
9.08893
 11
438.526
 21
9.52101
  0
LINE
  8
0
 10
438.526
 20
9.52101
 11
438.45
 21
10
  0
LINE
  8
0
 10
438.45
 20
10
 11
438.526
 21
10.479
  0
LINE
  8
0
 10
438.526
 20
10.479
 11
438.746
 21
10.9111
  0
LINE
  8
0
 10
438.746
 20
10.9111
 11
439.089
 21
11.254
  0
LINE
  8
0
 10
439.089
 20
11.254
 11
439.521
 21
11.4741
  0
LINE
  8
0
 10
439.521
 20
11.4741
 11
440
 21
11.55
  0
LINE
  8
0
 10
440
 20
11.55
 11
440.479
 21
11.4741
  0
LINE
  8
0
 10
440.479
 20
11.4741
 11
440.911
 21
11.254
  0
LINE
  8
0
 10
440.911
 20
11.254
 11
441.254
 21
10.9111
  0
LINE
  8
0
 10
441.254
 20
10.9111
 11
441.474
 21
10.479
  0
LINE
  8
0
 10
441.474
 20
10.479
 11
441.55
 21
10
  0
LINE
  8
0
 10
441.55
 20
10
 11
441.474
 21
9.52101
  0
LINE
  8
0
 10
441.474
 20
9.52101
 11
441.254
 21
9.08893
  0
LINE
  8
0
 10
441.254
 20
9.08893
 11
440.911
 21
8.74602
  0
LINE
  8
0
 10
440.911
 20
8.74602
 11
440.479
 21
8.52585
  0
LINE
  8
0
 10
440.479
 20
8.52585
 11
440
 21
8.45
  0
LINE
  8
0
 10
440
 20
8.45
 11
439.521
 21
8.52585
  0
LINE
  8
0
 10
147.021
 20
8.52585
 11
146.589
 21
8.74602
  0
LINE
  8
0
 10
146.589
 20
8.74602
 11
146.246
 21
9.08893
  0
LINE
  8
0
 10
146.246
 20
9.08893
 11
146.026
 21
9.52101
  0
LINE
  8
0
 10
146.026
 20
9.52101
 11
145.95
 21
10
  0
LINE
  8
0
 10
145.95
 20
10
 11
146.026
 21
10.479
  0
LINE
  8
0
 10
146.026
 20
10.479
 11
146.246
 21
10.9111
  0
LINE
  8
0
 10
146.246
 20
10.9111
 11
146.589
 21
11.254
  0
LINE
  8
0
 10
146.589
 20
11.254
 11
147.021
 21
11.4741
  0
LINE
  8
0
 10
147.021
 20
11.4741
 11
147.5
 21
11.55
  0
LINE
  8
0
 10
147.5
 20
11.55
 11
147.979
 21
11.4741
  0
LINE
  8
0
 10
147.979
 20
11.4741
 11
148.411
 21
11.254
  0
LINE
  8
0
 10
148.411
 20
11.254
 11
148.754
 21
10.9111
  0
LINE
  8
0
 10
148.754
 20
10.9111
 11
148.974
 21
10.479
  0
LINE
  8
0
 10
148.974
 20
10.479
 11
149.05
 21
10
  0
LINE
  8
0
 10
149.05
 20
10
 11
148.974
 21
9.52101
  0
LINE
  8
0
 10
148.974
 20
9.52101
 11
148.754
 21
9.08893
  0
LINE
  8
0
 10
148.754
 20
9.08893
 11
148.411
 21
8.74602
  0
LINE
  8
0
 10
148.411
 20
8.74602
 11
147.979
 21
8.52585
  0
LINE
  8
0
 10
147.979
 20
8.52585
 11
147.5
 21
8.45
  0
LINE
  8
0
 10
147.5
 20
8.45
 11
147.021
 21
8.52585
  0
LINE
  8
0
 10
244.521
 20
8.52585
 11
244.089
 21
8.74602
  0
LINE
  8
0
 10
244.089
 20
8.74602
 11
243.746
 21
9.08893
  0
LINE
  8
0
 10
243.746
 20
9.08893
 11
243.526
 21
9.52101
  0
LINE
  8
0
 10
243.526
 20
9.52101
 11
243.45
 21
10
  0
LINE
  8
0
 10
243.45
 20
10
 11
243.526
 21
10.479
  0
LINE
  8
0
 10
243.526
 20
10.479
 11
243.746
 21
10.9111
  0
LINE
  8
0
 10
243.746
 20
10.9111
 11
244.089
 21
11.254
  0
LINE
  8
0
 10
244.089
 20
11.254
 11
244.521
 21
11.4741
  0
LINE
  8
0
 10
244.521
 20
11.4741
 11
245
 21
11.55
  0
LINE
  8
0
 10
245
 20
11.55
 11
245.479
 21
11.4741
  0
LINE
  8
0
 10
245.479
 20
11.4741
 11
245.911
 21
11.254
  0
LINE
  8
0
 10
245.911
 20
11.254
 11
246.254
 21
10.9111
  0
LINE
  8
0
 10
246.254
 20
10.9111
 11
246.474
 21
10.479
  0
LINE
  8
0
 10
246.474
 20
10.479
 11
246.55
 21
10
  0
LINE
  8
0
 10
246.55
 20
10
 11
246.474
 21
9.52101
  0
LINE
  8
0
 10
246.474
 20
9.52101
 11
246.254
 21
9.08893
  0
LINE
  8
0
 10
246.254
 20
9.08893
 11
245.911
 21
8.74602
  0
LINE
  8
0
 10
245.911
 20
8.74602
 11
245.479
 21
8.52585
  0
LINE
  8
0
 10
245.479
 20
8.52585
 11
245
 21
8.45
  0
LINE
  8
0
 10
245
 20
8.45
 11
244.521
 21
8.52585
  0
LINE
  8
0
 10
342.021
 20
8.52585
 11
341.589
 21
8.74602
  0
LINE
  8
0
 10
341.589
 20
8.74602
 11
341.246
 21
9.08893
  0
LINE
  8
0
 10
341.246
 20
9.08893
 11
341.026
 21
9.52101
  0
LINE
  8
0
 10
341.026
 20
9.52101
 11
340.95
 21
10
  0
LINE
  8
0
 10
340.95
 20
10
 11
341.026
 21
10.479
  0
LINE
  8
0
 10
341.026
 20
10.479
 11
341.246
 21
10.9111
  0
LINE
  8
0
 10
341.246
 20
10.9111
 11
341.589
 21
11.254
  0
LINE
  8
0
 10
341.589
 20
11.254
 11
342.021
 21
11.4741
  0
LINE
  8
0
 10
342.021
 20
11.4741
 11
342.5
 21
11.55
  0
LINE
  8
0
 10
342.5
 20
11.55
 11
342.979
 21
11.4741
  0
LINE
  8
0
 10
342.979
 20
11.4741
 11
343.411
 21
11.254
  0
LINE
  8
0
 10
343.411
 20
11.254
 11
343.754
 21
10.9111
  0
LINE
  8
0
 10
343.754
 20
10.9111
 11
343.974
 21
10.479
  0
LINE
  8
0
 10
343.974
 20
10.479
 11
344.05
 21
10
  0
LINE
  8
0
 10
344.05
 20
10
 11
343.974
 21
9.52101
  0
LINE
  8
0
 10
343.974
 20
9.52101
 11
343.754
 21
9.08893
  0
LINE
  8
0
 10
343.754
 20
9.08893
 11
343.411
 21
8.74602
  0
LINE
  8
0
 10
343.411
 20
8.74602
 11
342.979
 21
8.52585
  0
LINE
  8
0
 10
342.979
 20
8.52585
 11
342.5
 21
8.45
  0
LINE
  8
0
 10
342.5
 20
8.45
 11
342.021
 21
8.52585
  0
ENDSEC
  0
SECTION
  2
OBJECTS
  0
DICTIONARY
  0
ENDSEC
  0
EOF
