  0
SECTION
  2
BLOCKS
  0
ENDSEC
  0
SECTION
  2
ENTITIES
  0
LINE
  8
0
 10
130.773
 20
-17.3776
 11
131.469
 21
-17.0225
  0
LINE
  8
0
 10
131.469
 20
-17.0225
 11
132.023
 21
-16.4695
  0
LINE
  8
0
 10
132.023
 20
-16.4695
 11
132.378
 21
-15.7725
  0
LINE
  8
0
 10
132.378
 20
-15.7725
 11
132.5
 21
-15
  0
LINE
  8
0
 10
132.5
 20
-15
 11
132.5
 21
15
  0
LINE
  8
0
 10
132.5
 20
15
 11
132.378
 21
15.7725
  0
LINE
  8
0
 10
132.378
 20
15.7725
 11
132.023
 21
16.4695
  0
LINE
  8
0
 10
132.023
 20
16.4695
 11
131.469
 21
17.0225
  0
LINE
  8
0
 10
131.469
 20
17.0225
 11
130.773
 21
17.3776
  0
LINE
  8
0
 10
130.773
 20
17.3776
 11
130
 21
17.5
  0
LINE
  8
0
 10
130
 20
17.5
 11
-25
 21
17.5
  0
LINE
  8
0
 10
-25
 20
17.5
 11
-25.7725
 21
17.3776
  0
LINE
  8
0
 10
-25.7725
 20
17.3776
 11
-26.4695
 21
17.0225
  0
LINE
  8
0
 10
-26.4695
 20
17.0225
 11
-27.0225
 21
16.4695
  0
LINE
  8
0
 10
-27.0225
 20
16.4695
 11
-27.3776
 21
15.7725
  0
LINE
  8
0
 10
-27.3776
 20
15.7725
 11
-27.5
 21
15
  0
LINE
  8
0
 10
-27.5
 20
15
 11
-27.5
 21
-15
  0
LINE
  8
0
 10
-27.5
 20
-15
 11
-27.3776
 21
-15.7725
  0
LINE
  8
0
 10
-27.3776
 20
-15.7725
 11
-27.0225
 21
-16.4695
  0
LINE
  8
0
 10
-27.0225
 20
-16.4695
 11
-26.4695
 21
-17.0225
  0
LINE
  8
0
 10
-26.4695
 20
-17.0225
 11
-25.7725
 21
-17.3776
  0
LINE
  8
0
 10
-25.7725
 20
-17.3776
 11
-25
 21
-17.5
  0
LINE
  8
0
 10
-25
 20
-17.5
 11
130
 21
-17.5
  0
LINE
  8
0
 10
130
 20
-17.5
 11
130.773
 21
-17.3776
  0
LINE
  8
0
 10
-20.479
 20
8.52585
 11
-20.9111
 21
8.74602
  0
LINE
  8
0
 10
-20.9111
 20
8.74602
 11
-21.254
 21
9.08893
  0
LINE
  8
0
 10
-21.254
 20
9.08893
 11
-21.4741
 21
9.52101
  0
LINE
  8
0
 10
-21.4741
 20
9.52101
 11
-21.55
 21
10
  0
LINE
  8
0
 10
-21.55
 20
10
 11
-21.4741
 21
10.479
  0
LINE
  8
0
 10
-21.4741
 20
10.479
 11
-21.254
 21
10.9111
  0
LINE
  8
0
 10
-21.254
 20
10.9111
 11
-20.9111
 21
11.254
  0
LINE
  8
0
 10
-20.9111
 20
11.254
 11
-20.479
 21
11.4741
  0
LINE
  8
0
 10
-20.479
 20
11.4741
 11
-20
 21
11.55
  0
LINE
  8
0
 10
-20
 20
11.55
 11
-19.521
 21
11.4741
  0
LINE
  8
0
 10
-19.521
 20
11.4741
 11
-19.0889
 21
11.254
  0
LINE
  8
0
 10
-19.0889
 20
11.254
 11
-18.746
 21
10.9111
  0
LINE
  8
0
 10
-18.746
 20
10.9111
 11
-18.5258
 21
10.479
  0
LINE
  8
0
 10
-18.5258
 20
10.479
 11
-18.45
 21
10
  0
LINE
  8
0
 10
-18.45
 20
10
 11
-18.5258
 21
9.52101
  0
LINE
  8
0
 10
-18.5258
 20
9.52101
 11
-18.746
 21
9.08893
  0
LINE
  8
0
 10
-18.746
 20
9.08893
 11
-19.0889
 21
8.74602
  0
LINE
  8
0
 10
-19.0889
 20
8.74602
 11
-19.521
 21
8.52585
  0
LINE
  8
0
 10
-19.521
 20
8.52585
 11
-20
 21
8.45
  0
LINE
  8
0
 10
-20
 20
8.45
 11
-20.479
 21
8.52585
  0
LINE
  8
0
 10
119.521
 20
8.52585
 11
119.089
 21
8.74602
  0
LINE
  8
0
 10
119.089
 20
8.74602
 11
118.746
 21
9.08893
  0
LINE
  8
0
 10
118.746
 20
9.08893
 11
118.526
 21
9.52101
  0
LINE
  8
0
 10
118.526
 20
9.52101
 11
118.45
 21
10
  0
LINE
  8
0
 10
118.45
 20
10
 11
118.526
 21
10.479
  0
LINE
  8
0
 10
118.526
 20
10.479
 11
118.746
 21
10.9111
  0
LINE
  8
0
 10
118.746
 20
10.9111
 11
119.089
 21
11.254
  0
LINE
  8
0
 10
119.089
 20
11.254
 11
119.521
 21
11.4741
  0
LINE
  8
0
 10
119.521
 20
11.4741
 11
120
 21
11.55
  0
LINE
  8
0
 10
120
 20
11.55
 11
120.479
 21
11.4741
  0
LINE
  8
0
 10
120.479
 20
11.4741
 11
120.911
 21
11.254
  0
LINE
  8
0
 10
120.911
 20
11.254
 11
121.254
 21
10.9111
  0
LINE
  8
0
 10
121.254
 20
10.9111
 11
121.474
 21
10.479
  0
LINE
  8
0
 10
121.474
 20
10.479
 11
121.55
 21
10
  0
LINE
  8
0
 10
121.55
 20
10
 11
121.474
 21
9.52101
  0
LINE
  8
0
 10
121.474
 20
9.52101
 11
121.254
 21
9.08893
  0
LINE
  8
0
 10
121.254
 20
9.08893
 11
120.911
 21
8.74602
  0
LINE
  8
0
 10
120.911
 20
8.74602
 11
120.479
 21
8.52585
  0
LINE
  8
0
 10
120.479
 20
8.52585
 11
120
 21
8.45
  0
LINE
  8
0
 10
120
 20
8.45
 11
119.521
 21
8.52585
  0
LINE
  8
0
 10
-20.479
 20
-11.4741
 11
-20.9111
 21
-11.254
  0
LINE
  8
0
 10
-20.9111
 20
-11.254
 11
-21.254
 21
-10.9111
  0
LINE
  8
0
 10
-21.254
 20
-10.9111
 11
-21.4741
 21
-10.479
  0
LINE
  8
0
 10
-21.4741
 20
-10.479
 11
-21.55
 21
-10
  0
LINE
  8
0
 10
-21.55
 20
-10
 11
-21.4741
 21
-9.52101
  0
LINE
  8
0
 10
-21.4741
 20
-9.52101
 11
-21.254
 21
-9.08893
  0
LINE
  8
0
 10
-21.254
 20
-9.08893
 11
-20.9111
 21
-8.74602
  0
LINE
  8
0
 10
-20.9111
 20
-8.74602
 11
-20.479
 21
-8.52585
  0
LINE
  8
0
 10
-20.479
 20
-8.52585
 11
-20
 21
-8.45
  0
LINE
  8
0
 10
-20
 20
-8.45
 11
-19.521
 21
-8.52585
  0
LINE
  8
0
 10
-19.521
 20
-8.52585
 11
-19.0889
 21
-8.74602
  0
LINE
  8
0
 10
-19.0889
 20
-8.74602
 11
-18.746
 21
-9.08893
  0
LINE
  8
0
 10
-18.746
 20
-9.08893
 11
-18.5258
 21
-9.52101
  0
LINE
  8
0
 10
-18.5258
 20
-9.52101
 11
-18.45
 21
-10
  0
LINE
  8
0
 10
-18.45
 20
-10
 11
-18.5258
 21
-10.479
  0
LINE
  8
0
 10
-18.5258
 20
-10.479
 11
-18.746
 21
-10.9111
  0
LINE
  8
0
 10
-18.746
 20
-10.9111
 11
-19.0889
 21
-11.254
  0
LINE
  8
0
 10
-19.0889
 20
-11.254
 11
-19.521
 21
-11.4741
  0
LINE
  8
0
 10
-19.521
 20
-11.4741
 11
-20
 21
-11.55
  0
LINE
  8
0
 10
-20
 20
-11.55
 11
-20.479
 21
-11.4741
  0
LINE
  8
0
 10
119.521
 20
-11.4741
 11
119.089
 21
-11.254
  0
LINE
  8
0
 10
119.089
 20
-11.254
 11
118.746
 21
-10.9111
  0
LINE
  8
0
 10
118.746
 20
-10.9111
 11
118.526
 21
-10.479
  0
LINE
  8
0
 10
118.526
 20
-10.479
 11
118.45
 21
-10
  0
LINE
  8
0
 10
118.45
 20
-10
 11
118.526
 21
-9.52101
  0
LINE
  8
0
 10
118.526
 20
-9.52101
 11
118.746
 21
-9.08893
  0
LINE
  8
0
 10
118.746
 20
-9.08893
 11
119.089
 21
-8.74602
  0
LINE
  8
0
 10
119.089
 20
-8.74602
 11
119.521
 21
-8.52585
  0
LINE
  8
0
 10
119.521
 20
-8.52585
 11
120
 21
-8.45
  0
LINE
  8
0
 10
120
 20
-8.45
 11
120.479
 21
-8.52585
  0
LINE
  8
0
 10
120.479
 20
-8.52585
 11
120.911
 21
-8.74602
  0
LINE
  8
0
 10
120.911
 20
-8.74602
 11
121.254
 21
-9.08893
  0
LINE
  8
0
 10
121.254
 20
-9.08893
 11
121.474
 21
-9.52101
  0
LINE
  8
0
 10
121.474
 20
-9.52101
 11
121.55
 21
-10
  0
LINE
  8
0
 10
121.55
 20
-10
 11
121.474
 21
-10.479
  0
LINE
  8
0
 10
121.474
 20
-10.479
 11
121.254
 21
-10.9111
  0
LINE
  8
0
 10
121.254
 20
-10.9111
 11
120.911
 21
-11.254
  0
LINE
  8
0
 10
120.911
 20
-11.254
 11
120.479
 21
-11.4741
  0
LINE
  8
0
 10
120.479
 20
-11.4741
 11
120
 21
-11.55
  0
LINE
  8
0
 10
120
 20
-11.55
 11
119.521
 21
-11.4741
  0
ENDSEC
  0
SECTION
  2
OBJECTS
  0
DICTIONARY
  0
ENDSEC
  0
EOF
