  0
SECTION
  2
BLOCKS
  0
ENDSEC
  0
SECTION
  2
ENTITIES
  0
LINE
  8
0
 10
461.09
 20
16.4894
 11
463.878
 21
17.9098
  0
LINE
  8
0
 10
463.878
 20
17.9098
 11
466.09
 21
20.1221
  0
LINE
  8
0
 10
466.09
 20
20.1221
 11
467.511
 21
22.9098
  0
LINE
  8
0
 10
467.511
 20
22.9098
 11
468
 21
26
  0
LINE
  8
0
 10
468
 20
26
 11
468
 21
300
  0
LINE
  8
0
 10
468
 20
300
 11
467.511
 21
303.09
  0
LINE
  8
0
 10
467.511
 20
303.09
 11
466.09
 21
305.878
  0
LINE
  8
0
 10
466.09
 20
305.878
 11
463.878
 21
308.09
  0
LINE
  8
0
 10
463.878
 20
308.09
 11
461.09
 21
309.511
  0
LINE
  8
0
 10
461.09
 20
309.511
 11
458
 21
310
  0
LINE
  8
0
 10
458
 20
310
 11
60
 21
310
  0
LINE
  8
0
 10
60
 20
310
 11
56.9098
 21
309.511
  0
LINE
  8
0
 10
56.9098
 20
309.511
 11
54.1221
 21
308.09
  0
LINE
  8
0
 10
54.1221
 20
308.09
 11
51.9098
 21
305.878
  0
LINE
  8
0
 10
51.9098
 20
305.878
 11
50.4894
 21
303.09
  0
LINE
  8
0
 10
50.4894
 20
303.09
 11
50
 21
300
  0
LINE
  8
0
 10
50
 20
300
 11
50
 21
26
  0
LINE
  8
0
 10
50
 20
26
 11
50.4894
 21
22.9098
  0
LINE
  8
0
 10
50.4894
 20
22.9098
 11
51.9098
 21
20.1221
  0
LINE
  8
0
 10
51.9098
 20
20.1221
 11
54.1221
 21
17.9098
  0
LINE
  8
0
 10
54.1221
 20
17.9098
 11
56.9098
 21
16.4894
  0
LINE
  8
0
 10
56.9098
 20
16.4894
 11
60
 21
16
  0
LINE
  8
0
 10
60
 20
16
 11
458
 21
16
  0
LINE
  8
0
 10
458
 20
16
 11
461.09
 21
16.4894
  0
LINE
  8
0
 10
459.708
 20
281.563
 11
458.994
 21
281.927
  0
LINE
  8
0
 10
458.994
 20
281.927
 11
458.427
 21
282.494
  0
LINE
  8
0
 10
458.427
 20
282.494
 11
458.063
 21
283.208
  0
LINE
  8
0
 10
458.063
 20
283.208
 11
457.938
 21
284
  0
LINE
  8
0
 10
457.938
 20
284
 11
458.063
 21
284.792
  0
LINE
  8
0
 10
458.063
 20
284.792
 11
458.427
 21
285.506
  0
LINE
  8
0
 10
458.427
 20
285.506
 11
458.994
 21
286.073
  0
LINE
  8
0
 10
458.994
 20
286.073
 11
459.708
 21
286.437
  0
LINE
  8
0
 10
459.708
 20
286.437
 11
460.5
 21
286.562
  0
LINE
  8
0
 10
460.5
 20
286.562
 11
461.292
 21
286.437
  0
LINE
  8
0
 10
461.292
 20
286.437
 11
462.006
 21
286.073
  0
LINE
  8
0
 10
462.006
 20
286.073
 11
462.573
 21
285.506
  0
LINE
  8
0
 10
462.573
 20
285.506
 11
462.937
 21
284.792
  0
LINE
  8
0
 10
462.937
 20
284.792
 11
463.062
 21
284
  0
LINE
  8
0
 10
463.062
 20
284
 11
462.937
 21
283.208
  0
LINE
  8
0
 10
462.937
 20
283.208
 11
462.573
 21
282.494
  0
LINE
  8
0
 10
462.573
 20
282.494
 11
462.006
 21
281.927
  0
LINE
  8
0
 10
462.006
 20
281.927
 11
461.292
 21
281.563
  0
LINE
  8
0
 10
461.292
 20
281.563
 11
460.5
 21
281.438
  0
LINE
  8
0
 10
460.5
 20
281.438
 11
459.708
 21
281.563
  0
LINE
  8
0
 10
104.521
 20
278.526
 11
104.089
 21
278.746
  0
LINE
  8
0
 10
104.089
 20
278.746
 11
103.746
 21
279.089
  0
LINE
  8
0
 10
103.746
 20
279.089
 11
103.526
 21
279.521
  0
LINE
  8
0
 10
103.526
 20
279.521
 11
103.45
 21
280
  0
LINE
  8
0
 10
103.45
 20
280
 11
103.526
 21
280.479
  0
LINE
  8
0
 10
103.526
 20
280.479
 11
103.746
 21
280.911
  0
LINE
  8
0
 10
103.746
 20
280.911
 11
104.089
 21
281.254
  0
LINE
  8
0
 10
104.089
 20
281.254
 11
104.521
 21
281.474
  0
LINE
  8
0
 10
104.521
 20
281.474
 11
105
 21
281.55
  0
LINE
  8
0
 10
105
 20
281.55
 11
105.479
 21
281.474
  0
LINE
  8
0
 10
105.479
 20
281.474
 11
105.911
 21
281.254
  0
LINE
  8
0
 10
105.911
 20
281.254
 11
106.254
 21
280.911
  0
LINE
  8
0
 10
106.254
 20
280.911
 11
106.474
 21
280.479
  0
LINE
  8
0
 10
106.474
 20
280.479
 11
106.55
 21
280
  0
LINE
  8
0
 10
106.55
 20
280
 11
106.474
 21
279.521
  0
LINE
  8
0
 10
106.474
 20
279.521
 11
106.254
 21
279.089
  0
LINE
  8
0
 10
106.254
 20
279.089
 11
105.911
 21
278.746
  0
LINE
  8
0
 10
105.911
 20
278.746
 11
105.479
 21
278.526
  0
LINE
  8
0
 10
105.479
 20
278.526
 11
105
 21
278.45
  0
LINE
  8
0
 10
105
 20
278.45
 11
104.521
 21
278.526
  0
LINE
  8
0
 10
264.521
 20
278.526
 11
264.089
 21
278.746
  0
LINE
  8
0
 10
264.089
 20
278.746
 11
263.746
 21
279.089
  0
LINE
  8
0
 10
263.746
 20
279.089
 11
263.526
 21
279.521
  0
LINE
  8
0
 10
263.526
 20
279.521
 11
263.45
 21
280
  0
LINE
  8
0
 10
263.45
 20
280
 11
263.526
 21
280.479
  0
LINE
  8
0
 10
263.526
 20
280.479
 11
263.746
 21
280.911
  0
LINE
  8
0
 10
263.746
 20
280.911
 11
264.089
 21
281.254
  0
LINE
  8
0
 10
264.089
 20
281.254
 11
264.521
 21
281.474
  0
LINE
  8
0
 10
264.521
 20
281.474
 11
265
 21
281.55
  0
LINE
  8
0
 10
265
 20
281.55
 11
265.479
 21
281.474
  0
LINE
  8
0
 10
265.479
 20
281.474
 11
265.911
 21
281.254
  0
LINE
  8
0
 10
265.911
 20
281.254
 11
266.254
 21
280.911
  0
LINE
  8
0
 10
266.254
 20
280.911
 11
266.474
 21
280.479
  0
LINE
  8
0
 10
266.474
 20
280.479
 11
266.55
 21
280
  0
LINE
  8
0
 10
266.55
 20
280
 11
266.474
 21
279.521
  0
LINE
  8
0
 10
266.474
 20
279.521
 11
266.254
 21
279.089
  0
LINE
  8
0
 10
266.254
 20
279.089
 11
265.911
 21
278.746
  0
LINE
  8
0
 10
265.911
 20
278.746
 11
265.479
 21
278.526
  0
LINE
  8
0
 10
265.479
 20
278.526
 11
265
 21
278.45
  0
LINE
  8
0
 10
265
 20
278.45
 11
264.521
 21
278.526
  0
LINE
  8
0
 10
424.521
 20
278.526
 11
424.089
 21
278.746
  0
LINE
  8
0
 10
424.089
 20
278.746
 11
423.746
 21
279.089
  0
LINE
  8
0
 10
423.746
 20
279.089
 11
423.526
 21
279.521
  0
LINE
  8
0
 10
423.526
 20
279.521
 11
423.45
 21
280
  0
LINE
  8
0
 10
423.45
 20
280
 11
423.526
 21
280.479
  0
LINE
  8
0
 10
423.526
 20
280.479
 11
423.746
 21
280.911
  0
LINE
  8
0
 10
423.746
 20
280.911
 11
424.089
 21
281.254
  0
LINE
  8
0
 10
424.089
 20
281.254
 11
424.521
 21
281.474
  0
LINE
  8
0
 10
424.521
 20
281.474
 11
425
 21
281.55
  0
LINE
  8
0
 10
425
 20
281.55
 11
425.479
 21
281.474
  0
LINE
  8
0
 10
425.479
 20
281.474
 11
425.911
 21
281.254
  0
LINE
  8
0
 10
425.911
 20
281.254
 11
426.254
 21
280.911
  0
LINE
  8
0
 10
426.254
 20
280.911
 11
426.474
 21
280.479
  0
LINE
  8
0
 10
426.474
 20
280.479
 11
426.55
 21
280
  0
LINE
  8
0
 10
426.55
 20
280
 11
426.474
 21
279.521
  0
LINE
  8
0
 10
426.474
 20
279.521
 11
426.254
 21
279.089
  0
LINE
  8
0
 10
426.254
 20
279.089
 11
425.911
 21
278.746
  0
LINE
  8
0
 10
425.911
 20
278.746
 11
425.479
 21
278.526
  0
LINE
  8
0
 10
425.479
 20
278.526
 11
425
 21
278.45
  0
LINE
  8
0
 10
425
 20
278.45
 11
424.521
 21
278.526
  0
LINE
  8
0
 10
69.521
 20
271.526
 11
69.0889
 21
271.746
  0
LINE
  8
0
 10
69.0889
 20
271.746
 11
68.746
 21
272.089
  0
LINE
  8
0
 10
68.746
 20
272.089
 11
68.5259
 21
272.521
  0
LINE
  8
0
 10
68.5259
 20
272.521
 11
68.45
 21
273
  0
LINE
  8
0
 10
68.45
 20
273
 11
68.5259
 21
273.479
  0
LINE
  8
0
 10
68.5259
 20
273.479
 11
68.746
 21
273.911
  0
LINE
  8
0
 10
68.746
 20
273.911
 11
69.0889
 21
274.254
  0
LINE
  8
0
 10
69.0889
 20
274.254
 11
69.521
 21
274.474
  0
LINE
  8
0
 10
69.521
 20
274.474
 11
70
 21
274.55
  0
LINE
  8
0
 10
70
 20
274.55
 11
70.479
 21
274.474
  0
LINE
  8
0
 10
70.479
 20
274.474
 11
70.9111
 21
274.254
  0
LINE
  8
0
 10
70.9111
 20
274.254
 11
71.254
 21
273.911
  0
LINE
  8
0
 10
71.254
 20
273.911
 11
71.4741
 21
273.479
  0
LINE
  8
0
 10
71.4741
 20
273.479
 11
71.55
 21
273
  0
LINE
  8
0
 10
71.55
 20
273
 11
71.4741
 21
272.521
  0
LINE
  8
0
 10
71.4741
 20
272.521
 11
71.254
 21
272.089
  0
LINE
  8
0
 10
71.254
 20
272.089
 11
70.9111
 21
271.746
  0
LINE
  8
0
 10
70.9111
 20
271.746
 11
70.479
 21
271.526
  0
LINE
  8
0
 10
70.479
 20
271.526
 11
70
 21
271.45
  0
LINE
  8
0
 10
70
 20
271.45
 11
69.521
 21
271.526
  0
LINE
  8
0
 10
459.708
 20
267.563
 11
458.994
 21
267.927
  0
LINE
  8
0
 10
458.994
 20
267.927
 11
458.427
 21
268.494
  0
LINE
  8
0
 10
458.427
 20
268.494
 11
458.063
 21
269.208
  0
LINE
  8
0
 10
458.063
 20
269.208
 11
457.938
 21
270
  0
LINE
  8
0
 10
457.938
 20
270
 11
458.063
 21
270.792
  0
LINE
  8
0
 10
458.063
 20
270.792
 11
458.427
 21
271.506
  0
LINE
  8
0
 10
458.427
 20
271.506
 11
458.994
 21
272.073
  0
LINE
  8
0
 10
458.994
 20
272.073
 11
459.708
 21
272.437
  0
LINE
  8
0
 10
459.708
 20
272.437
 11
460.5
 21
272.562
  0
LINE
  8
0
 10
460.5
 20
272.562
 11
461.292
 21
272.437
  0
LINE
  8
0
 10
461.292
 20
272.437
 11
462.006
 21
272.073
  0
LINE
  8
0
 10
462.006
 20
272.073
 11
462.573
 21
271.506
  0
LINE
  8
0
 10
462.573
 20
271.506
 11
462.937
 21
270.792
  0
LINE
  8
0
 10
462.937
 20
270.792
 11
463.062
 21
270
  0
LINE
  8
0
 10
463.062
 20
270
 11
462.937
 21
269.208
  0
LINE
  8
0
 10
462.937
 20
269.208
 11
462.573
 21
268.494
  0
LINE
  8
0
 10
462.573
 20
268.494
 11
462.006
 21
267.927
  0
LINE
  8
0
 10
462.006
 20
267.927
 11
461.292
 21
267.563
  0
LINE
  8
0
 10
461.292
 20
267.563
 11
460.5
 21
267.438
  0
LINE
  8
0
 10
460.5
 20
267.438
 11
459.708
 21
267.563
  0
LINE
  8
0
 10
69.521
 20
251.526
 11
69.0889
 21
251.746
  0
LINE
  8
0
 10
69.0889
 20
251.746
 11
68.746
 21
252.089
  0
LINE
  8
0
 10
68.746
 20
252.089
 11
68.5259
 21
252.521
  0
LINE
  8
0
 10
68.5259
 20
252.521
 11
68.45
 21
253
  0
LINE
  8
0
 10
68.45
 20
253
 11
68.5259
 21
253.479
  0
LINE
  8
0
 10
68.5259
 20
253.479
 11
68.746
 21
253.911
  0
LINE
  8
0
 10
68.746
 20
253.911
 11
69.0889
 21
254.254
  0
LINE
  8
0
 10
69.0889
 20
254.254
 11
69.521
 21
254.474
  0
LINE
  8
0
 10
69.521
 20
254.474
 11
70
 21
254.55
  0
LINE
  8
0
 10
70
 20
254.55
 11
70.479
 21
254.474
  0
LINE
  8
0
 10
70.479
 20
254.474
 11
70.9111
 21
254.254
  0
LINE
  8
0
 10
70.9111
 20
254.254
 11
71.254
 21
253.911
  0
LINE
  8
0
 10
71.254
 20
253.911
 11
71.4741
 21
253.479
  0
LINE
  8
0
 10
71.4741
 20
253.479
 11
71.55
 21
253
  0
LINE
  8
0
 10
71.55
 20
253
 11
71.4741
 21
252.521
  0
LINE
  8
0
 10
71.4741
 20
252.521
 11
71.254
 21
252.089
  0
LINE
  8
0
 10
71.254
 20
252.089
 11
70.9111
 21
251.746
  0
LINE
  8
0
 10
70.9111
 20
251.746
 11
70.479
 21
251.526
  0
LINE
  8
0
 10
70.479
 20
251.526
 11
70
 21
251.45
  0
LINE
  8
0
 10
70
 20
251.45
 11
69.521
 21
251.526
  0
LINE
  8
0
 10
69.2081
 20
202.563
 11
68.4938
 21
202.927
  0
LINE
  8
0
 10
68.4938
 20
202.927
 11
67.9269
 21
203.494
  0
LINE
  8
0
 10
67.9269
 20
203.494
 11
67.5629
 21
204.208
  0
LINE
  8
0
 10
67.5629
 20
204.208
 11
67.4375
 21
205
  0
LINE
  8
0
 10
67.4375
 20
205
 11
67.5629
 21
205.792
  0
LINE
  8
0
 10
67.5629
 20
205.792
 11
67.9269
 21
206.506
  0
LINE
  8
0
 10
67.9269
 20
206.506
 11
68.4938
 21
207.073
  0
LINE
  8
0
 10
68.4938
 20
207.073
 11
69.2081
 21
207.437
  0
LINE
  8
0
 10
69.2081
 20
207.437
 11
70
 21
207.562
  0
LINE
  8
0
 10
70
 20
207.562
 11
70.7919
 21
207.437
  0
LINE
  8
0
 10
70.7919
 20
207.437
 11
71.5062
 21
207.073
  0
LINE
  8
0
 10
71.5062
 20
207.073
 11
72.0731
 21
206.506
  0
LINE
  8
0
 10
72.0731
 20
206.506
 11
72.4371
 21
205.792
  0
LINE
  8
0
 10
72.4371
 20
205.792
 11
72.5625
 21
205
  0
LINE
  8
0
 10
72.5625
 20
205
 11
72.4371
 21
204.208
  0
LINE
  8
0
 10
72.4371
 20
204.208
 11
72.0731
 21
203.494
  0
LINE
  8
0
 10
72.0731
 20
203.494
 11
71.5062
 21
202.927
  0
LINE
  8
0
 10
71.5062
 20
202.927
 11
70.7919
 21
202.563
  0
LINE
  8
0
 10
70.7919
 20
202.563
 11
70
 21
202.438
  0
LINE
  8
0
 10
70
 20
202.438
 11
69.2081
 21
202.563
  0
LINE
  8
0
 10
69.2081
 20
112.563
 11
68.4938
 21
112.927
  0
LINE
  8
0
 10
68.4938
 20
112.927
 11
67.9269
 21
113.494
  0
LINE
  8
0
 10
67.9269
 20
113.494
 11
67.5629
 21
114.208
  0
LINE
  8
0
 10
67.5629
 20
114.208
 11
67.4375
 21
115
  0
LINE
  8
0
 10
67.4375
 20
115
 11
67.5629
 21
115.792
  0
LINE
  8
0
 10
67.5629
 20
115.792
 11
67.9269
 21
116.506
  0
LINE
  8
0
 10
67.9269
 20
116.506
 11
68.4938
 21
117.073
  0
LINE
  8
0
 10
68.4938
 20
117.073
 11
69.2081
 21
117.437
  0
LINE
  8
0
 10
69.2081
 20
117.437
 11
70
 21
117.562
  0
LINE
  8
0
 10
70
 20
117.562
 11
70.7919
 21
117.437
  0
LINE
  8
0
 10
70.7919
 20
117.437
 11
71.5062
 21
117.073
  0
LINE
  8
0
 10
71.5062
 20
117.073
 11
72.0731
 21
116.506
  0
LINE
  8
0
 10
72.0731
 20
116.506
 11
72.4371
 21
115.792
  0
LINE
  8
0
 10
72.4371
 20
115.792
 11
72.5625
 21
115
  0
LINE
  8
0
 10
72.5625
 20
115
 11
72.4371
 21
114.208
  0
LINE
  8
0
 10
72.4371
 20
114.208
 11
72.0731
 21
113.494
  0
LINE
  8
0
 10
72.0731
 20
113.494
 11
71.5062
 21
112.927
  0
LINE
  8
0
 10
71.5062
 20
112.927
 11
70.7919
 21
112.563
  0
LINE
  8
0
 10
70.7919
 20
112.563
 11
70
 21
112.438
  0
LINE
  8
0
 10
70
 20
112.438
 11
69.2081
 21
112.563
  0
LINE
  8
0
 10
459.708
 20
81.5629
 11
458.994
 21
81.9269
  0
LINE
  8
0
 10
458.994
 20
81.9269
 11
458.427
 21
82.4938
  0
LINE
  8
0
 10
458.427
 20
82.4938
 11
458.063
 21
83.2081
  0
LINE
  8
0
 10
458.063
 20
83.2081
 11
457.938
 21
84
  0
LINE
  8
0
 10
457.938
 20
84
 11
458.063
 21
84.7919
  0
LINE
  8
0
 10
458.063
 20
84.7919
 11
458.427
 21
85.5062
  0
LINE
  8
0
 10
458.427
 20
85.5062
 11
458.994
 21
86.0731
  0
LINE
  8
0
 10
458.994
 20
86.0731
 11
459.708
 21
86.4371
  0
LINE
  8
0
 10
459.708
 20
86.4371
 11
460.5
 21
86.5625
  0
LINE
  8
0
 10
460.5
 20
86.5625
 11
461.292
 21
86.4371
  0
LINE
  8
0
 10
461.292
 20
86.4371
 11
462.006
 21
86.0731
  0
LINE
  8
0
 10
462.006
 20
86.0731
 11
462.573
 21
85.5062
  0
LINE
  8
0
 10
462.573
 20
85.5062
 11
462.937
 21
84.7919
  0
LINE
  8
0
 10
462.937
 20
84.7919
 11
463.062
 21
84
  0
LINE
  8
0
 10
463.062
 20
84
 11
462.937
 21
83.2081
  0
LINE
  8
0
 10
462.937
 20
83.2081
 11
462.573
 21
82.4938
  0
LINE
  8
0
 10
462.573
 20
82.4938
 11
462.006
 21
81.9269
  0
LINE
  8
0
 10
462.006
 20
81.9269
 11
461.292
 21
81.5629
  0
LINE
  8
0
 10
461.292
 20
81.5629
 11
460.5
 21
81.4375
  0
LINE
  8
0
 10
460.5
 20
81.4375
 11
459.708
 21
81.5629
  0
LINE
  8
0
 10
69.521
 20
83.5258
 11
69.0889
 21
83.746
  0
LINE
  8
0
 10
69.0889
 20
83.746
 11
68.746
 21
84.0889
  0
LINE
  8
0
 10
68.746
 20
84.0889
 11
68.5259
 21
84.521
  0
LINE
  8
0
 10
68.5259
 20
84.521
 11
68.45
 21
85
  0
LINE
  8
0
 10
68.45
 20
85
 11
68.5259
 21
85.479
  0
LINE
  8
0
 10
68.5259
 20
85.479
 11
68.746
 21
85.9111
  0
LINE
  8
0
 10
68.746
 20
85.9111
 11
69.0889
 21
86.254
  0
LINE
  8
0
 10
69.0889
 20
86.254
 11
69.521
 21
86.4741
  0
LINE
  8
0
 10
69.521
 20
86.4741
 11
70
 21
86.55
  0
LINE
  8
0
 10
70
 20
86.55
 11
70.479
 21
86.4741
  0
LINE
  8
0
 10
70.479
 20
86.4741
 11
70.9111
 21
86.254
  0
LINE
  8
0
 10
70.9111
 20
86.254
 11
71.254
 21
85.9111
  0
LINE
  8
0
 10
71.254
 20
85.9111
 11
71.4741
 21
85.479
  0
LINE
  8
0
 10
71.4741
 20
85.479
 11
71.55
 21
85
  0
LINE
  8
0
 10
71.55
 20
85
 11
71.4741
 21
84.521
  0
LINE
  8
0
 10
71.4741
 20
84.521
 11
71.254
 21
84.0889
  0
LINE
  8
0
 10
71.254
 20
84.0889
 11
70.9111
 21
83.746
  0
LINE
  8
0
 10
70.9111
 20
83.746
 11
70.479
 21
83.5258
  0
LINE
  8
0
 10
70.479
 20
83.5258
 11
70
 21
83.45
  0
LINE
  8
0
 10
70
 20
83.45
 11
69.521
 21
83.5258
  0
LINE
  8
0
 10
459.708
 20
67.5629
 11
458.994
 21
67.9269
  0
LINE
  8
0
 10
458.994
 20
67.9269
 11
458.427
 21
68.4938
  0
LINE
  8
0
 10
458.427
 20
68.4938
 11
458.063
 21
69.2081
  0
LINE
  8
0
 10
458.063
 20
69.2081
 11
457.938
 21
70
  0
LINE
  8
0
 10
457.938
 20
70
 11
458.063
 21
70.7919
  0
LINE
  8
0
 10
458.063
 20
70.7919
 11
458.427
 21
71.5062
  0
LINE
  8
0
 10
458.427
 20
71.5062
 11
458.994
 21
72.0731
  0
LINE
  8
0
 10
458.994
 20
72.0731
 11
459.708
 21
72.4371
  0
LINE
  8
0
 10
459.708
 20
72.4371
 11
460.5
 21
72.5625
  0
LINE
  8
0
 10
460.5
 20
72.5625
 11
461.292
 21
72.4371
  0
LINE
  8
0
 10
461.292
 20
72.4371
 11
462.006
 21
72.0731
  0
LINE
  8
0
 10
462.006
 20
72.0731
 11
462.573
 21
71.5062
  0
LINE
  8
0
 10
462.573
 20
71.5062
 11
462.937
 21
70.7919
  0
LINE
  8
0
 10
462.937
 20
70.7919
 11
463.062
 21
70
  0
LINE
  8
0
 10
463.062
 20
70
 11
462.937
 21
69.2081
  0
LINE
  8
0
 10
462.937
 20
69.2081
 11
462.573
 21
68.4938
  0
LINE
  8
0
 10
462.573
 20
68.4938
 11
462.006
 21
67.9269
  0
LINE
  8
0
 10
462.006
 20
67.9269
 11
461.292
 21
67.5629
  0
LINE
  8
0
 10
461.292
 20
67.5629
 11
460.5
 21
67.4375
  0
LINE
  8
0
 10
460.5
 20
67.4375
 11
459.708
 21
67.5629
  0
LINE
  8
0
 10
69.521
 20
63.5259
 11
69.0889
 21
63.746
  0
LINE
  8
0
 10
69.0889
 20
63.746
 11
68.746
 21
64.0889
  0
LINE
  8
0
 10
68.746
 20
64.0889
 11
68.5259
 21
64.521
  0
LINE
  8
0
 10
68.5259
 20
64.521
 11
68.45
 21
65
  0
LINE
  8
0
 10
68.45
 20
65
 11
68.5259
 21
65.479
  0
LINE
  8
0
 10
68.5259
 20
65.479
 11
68.746
 21
65.9111
  0
LINE
  8
0
 10
68.746
 20
65.9111
 11
69.0889
 21
66.254
  0
LINE
  8
0
 10
69.0889
 20
66.254
 11
69.521
 21
66.4741
  0
LINE
  8
0
 10
69.521
 20
66.4741
 11
70
 21
66.55
  0
LINE
  8
0
 10
70
 20
66.55
 11
70.479
 21
66.4741
  0
LINE
  8
0
 10
70.479
 20
66.4741
 11
70.9111
 21
66.254
  0
LINE
  8
0
 10
70.9111
 20
66.254
 11
71.254
 21
65.9111
  0
LINE
  8
0
 10
71.254
 20
65.9111
 11
71.4741
 21
65.479
  0
LINE
  8
0
 10
71.4741
 20
65.479
 11
71.55
 21
65
  0
LINE
  8
0
 10
71.55
 20
65
 11
71.4741
 21
64.521
  0
LINE
  8
0
 10
71.4741
 20
64.521
 11
71.254
 21
64.0889
  0
LINE
  8
0
 10
71.254
 20
64.0889
 11
70.9111
 21
63.746
  0
LINE
  8
0
 10
70.9111
 20
63.746
 11
70.479
 21
63.5259
  0
LINE
  8
0
 10
70.479
 20
63.5259
 11
70
 21
63.45
  0
LINE
  8
0
 10
70
 20
63.45
 11
69.521
 21
63.5259
  0
LINE
  8
0
 10
424.521
 20
38.5259
 11
424.089
 21
38.746
  0
LINE
  8
0
 10
424.089
 20
38.746
 11
423.746
 21
39.0889
  0
LINE
  8
0
 10
423.746
 20
39.0889
 11
423.526
 21
39.521
  0
LINE
  8
0
 10
423.526
 20
39.521
 11
423.45
 21
40
  0
LINE
  8
0
 10
423.45
 20
40
 11
423.526
 21
40.479
  0
LINE
  8
0
 10
423.526
 20
40.479
 11
423.746
 21
40.9111
  0
LINE
  8
0
 10
423.746
 20
40.9111
 11
424.089
 21
41.254
  0
LINE
  8
0
 10
424.089
 20
41.254
 11
424.521
 21
41.4741
  0
LINE
  8
0
 10
424.521
 20
41.4741
 11
425
 21
41.55
  0
LINE
  8
0
 10
425
 20
41.55
 11
425.479
 21
41.4741
  0
LINE
  8
0
 10
425.479
 20
41.4741
 11
425.911
 21
41.254
  0
LINE
  8
0
 10
425.911
 20
41.254
 11
426.254
 21
40.9111
  0
LINE
  8
0
 10
426.254
 20
40.9111
 11
426.474
 21
40.479
  0
LINE
  8
0
 10
426.474
 20
40.479
 11
426.55
 21
40
  0
LINE
  8
0
 10
426.55
 20
40
 11
426.474
 21
39.521
  0
LINE
  8
0
 10
426.474
 20
39.521
 11
426.254
 21
39.0889
  0
LINE
  8
0
 10
426.254
 20
39.0889
 11
425.911
 21
38.746
  0
LINE
  8
0
 10
425.911
 20
38.746
 11
425.479
 21
38.5259
  0
LINE
  8
0
 10
425.479
 20
38.5259
 11
425
 21
38.45
  0
LINE
  8
0
 10
425
 20
38.45
 11
424.521
 21
38.5259
  0
LINE
  8
0
 10
264.521
 20
38.5259
 11
264.089
 21
38.746
  0
LINE
  8
0
 10
264.089
 20
38.746
 11
263.746
 21
39.0889
  0
LINE
  8
0
 10
263.746
 20
39.0889
 11
263.526
 21
39.521
  0
LINE
  8
0
 10
263.526
 20
39.521
 11
263.45
 21
40
  0
LINE
  8
0
 10
263.45
 20
40
 11
263.526
 21
40.479
  0
LINE
  8
0
 10
263.526
 20
40.479
 11
263.746
 21
40.9111
  0
LINE
  8
0
 10
263.746
 20
40.9111
 11
264.089
 21
41.254
  0
LINE
  8
0
 10
264.089
 20
41.254
 11
264.521
 21
41.4741
  0
LINE
  8
0
 10
264.521
 20
41.4741
 11
265
 21
41.55
  0
LINE
  8
0
 10
265
 20
41.55
 11
265.479
 21
41.4741
  0
LINE
  8
0
 10
265.479
 20
41.4741
 11
265.911
 21
41.254
  0
LINE
  8
0
 10
265.911
 20
41.254
 11
266.254
 21
40.9111
  0
LINE
  8
0
 10
266.254
 20
40.9111
 11
266.474
 21
40.479
  0
LINE
  8
0
 10
266.474
 20
40.479
 11
266.55
 21
40
  0
LINE
  8
0
 10
266.55
 20
40
 11
266.474
 21
39.521
  0
LINE
  8
0
 10
266.474
 20
39.521
 11
266.254
 21
39.0889
  0
LINE
  8
0
 10
266.254
 20
39.0889
 11
265.911
 21
38.746
  0
LINE
  8
0
 10
265.911
 20
38.746
 11
265.479
 21
38.5259
  0
LINE
  8
0
 10
265.479
 20
38.5259
 11
265
 21
38.45
  0
LINE
  8
0
 10
265
 20
38.45
 11
264.521
 21
38.5259
  0
LINE
  8
0
 10
104.521
 20
38.5259
 11
104.089
 21
38.746
  0
LINE
  8
0
 10
104.089
 20
38.746
 11
103.746
 21
39.0889
  0
LINE
  8
0
 10
103.746
 20
39.0889
 11
103.526
 21
39.521
  0
LINE
  8
0
 10
103.526
 20
39.521
 11
103.45
 21
40
  0
LINE
  8
0
 10
103.45
 20
40
 11
103.526
 21
40.479
  0
LINE
  8
0
 10
103.526
 20
40.479
 11
103.746
 21
40.9111
  0
LINE
  8
0
 10
103.746
 20
40.9111
 11
104.089
 21
41.254
  0
LINE
  8
0
 10
104.089
 20
41.254
 11
104.521
 21
41.4741
  0
LINE
  8
0
 10
104.521
 20
41.4741
 11
105
 21
41.55
  0
LINE
  8
0
 10
105
 20
41.55
 11
105.479
 21
41.4741
  0
LINE
  8
0
 10
105.479
 20
41.4741
 11
105.911
 21
41.254
  0
LINE
  8
0
 10
105.911
 20
41.254
 11
106.254
 21
40.9111
  0
LINE
  8
0
 10
106.254
 20
40.9111
 11
106.474
 21
40.479
  0
LINE
  8
0
 10
106.474
 20
40.479
 11
106.55
 21
40
  0
LINE
  8
0
 10
106.55
 20
40
 11
106.474
 21
39.521
  0
LINE
  8
0
 10
106.474
 20
39.521
 11
106.254
 21
39.0889
  0
LINE
  8
0
 10
106.254
 20
39.0889
 11
105.911
 21
38.746
  0
LINE
  8
0
 10
105.911
 20
38.746
 11
105.479
 21
38.5259
  0
LINE
  8
0
 10
105.479
 20
38.5259
 11
105
 21
38.45
  0
LINE
  8
0
 10
105
 20
38.45
 11
104.521
 21
38.5259
  0
ENDSEC
  0
SECTION
  2
OBJECTS
  0
DICTIONARY
  0
ENDSEC
  0
EOF
