  0
SECTION
  2
BLOCKS
  0
ENDSEC
  0
SECTION
  2
ENTITIES
  0
LINE
  8
0
 10
490
 20
475
 11
0
 21
475
  0
LINE
  8
0
 10
0
 20
475
 11
0
 21
0
  0
LINE
  8
0
 10
0
 20
0
 11
490
 21
0
  0
LINE
  8
0
 10
490
 20
0
 11
490
 21
475
  0
LINE
  8
0
 10
342.021
 20
463.526
 11
341.589
 21
463.746
  0
LINE
  8
0
 10
341.589
 20
463.746
 11
341.246
 21
464.089
  0
LINE
  8
0
 10
341.246
 20
464.089
 11
341.026
 21
464.521
  0
LINE
  8
0
 10
341.026
 20
464.521
 11
340.95
 21
465
  0
LINE
  8
0
 10
340.95
 20
465
 11
341.026
 21
465.479
  0
LINE
  8
0
 10
341.026
 20
465.479
 11
341.246
 21
465.911
  0
LINE
  8
0
 10
341.246
 20
465.911
 11
341.589
 21
466.254
  0
LINE
  8
0
 10
341.589
 20
466.254
 11
342.021
 21
466.474
  0
LINE
  8
0
 10
342.021
 20
466.474
 11
342.5
 21
466.55
  0
LINE
  8
0
 10
342.5
 20
466.55
 11
342.979
 21
466.474
  0
LINE
  8
0
 10
342.979
 20
466.474
 11
343.411
 21
466.254
  0
LINE
  8
0
 10
343.411
 20
466.254
 11
343.754
 21
465.911
  0
LINE
  8
0
 10
343.754
 20
465.911
 11
343.974
 21
465.479
  0
LINE
  8
0
 10
343.974
 20
465.479
 11
344.05
 21
465
  0
LINE
  8
0
 10
344.05
 20
465
 11
343.974
 21
464.521
  0
LINE
  8
0
 10
343.974
 20
464.521
 11
343.754
 21
464.089
  0
LINE
  8
0
 10
343.754
 20
464.089
 11
343.411
 21
463.746
  0
LINE
  8
0
 10
343.411
 20
463.746
 11
342.979
 21
463.526
  0
LINE
  8
0
 10
342.979
 20
463.526
 11
342.5
 21
463.45
  0
LINE
  8
0
 10
342.5
 20
463.45
 11
342.021
 21
463.526
  0
LINE
  8
0
 10
49.521
 20
463.526
 11
49.0889
 21
463.746
  0
LINE
  8
0
 10
49.0889
 20
463.746
 11
48.746
 21
464.089
  0
LINE
  8
0
 10
48.746
 20
464.089
 11
48.5258
 21
464.521
  0
LINE
  8
0
 10
48.5258
 20
464.521
 11
48.45
 21
465
  0
LINE
  8
0
 10
48.45
 20
465
 11
48.5258
 21
465.479
  0
LINE
  8
0
 10
48.5258
 20
465.479
 11
48.746
 21
465.911
  0
LINE
  8
0
 10
48.746
 20
465.911
 11
49.0889
 21
466.254
  0
LINE
  8
0
 10
49.0889
 20
466.254
 11
49.521
 21
466.474
  0
LINE
  8
0
 10
49.521
 20
466.474
 11
50
 21
466.55
  0
LINE
  8
0
 10
50
 20
466.55
 11
50.479
 21
466.474
  0
LINE
  8
0
 10
50.479
 20
466.474
 11
50.9111
 21
466.254
  0
LINE
  8
0
 10
50.9111
 20
466.254
 11
51.254
 21
465.911
  0
LINE
  8
0
 10
51.254
 20
465.911
 11
51.4741
 21
465.479
  0
LINE
  8
0
 10
51.4741
 20
465.479
 11
51.55
 21
465
  0
LINE
  8
0
 10
51.55
 20
465
 11
51.4741
 21
464.521
  0
LINE
  8
0
 10
51.4741
 20
464.521
 11
51.254
 21
464.089
  0
LINE
  8
0
 10
51.254
 20
464.089
 11
50.9111
 21
463.746
  0
LINE
  8
0
 10
50.9111
 20
463.746
 11
50.479
 21
463.526
  0
LINE
  8
0
 10
50.479
 20
463.526
 11
50
 21
463.45
  0
LINE
  8
0
 10
50
 20
463.45
 11
49.521
 21
463.526
  0
LINE
  8
0
 10
439.521
 20
463.526
 11
439.089
 21
463.746
  0
LINE
  8
0
 10
439.089
 20
463.746
 11
438.746
 21
464.089
  0
LINE
  8
0
 10
438.746
 20
464.089
 11
438.526
 21
464.521
  0
LINE
  8
0
 10
438.526
 20
464.521
 11
438.45
 21
465
  0
LINE
  8
0
 10
438.45
 20
465
 11
438.526
 21
465.479
  0
LINE
  8
0
 10
438.526
 20
465.479
 11
438.746
 21
465.911
  0
LINE
  8
0
 10
438.746
 20
465.911
 11
439.089
 21
466.254
  0
LINE
  8
0
 10
439.089
 20
466.254
 11
439.521
 21
466.474
  0
LINE
  8
0
 10
439.521
 20
466.474
 11
440
 21
466.55
  0
LINE
  8
0
 10
440
 20
466.55
 11
440.479
 21
466.474
  0
LINE
  8
0
 10
440.479
 20
466.474
 11
440.911
 21
466.254
  0
LINE
  8
0
 10
440.911
 20
466.254
 11
441.254
 21
465.911
  0
LINE
  8
0
 10
441.254
 20
465.911
 11
441.474
 21
465.479
  0
LINE
  8
0
 10
441.474
 20
465.479
 11
441.55
 21
465
  0
LINE
  8
0
 10
441.55
 20
465
 11
441.474
 21
464.521
  0
LINE
  8
0
 10
441.474
 20
464.521
 11
441.254
 21
464.089
  0
LINE
  8
0
 10
441.254
 20
464.089
 11
440.911
 21
463.746
  0
LINE
  8
0
 10
440.911
 20
463.746
 11
440.479
 21
463.526
  0
LINE
  8
0
 10
440.479
 20
463.526
 11
440
 21
463.45
  0
LINE
  8
0
 10
440
 20
463.45
 11
439.521
 21
463.526
  0
LINE
  8
0
 10
147.021
 20
463.526
 11
146.589
 21
463.746
  0
LINE
  8
0
 10
146.589
 20
463.746
 11
146.246
 21
464.089
  0
LINE
  8
0
 10
146.246
 20
464.089
 11
146.026
 21
464.521
  0
LINE
  8
0
 10
146.026
 20
464.521
 11
145.95
 21
465
  0
LINE
  8
0
 10
145.95
 20
465
 11
146.026
 21
465.479
  0
LINE
  8
0
 10
146.026
 20
465.479
 11
146.246
 21
465.911
  0
LINE
  8
0
 10
146.246
 20
465.911
 11
146.589
 21
466.254
  0
LINE
  8
0
 10
146.589
 20
466.254
 11
147.021
 21
466.474
  0
LINE
  8
0
 10
147.021
 20
466.474
 11
147.5
 21
466.55
  0
LINE
  8
0
 10
147.5
 20
466.55
 11
147.979
 21
466.474
  0
LINE
  8
0
 10
147.979
 20
466.474
 11
148.411
 21
466.254
  0
LINE
  8
0
 10
148.411
 20
466.254
 11
148.754
 21
465.911
  0
LINE
  8
0
 10
148.754
 20
465.911
 11
148.974
 21
465.479
  0
LINE
  8
0
 10
148.974
 20
465.479
 11
149.05
 21
465
  0
LINE
  8
0
 10
149.05
 20
465
 11
148.974
 21
464.521
  0
LINE
  8
0
 10
148.974
 20
464.521
 11
148.754
 21
464.089
  0
LINE
  8
0
 10
148.754
 20
464.089
 11
148.411
 21
463.746
  0
LINE
  8
0
 10
148.411
 20
463.746
 11
147.979
 21
463.526
  0
LINE
  8
0
 10
147.979
 20
463.526
 11
147.5
 21
463.45
  0
LINE
  8
0
 10
147.5
 20
463.45
 11
147.021
 21
463.526
  0
LINE
  8
0
 10
244.521
 20
463.526
 11
244.089
 21
463.746
  0
LINE
  8
0
 10
244.089
 20
463.746
 11
243.746
 21
464.089
  0
LINE
  8
0
 10
243.746
 20
464.089
 11
243.526
 21
464.521
  0
LINE
  8
0
 10
243.526
 20
464.521
 11
243.45
 21
465
  0
LINE
  8
0
 10
243.45
 20
465
 11
243.526
 21
465.479
  0
LINE
  8
0
 10
243.526
 20
465.479
 11
243.746
 21
465.911
  0
LINE
  8
0
 10
243.746
 20
465.911
 11
244.089
 21
466.254
  0
LINE
  8
0
 10
244.089
 20
466.254
 11
244.521
 21
466.474
  0
LINE
  8
0
 10
244.521
 20
466.474
 11
245
 21
466.55
  0
LINE
  8
0
 10
245
 20
466.55
 11
245.479
 21
466.474
  0
LINE
  8
0
 10
245.479
 20
466.474
 11
245.911
 21
466.254
  0
LINE
  8
0
 10
245.911
 20
466.254
 11
246.254
 21
465.911
  0
LINE
  8
0
 10
246.254
 20
465.911
 11
246.474
 21
465.479
  0
LINE
  8
0
 10
246.474
 20
465.479
 11
246.55
 21
465
  0
LINE
  8
0
 10
246.55
 20
465
 11
246.474
 21
464.521
  0
LINE
  8
0
 10
246.474
 20
464.521
 11
246.254
 21
464.089
  0
LINE
  8
0
 10
246.254
 20
464.089
 11
245.911
 21
463.746
  0
LINE
  8
0
 10
245.911
 20
463.746
 11
245.479
 21
463.526
  0
LINE
  8
0
 10
245.479
 20
463.526
 11
245
 21
463.45
  0
LINE
  8
0
 10
245
 20
463.45
 11
244.521
 21
463.526
  0
LINE
  8
0
 10
457.208
 20
440.563
 11
456.494
 21
440.927
  0
LINE
  8
0
 10
456.494
 20
440.927
 11
455.927
 21
441.494
  0
LINE
  8
0
 10
455.927
 20
441.494
 11
455.563
 21
442.208
  0
LINE
  8
0
 10
455.563
 20
442.208
 11
455.438
 21
443
  0
LINE
  8
0
 10
455.438
 20
443
 11
455.563
 21
443.792
  0
LINE
  8
0
 10
455.563
 20
443.792
 11
455.927
 21
444.506
  0
LINE
  8
0
 10
455.927
 20
444.506
 11
456.494
 21
445.073
  0
LINE
  8
0
 10
456.494
 20
445.073
 11
457.208
 21
445.437
  0
LINE
  8
0
 10
457.208
 20
445.437
 11
458
 21
445.562
  0
LINE
  8
0
 10
458
 20
445.562
 11
458.792
 21
445.437
  0
LINE
  8
0
 10
458.792
 20
445.437
 11
459.506
 21
445.073
  0
LINE
  8
0
 10
459.506
 20
445.073
 11
460.073
 21
444.506
  0
LINE
  8
0
 10
460.073
 20
444.506
 11
460.437
 21
443.792
  0
LINE
  8
0
 10
460.437
 20
443.792
 11
460.562
 21
443
  0
LINE
  8
0
 10
460.562
 20
443
 11
460.437
 21
442.208
  0
LINE
  8
0
 10
460.437
 20
442.208
 11
460.073
 21
441.494
  0
LINE
  8
0
 10
460.073
 20
441.494
 11
459.506
 21
440.927
  0
LINE
  8
0
 10
459.506
 20
440.927
 11
458.792
 21
440.563
  0
LINE
  8
0
 10
458.792
 20
440.563
 11
458
 21
440.438
  0
LINE
  8
0
 10
458
 20
440.438
 11
457.208
 21
440.563
  0
LINE
  8
0
 10
385.208
 20
440.563
 11
384.494
 21
440.927
  0
LINE
  8
0
 10
384.494
 20
440.927
 11
383.927
 21
441.494
  0
LINE
  8
0
 10
383.927
 20
441.494
 11
383.563
 21
442.208
  0
LINE
  8
0
 10
383.563
 20
442.208
 11
383.438
 21
443
  0
LINE
  8
0
 10
383.438
 20
443
 11
383.563
 21
443.792
  0
LINE
  8
0
 10
383.563
 20
443.792
 11
383.927
 21
444.506
  0
LINE
  8
0
 10
383.927
 20
444.506
 11
384.494
 21
445.073
  0
LINE
  8
0
 10
384.494
 20
445.073
 11
385.208
 21
445.437
  0
LINE
  8
0
 10
385.208
 20
445.437
 11
386
 21
445.562
  0
LINE
  8
0
 10
386
 20
445.562
 11
386.792
 21
445.437
  0
LINE
  8
0
 10
386.792
 20
445.437
 11
387.506
 21
445.073
  0
LINE
  8
0
 10
387.506
 20
445.073
 11
388.073
 21
444.506
  0
LINE
  8
0
 10
388.073
 20
444.506
 11
388.437
 21
443.792
  0
LINE
  8
0
 10
388.437
 20
443.792
 11
388.562
 21
443
  0
LINE
  8
0
 10
388.562
 20
443
 11
388.437
 21
442.208
  0
LINE
  8
0
 10
388.437
 20
442.208
 11
388.073
 21
441.494
  0
LINE
  8
0
 10
388.073
 20
441.494
 11
387.506
 21
440.927
  0
LINE
  8
0
 10
387.506
 20
440.927
 11
386.792
 21
440.563
  0
LINE
  8
0
 10
386.792
 20
440.563
 11
386
 21
440.438
  0
LINE
  8
0
 10
386
 20
440.438
 11
385.208
 21
440.563
  0
LINE
  8
0
 10
411.684
 20
374.213
 11
401.928
 21
379.184
  0
LINE
  8
0
 10
401.928
 20
379.184
 11
394.184
 21
386.928
  0
LINE
  8
0
 10
394.184
 20
386.928
 11
389.213
 21
396.684
  0
LINE
  8
0
 10
389.213
 20
396.684
 11
387.5
 21
407.5
  0
LINE
  8
0
 10
387.5
 20
407.5
 11
389.213
 21
418.316
  0
LINE
  8
0
 10
389.213
 20
418.316
 11
394.184
 21
428.072
  0
LINE
  8
0
 10
394.184
 20
428.072
 11
401.928
 21
435.816
  0
LINE
  8
0
 10
401.928
 20
435.816
 11
411.684
 21
440.787
  0
LINE
  8
0
 10
411.684
 20
440.787
 11
422.5
 21
442.5
  0
LINE
  8
0
 10
422.5
 20
442.5
 11
433.316
 21
440.787
  0
LINE
  8
0
 10
433.316
 20
440.787
 11
443.072
 21
435.816
  0
LINE
  8
0
 10
443.072
 20
435.816
 11
450.816
 21
428.072
  0
LINE
  8
0
 10
450.816
 20
428.072
 11
455.787
 21
418.316
  0
LINE
  8
0
 10
455.787
 20
418.316
 11
457.5
 21
407.5
  0
LINE
  8
0
 10
457.5
 20
407.5
 11
455.787
 21
396.684
  0
LINE
  8
0
 10
455.787
 20
396.684
 11
450.816
 21
386.928
  0
LINE
  8
0
 10
450.816
 20
386.928
 11
443.072
 21
379.184
  0
LINE
  8
0
 10
443.072
 20
379.184
 11
433.316
 21
374.213
  0
LINE
  8
0
 10
433.316
 20
374.213
 11
422.5
 21
372.5
  0
LINE
  8
0
 10
422.5
 20
372.5
 11
411.684
 21
374.213
  0
LINE
  8
0
 10
9.52101
 20
423.526
 11
9.08893
 21
423.746
  0
LINE
  8
0
 10
9.08893
 20
423.746
 11
8.74602
 21
424.089
  0
LINE
  8
0
 10
8.74602
 20
424.089
 11
8.52585
 21
424.521
  0
LINE
  8
0
 10
8.52585
 20
424.521
 11
8.45
 21
425
  0
LINE
  8
0
 10
8.45
 20
425
 11
8.52585
 21
425.479
  0
LINE
  8
0
 10
8.52585
 20
425.479
 11
8.74602
 21
425.911
  0
LINE
  8
0
 10
8.74602
 20
425.911
 11
9.08893
 21
426.254
  0
LINE
  8
0
 10
9.08893
 20
426.254
 11
9.52101
 21
426.474
  0
LINE
  8
0
 10
9.52101
 20
426.474
 11
10
 21
426.55
  0
LINE
  8
0
 10
10
 20
426.55
 11
10.479
 21
426.474
  0
LINE
  8
0
 10
10.479
 20
426.474
 11
10.9111
 21
426.254
  0
LINE
  8
0
 10
10.9111
 20
426.254
 11
11.254
 21
425.911
  0
LINE
  8
0
 10
11.254
 20
425.911
 11
11.4741
 21
425.479
  0
LINE
  8
0
 10
11.4741
 20
425.479
 11
11.55
 21
425
  0
LINE
  8
0
 10
11.55
 20
425
 11
11.4741
 21
424.521
  0
LINE
  8
0
 10
11.4741
 20
424.521
 11
11.254
 21
424.089
  0
LINE
  8
0
 10
11.254
 20
424.089
 11
10.9111
 21
423.746
  0
LINE
  8
0
 10
10.9111
 20
423.746
 11
10.479
 21
423.526
  0
LINE
  8
0
 10
10.479
 20
423.526
 11
10
 21
423.45
  0
LINE
  8
0
 10
10
 20
423.45
 11
9.52101
 21
423.526
  0
LINE
  8
0
 10
479.521
 20
423.526
 11
479.089
 21
423.746
  0
LINE
  8
0
 10
479.089
 20
423.746
 11
478.746
 21
424.089
  0
LINE
  8
0
 10
478.746
 20
424.089
 11
478.526
 21
424.521
  0
LINE
  8
0
 10
478.526
 20
424.521
 11
478.45
 21
425
  0
LINE
  8
0
 10
478.45
 20
425
 11
478.526
 21
425.479
  0
LINE
  8
0
 10
478.526
 20
425.479
 11
478.746
 21
425.911
  0
LINE
  8
0
 10
478.746
 20
425.911
 11
479.089
 21
426.254
  0
LINE
  8
0
 10
479.089
 20
426.254
 11
479.521
 21
426.474
  0
LINE
  8
0
 10
479.521
 20
426.474
 11
480
 21
426.55
  0
LINE
  8
0
 10
480
 20
426.55
 11
480.479
 21
426.474
  0
LINE
  8
0
 10
480.479
 20
426.474
 11
480.911
 21
426.254
  0
LINE
  8
0
 10
480.911
 20
426.254
 11
481.254
 21
425.911
  0
LINE
  8
0
 10
481.254
 20
425.911
 11
481.474
 21
425.479
  0
LINE
  8
0
 10
481.474
 20
425.479
 11
481.55
 21
425
  0
LINE
  8
0
 10
481.55
 20
425
 11
481.474
 21
424.521
  0
LINE
  8
0
 10
481.474
 20
424.521
 11
481.254
 21
424.089
  0
LINE
  8
0
 10
481.254
 20
424.089
 11
480.911
 21
423.746
  0
LINE
  8
0
 10
480.911
 20
423.746
 11
480.479
 21
423.526
  0
LINE
  8
0
 10
480.479
 20
423.526
 11
480
 21
423.45
  0
LINE
  8
0
 10
480
 20
423.45
 11
479.521
 21
423.526
  0
LINE
  8
0
 10
457.208
 20
368.563
 11
456.494
 21
368.927
  0
LINE
  8
0
 10
456.494
 20
368.927
 11
455.927
 21
369.494
  0
LINE
  8
0
 10
455.927
 20
369.494
 11
455.563
 21
370.208
  0
LINE
  8
0
 10
455.563
 20
370.208
 11
455.438
 21
371
  0
LINE
  8
0
 10
455.438
 20
371
 11
455.563
 21
371.792
  0
LINE
  8
0
 10
455.563
 20
371.792
 11
455.927
 21
372.506
  0
LINE
  8
0
 10
455.927
 20
372.506
 11
456.494
 21
373.073
  0
LINE
  8
0
 10
456.494
 20
373.073
 11
457.208
 21
373.437
  0
LINE
  8
0
 10
457.208
 20
373.437
 11
458
 21
373.562
  0
LINE
  8
0
 10
458
 20
373.562
 11
458.792
 21
373.437
  0
LINE
  8
0
 10
458.792
 20
373.437
 11
459.506
 21
373.073
  0
LINE
  8
0
 10
459.506
 20
373.073
 11
460.073
 21
372.506
  0
LINE
  8
0
 10
460.073
 20
372.506
 11
460.437
 21
371.792
  0
LINE
  8
0
 10
460.437
 20
371.792
 11
460.562
 21
371
  0
LINE
  8
0
 10
460.562
 20
371
 11
460.437
 21
370.208
  0
LINE
  8
0
 10
460.437
 20
370.208
 11
460.073
 21
369.494
  0
LINE
  8
0
 10
460.073
 20
369.494
 11
459.506
 21
368.927
  0
LINE
  8
0
 10
459.506
 20
368.927
 11
458.792
 21
368.563
  0
LINE
  8
0
 10
458.792
 20
368.563
 11
458
 21
368.438
  0
LINE
  8
0
 10
458
 20
368.438
 11
457.208
 21
368.563
  0
LINE
  8
0
 10
385.208
 20
368.563
 11
384.494
 21
368.927
  0
LINE
  8
0
 10
384.494
 20
368.927
 11
383.927
 21
369.494
  0
LINE
  8
0
 10
383.927
 20
369.494
 11
383.563
 21
370.208
  0
LINE
  8
0
 10
383.563
 20
370.208
 11
383.438
 21
371
  0
LINE
  8
0
 10
383.438
 20
371
 11
383.563
 21
371.792
  0
LINE
  8
0
 10
383.563
 20
371.792
 11
383.927
 21
372.506
  0
LINE
  8
0
 10
383.927
 20
372.506
 11
384.494
 21
373.073
  0
LINE
  8
0
 10
384.494
 20
373.073
 11
385.208
 21
373.437
  0
LINE
  8
0
 10
385.208
 20
373.437
 11
386
 21
373.562
  0
LINE
  8
0
 10
386
 20
373.562
 11
386.792
 21
373.437
  0
LINE
  8
0
 10
386.792
 20
373.437
 11
387.506
 21
373.073
  0
LINE
  8
0
 10
387.506
 20
373.073
 11
388.073
 21
372.506
  0
LINE
  8
0
 10
388.073
 20
372.506
 11
388.437
 21
371.792
  0
LINE
  8
0
 10
388.437
 20
371.792
 11
388.562
 21
371
  0
LINE
  8
0
 10
388.562
 20
371
 11
388.437
 21
370.208
  0
LINE
  8
0
 10
388.437
 20
370.208
 11
388.073
 21
369.494
  0
LINE
  8
0
 10
388.073
 20
369.494
 11
387.506
 21
368.927
  0
LINE
  8
0
 10
387.506
 20
368.927
 11
386.792
 21
368.563
  0
LINE
  8
0
 10
386.792
 20
368.563
 11
386
 21
368.438
  0
LINE
  8
0
 10
386
 20
368.438
 11
385.208
 21
368.563
  0
LINE
  8
0
 10
479.521
 20
329.776
 11
479.089
 21
329.996
  0
LINE
  8
0
 10
479.089
 20
329.996
 11
478.746
 21
330.339
  0
LINE
  8
0
 10
478.746
 20
330.339
 11
478.526
 21
330.771
  0
LINE
  8
0
 10
478.526
 20
330.771
 11
478.45
 21
331.25
  0
LINE
  8
0
 10
478.45
 20
331.25
 11
478.526
 21
331.729
  0
LINE
  8
0
 10
478.526
 20
331.729
 11
478.746
 21
332.161
  0
LINE
  8
0
 10
478.746
 20
332.161
 11
479.089
 21
332.504
  0
LINE
  8
0
 10
479.089
 20
332.504
 11
479.521
 21
332.724
  0
LINE
  8
0
 10
479.521
 20
332.724
 11
480
 21
332.8
  0
LINE
  8
0
 10
480
 20
332.8
 11
480.479
 21
332.724
  0
LINE
  8
0
 10
480.479
 20
332.724
 11
480.911
 21
332.504
  0
LINE
  8
0
 10
480.911
 20
332.504
 11
481.254
 21
332.161
  0
LINE
  8
0
 10
481.254
 20
332.161
 11
481.474
 21
331.729
  0
LINE
  8
0
 10
481.474
 20
331.729
 11
481.55
 21
331.25
  0
LINE
  8
0
 10
481.55
 20
331.25
 11
481.474
 21
330.771
  0
LINE
  8
0
 10
481.474
 20
330.771
 11
481.254
 21
330.339
  0
LINE
  8
0
 10
481.254
 20
330.339
 11
480.911
 21
329.996
  0
LINE
  8
0
 10
480.911
 20
329.996
 11
480.479
 21
329.776
  0
LINE
  8
0
 10
480.479
 20
329.776
 11
480
 21
329.7
  0
LINE
  8
0
 10
480
 20
329.7
 11
479.521
 21
329.776
  0
LINE
  8
0
 10
9.52101
 20
329.776
 11
9.08893
 21
329.996
  0
LINE
  8
0
 10
9.08893
 20
329.996
 11
8.74602
 21
330.339
  0
LINE
  8
0
 10
8.74602
 20
330.339
 11
8.52585
 21
330.771
  0
LINE
  8
0
 10
8.52585
 20
330.771
 11
8.45
 21
331.25
  0
LINE
  8
0
 10
8.45
 20
331.25
 11
8.52585
 21
331.729
  0
LINE
  8
0
 10
8.52585
 20
331.729
 11
8.74602
 21
332.161
  0
LINE
  8
0
 10
8.74602
 20
332.161
 11
9.08893
 21
332.504
  0
LINE
  8
0
 10
9.08893
 20
332.504
 11
9.52101
 21
332.724
  0
LINE
  8
0
 10
9.52101
 20
332.724
 11
10
 21
332.8
  0
LINE
  8
0
 10
10
 20
332.8
 11
10.479
 21
332.724
  0
LINE
  8
0
 10
10.479
 20
332.724
 11
10.9111
 21
332.504
  0
LINE
  8
0
 10
10.9111
 20
332.504
 11
11.254
 21
332.161
  0
LINE
  8
0
 10
11.254
 20
332.161
 11
11.4741
 21
331.729
  0
LINE
  8
0
 10
11.4741
 20
331.729
 11
11.55
 21
331.25
  0
LINE
  8
0
 10
11.55
 20
331.25
 11
11.4741
 21
330.771
  0
LINE
  8
0
 10
11.4741
 20
330.771
 11
11.254
 21
330.339
  0
LINE
  8
0
 10
11.254
 20
330.339
 11
10.9111
 21
329.996
  0
LINE
  8
0
 10
10.9111
 20
329.996
 11
10.479
 21
329.776
  0
LINE
  8
0
 10
10.479
 20
329.776
 11
10
 21
329.7
  0
LINE
  8
0
 10
10
 20
329.7
 11
9.52101
 21
329.776
  0
LINE
  8
0
 10
105
 20
30
 11
101.91
 21
30.4894
  0
LINE
  8
0
 10
101.91
 20
30.4894
 11
99.1222
 21
31.9098
  0
LINE
  8
0
 10
99.1222
 20
31.9098
 11
96.9098
 21
34.1222
  0
LINE
  8
0
 10
96.9098
 20
34.1222
 11
95.4894
 21
36.9098
  0
LINE
  8
0
 10
95.4894
 20
36.9098
 11
95
 21
40
  0
LINE
  8
0
 10
95
 20
40
 11
95
 21
280
  0
LINE
  8
0
 10
95
 20
280
 11
95.4894
 21
283.09
  0
LINE
  8
0
 10
95.4894
 20
283.09
 11
96.9098
 21
285.878
  0
LINE
  8
0
 10
96.9098
 20
285.878
 11
99.1222
 21
288.09
  0
LINE
  8
0
 10
99.1222
 20
288.09
 11
101.91
 21
289.511
  0
LINE
  8
0
 10
101.91
 20
289.511
 11
105
 21
290
  0
LINE
  8
0
 10
105
 20
290
 11
425
 21
290
  0
LINE
  8
0
 10
425
 20
290
 11
428.09
 21
289.511
  0
LINE
  8
0
 10
428.09
 20
289.511
 11
430.878
 21
288.09
  0
LINE
  8
0
 10
430.878
 20
288.09
 11
433.09
 21
285.878
  0
LINE
  8
0
 10
433.09
 20
285.878
 11
434.511
 21
283.09
  0
LINE
  8
0
 10
434.511
 20
283.09
 11
435
 21
280
  0
LINE
  8
0
 10
435
 20
280
 11
435
 21
40
  0
LINE
  8
0
 10
435
 20
40
 11
434.511
 21
36.9098
  0
LINE
  8
0
 10
434.511
 20
36.9098
 11
433.09
 21
34.1222
  0
LINE
  8
0
 10
433.09
 20
34.1222
 11
430.878
 21
31.9098
  0
LINE
  8
0
 10
430.878
 20
31.9098
 11
428.09
 21
30.4894
  0
LINE
  8
0
 10
428.09
 20
30.4894
 11
425
 21
30
  0
LINE
  8
0
 10
425
 20
30
 11
105
 21
30
  0
LINE
  8
0
 10
425.479
 20
278.526
 11
425.911
 21
278.746
  0
LINE
  8
0
 10
425.911
 20
278.746
 11
426.254
 21
279.089
  0
LINE
  8
0
 10
426.254
 20
279.089
 11
426.474
 21
279.521
  0
LINE
  8
0
 10
426.474
 20
279.521
 11
426.55
 21
280
  0
LINE
  8
0
 10
426.55
 20
280
 11
426.474
 21
280.479
  0
LINE
  8
0
 10
426.474
 20
280.479
 11
426.254
 21
280.911
  0
LINE
  8
0
 10
426.254
 20
280.911
 11
425.911
 21
281.254
  0
LINE
  8
0
 10
425.911
 20
281.254
 11
425.479
 21
281.474
  0
LINE
  8
0
 10
425.479
 20
281.474
 11
425
 21
281.55
  0
LINE
  8
0
 10
425
 20
281.55
 11
424.521
 21
281.474
  0
LINE
  8
0
 10
424.521
 20
281.474
 11
424.089
 21
281.254
  0
LINE
  8
0
 10
424.089
 20
281.254
 11
423.746
 21
280.911
  0
LINE
  8
0
 10
423.746
 20
280.911
 11
423.526
 21
280.479
  0
LINE
  8
0
 10
423.526
 20
280.479
 11
423.45
 21
280
  0
LINE
  8
0
 10
423.45
 20
280
 11
423.526
 21
279.521
  0
LINE
  8
0
 10
423.526
 20
279.521
 11
423.746
 21
279.089
  0
LINE
  8
0
 10
423.746
 20
279.089
 11
424.089
 21
278.746
  0
LINE
  8
0
 10
424.089
 20
278.746
 11
424.521
 21
278.526
  0
LINE
  8
0
 10
424.521
 20
278.526
 11
425
 21
278.45
  0
LINE
  8
0
 10
425
 20
278.45
 11
425.479
 21
278.526
  0
LINE
  8
0
 10
265.479
 20
278.526
 11
265.911
 21
278.746
  0
LINE
  8
0
 10
265.911
 20
278.746
 11
266.254
 21
279.089
  0
LINE
  8
0
 10
266.254
 20
279.089
 11
266.474
 21
279.521
  0
LINE
  8
0
 10
266.474
 20
279.521
 11
266.55
 21
280
  0
LINE
  8
0
 10
266.55
 20
280
 11
266.474
 21
280.479
  0
LINE
  8
0
 10
266.474
 20
280.479
 11
266.254
 21
280.911
  0
LINE
  8
0
 10
266.254
 20
280.911
 11
265.911
 21
281.254
  0
LINE
  8
0
 10
265.911
 20
281.254
 11
265.479
 21
281.474
  0
LINE
  8
0
 10
265.479
 20
281.474
 11
265
 21
281.55
  0
LINE
  8
0
 10
265
 20
281.55
 11
264.521
 21
281.474
  0
LINE
  8
0
 10
264.521
 20
281.474
 11
264.089
 21
281.254
  0
LINE
  8
0
 10
264.089
 20
281.254
 11
263.746
 21
280.911
  0
LINE
  8
0
 10
263.746
 20
280.911
 11
263.526
 21
280.479
  0
LINE
  8
0
 10
263.526
 20
280.479
 11
263.45
 21
280
  0
LINE
  8
0
 10
263.45
 20
280
 11
263.526
 21
279.521
  0
LINE
  8
0
 10
263.526
 20
279.521
 11
263.746
 21
279.089
  0
LINE
  8
0
 10
263.746
 20
279.089
 11
264.089
 21
278.746
  0
LINE
  8
0
 10
264.089
 20
278.746
 11
264.521
 21
278.526
  0
LINE
  8
0
 10
264.521
 20
278.526
 11
265
 21
278.45
  0
LINE
  8
0
 10
265
 20
278.45
 11
265.479
 21
278.526
  0
LINE
  8
0
 10
105.479
 20
278.526
 11
105.911
 21
278.746
  0
LINE
  8
0
 10
105.911
 20
278.746
 11
106.254
 21
279.089
  0
LINE
  8
0
 10
106.254
 20
279.089
 11
106.474
 21
279.521
  0
LINE
  8
0
 10
106.474
 20
279.521
 11
106.55
 21
280
  0
LINE
  8
0
 10
106.55
 20
280
 11
106.474
 21
280.479
  0
LINE
  8
0
 10
106.474
 20
280.479
 11
106.254
 21
280.911
  0
LINE
  8
0
 10
106.254
 20
280.911
 11
105.911
 21
281.254
  0
LINE
  8
0
 10
105.911
 20
281.254
 11
105.479
 21
281.474
  0
LINE
  8
0
 10
105.479
 20
281.474
 11
105
 21
281.55
  0
LINE
  8
0
 10
105
 20
281.55
 11
104.521
 21
281.474
  0
LINE
  8
0
 10
104.521
 20
281.474
 11
104.089
 21
281.254
  0
LINE
  8
0
 10
104.089
 20
281.254
 11
103.746
 21
280.911
  0
LINE
  8
0
 10
103.746
 20
280.911
 11
103.526
 21
280.479
  0
LINE
  8
0
 10
103.526
 20
280.479
 11
103.45
 21
280
  0
LINE
  8
0
 10
103.45
 20
280
 11
103.526
 21
279.521
  0
LINE
  8
0
 10
103.526
 20
279.521
 11
103.746
 21
279.089
  0
LINE
  8
0
 10
103.746
 20
279.089
 11
104.089
 21
278.746
  0
LINE
  8
0
 10
104.089
 20
278.746
 11
104.521
 21
278.526
  0
LINE
  8
0
 10
104.521
 20
278.526
 11
105
 21
278.45
  0
LINE
  8
0
 10
105
 20
278.45
 11
105.479
 21
278.526
  0
LINE
  8
0
 10
408.09
 20
50.4894
 11
410.878
 21
51.9098
  0
LINE
  8
0
 10
410.878
 20
51.9098
 11
413.09
 21
54.1221
  0
LINE
  8
0
 10
413.09
 20
54.1221
 11
414.511
 21
56.9098
  0
LINE
  8
0
 10
414.511
 20
56.9098
 11
415
 21
60
  0
LINE
  8
0
 10
415
 20
60
 11
415
 21
260
  0
LINE
  8
0
 10
415
 20
260
 11
414.511
 21
263.09
  0
LINE
  8
0
 10
414.511
 20
263.09
 11
413.09
 21
265.878
  0
LINE
  8
0
 10
413.09
 20
265.878
 11
410.878
 21
268.09
  0
LINE
  8
0
 10
410.878
 20
268.09
 11
408.09
 21
269.511
  0
LINE
  8
0
 10
408.09
 20
269.511
 11
405
 21
270
  0
LINE
  8
0
 10
405
 20
270
 11
125
 21
270
  0
LINE
  8
0
 10
125
 20
270
 11
121.91
 21
269.511
  0
LINE
  8
0
 10
121.91
 20
269.511
 11
119.122
 21
268.09
  0
LINE
  8
0
 10
119.122
 20
268.09
 11
116.91
 21
265.878
  0
LINE
  8
0
 10
116.91
 20
265.878
 11
115.489
 21
263.09
  0
LINE
  8
0
 10
115.489
 20
263.09
 11
115
 21
260
  0
LINE
  8
0
 10
115
 20
260
 11
115
 21
60
  0
LINE
  8
0
 10
115
 20
60
 11
115.489
 21
56.9098
  0
LINE
  8
0
 10
115.489
 20
56.9098
 11
116.91
 21
54.1221
  0
LINE
  8
0
 10
116.91
 20
54.1221
 11
119.122
 21
51.9098
  0
LINE
  8
0
 10
119.122
 20
51.9098
 11
121.91
 21
50.4894
  0
LINE
  8
0
 10
121.91
 20
50.4894
 11
125
 21
50
  0
LINE
  8
0
 10
125
 20
50
 11
405
 21
50
  0
LINE
  8
0
 10
405
 20
50
 11
408.09
 21
50.4894
  0
LINE
  8
0
 10
105.479
 20
38.5259
 11
105.911
 21
38.746
  0
LINE
  8
0
 10
105.911
 20
38.746
 11
106.254
 21
39.0889
  0
LINE
  8
0
 10
106.254
 20
39.0889
 11
106.474
 21
39.521
  0
LINE
  8
0
 10
106.474
 20
39.521
 11
106.55
 21
40
  0
LINE
  8
0
 10
106.55
 20
40
 11
106.474
 21
40.479
  0
LINE
  8
0
 10
106.474
 20
40.479
 11
106.254
 21
40.9111
  0
LINE
  8
0
 10
106.254
 20
40.9111
 11
105.911
 21
41.254
  0
LINE
  8
0
 10
105.911
 20
41.254
 11
105.479
 21
41.4741
  0
LINE
  8
0
 10
105.479
 20
41.4741
 11
105
 21
41.55
  0
LINE
  8
0
 10
105
 20
41.55
 11
104.521
 21
41.4741
  0
LINE
  8
0
 10
104.521
 20
41.4741
 11
104.089
 21
41.254
  0
LINE
  8
0
 10
104.089
 20
41.254
 11
103.746
 21
40.9111
  0
LINE
  8
0
 10
103.746
 20
40.9111
 11
103.526
 21
40.479
  0
LINE
  8
0
 10
103.526
 20
40.479
 11
103.45
 21
40
  0
LINE
  8
0
 10
103.45
 20
40
 11
103.526
 21
39.521
  0
LINE
  8
0
 10
103.526
 20
39.521
 11
103.746
 21
39.0889
  0
LINE
  8
0
 10
103.746
 20
39.0889
 11
104.089
 21
38.746
  0
LINE
  8
0
 10
104.089
 20
38.746
 11
104.521
 21
38.5259
  0
LINE
  8
0
 10
104.521
 20
38.5259
 11
105
 21
38.45
  0
LINE
  8
0
 10
105
 20
38.45
 11
105.479
 21
38.5259
  0
LINE
  8
0
 10
265.479
 20
38.5259
 11
265.911
 21
38.746
  0
LINE
  8
0
 10
265.911
 20
38.746
 11
266.254
 21
39.0889
  0
LINE
  8
0
 10
266.254
 20
39.0889
 11
266.474
 21
39.521
  0
LINE
  8
0
 10
266.474
 20
39.521
 11
266.55
 21
40
  0
LINE
  8
0
 10
266.55
 20
40
 11
266.474
 21
40.479
  0
LINE
  8
0
 10
266.474
 20
40.479
 11
266.254
 21
40.9111
  0
LINE
  8
0
 10
266.254
 20
40.9111
 11
265.911
 21
41.254
  0
LINE
  8
0
 10
265.911
 20
41.254
 11
265.479
 21
41.4741
  0
LINE
  8
0
 10
265.479
 20
41.4741
 11
265
 21
41.55
  0
LINE
  8
0
 10
265
 20
41.55
 11
264.521
 21
41.4741
  0
LINE
  8
0
 10
264.521
 20
41.4741
 11
264.089
 21
41.254
  0
LINE
  8
0
 10
264.089
 20
41.254
 11
263.746
 21
40.9111
  0
LINE
  8
0
 10
263.746
 20
40.9111
 11
263.526
 21
40.479
  0
LINE
  8
0
 10
263.526
 20
40.479
 11
263.45
 21
40
  0
LINE
  8
0
 10
263.45
 20
40
 11
263.526
 21
39.521
  0
LINE
  8
0
 10
263.526
 20
39.521
 11
263.746
 21
39.0889
  0
LINE
  8
0
 10
263.746
 20
39.0889
 11
264.089
 21
38.746
  0
LINE
  8
0
 10
264.089
 20
38.746
 11
264.521
 21
38.5259
  0
LINE
  8
0
 10
264.521
 20
38.5259
 11
265
 21
38.45
  0
LINE
  8
0
 10
265
 20
38.45
 11
265.479
 21
38.5259
  0
LINE
  8
0
 10
425.479
 20
38.5259
 11
425.911
 21
38.746
  0
LINE
  8
0
 10
425.911
 20
38.746
 11
426.254
 21
39.0889
  0
LINE
  8
0
 10
426.254
 20
39.0889
 11
426.474
 21
39.521
  0
LINE
  8
0
 10
426.474
 20
39.521
 11
426.55
 21
40
  0
LINE
  8
0
 10
426.55
 20
40
 11
426.474
 21
40.479
  0
LINE
  8
0
 10
426.474
 20
40.479
 11
426.254
 21
40.9111
  0
LINE
  8
0
 10
426.254
 20
40.9111
 11
425.911
 21
41.254
  0
LINE
  8
0
 10
425.911
 20
41.254
 11
425.479
 21
41.4741
  0
LINE
  8
0
 10
425.479
 20
41.4741
 11
425
 21
41.55
  0
LINE
  8
0
 10
425
 20
41.55
 11
424.521
 21
41.4741
  0
LINE
  8
0
 10
424.521
 20
41.4741
 11
424.089
 21
41.254
  0
LINE
  8
0
 10
424.089
 20
41.254
 11
423.746
 21
40.9111
  0
LINE
  8
0
 10
423.746
 20
40.9111
 11
423.526
 21
40.479
  0
LINE
  8
0
 10
423.526
 20
40.479
 11
423.45
 21
40
  0
LINE
  8
0
 10
423.45
 20
40
 11
423.526
 21
39.521
  0
LINE
  8
0
 10
423.526
 20
39.521
 11
423.746
 21
39.0889
  0
LINE
  8
0
 10
423.746
 20
39.0889
 11
424.089
 21
38.746
  0
LINE
  8
0
 10
424.089
 20
38.746
 11
424.521
 21
38.5259
  0
LINE
  8
0
 10
424.521
 20
38.5259
 11
425
 21
38.45
  0
LINE
  8
0
 10
425
 20
38.45
 11
425.479
 21
38.5259
  0
LINE
  8
0
 10
479.208
 20
281.563
 11
478.494
 21
281.927
  0
LINE
  8
0
 10
478.494
 20
281.927
 11
477.927
 21
282.494
  0
LINE
  8
0
 10
477.927
 20
282.494
 11
477.563
 21
283.208
  0
LINE
  8
0
 10
477.563
 20
283.208
 11
477.438
 21
284
  0
LINE
  8
0
 10
477.438
 20
284
 11
477.563
 21
284.792
  0
LINE
  8
0
 10
477.563
 20
284.792
 11
477.927
 21
285.506
  0
LINE
  8
0
 10
477.927
 20
285.506
 11
478.494
 21
286.073
  0
LINE
  8
0
 10
478.494
 20
286.073
 11
479.208
 21
286.437
  0
LINE
  8
0
 10
479.208
 20
286.437
 11
480
 21
286.562
  0
LINE
  8
0
 10
480
 20
286.562
 11
480.792
 21
286.437
  0
LINE
  8
0
 10
480.792
 20
286.437
 11
481.506
 21
286.073
  0
LINE
  8
0
 10
481.506
 20
286.073
 11
482.073
 21
285.506
  0
LINE
  8
0
 10
482.073
 20
285.506
 11
482.437
 21
284.792
  0
LINE
  8
0
 10
482.437
 20
284.792
 11
482.562
 21
284
  0
LINE
  8
0
 10
482.562
 20
284
 11
482.437
 21
283.208
  0
LINE
  8
0
 10
482.437
 20
283.208
 11
482.073
 21
282.494
  0
LINE
  8
0
 10
482.073
 20
282.494
 11
481.506
 21
281.927
  0
LINE
  8
0
 10
481.506
 20
281.927
 11
480.792
 21
281.563
  0
LINE
  8
0
 10
480.792
 20
281.563
 11
480
 21
281.438
  0
LINE
  8
0
 10
480
 20
281.438
 11
479.208
 21
281.563
  0
LINE
  8
0
 10
9.20813
 20
281.563
 11
8.49379
 21
281.927
  0
LINE
  8
0
 10
8.49379
 20
281.927
 11
7.92688
 21
282.494
  0
LINE
  8
0
 10
7.92688
 20
282.494
 11
7.56291
 21
283.208
  0
LINE
  8
0
 10
7.56291
 20
283.208
 11
7.4375
 21
284
  0
LINE
  8
0
 10
7.4375
 20
284
 11
7.56291
 21
284.792
  0
LINE
  8
0
 10
7.56291
 20
284.792
 11
7.92688
 21
285.506
  0
LINE
  8
0
 10
7.92688
 20
285.506
 11
8.49379
 21
286.073
  0
LINE
  8
0
 10
8.49379
 20
286.073
 11
9.20813
 21
286.437
  0
LINE
  8
0
 10
9.20813
 20
286.437
 11
10
 21
286.562
  0
LINE
  8
0
 10
10
 20
286.562
 11
10.7919
 21
286.437
  0
LINE
  8
0
 10
10.7919
 20
286.437
 11
11.5062
 21
286.073
  0
LINE
  8
0
 10
11.5062
 20
286.073
 11
12.0731
 21
285.506
  0
LINE
  8
0
 10
12.0731
 20
285.506
 11
12.4371
 21
284.792
  0
LINE
  8
0
 10
12.4371
 20
284.792
 11
12.5625
 21
284
  0
LINE
  8
0
 10
12.5625
 20
284
 11
12.4371
 21
283.208
  0
LINE
  8
0
 10
12.4371
 20
283.208
 11
12.0731
 21
282.494
  0
LINE
  8
0
 10
12.0731
 20
282.494
 11
11.5062
 21
281.927
  0
LINE
  8
0
 10
11.5062
 20
281.927
 11
10.7919
 21
281.563
  0
LINE
  8
0
 10
10.7919
 20
281.563
 11
10
 21
281.438
  0
LINE
  8
0
 10
10
 20
281.438
 11
9.20813
 21
281.563
  0
LINE
  8
0
 10
69.521
 20
271.526
 11
69.0889
 21
271.746
  0
LINE
  8
0
 10
69.0889
 20
271.746
 11
68.746
 21
272.089
  0
LINE
  8
0
 10
68.746
 20
272.089
 11
68.5259
 21
272.521
  0
LINE
  8
0
 10
68.5259
 20
272.521
 11
68.45
 21
273
  0
LINE
  8
0
 10
68.45
 20
273
 11
68.5259
 21
273.479
  0
LINE
  8
0
 10
68.5259
 20
273.479
 11
68.746
 21
273.911
  0
LINE
  8
0
 10
68.746
 20
273.911
 11
69.0889
 21
274.254
  0
LINE
  8
0
 10
69.0889
 20
274.254
 11
69.521
 21
274.474
  0
LINE
  8
0
 10
69.521
 20
274.474
 11
70
 21
274.55
  0
LINE
  8
0
 10
70
 20
274.55
 11
70.479
 21
274.474
  0
LINE
  8
0
 10
70.479
 20
274.474
 11
70.9111
 21
274.254
  0
LINE
  8
0
 10
70.9111
 20
274.254
 11
71.254
 21
273.911
  0
LINE
  8
0
 10
71.254
 20
273.911
 11
71.4741
 21
273.479
  0
LINE
  8
0
 10
71.4741
 20
273.479
 11
71.55
 21
273
  0
LINE
  8
0
 10
71.55
 20
273
 11
71.4741
 21
272.521
  0
LINE
  8
0
 10
71.4741
 20
272.521
 11
71.254
 21
272.089
  0
LINE
  8
0
 10
71.254
 20
272.089
 11
70.9111
 21
271.746
  0
LINE
  8
0
 10
70.9111
 20
271.746
 11
70.479
 21
271.526
  0
LINE
  8
0
 10
70.479
 20
271.526
 11
70
 21
271.45
  0
LINE
  8
0
 10
70
 20
271.45
 11
69.521
 21
271.526
  0
LINE
  8
0
 10
9.20813
 20
267.563
 11
8.49379
 21
267.927
  0
LINE
  8
0
 10
8.49379
 20
267.927
 11
7.92688
 21
268.494
  0
LINE
  8
0
 10
7.92688
 20
268.494
 11
7.56291
 21
269.208
  0
LINE
  8
0
 10
7.56291
 20
269.208
 11
7.4375
 21
270
  0
LINE
  8
0
 10
7.4375
 20
270
 11
7.56291
 21
270.792
  0
LINE
  8
0
 10
7.56291
 20
270.792
 11
7.92688
 21
271.506
  0
LINE
  8
0
 10
7.92688
 20
271.506
 11
8.49379
 21
272.073
  0
LINE
  8
0
 10
8.49379
 20
272.073
 11
9.20813
 21
272.437
  0
LINE
  8
0
 10
9.20813
 20
272.437
 11
10
 21
272.562
  0
LINE
  8
0
 10
10
 20
272.562
 11
10.7919
 21
272.437
  0
LINE
  8
0
 10
10.7919
 20
272.437
 11
11.5062
 21
272.073
  0
LINE
  8
0
 10
11.5062
 20
272.073
 11
12.0731
 21
271.506
  0
LINE
  8
0
 10
12.0731
 20
271.506
 11
12.4371
 21
270.792
  0
LINE
  8
0
 10
12.4371
 20
270.792
 11
12.5625
 21
270
  0
LINE
  8
0
 10
12.5625
 20
270
 11
12.4371
 21
269.208
  0
LINE
  8
0
 10
12.4371
 20
269.208
 11
12.0731
 21
268.494
  0
LINE
  8
0
 10
12.0731
 20
268.494
 11
11.5062
 21
267.927
  0
LINE
  8
0
 10
11.5062
 20
267.927
 11
10.7919
 21
267.563
  0
LINE
  8
0
 10
10.7919
 20
267.563
 11
10
 21
267.438
  0
LINE
  8
0
 10
10
 20
267.438
 11
9.20813
 21
267.563
  0
LINE
  8
0
 10
479.208
 20
267.563
 11
478.494
 21
267.927
  0
LINE
  8
0
 10
478.494
 20
267.927
 11
477.927
 21
268.494
  0
LINE
  8
0
 10
477.927
 20
268.494
 11
477.563
 21
269.208
  0
LINE
  8
0
 10
477.563
 20
269.208
 11
477.438
 21
270
  0
LINE
  8
0
 10
477.438
 20
270
 11
477.563
 21
270.792
  0
LINE
  8
0
 10
477.563
 20
270.792
 11
477.927
 21
271.506
  0
LINE
  8
0
 10
477.927
 20
271.506
 11
478.494
 21
272.073
  0
LINE
  8
0
 10
478.494
 20
272.073
 11
479.208
 21
272.437
  0
LINE
  8
0
 10
479.208
 20
272.437
 11
480
 21
272.562
  0
LINE
  8
0
 10
480
 20
272.562
 11
480.792
 21
272.437
  0
LINE
  8
0
 10
480.792
 20
272.437
 11
481.506
 21
272.073
  0
LINE
  8
0
 10
481.506
 20
272.073
 11
482.073
 21
271.506
  0
LINE
  8
0
 10
482.073
 20
271.506
 11
482.437
 21
270.792
  0
LINE
  8
0
 10
482.437
 20
270.792
 11
482.562
 21
270
  0
LINE
  8
0
 10
482.562
 20
270
 11
482.437
 21
269.208
  0
LINE
  8
0
 10
482.437
 20
269.208
 11
482.073
 21
268.494
  0
LINE
  8
0
 10
482.073
 20
268.494
 11
481.506
 21
267.927
  0
LINE
  8
0
 10
481.506
 20
267.927
 11
480.792
 21
267.563
  0
LINE
  8
0
 10
480.792
 20
267.563
 11
480
 21
267.438
  0
LINE
  8
0
 10
480
 20
267.438
 11
479.208
 21
267.563
  0
LINE
  8
0
 10
69.521
 20
251.526
 11
69.0889
 21
251.746
  0
LINE
  8
0
 10
69.0889
 20
251.746
 11
68.746
 21
252.089
  0
LINE
  8
0
 10
68.746
 20
252.089
 11
68.5259
 21
252.521
  0
LINE
  8
0
 10
68.5259
 20
252.521
 11
68.45
 21
253
  0
LINE
  8
0
 10
68.45
 20
253
 11
68.5259
 21
253.479
  0
LINE
  8
0
 10
68.5259
 20
253.479
 11
68.746
 21
253.911
  0
LINE
  8
0
 10
68.746
 20
253.911
 11
69.0889
 21
254.254
  0
LINE
  8
0
 10
69.0889
 20
254.254
 11
69.521
 21
254.474
  0
LINE
  8
0
 10
69.521
 20
254.474
 11
70
 21
254.55
  0
LINE
  8
0
 10
70
 20
254.55
 11
70.479
 21
254.474
  0
LINE
  8
0
 10
70.479
 20
254.474
 11
70.9111
 21
254.254
  0
LINE
  8
0
 10
70.9111
 20
254.254
 11
71.254
 21
253.911
  0
LINE
  8
0
 10
71.254
 20
253.911
 11
71.4741
 21
253.479
  0
LINE
  8
0
 10
71.4741
 20
253.479
 11
71.55
 21
253
  0
LINE
  8
0
 10
71.55
 20
253
 11
71.4741
 21
252.521
  0
LINE
  8
0
 10
71.4741
 20
252.521
 11
71.254
 21
252.089
  0
LINE
  8
0
 10
71.254
 20
252.089
 11
70.9111
 21
251.746
  0
LINE
  8
0
 10
70.9111
 20
251.746
 11
70.479
 21
251.526
  0
LINE
  8
0
 10
70.479
 20
251.526
 11
70
 21
251.45
  0
LINE
  8
0
 10
70
 20
251.45
 11
69.521
 21
251.526
  0
LINE
  8
0
 10
479.521
 20
236.026
 11
479.089
 21
236.246
  0
LINE
  8
0
 10
479.089
 20
236.246
 11
478.746
 21
236.589
  0
LINE
  8
0
 10
478.746
 20
236.589
 11
478.526
 21
237.021
  0
LINE
  8
0
 10
478.526
 20
237.021
 11
478.45
 21
237.5
  0
LINE
  8
0
 10
478.45
 20
237.5
 11
478.526
 21
237.979
  0
LINE
  8
0
 10
478.526
 20
237.979
 11
478.746
 21
238.411
  0
LINE
  8
0
 10
478.746
 20
238.411
 11
479.089
 21
238.754
  0
LINE
  8
0
 10
479.089
 20
238.754
 11
479.521
 21
238.974
  0
LINE
  8
0
 10
479.521
 20
238.974
 11
480
 21
239.05
  0
LINE
  8
0
 10
480
 20
239.05
 11
480.479
 21
238.974
  0
LINE
  8
0
 10
480.479
 20
238.974
 11
480.911
 21
238.754
  0
LINE
  8
0
 10
480.911
 20
238.754
 11
481.254
 21
238.411
  0
LINE
  8
0
 10
481.254
 20
238.411
 11
481.474
 21
237.979
  0
LINE
  8
0
 10
481.474
 20
237.979
 11
481.55
 21
237.5
  0
LINE
  8
0
 10
481.55
 20
237.5
 11
481.474
 21
237.021
  0
LINE
  8
0
 10
481.474
 20
237.021
 11
481.254
 21
236.589
  0
LINE
  8
0
 10
481.254
 20
236.589
 11
480.911
 21
236.246
  0
LINE
  8
0
 10
480.911
 20
236.246
 11
480.479
 21
236.026
  0
LINE
  8
0
 10
480.479
 20
236.026
 11
480
 21
235.95
  0
LINE
  8
0
 10
480
 20
235.95
 11
479.521
 21
236.026
  0
LINE
  8
0
 10
9.52101
 20
236.026
 11
9.08893
 21
236.246
  0
LINE
  8
0
 10
9.08893
 20
236.246
 11
8.74602
 21
236.589
  0
LINE
  8
0
 10
8.74602
 20
236.589
 11
8.52585
 21
237.021
  0
LINE
  8
0
 10
8.52585
 20
237.021
 11
8.45
 21
237.5
  0
LINE
  8
0
 10
8.45
 20
237.5
 11
8.52585
 21
237.979
  0
LINE
  8
0
 10
8.52585
 20
237.979
 11
8.74602
 21
238.411
  0
LINE
  8
0
 10
8.74602
 20
238.411
 11
9.08893
 21
238.754
  0
LINE
  8
0
 10
9.08893
 20
238.754
 11
9.52101
 21
238.974
  0
LINE
  8
0
 10
9.52101
 20
238.974
 11
10
 21
239.05
  0
LINE
  8
0
 10
10
 20
239.05
 11
10.479
 21
238.974
  0
LINE
  8
0
 10
10.479
 20
238.974
 11
10.9111
 21
238.754
  0
LINE
  8
0
 10
10.9111
 20
238.754
 11
11.254
 21
238.411
  0
LINE
  8
0
 10
11.254
 20
238.411
 11
11.4741
 21
237.979
  0
LINE
  8
0
 10
11.4741
 20
237.979
 11
11.55
 21
237.5
  0
LINE
  8
0
 10
11.55
 20
237.5
 11
11.4741
 21
237.021
  0
LINE
  8
0
 10
11.4741
 20
237.021
 11
11.254
 21
236.589
  0
LINE
  8
0
 10
11.254
 20
236.589
 11
10.9111
 21
236.246
  0
LINE
  8
0
 10
10.9111
 20
236.246
 11
10.479
 21
236.026
  0
LINE
  8
0
 10
10.479
 20
236.026
 11
10
 21
235.95
  0
LINE
  8
0
 10
10
 20
235.95
 11
9.52101
 21
236.026
  0
LINE
  8
0
 10
68.7639
 20
201.196
 11
67.6489
 21
201.764
  0
LINE
  8
0
 10
67.6489
 20
201.764
 11
66.7639
 21
202.649
  0
LINE
  8
0
 10
66.7639
 20
202.649
 11
66.1958
 21
203.764
  0
LINE
  8
0
 10
66.1958
 20
203.764
 11
66
 21
205
  0
LINE
  8
0
 10
66
 20
205
 11
66.1958
 21
206.236
  0
LINE
  8
0
 10
66.1958
 20
206.236
 11
66.7639
 21
207.351
  0
LINE
  8
0
 10
66.7639
 20
207.351
 11
67.6489
 21
208.236
  0
LINE
  8
0
 10
67.6489
 20
208.236
 11
68.7639
 21
208.804
  0
LINE
  8
0
 10
68.7639
 20
208.804
 11
70
 21
209
  0
LINE
  8
0
 10
70
 20
209
 11
71.2361
 21
208.804
  0
LINE
  8
0
 10
71.2361
 20
208.804
 11
72.3511
 21
208.236
  0
LINE
  8
0
 10
72.3511
 20
208.236
 11
73.2361
 21
207.351
  0
LINE
  8
0
 10
73.2361
 20
207.351
 11
73.8042
 21
206.236
  0
LINE
  8
0
 10
73.8042
 20
206.236
 11
74
 21
205
  0
LINE
  8
0
 10
74
 20
205
 11
73.8042
 21
203.764
  0
LINE
  8
0
 10
73.8042
 20
203.764
 11
73.2361
 21
202.649
  0
LINE
  8
0
 10
73.2361
 20
202.649
 11
72.3511
 21
201.764
  0
LINE
  8
0
 10
72.3511
 20
201.764
 11
71.2361
 21
201.196
  0
LINE
  8
0
 10
71.2361
 20
201.196
 11
70
 21
201
  0
LINE
  8
0
 10
70
 20
201
 11
68.7639
 21
201.196
  0
LINE
  8
0
 10
9.52101
 20
142.276
 11
9.08893
 21
142.496
  0
LINE
  8
0
 10
9.08893
 20
142.496
 11
8.74602
 21
142.839
  0
LINE
  8
0
 10
8.74602
 20
142.839
 11
8.52585
 21
143.271
  0
LINE
  8
0
 10
8.52585
 20
143.271
 11
8.45
 21
143.75
  0
LINE
  8
0
 10
8.45
 20
143.75
 11
8.52585
 21
144.229
  0
LINE
  8
0
 10
8.52585
 20
144.229
 11
8.74602
 21
144.661
  0
LINE
  8
0
 10
8.74602
 20
144.661
 11
9.08893
 21
145.004
  0
LINE
  8
0
 10
9.08893
 20
145.004
 11
9.52101
 21
145.224
  0
LINE
  8
0
 10
9.52101
 20
145.224
 11
10
 21
145.3
  0
LINE
  8
0
 10
10
 20
145.3
 11
10.479
 21
145.224
  0
LINE
  8
0
 10
10.479
 20
145.224
 11
10.9111
 21
145.004
  0
LINE
  8
0
 10
10.9111
 20
145.004
 11
11.254
 21
144.661
  0
LINE
  8
0
 10
11.254
 20
144.661
 11
11.4741
 21
144.229
  0
LINE
  8
0
 10
11.4741
 20
144.229
 11
11.55
 21
143.75
  0
LINE
  8
0
 10
11.55
 20
143.75
 11
11.4741
 21
143.271
  0
LINE
  8
0
 10
11.4741
 20
143.271
 11
11.254
 21
142.839
  0
LINE
  8
0
 10
11.254
 20
142.839
 11
10.9111
 21
142.496
  0
LINE
  8
0
 10
10.9111
 20
142.496
 11
10.479
 21
142.276
  0
LINE
  8
0
 10
10.479
 20
142.276
 11
10
 21
142.2
  0
LINE
  8
0
 10
10
 20
142.2
 11
9.52101
 21
142.276
  0
LINE
  8
0
 10
479.521
 20
142.276
 11
479.089
 21
142.496
  0
LINE
  8
0
 10
479.089
 20
142.496
 11
478.746
 21
142.839
  0
LINE
  8
0
 10
478.746
 20
142.839
 11
478.526
 21
143.271
  0
LINE
  8
0
 10
478.526
 20
143.271
 11
478.45
 21
143.75
  0
LINE
  8
0
 10
478.45
 20
143.75
 11
478.526
 21
144.229
  0
LINE
  8
0
 10
478.526
 20
144.229
 11
478.746
 21
144.661
  0
LINE
  8
0
 10
478.746
 20
144.661
 11
479.089
 21
145.004
  0
LINE
  8
0
 10
479.089
 20
145.004
 11
479.521
 21
145.224
  0
LINE
  8
0
 10
479.521
 20
145.224
 11
480
 21
145.3
  0
LINE
  8
0
 10
480
 20
145.3
 11
480.479
 21
145.224
  0
LINE
  8
0
 10
480.479
 20
145.224
 11
480.911
 21
145.004
  0
LINE
  8
0
 10
480.911
 20
145.004
 11
481.254
 21
144.661
  0
LINE
  8
0
 10
481.254
 20
144.661
 11
481.474
 21
144.229
  0
LINE
  8
0
 10
481.474
 20
144.229
 11
481.55
 21
143.75
  0
LINE
  8
0
 10
481.55
 20
143.75
 11
481.474
 21
143.271
  0
LINE
  8
0
 10
481.474
 20
143.271
 11
481.254
 21
142.839
  0
LINE
  8
0
 10
481.254
 20
142.839
 11
480.911
 21
142.496
  0
LINE
  8
0
 10
480.911
 20
142.496
 11
480.479
 21
142.276
  0
LINE
  8
0
 10
480.479
 20
142.276
 11
480
 21
142.2
  0
LINE
  8
0
 10
480
 20
142.2
 11
479.521
 21
142.276
  0
LINE
  8
0
 10
68.7639
 20
111.196
 11
67.6489
 21
111.764
  0
LINE
  8
0
 10
67.6489
 20
111.764
 11
66.7639
 21
112.649
  0
LINE
  8
0
 10
66.7639
 20
112.649
 11
66.1958
 21
113.764
  0
LINE
  8
0
 10
66.1958
 20
113.764
 11
66
 21
115
  0
LINE
  8
0
 10
66
 20
115
 11
66.1958
 21
116.236
  0
LINE
  8
0
 10
66.1958
 20
116.236
 11
66.7639
 21
117.351
  0
LINE
  8
0
 10
66.7639
 20
117.351
 11
67.6489
 21
118.236
  0
LINE
  8
0
 10
67.6489
 20
118.236
 11
68.7639
 21
118.804
  0
LINE
  8
0
 10
68.7639
 20
118.804
 11
70
 21
119
  0
LINE
  8
0
 10
70
 20
119
 11
71.2361
 21
118.804
  0
LINE
  8
0
 10
71.2361
 20
118.804
 11
72.3511
 21
118.236
  0
LINE
  8
0
 10
72.3511
 20
118.236
 11
73.2361
 21
117.351
  0
LINE
  8
0
 10
73.2361
 20
117.351
 11
73.8042
 21
116.236
  0
LINE
  8
0
 10
73.8042
 20
116.236
 11
74
 21
115
  0
LINE
  8
0
 10
74
 20
115
 11
73.8042
 21
113.764
  0
LINE
  8
0
 10
73.8042
 20
113.764
 11
73.2361
 21
112.649
  0
LINE
  8
0
 10
73.2361
 20
112.649
 11
72.3511
 21
111.764
  0
LINE
  8
0
 10
72.3511
 20
111.764
 11
71.2361
 21
111.196
  0
LINE
  8
0
 10
71.2361
 20
111.196
 11
70
 21
111
  0
LINE
  8
0
 10
70
 20
111
 11
68.7639
 21
111.196
  0
LINE
  8
0
 10
9.20813
 20
81.5629
 11
8.49379
 21
81.9269
  0
LINE
  8
0
 10
8.49379
 20
81.9269
 11
7.92688
 21
82.4938
  0
LINE
  8
0
 10
7.92688
 20
82.4938
 11
7.56291
 21
83.2081
  0
LINE
  8
0
 10
7.56291
 20
83.2081
 11
7.4375
 21
84
  0
LINE
  8
0
 10
7.4375
 20
84
 11
7.56291
 21
84.7919
  0
LINE
  8
0
 10
7.56291
 20
84.7919
 11
7.92688
 21
85.5062
  0
LINE
  8
0
 10
7.92688
 20
85.5062
 11
8.49379
 21
86.0731
  0
LINE
  8
0
 10
8.49379
 20
86.0731
 11
9.20813
 21
86.4371
  0
LINE
  8
0
 10
9.20813
 20
86.4371
 11
10
 21
86.5625
  0
LINE
  8
0
 10
10
 20
86.5625
 11
10.7919
 21
86.4371
  0
LINE
  8
0
 10
10.7919
 20
86.4371
 11
11.5062
 21
86.0731
  0
LINE
  8
0
 10
11.5062
 20
86.0731
 11
12.0731
 21
85.5062
  0
LINE
  8
0
 10
12.0731
 20
85.5062
 11
12.4371
 21
84.7919
  0
LINE
  8
0
 10
12.4371
 20
84.7919
 11
12.5625
 21
84
  0
LINE
  8
0
 10
12.5625
 20
84
 11
12.4371
 21
83.2081
  0
LINE
  8
0
 10
12.4371
 20
83.2081
 11
12.0731
 21
82.4938
  0
LINE
  8
0
 10
12.0731
 20
82.4938
 11
11.5062
 21
81.9269
  0
LINE
  8
0
 10
11.5062
 20
81.9269
 11
10.7919
 21
81.5629
  0
LINE
  8
0
 10
10.7919
 20
81.5629
 11
10
 21
81.4375
  0
LINE
  8
0
 10
10
 20
81.4375
 11
9.20813
 21
81.5629
  0
LINE
  8
0
 10
479.208
 20
81.5629
 11
478.494
 21
81.9269
  0
LINE
  8
0
 10
478.494
 20
81.9269
 11
477.927
 21
82.4938
  0
LINE
  8
0
 10
477.927
 20
82.4938
 11
477.563
 21
83.2081
  0
LINE
  8
0
 10
477.563
 20
83.2081
 11
477.438
 21
84
  0
LINE
  8
0
 10
477.438
 20
84
 11
477.563
 21
84.7919
  0
LINE
  8
0
 10
477.563
 20
84.7919
 11
477.927
 21
85.5062
  0
LINE
  8
0
 10
477.927
 20
85.5062
 11
478.494
 21
86.0731
  0
LINE
  8
0
 10
478.494
 20
86.0731
 11
479.208
 21
86.4371
  0
LINE
  8
0
 10
479.208
 20
86.4371
 11
480
 21
86.5625
  0
LINE
  8
0
 10
480
 20
86.5625
 11
480.792
 21
86.4371
  0
LINE
  8
0
 10
480.792
 20
86.4371
 11
481.506
 21
86.0731
  0
LINE
  8
0
 10
481.506
 20
86.0731
 11
482.073
 21
85.5062
  0
LINE
  8
0
 10
482.073
 20
85.5062
 11
482.437
 21
84.7919
  0
LINE
  8
0
 10
482.437
 20
84.7919
 11
482.562
 21
84
  0
LINE
  8
0
 10
482.562
 20
84
 11
482.437
 21
83.2081
  0
LINE
  8
0
 10
482.437
 20
83.2081
 11
482.073
 21
82.4938
  0
LINE
  8
0
 10
482.073
 20
82.4938
 11
481.506
 21
81.9269
  0
LINE
  8
0
 10
481.506
 20
81.9269
 11
480.792
 21
81.5629
  0
LINE
  8
0
 10
480.792
 20
81.5629
 11
480
 21
81.4375
  0
LINE
  8
0
 10
480
 20
81.4375
 11
479.208
 21
81.5629
  0
LINE
  8
0
 10
69.521
 20
83.5258
 11
69.0889
 21
83.746
  0
LINE
  8
0
 10
69.0889
 20
83.746
 11
68.746
 21
84.0889
  0
LINE
  8
0
 10
68.746
 20
84.0889
 11
68.5259
 21
84.521
  0
LINE
  8
0
 10
68.5259
 20
84.521
 11
68.45
 21
85
  0
LINE
  8
0
 10
68.45
 20
85
 11
68.5259
 21
85.479
  0
LINE
  8
0
 10
68.5259
 20
85.479
 11
68.746
 21
85.9111
  0
LINE
  8
0
 10
68.746
 20
85.9111
 11
69.0889
 21
86.254
  0
LINE
  8
0
 10
69.0889
 20
86.254
 11
69.521
 21
86.4741
  0
LINE
  8
0
 10
69.521
 20
86.4741
 11
70
 21
86.55
  0
LINE
  8
0
 10
70
 20
86.55
 11
70.479
 21
86.4741
  0
LINE
  8
0
 10
70.479
 20
86.4741
 11
70.9111
 21
86.254
  0
LINE
  8
0
 10
70.9111
 20
86.254
 11
71.254
 21
85.9111
  0
LINE
  8
0
 10
71.254
 20
85.9111
 11
71.4741
 21
85.479
  0
LINE
  8
0
 10
71.4741
 20
85.479
 11
71.55
 21
85
  0
LINE
  8
0
 10
71.55
 20
85
 11
71.4741
 21
84.521
  0
LINE
  8
0
 10
71.4741
 20
84.521
 11
71.254
 21
84.0889
  0
LINE
  8
0
 10
71.254
 20
84.0889
 11
70.9111
 21
83.746
  0
LINE
  8
0
 10
70.9111
 20
83.746
 11
70.479
 21
83.5258
  0
LINE
  8
0
 10
70.479
 20
83.5258
 11
70
 21
83.45
  0
LINE
  8
0
 10
70
 20
83.45
 11
69.521
 21
83.5258
  0
LINE
  8
0
 10
479.208
 20
67.5629
 11
478.494
 21
67.9269
  0
LINE
  8
0
 10
478.494
 20
67.9269
 11
477.927
 21
68.4938
  0
LINE
  8
0
 10
477.927
 20
68.4938
 11
477.563
 21
69.2081
  0
LINE
  8
0
 10
477.563
 20
69.2081
 11
477.438
 21
70
  0
LINE
  8
0
 10
477.438
 20
70
 11
477.563
 21
70.7919
  0
LINE
  8
0
 10
477.563
 20
70.7919
 11
477.927
 21
71.5062
  0
LINE
  8
0
 10
477.927
 20
71.5062
 11
478.494
 21
72.0731
  0
LINE
  8
0
 10
478.494
 20
72.0731
 11
479.208
 21
72.4371
  0
LINE
  8
0
 10
479.208
 20
72.4371
 11
480
 21
72.5625
  0
LINE
  8
0
 10
480
 20
72.5625
 11
480.792
 21
72.4371
  0
LINE
  8
0
 10
480.792
 20
72.4371
 11
481.506
 21
72.0731
  0
LINE
  8
0
 10
481.506
 20
72.0731
 11
482.073
 21
71.5062
  0
LINE
  8
0
 10
482.073
 20
71.5062
 11
482.437
 21
70.7919
  0
LINE
  8
0
 10
482.437
 20
70.7919
 11
482.562
 21
70
  0
LINE
  8
0
 10
482.562
 20
70
 11
482.437
 21
69.2081
  0
LINE
  8
0
 10
482.437
 20
69.2081
 11
482.073
 21
68.4938
  0
LINE
  8
0
 10
482.073
 20
68.4938
 11
481.506
 21
67.9269
  0
LINE
  8
0
 10
481.506
 20
67.9269
 11
480.792
 21
67.5629
  0
LINE
  8
0
 10
480.792
 20
67.5629
 11
480
 21
67.4375
  0
LINE
  8
0
 10
480
 20
67.4375
 11
479.208
 21
67.5629
  0
LINE
  8
0
 10
9.20813
 20
67.5629
 11
8.49379
 21
67.9269
  0
LINE
  8
0
 10
8.49379
 20
67.9269
 11
7.92688
 21
68.4938
  0
LINE
  8
0
 10
7.92688
 20
68.4938
 11
7.56291
 21
69.2081
  0
LINE
  8
0
 10
7.56291
 20
69.2081
 11
7.4375
 21
70
  0
LINE
  8
0
 10
7.4375
 20
70
 11
7.56291
 21
70.7919
  0
LINE
  8
0
 10
7.56291
 20
70.7919
 11
7.92688
 21
71.5062
  0
LINE
  8
0
 10
7.92688
 20
71.5062
 11
8.49379
 21
72.0731
  0
LINE
  8
0
 10
8.49379
 20
72.0731
 11
9.20813
 21
72.4371
  0
LINE
  8
0
 10
9.20813
 20
72.4371
 11
10
 21
72.5625
  0
LINE
  8
0
 10
10
 20
72.5625
 11
10.7919
 21
72.4371
  0
LINE
  8
0
 10
10.7919
 20
72.4371
 11
11.5062
 21
72.0731
  0
LINE
  8
0
 10
11.5062
 20
72.0731
 11
12.0731
 21
71.5062
  0
LINE
  8
0
 10
12.0731
 20
71.5062
 11
12.4371
 21
70.7919
  0
LINE
  8
0
 10
12.4371
 20
70.7919
 11
12.5625
 21
70
  0
LINE
  8
0
 10
12.5625
 20
70
 11
12.4371
 21
69.2081
  0
LINE
  8
0
 10
12.4371
 20
69.2081
 11
12.0731
 21
68.4938
  0
LINE
  8
0
 10
12.0731
 20
68.4938
 11
11.5062
 21
67.9269
  0
LINE
  8
0
 10
11.5062
 20
67.9269
 11
10.7919
 21
67.5629
  0
LINE
  8
0
 10
10.7919
 20
67.5629
 11
10
 21
67.4375
  0
LINE
  8
0
 10
10
 20
67.4375
 11
9.20813
 21
67.5629
  0
LINE
  8
0
 10
69.521
 20
63.5259
 11
69.0889
 21
63.746
  0
LINE
  8
0
 10
69.0889
 20
63.746
 11
68.746
 21
64.0889
  0
LINE
  8
0
 10
68.746
 20
64.0889
 11
68.5259
 21
64.521
  0
LINE
  8
0
 10
68.5259
 20
64.521
 11
68.45
 21
65
  0
LINE
  8
0
 10
68.45
 20
65
 11
68.5259
 21
65.479
  0
LINE
  8
0
 10
68.5259
 20
65.479
 11
68.746
 21
65.9111
  0
LINE
  8
0
 10
68.746
 20
65.9111
 11
69.0889
 21
66.254
  0
LINE
  8
0
 10
69.0889
 20
66.254
 11
69.521
 21
66.4741
  0
LINE
  8
0
 10
69.521
 20
66.4741
 11
70
 21
66.55
  0
LINE
  8
0
 10
70
 20
66.55
 11
70.479
 21
66.4741
  0
LINE
  8
0
 10
70.479
 20
66.4741
 11
70.9111
 21
66.254
  0
LINE
  8
0
 10
70.9111
 20
66.254
 11
71.254
 21
65.9111
  0
LINE
  8
0
 10
71.254
 20
65.9111
 11
71.4741
 21
65.479
  0
LINE
  8
0
 10
71.4741
 20
65.479
 11
71.55
 21
65
  0
LINE
  8
0
 10
71.55
 20
65
 11
71.4741
 21
64.521
  0
LINE
  8
0
 10
71.4741
 20
64.521
 11
71.254
 21
64.0889
  0
LINE
  8
0
 10
71.254
 20
64.0889
 11
70.9111
 21
63.746
  0
LINE
  8
0
 10
70.9111
 20
63.746
 11
70.479
 21
63.5259
  0
LINE
  8
0
 10
70.479
 20
63.5259
 11
70
 21
63.45
  0
LINE
  8
0
 10
70
 20
63.45
 11
69.521
 21
63.5259
  0
LINE
  8
0
 10
479.521
 20
48.5258
 11
479.089
 21
48.746
  0
LINE
  8
0
 10
479.089
 20
48.746
 11
478.746
 21
49.0889
  0
LINE
  8
0
 10
478.746
 20
49.0889
 11
478.526
 21
49.521
  0
LINE
  8
0
 10
478.526
 20
49.521
 11
478.45
 21
50
  0
LINE
  8
0
 10
478.45
 20
50
 11
478.526
 21
50.479
  0
LINE
  8
0
 10
478.526
 20
50.479
 11
478.746
 21
50.9111
  0
LINE
  8
0
 10
478.746
 20
50.9111
 11
479.089
 21
51.254
  0
LINE
  8
0
 10
479.089
 20
51.254
 11
479.521
 21
51.4741
  0
LINE
  8
0
 10
479.521
 20
51.4741
 11
480
 21
51.55
  0
LINE
  8
0
 10
480
 20
51.55
 11
480.479
 21
51.4741
  0
LINE
  8
0
 10
480.479
 20
51.4741
 11
480.911
 21
51.254
  0
LINE
  8
0
 10
480.911
 20
51.254
 11
481.254
 21
50.9111
  0
LINE
  8
0
 10
481.254
 20
50.9111
 11
481.474
 21
50.479
  0
LINE
  8
0
 10
481.474
 20
50.479
 11
481.55
 21
50
  0
LINE
  8
0
 10
481.55
 20
50
 11
481.474
 21
49.521
  0
LINE
  8
0
 10
481.474
 20
49.521
 11
481.254
 21
49.0889
  0
LINE
  8
0
 10
481.254
 20
49.0889
 11
480.911
 21
48.746
  0
LINE
  8
0
 10
480.911
 20
48.746
 11
480.479
 21
48.5258
  0
LINE
  8
0
 10
480.479
 20
48.5258
 11
480
 21
48.45
  0
LINE
  8
0
 10
480
 20
48.45
 11
479.521
 21
48.5258
  0
LINE
  8
0
 10
9.52101
 20
48.5258
 11
9.08893
 21
48.746
  0
LINE
  8
0
 10
9.08893
 20
48.746
 11
8.74602
 21
49.0889
  0
LINE
  8
0
 10
8.74602
 20
49.0889
 11
8.52585
 21
49.521
  0
LINE
  8
0
 10
8.52585
 20
49.521
 11
8.45
 21
50
  0
LINE
  8
0
 10
8.45
 20
50
 11
8.52585
 21
50.479
  0
LINE
  8
0
 10
8.52585
 20
50.479
 11
8.74602
 21
50.9111
  0
LINE
  8
0
 10
8.74602
 20
50.9111
 11
9.08893
 21
51.254
  0
LINE
  8
0
 10
9.08893
 20
51.254
 11
9.52101
 21
51.4741
  0
LINE
  8
0
 10
9.52101
 20
51.4741
 11
10
 21
51.55
  0
LINE
  8
0
 10
10
 20
51.55
 11
10.479
 21
51.4741
  0
LINE
  8
0
 10
10.479
 20
51.4741
 11
10.9111
 21
51.254
  0
LINE
  8
0
 10
10.9111
 20
51.254
 11
11.254
 21
50.9111
  0
LINE
  8
0
 10
11.254
 20
50.9111
 11
11.4741
 21
50.479
  0
LINE
  8
0
 10
11.4741
 20
50.479
 11
11.55
 21
50
  0
LINE
  8
0
 10
11.55
 20
50
 11
11.4741
 21
49.521
  0
LINE
  8
0
 10
11.4741
 20
49.521
 11
11.254
 21
49.0889
  0
LINE
  8
0
 10
11.254
 20
49.0889
 11
10.9111
 21
48.746
  0
LINE
  8
0
 10
10.9111
 20
48.746
 11
10.479
 21
48.5258
  0
LINE
  8
0
 10
10.479
 20
48.5258
 11
10
 21
48.45
  0
LINE
  8
0
 10
10
 20
48.45
 11
9.52101
 21
48.5258
  0
LINE
  8
0
 10
342.021
 20
8.52585
 11
341.589
 21
8.74602
  0
LINE
  8
0
 10
341.589
 20
8.74602
 11
341.246
 21
9.08893
  0
LINE
  8
0
 10
341.246
 20
9.08893
 11
341.026
 21
9.52101
  0
LINE
  8
0
 10
341.026
 20
9.52101
 11
340.95
 21
10
  0
LINE
  8
0
 10
340.95
 20
10
 11
341.026
 21
10.479
  0
LINE
  8
0
 10
341.026
 20
10.479
 11
341.246
 21
10.9111
  0
LINE
  8
0
 10
341.246
 20
10.9111
 11
341.589
 21
11.254
  0
LINE
  8
0
 10
341.589
 20
11.254
 11
342.021
 21
11.4741
  0
LINE
  8
0
 10
342.021
 20
11.4741
 11
342.5
 21
11.55
  0
LINE
  8
0
 10
342.5
 20
11.55
 11
342.979
 21
11.4741
  0
LINE
  8
0
 10
342.979
 20
11.4741
 11
343.411
 21
11.254
  0
LINE
  8
0
 10
343.411
 20
11.254
 11
343.754
 21
10.9111
  0
LINE
  8
0
 10
343.754
 20
10.9111
 11
343.974
 21
10.479
  0
LINE
  8
0
 10
343.974
 20
10.479
 11
344.05
 21
10
  0
LINE
  8
0
 10
344.05
 20
10
 11
343.974
 21
9.52101
  0
LINE
  8
0
 10
343.974
 20
9.52101
 11
343.754
 21
9.08893
  0
LINE
  8
0
 10
343.754
 20
9.08893
 11
343.411
 21
8.74602
  0
LINE
  8
0
 10
343.411
 20
8.74602
 11
342.979
 21
8.52585
  0
LINE
  8
0
 10
342.979
 20
8.52585
 11
342.5
 21
8.45
  0
LINE
  8
0
 10
342.5
 20
8.45
 11
342.021
 21
8.52585
  0
LINE
  8
0
 10
244.521
 20
8.52585
 11
244.089
 21
8.74602
  0
LINE
  8
0
 10
244.089
 20
8.74602
 11
243.746
 21
9.08893
  0
LINE
  8
0
 10
243.746
 20
9.08893
 11
243.526
 21
9.52101
  0
LINE
  8
0
 10
243.526
 20
9.52101
 11
243.45
 21
10
  0
LINE
  8
0
 10
243.45
 20
10
 11
243.526
 21
10.479
  0
LINE
  8
0
 10
243.526
 20
10.479
 11
243.746
 21
10.9111
  0
LINE
  8
0
 10
243.746
 20
10.9111
 11
244.089
 21
11.254
  0
LINE
  8
0
 10
244.089
 20
11.254
 11
244.521
 21
11.4741
  0
LINE
  8
0
 10
244.521
 20
11.4741
 11
245
 21
11.55
  0
LINE
  8
0
 10
245
 20
11.55
 11
245.479
 21
11.4741
  0
LINE
  8
0
 10
245.479
 20
11.4741
 11
245.911
 21
11.254
  0
LINE
  8
0
 10
245.911
 20
11.254
 11
246.254
 21
10.9111
  0
LINE
  8
0
 10
246.254
 20
10.9111
 11
246.474
 21
10.479
  0
LINE
  8
0
 10
246.474
 20
10.479
 11
246.55
 21
10
  0
LINE
  8
0
 10
246.55
 20
10
 11
246.474
 21
9.52101
  0
LINE
  8
0
 10
246.474
 20
9.52101
 11
246.254
 21
9.08893
  0
LINE
  8
0
 10
246.254
 20
9.08893
 11
245.911
 21
8.74602
  0
LINE
  8
0
 10
245.911
 20
8.74602
 11
245.479
 21
8.52585
  0
LINE
  8
0
 10
245.479
 20
8.52585
 11
245
 21
8.45
  0
LINE
  8
0
 10
245
 20
8.45
 11
244.521
 21
8.52585
  0
LINE
  8
0
 10
147.021
 20
8.52585
 11
146.589
 21
8.74602
  0
LINE
  8
0
 10
146.589
 20
8.74602
 11
146.246
 21
9.08893
  0
LINE
  8
0
 10
146.246
 20
9.08893
 11
146.026
 21
9.52101
  0
LINE
  8
0
 10
146.026
 20
9.52101
 11
145.95
 21
10
  0
LINE
  8
0
 10
145.95
 20
10
 11
146.026
 21
10.479
  0
LINE
  8
0
 10
146.026
 20
10.479
 11
146.246
 21
10.9111
  0
LINE
  8
0
 10
146.246
 20
10.9111
 11
146.589
 21
11.254
  0
LINE
  8
0
 10
146.589
 20
11.254
 11
147.021
 21
11.4741
  0
LINE
  8
0
 10
147.021
 20
11.4741
 11
147.5
 21
11.55
  0
LINE
  8
0
 10
147.5
 20
11.55
 11
147.979
 21
11.4741
  0
LINE
  8
0
 10
147.979
 20
11.4741
 11
148.411
 21
11.254
  0
LINE
  8
0
 10
148.411
 20
11.254
 11
148.754
 21
10.9111
  0
LINE
  8
0
 10
148.754
 20
10.9111
 11
148.974
 21
10.479
  0
LINE
  8
0
 10
148.974
 20
10.479
 11
149.05
 21
10
  0
LINE
  8
0
 10
149.05
 20
10
 11
148.974
 21
9.52101
  0
LINE
  8
0
 10
148.974
 20
9.52101
 11
148.754
 21
9.08893
  0
LINE
  8
0
 10
148.754
 20
9.08893
 11
148.411
 21
8.74602
  0
LINE
  8
0
 10
148.411
 20
8.74602
 11
147.979
 21
8.52585
  0
LINE
  8
0
 10
147.979
 20
8.52585
 11
147.5
 21
8.45
  0
LINE
  8
0
 10
147.5
 20
8.45
 11
147.021
 21
8.52585
  0
LINE
  8
0
 10
439.521
 20
8.52585
 11
439.089
 21
8.74602
  0
LINE
  8
0
 10
439.089
 20
8.74602
 11
438.746
 21
9.08893
  0
LINE
  8
0
 10
438.746
 20
9.08893
 11
438.526
 21
9.52101
  0
LINE
  8
0
 10
438.526
 20
9.52101
 11
438.45
 21
10
  0
LINE
  8
0
 10
438.45
 20
10
 11
438.526
 21
10.479
  0
LINE
  8
0
 10
438.526
 20
10.479
 11
438.746
 21
10.9111
  0
LINE
  8
0
 10
438.746
 20
10.9111
 11
439.089
 21
11.254
  0
LINE
  8
0
 10
439.089
 20
11.254
 11
439.521
 21
11.4741
  0
LINE
  8
0
 10
439.521
 20
11.4741
 11
440
 21
11.55
  0
LINE
  8
0
 10
440
 20
11.55
 11
440.479
 21
11.4741
  0
LINE
  8
0
 10
440.479
 20
11.4741
 11
440.911
 21
11.254
  0
LINE
  8
0
 10
440.911
 20
11.254
 11
441.254
 21
10.9111
  0
LINE
  8
0
 10
441.254
 20
10.9111
 11
441.474
 21
10.479
  0
LINE
  8
0
 10
441.474
 20
10.479
 11
441.55
 21
10
  0
LINE
  8
0
 10
441.55
 20
10
 11
441.474
 21
9.52101
  0
LINE
  8
0
 10
441.474
 20
9.52101
 11
441.254
 21
9.08893
  0
LINE
  8
0
 10
441.254
 20
9.08893
 11
440.911
 21
8.74602
  0
LINE
  8
0
 10
440.911
 20
8.74602
 11
440.479
 21
8.52585
  0
LINE
  8
0
 10
440.479
 20
8.52585
 11
440
 21
8.45
  0
LINE
  8
0
 10
440
 20
8.45
 11
439.521
 21
8.52585
  0
LINE
  8
0
 10
49.521
 20
8.52585
 11
49.0889
 21
8.74602
  0
LINE
  8
0
 10
49.0889
 20
8.74602
 11
48.746
 21
9.08893
  0
LINE
  8
0
 10
48.746
 20
9.08893
 11
48.5258
 21
9.52101
  0
LINE
  8
0
 10
48.5258
 20
9.52101
 11
48.45
 21
10
  0
LINE
  8
0
 10
48.45
 20
10
 11
48.5258
 21
10.479
  0
LINE
  8
0
 10
48.5258
 20
10.479
 11
48.746
 21
10.9111
  0
LINE
  8
0
 10
48.746
 20
10.9111
 11
49.0889
 21
11.254
  0
LINE
  8
0
 10
49.0889
 20
11.254
 11
49.521
 21
11.4741
  0
LINE
  8
0
 10
49.521
 20
11.4741
 11
50
 21
11.55
  0
LINE
  8
0
 10
50
 20
11.55
 11
50.479
 21
11.4741
  0
LINE
  8
0
 10
50.479
 20
11.4741
 11
50.9111
 21
11.254
  0
LINE
  8
0
 10
50.9111
 20
11.254
 11
51.254
 21
10.9111
  0
LINE
  8
0
 10
51.254
 20
10.9111
 11
51.4741
 21
10.479
  0
LINE
  8
0
 10
51.4741
 20
10.479
 11
51.55
 21
10
  0
LINE
  8
0
 10
51.55
 20
10
 11
51.4741
 21
9.52101
  0
LINE
  8
0
 10
51.4741
 20
9.52101
 11
51.254
 21
9.08893
  0
LINE
  8
0
 10
51.254
 20
9.08893
 11
50.9111
 21
8.74602
  0
LINE
  8
0
 10
50.9111
 20
8.74602
 11
50.479
 21
8.52585
  0
LINE
  8
0
 10
50.479
 20
8.52585
 11
50
 21
8.45
  0
LINE
  8
0
 10
50
 20
8.45
 11
49.521
 21
8.52585
  0
ENDSEC
  0
SECTION
  2
OBJECTS
  0
DICTIONARY
  0
ENDSEC
  0
EOF
