  0
SECTION
  2
BLOCKS
  0
ENDSEC
  0
SECTION
  2
ENTITIES
  0
LINE
  8
0
 10
488
 20
488
 11
2
 21
488
  0
LINE
  8
0
 10
2
 20
488
 11
2
 21
2
  0
LINE
  8
0
 10
2
 20
2
 11
488
 21
2
  0
LINE
  8
0
 10
488
 20
2
 11
488
 21
488
  0
LINE
  8
0
 10
49.521
 20
478.526
 11
49.0889
 21
478.746
  0
LINE
  8
0
 10
49.0889
 20
478.746
 11
48.746
 21
479.089
  0
LINE
  8
0
 10
48.746
 20
479.089
 11
48.5258
 21
479.521
  0
LINE
  8
0
 10
48.5258
 20
479.521
 11
48.45
 21
480
  0
LINE
  8
0
 10
48.45
 20
480
 11
48.5258
 21
480.479
  0
LINE
  8
0
 10
48.5258
 20
480.479
 11
48.746
 21
480.911
  0
LINE
  8
0
 10
48.746
 20
480.911
 11
49.0889
 21
481.254
  0
LINE
  8
0
 10
49.0889
 20
481.254
 11
49.521
 21
481.474
  0
LINE
  8
0
 10
49.521
 20
481.474
 11
50
 21
481.55
  0
LINE
  8
0
 10
50
 20
481.55
 11
50.479
 21
481.474
  0
LINE
  8
0
 10
50.479
 20
481.474
 11
50.9111
 21
481.254
  0
LINE
  8
0
 10
50.9111
 20
481.254
 11
51.254
 21
480.911
  0
LINE
  8
0
 10
51.254
 20
480.911
 11
51.4741
 21
480.479
  0
LINE
  8
0
 10
51.4741
 20
480.479
 11
51.55
 21
480
  0
LINE
  8
0
 10
51.55
 20
480
 11
51.4741
 21
479.521
  0
LINE
  8
0
 10
51.4741
 20
479.521
 11
51.254
 21
479.089
  0
LINE
  8
0
 10
51.254
 20
479.089
 11
50.9111
 21
478.746
  0
LINE
  8
0
 10
50.9111
 20
478.746
 11
50.479
 21
478.526
  0
LINE
  8
0
 10
50.479
 20
478.526
 11
50
 21
478.45
  0
LINE
  8
0
 10
50
 20
478.45
 11
49.521
 21
478.526
  0
LINE
  8
0
 10
244.521
 20
478.526
 11
244.089
 21
478.746
  0
LINE
  8
0
 10
244.089
 20
478.746
 11
243.746
 21
479.089
  0
LINE
  8
0
 10
243.746
 20
479.089
 11
243.526
 21
479.521
  0
LINE
  8
0
 10
243.526
 20
479.521
 11
243.45
 21
480
  0
LINE
  8
0
 10
243.45
 20
480
 11
243.526
 21
480.479
  0
LINE
  8
0
 10
243.526
 20
480.479
 11
243.746
 21
480.911
  0
LINE
  8
0
 10
243.746
 20
480.911
 11
244.089
 21
481.254
  0
LINE
  8
0
 10
244.089
 20
481.254
 11
244.521
 21
481.474
  0
LINE
  8
0
 10
244.521
 20
481.474
 11
245
 21
481.55
  0
LINE
  8
0
 10
245
 20
481.55
 11
245.479
 21
481.474
  0
LINE
  8
0
 10
245.479
 20
481.474
 11
245.911
 21
481.254
  0
LINE
  8
0
 10
245.911
 20
481.254
 11
246.254
 21
480.911
  0
LINE
  8
0
 10
246.254
 20
480.911
 11
246.474
 21
480.479
  0
LINE
  8
0
 10
246.474
 20
480.479
 11
246.55
 21
480
  0
LINE
  8
0
 10
246.55
 20
480
 11
246.474
 21
479.521
  0
LINE
  8
0
 10
246.474
 20
479.521
 11
246.254
 21
479.089
  0
LINE
  8
0
 10
246.254
 20
479.089
 11
245.911
 21
478.746
  0
LINE
  8
0
 10
245.911
 20
478.746
 11
245.479
 21
478.526
  0
LINE
  8
0
 10
245.479
 20
478.526
 11
245
 21
478.45
  0
LINE
  8
0
 10
245
 20
478.45
 11
244.521
 21
478.526
  0
LINE
  8
0
 10
439.521
 20
478.526
 11
439.089
 21
478.746
  0
LINE
  8
0
 10
439.089
 20
478.746
 11
438.746
 21
479.089
  0
LINE
  8
0
 10
438.746
 20
479.089
 11
438.526
 21
479.521
  0
LINE
  8
0
 10
438.526
 20
479.521
 11
438.45
 21
480
  0
LINE
  8
0
 10
438.45
 20
480
 11
438.526
 21
480.479
  0
LINE
  8
0
 10
438.526
 20
480.479
 11
438.746
 21
480.911
  0
LINE
  8
0
 10
438.746
 20
480.911
 11
439.089
 21
481.254
  0
LINE
  8
0
 10
439.089
 20
481.254
 11
439.521
 21
481.474
  0
LINE
  8
0
 10
439.521
 20
481.474
 11
440
 21
481.55
  0
LINE
  8
0
 10
440
 20
481.55
 11
440.479
 21
481.474
  0
LINE
  8
0
 10
440.479
 20
481.474
 11
440.911
 21
481.254
  0
LINE
  8
0
 10
440.911
 20
481.254
 11
441.254
 21
480.911
  0
LINE
  8
0
 10
441.254
 20
480.911
 11
441.474
 21
480.479
  0
LINE
  8
0
 10
441.474
 20
480.479
 11
441.55
 21
480
  0
LINE
  8
0
 10
441.55
 20
480
 11
441.474
 21
479.521
  0
LINE
  8
0
 10
441.474
 20
479.521
 11
441.254
 21
479.089
  0
LINE
  8
0
 10
441.254
 20
479.089
 11
440.911
 21
478.746
  0
LINE
  8
0
 10
440.911
 20
478.746
 11
440.479
 21
478.526
  0
LINE
  8
0
 10
440.479
 20
478.526
 11
440
 21
478.45
  0
LINE
  8
0
 10
440
 20
478.45
 11
439.521
 21
478.526
  0
LINE
  8
0
 10
457.208
 20
455.563
 11
456.494
 21
455.927
  0
LINE
  8
0
 10
456.494
 20
455.927
 11
455.927
 21
456.494
  0
LINE
  8
0
 10
455.927
 20
456.494
 11
455.563
 21
457.208
  0
LINE
  8
0
 10
455.563
 20
457.208
 11
455.438
 21
458
  0
LINE
  8
0
 10
455.438
 20
458
 11
455.563
 21
458.792
  0
LINE
  8
0
 10
455.563
 20
458.792
 11
455.927
 21
459.506
  0
LINE
  8
0
 10
455.927
 20
459.506
 11
456.494
 21
460.073
  0
LINE
  8
0
 10
456.494
 20
460.073
 11
457.208
 21
460.437
  0
LINE
  8
0
 10
457.208
 20
460.437
 11
458
 21
460.562
  0
LINE
  8
0
 10
458
 20
460.562
 11
458.792
 21
460.437
  0
LINE
  8
0
 10
458.792
 20
460.437
 11
459.506
 21
460.073
  0
LINE
  8
0
 10
459.506
 20
460.073
 11
460.073
 21
459.506
  0
LINE
  8
0
 10
460.073
 20
459.506
 11
460.437
 21
458.792
  0
LINE
  8
0
 10
460.437
 20
458.792
 11
460.562
 21
458
  0
LINE
  8
0
 10
460.562
 20
458
 11
460.437
 21
457.208
  0
LINE
  8
0
 10
460.437
 20
457.208
 11
460.073
 21
456.494
  0
LINE
  8
0
 10
460.073
 20
456.494
 11
459.506
 21
455.927
  0
LINE
  8
0
 10
459.506
 20
455.927
 11
458.792
 21
455.563
  0
LINE
  8
0
 10
458.792
 20
455.563
 11
458
 21
455.438
  0
LINE
  8
0
 10
458
 20
455.438
 11
457.208
 21
455.563
  0
LINE
  8
0
 10
385.208
 20
455.563
 11
384.494
 21
455.927
  0
LINE
  8
0
 10
384.494
 20
455.927
 11
383.927
 21
456.494
  0
LINE
  8
0
 10
383.927
 20
456.494
 11
383.563
 21
457.208
  0
LINE
  8
0
 10
383.563
 20
457.208
 11
383.438
 21
458
  0
LINE
  8
0
 10
383.438
 20
458
 11
383.563
 21
458.792
  0
LINE
  8
0
 10
383.563
 20
458.792
 11
383.927
 21
459.506
  0
LINE
  8
0
 10
383.927
 20
459.506
 11
384.494
 21
460.073
  0
LINE
  8
0
 10
384.494
 20
460.073
 11
385.208
 21
460.437
  0
LINE
  8
0
 10
385.208
 20
460.437
 11
386
 21
460.562
  0
LINE
  8
0
 10
386
 20
460.562
 11
386.792
 21
460.437
  0
LINE
  8
0
 10
386.792
 20
460.437
 11
387.506
 21
460.073
  0
LINE
  8
0
 10
387.506
 20
460.073
 11
388.073
 21
459.506
  0
LINE
  8
0
 10
388.073
 20
459.506
 11
388.437
 21
458.792
  0
LINE
  8
0
 10
388.437
 20
458.792
 11
388.562
 21
458
  0
LINE
  8
0
 10
388.562
 20
458
 11
388.437
 21
457.208
  0
LINE
  8
0
 10
388.437
 20
457.208
 11
388.073
 21
456.494
  0
LINE
  8
0
 10
388.073
 20
456.494
 11
387.506
 21
455.927
  0
LINE
  8
0
 10
387.506
 20
455.927
 11
386.792
 21
455.563
  0
LINE
  8
0
 10
386.792
 20
455.563
 11
386
 21
455.438
  0
LINE
  8
0
 10
386
 20
455.438
 11
385.208
 21
455.563
  0
LINE
  8
0
 10
411.684
 20
389.213
 11
401.928
 21
394.184
  0
LINE
  8
0
 10
401.928
 20
394.184
 11
394.184
 21
401.928
  0
LINE
  8
0
 10
394.184
 20
401.928
 11
389.213
 21
411.684
  0
LINE
  8
0
 10
389.213
 20
411.684
 11
387.5
 21
422.5
  0
LINE
  8
0
 10
387.5
 20
422.5
 11
389.213
 21
433.316
  0
LINE
  8
0
 10
389.213
 20
433.316
 11
394.184
 21
443.072
  0
LINE
  8
0
 10
394.184
 20
443.072
 11
401.928
 21
450.816
  0
LINE
  8
0
 10
401.928
 20
450.816
 11
411.684
 21
455.787
  0
LINE
  8
0
 10
411.684
 20
455.787
 11
422.5
 21
457.5
  0
LINE
  8
0
 10
422.5
 20
457.5
 11
433.316
 21
455.787
  0
LINE
  8
0
 10
433.316
 20
455.787
 11
443.072
 21
450.816
  0
LINE
  8
0
 10
443.072
 20
450.816
 11
450.816
 21
443.072
  0
LINE
  8
0
 10
450.816
 20
443.072
 11
455.787
 21
433.316
  0
LINE
  8
0
 10
455.787
 20
433.316
 11
457.5
 21
422.5
  0
LINE
  8
0
 10
457.5
 20
422.5
 11
455.787
 21
411.684
  0
LINE
  8
0
 10
455.787
 20
411.684
 11
450.816
 21
401.928
  0
LINE
  8
0
 10
450.816
 20
401.928
 11
443.072
 21
394.184
  0
LINE
  8
0
 10
443.072
 20
394.184
 11
433.316
 21
389.213
  0
LINE
  8
0
 10
433.316
 20
389.213
 11
422.5
 21
387.5
  0
LINE
  8
0
 10
422.5
 20
387.5
 11
411.684
 21
389.213
  0
LINE
  8
0
 10
9.52101
 20
438.526
 11
9.08893
 21
438.746
  0
LINE
  8
0
 10
9.08893
 20
438.746
 11
8.74602
 21
439.089
  0
LINE
  8
0
 10
8.74602
 20
439.089
 11
8.52585
 21
439.521
  0
LINE
  8
0
 10
8.52585
 20
439.521
 11
8.45
 21
440
  0
LINE
  8
0
 10
8.45
 20
440
 11
8.52585
 21
440.479
  0
LINE
  8
0
 10
8.52585
 20
440.479
 11
8.74602
 21
440.911
  0
LINE
  8
0
 10
8.74602
 20
440.911
 11
9.08893
 21
441.254
  0
LINE
  8
0
 10
9.08893
 20
441.254
 11
9.52101
 21
441.474
  0
LINE
  8
0
 10
9.52101
 20
441.474
 11
10
 21
441.55
  0
LINE
  8
0
 10
10
 20
441.55
 11
10.479
 21
441.474
  0
LINE
  8
0
 10
10.479
 20
441.474
 11
10.9111
 21
441.254
  0
LINE
  8
0
 10
10.9111
 20
441.254
 11
11.254
 21
440.911
  0
LINE
  8
0
 10
11.254
 20
440.911
 11
11.4741
 21
440.479
  0
LINE
  8
0
 10
11.4741
 20
440.479
 11
11.55
 21
440
  0
LINE
  8
0
 10
11.55
 20
440
 11
11.4741
 21
439.521
  0
LINE
  8
0
 10
11.4741
 20
439.521
 11
11.254
 21
439.089
  0
LINE
  8
0
 10
11.254
 20
439.089
 11
10.9111
 21
438.746
  0
LINE
  8
0
 10
10.9111
 20
438.746
 11
10.479
 21
438.526
  0
LINE
  8
0
 10
10.479
 20
438.526
 11
10
 21
438.45
  0
LINE
  8
0
 10
10
 20
438.45
 11
9.52101
 21
438.526
  0
LINE
  8
0
 10
479.521
 20
438.526
 11
479.089
 21
438.746
  0
LINE
  8
0
 10
479.089
 20
438.746
 11
478.746
 21
439.089
  0
LINE
  8
0
 10
478.746
 20
439.089
 11
478.526
 21
439.521
  0
LINE
  8
0
 10
478.526
 20
439.521
 11
478.45
 21
440
  0
LINE
  8
0
 10
478.45
 20
440
 11
478.526
 21
440.479
  0
LINE
  8
0
 10
478.526
 20
440.479
 11
478.746
 21
440.911
  0
LINE
  8
0
 10
478.746
 20
440.911
 11
479.089
 21
441.254
  0
LINE
  8
0
 10
479.089
 20
441.254
 11
479.521
 21
441.474
  0
LINE
  8
0
 10
479.521
 20
441.474
 11
480
 21
441.55
  0
LINE
  8
0
 10
480
 20
441.55
 11
480.479
 21
441.474
  0
LINE
  8
0
 10
480.479
 20
441.474
 11
480.911
 21
441.254
  0
LINE
  8
0
 10
480.911
 20
441.254
 11
481.254
 21
440.911
  0
LINE
  8
0
 10
481.254
 20
440.911
 11
481.474
 21
440.479
  0
LINE
  8
0
 10
481.474
 20
440.479
 11
481.55
 21
440
  0
LINE
  8
0
 10
481.55
 20
440
 11
481.474
 21
439.521
  0
LINE
  8
0
 10
481.474
 20
439.521
 11
481.254
 21
439.089
  0
LINE
  8
0
 10
481.254
 20
439.089
 11
480.911
 21
438.746
  0
LINE
  8
0
 10
480.911
 20
438.746
 11
480.479
 21
438.526
  0
LINE
  8
0
 10
480.479
 20
438.526
 11
480
 21
438.45
  0
LINE
  8
0
 10
480
 20
438.45
 11
479.521
 21
438.526
  0
LINE
  8
0
 10
457.208
 20
383.563
 11
456.494
 21
383.927
  0
LINE
  8
0
 10
456.494
 20
383.927
 11
455.927
 21
384.494
  0
LINE
  8
0
 10
455.927
 20
384.494
 11
455.563
 21
385.208
  0
LINE
  8
0
 10
455.563
 20
385.208
 11
455.438
 21
386
  0
LINE
  8
0
 10
455.438
 20
386
 11
455.563
 21
386.792
  0
LINE
  8
0
 10
455.563
 20
386.792
 11
455.927
 21
387.506
  0
LINE
  8
0
 10
455.927
 20
387.506
 11
456.494
 21
388.073
  0
LINE
  8
0
 10
456.494
 20
388.073
 11
457.208
 21
388.437
  0
LINE
  8
0
 10
457.208
 20
388.437
 11
458
 21
388.562
  0
LINE
  8
0
 10
458
 20
388.562
 11
458.792
 21
388.437
  0
LINE
  8
0
 10
458.792
 20
388.437
 11
459.506
 21
388.073
  0
LINE
  8
0
 10
459.506
 20
388.073
 11
460.073
 21
387.506
  0
LINE
  8
0
 10
460.073
 20
387.506
 11
460.437
 21
386.792
  0
LINE
  8
0
 10
460.437
 20
386.792
 11
460.562
 21
386
  0
LINE
  8
0
 10
460.562
 20
386
 11
460.437
 21
385.208
  0
LINE
  8
0
 10
460.437
 20
385.208
 11
460.073
 21
384.494
  0
LINE
  8
0
 10
460.073
 20
384.494
 11
459.506
 21
383.927
  0
LINE
  8
0
 10
459.506
 20
383.927
 11
458.792
 21
383.563
  0
LINE
  8
0
 10
458.792
 20
383.563
 11
458
 21
383.438
  0
LINE
  8
0
 10
458
 20
383.438
 11
457.208
 21
383.563
  0
LINE
  8
0
 10
385.208
 20
383.563
 11
384.494
 21
383.927
  0
LINE
  8
0
 10
384.494
 20
383.927
 11
383.927
 21
384.494
  0
LINE
  8
0
 10
383.927
 20
384.494
 11
383.563
 21
385.208
  0
LINE
  8
0
 10
383.563
 20
385.208
 11
383.438
 21
386
  0
LINE
  8
0
 10
383.438
 20
386
 11
383.563
 21
386.792
  0
LINE
  8
0
 10
383.563
 20
386.792
 11
383.927
 21
387.506
  0
LINE
  8
0
 10
383.927
 20
387.506
 11
384.494
 21
388.073
  0
LINE
  8
0
 10
384.494
 20
388.073
 11
385.208
 21
388.437
  0
LINE
  8
0
 10
385.208
 20
388.437
 11
386
 21
388.562
  0
LINE
  8
0
 10
386
 20
388.562
 11
386.792
 21
388.437
  0
LINE
  8
0
 10
386.792
 20
388.437
 11
387.506
 21
388.073
  0
LINE
  8
0
 10
387.506
 20
388.073
 11
388.073
 21
387.506
  0
LINE
  8
0
 10
388.073
 20
387.506
 11
388.437
 21
386.792
  0
LINE
  8
0
 10
388.437
 20
386.792
 11
388.562
 21
386
  0
LINE
  8
0
 10
388.562
 20
386
 11
388.437
 21
385.208
  0
LINE
  8
0
 10
388.437
 20
385.208
 11
388.073
 21
384.494
  0
LINE
  8
0
 10
388.073
 20
384.494
 11
387.506
 21
383.927
  0
LINE
  8
0
 10
387.506
 20
383.927
 11
386.792
 21
383.563
  0
LINE
  8
0
 10
386.792
 20
383.563
 11
386
 21
383.438
  0
LINE
  8
0
 10
386
 20
383.438
 11
385.208
 21
383.563
  0
LINE
  8
0
 10
105
 20
30
 11
101.91
 21
30.4894
  0
LINE
  8
0
 10
101.91
 20
30.4894
 11
99.1222
 21
31.9098
  0
LINE
  8
0
 10
99.1222
 20
31.9098
 11
96.9098
 21
34.1222
  0
LINE
  8
0
 10
96.9098
 20
34.1222
 11
95.4894
 21
36.9098
  0
LINE
  8
0
 10
95.4894
 20
36.9098
 11
95
 21
40
  0
LINE
  8
0
 10
95
 20
40
 11
95
 21
280
  0
LINE
  8
0
 10
95
 20
280
 11
95.4894
 21
283.09
  0
LINE
  8
0
 10
95.4894
 20
283.09
 11
96.9098
 21
285.878
  0
LINE
  8
0
 10
96.9098
 20
285.878
 11
99.1222
 21
288.09
  0
LINE
  8
0
 10
99.1222
 20
288.09
 11
101.91
 21
289.511
  0
LINE
  8
0
 10
101.91
 20
289.511
 11
105
 21
290
  0
LINE
  8
0
 10
105
 20
290
 11
425
 21
290
  0
LINE
  8
0
 10
425
 20
290
 11
428.09
 21
289.511
  0
LINE
  8
0
 10
428.09
 20
289.511
 11
430.878
 21
288.09
  0
LINE
  8
0
 10
430.878
 20
288.09
 11
433.09
 21
285.878
  0
LINE
  8
0
 10
433.09
 20
285.878
 11
434.511
 21
283.09
  0
LINE
  8
0
 10
434.511
 20
283.09
 11
435
 21
280
  0
LINE
  8
0
 10
435
 20
280
 11
435
 21
40
  0
LINE
  8
0
 10
435
 20
40
 11
434.511
 21
36.9098
  0
LINE
  8
0
 10
434.511
 20
36.9098
 11
433.09
 21
34.1222
  0
LINE
  8
0
 10
433.09
 20
34.1222
 11
430.878
 21
31.9098
  0
LINE
  8
0
 10
430.878
 20
31.9098
 11
428.09
 21
30.4894
  0
LINE
  8
0
 10
428.09
 20
30.4894
 11
425
 21
30
  0
LINE
  8
0
 10
425
 20
30
 11
105
 21
30
  0
LINE
  8
0
 10
425.479
 20
278.526
 11
425.911
 21
278.746
  0
LINE
  8
0
 10
425.911
 20
278.746
 11
426.254
 21
279.089
  0
LINE
  8
0
 10
426.254
 20
279.089
 11
426.474
 21
279.521
  0
LINE
  8
0
 10
426.474
 20
279.521
 11
426.55
 21
280
  0
LINE
  8
0
 10
426.55
 20
280
 11
426.474
 21
280.479
  0
LINE
  8
0
 10
426.474
 20
280.479
 11
426.254
 21
280.911
  0
LINE
  8
0
 10
426.254
 20
280.911
 11
425.911
 21
281.254
  0
LINE
  8
0
 10
425.911
 20
281.254
 11
425.479
 21
281.474
  0
LINE
  8
0
 10
425.479
 20
281.474
 11
425
 21
281.55
  0
LINE
  8
0
 10
425
 20
281.55
 11
424.521
 21
281.474
  0
LINE
  8
0
 10
424.521
 20
281.474
 11
424.089
 21
281.254
  0
LINE
  8
0
 10
424.089
 20
281.254
 11
423.746
 21
280.911
  0
LINE
  8
0
 10
423.746
 20
280.911
 11
423.526
 21
280.479
  0
LINE
  8
0
 10
423.526
 20
280.479
 11
423.45
 21
280
  0
LINE
  8
0
 10
423.45
 20
280
 11
423.526
 21
279.521
  0
LINE
  8
0
 10
423.526
 20
279.521
 11
423.746
 21
279.089
  0
LINE
  8
0
 10
423.746
 20
279.089
 11
424.089
 21
278.746
  0
LINE
  8
0
 10
424.089
 20
278.746
 11
424.521
 21
278.526
  0
LINE
  8
0
 10
424.521
 20
278.526
 11
425
 21
278.45
  0
LINE
  8
0
 10
425
 20
278.45
 11
425.479
 21
278.526
  0
LINE
  8
0
 10
265.479
 20
278.526
 11
265.911
 21
278.746
  0
LINE
  8
0
 10
265.911
 20
278.746
 11
266.254
 21
279.089
  0
LINE
  8
0
 10
266.254
 20
279.089
 11
266.474
 21
279.521
  0
LINE
  8
0
 10
266.474
 20
279.521
 11
266.55
 21
280
  0
LINE
  8
0
 10
266.55
 20
280
 11
266.474
 21
280.479
  0
LINE
  8
0
 10
266.474
 20
280.479
 11
266.254
 21
280.911
  0
LINE
  8
0
 10
266.254
 20
280.911
 11
265.911
 21
281.254
  0
LINE
  8
0
 10
265.911
 20
281.254
 11
265.479
 21
281.474
  0
LINE
  8
0
 10
265.479
 20
281.474
 11
265
 21
281.55
  0
LINE
  8
0
 10
265
 20
281.55
 11
264.521
 21
281.474
  0
LINE
  8
0
 10
264.521
 20
281.474
 11
264.089
 21
281.254
  0
LINE
  8
0
 10
264.089
 20
281.254
 11
263.746
 21
280.911
  0
LINE
  8
0
 10
263.746
 20
280.911
 11
263.526
 21
280.479
  0
LINE
  8
0
 10
263.526
 20
280.479
 11
263.45
 21
280
  0
LINE
  8
0
 10
263.45
 20
280
 11
263.526
 21
279.521
  0
LINE
  8
0
 10
263.526
 20
279.521
 11
263.746
 21
279.089
  0
LINE
  8
0
 10
263.746
 20
279.089
 11
264.089
 21
278.746
  0
LINE
  8
0
 10
264.089
 20
278.746
 11
264.521
 21
278.526
  0
LINE
  8
0
 10
264.521
 20
278.526
 11
265
 21
278.45
  0
LINE
  8
0
 10
265
 20
278.45
 11
265.479
 21
278.526
  0
LINE
  8
0
 10
105.479
 20
278.526
 11
105.911
 21
278.746
  0
LINE
  8
0
 10
105.911
 20
278.746
 11
106.254
 21
279.089
  0
LINE
  8
0
 10
106.254
 20
279.089
 11
106.474
 21
279.521
  0
LINE
  8
0
 10
106.474
 20
279.521
 11
106.55
 21
280
  0
LINE
  8
0
 10
106.55
 20
280
 11
106.474
 21
280.479
  0
LINE
  8
0
 10
106.474
 20
280.479
 11
106.254
 21
280.911
  0
LINE
  8
0
 10
106.254
 20
280.911
 11
105.911
 21
281.254
  0
LINE
  8
0
 10
105.911
 20
281.254
 11
105.479
 21
281.474
  0
LINE
  8
0
 10
105.479
 20
281.474
 11
105
 21
281.55
  0
LINE
  8
0
 10
105
 20
281.55
 11
104.521
 21
281.474
  0
LINE
  8
0
 10
104.521
 20
281.474
 11
104.089
 21
281.254
  0
LINE
  8
0
 10
104.089
 20
281.254
 11
103.746
 21
280.911
  0
LINE
  8
0
 10
103.746
 20
280.911
 11
103.526
 21
280.479
  0
LINE
  8
0
 10
103.526
 20
280.479
 11
103.45
 21
280
  0
LINE
  8
0
 10
103.45
 20
280
 11
103.526
 21
279.521
  0
LINE
  8
0
 10
103.526
 20
279.521
 11
103.746
 21
279.089
  0
LINE
  8
0
 10
103.746
 20
279.089
 11
104.089
 21
278.746
  0
LINE
  8
0
 10
104.089
 20
278.746
 11
104.521
 21
278.526
  0
LINE
  8
0
 10
104.521
 20
278.526
 11
105
 21
278.45
  0
LINE
  8
0
 10
105
 20
278.45
 11
105.479
 21
278.526
  0
LINE
  8
0
 10
408.09
 20
50.4894
 11
410.878
 21
51.9098
  0
LINE
  8
0
 10
410.878
 20
51.9098
 11
413.09
 21
54.1221
  0
LINE
  8
0
 10
413.09
 20
54.1221
 11
414.511
 21
56.9098
  0
LINE
  8
0
 10
414.511
 20
56.9098
 11
415
 21
60
  0
LINE
  8
0
 10
415
 20
60
 11
415
 21
260
  0
LINE
  8
0
 10
415
 20
260
 11
414.511
 21
263.09
  0
LINE
  8
0
 10
414.511
 20
263.09
 11
413.09
 21
265.878
  0
LINE
  8
0
 10
413.09
 20
265.878
 11
410.878
 21
268.09
  0
LINE
  8
0
 10
410.878
 20
268.09
 11
408.09
 21
269.511
  0
LINE
  8
0
 10
408.09
 20
269.511
 11
405
 21
270
  0
LINE
  8
0
 10
405
 20
270
 11
125
 21
270
  0
LINE
  8
0
 10
125
 20
270
 11
121.91
 21
269.511
  0
LINE
  8
0
 10
121.91
 20
269.511
 11
119.122
 21
268.09
  0
LINE
  8
0
 10
119.122
 20
268.09
 11
116.91
 21
265.878
  0
LINE
  8
0
 10
116.91
 20
265.878
 11
115.489
 21
263.09
  0
LINE
  8
0
 10
115.489
 20
263.09
 11
115
 21
260
  0
LINE
  8
0
 10
115
 20
260
 11
115
 21
60
  0
LINE
  8
0
 10
115
 20
60
 11
115.489
 21
56.9098
  0
LINE
  8
0
 10
115.489
 20
56.9098
 11
116.91
 21
54.1221
  0
LINE
  8
0
 10
116.91
 20
54.1221
 11
119.122
 21
51.9098
  0
LINE
  8
0
 10
119.122
 20
51.9098
 11
121.91
 21
50.4894
  0
LINE
  8
0
 10
121.91
 20
50.4894
 11
125
 21
50
  0
LINE
  8
0
 10
125
 20
50
 11
405
 21
50
  0
LINE
  8
0
 10
405
 20
50
 11
408.09
 21
50.4894
  0
LINE
  8
0
 10
105.479
 20
38.5259
 11
105.911
 21
38.746
  0
LINE
  8
0
 10
105.911
 20
38.746
 11
106.254
 21
39.0889
  0
LINE
  8
0
 10
106.254
 20
39.0889
 11
106.474
 21
39.521
  0
LINE
  8
0
 10
106.474
 20
39.521
 11
106.55
 21
40
  0
LINE
  8
0
 10
106.55
 20
40
 11
106.474
 21
40.479
  0
LINE
  8
0
 10
106.474
 20
40.479
 11
106.254
 21
40.9111
  0
LINE
  8
0
 10
106.254
 20
40.9111
 11
105.911
 21
41.254
  0
LINE
  8
0
 10
105.911
 20
41.254
 11
105.479
 21
41.4741
  0
LINE
  8
0
 10
105.479
 20
41.4741
 11
105
 21
41.55
  0
LINE
  8
0
 10
105
 20
41.55
 11
104.521
 21
41.4741
  0
LINE
  8
0
 10
104.521
 20
41.4741
 11
104.089
 21
41.254
  0
LINE
  8
0
 10
104.089
 20
41.254
 11
103.746
 21
40.9111
  0
LINE
  8
0
 10
103.746
 20
40.9111
 11
103.526
 21
40.479
  0
LINE
  8
0
 10
103.526
 20
40.479
 11
103.45
 21
40
  0
LINE
  8
0
 10
103.45
 20
40
 11
103.526
 21
39.521
  0
LINE
  8
0
 10
103.526
 20
39.521
 11
103.746
 21
39.0889
  0
LINE
  8
0
 10
103.746
 20
39.0889
 11
104.089
 21
38.746
  0
LINE
  8
0
 10
104.089
 20
38.746
 11
104.521
 21
38.5259
  0
LINE
  8
0
 10
104.521
 20
38.5259
 11
105
 21
38.45
  0
LINE
  8
0
 10
105
 20
38.45
 11
105.479
 21
38.5259
  0
LINE
  8
0
 10
265.479
 20
38.5259
 11
265.911
 21
38.746
  0
LINE
  8
0
 10
265.911
 20
38.746
 11
266.254
 21
39.0889
  0
LINE
  8
0
 10
266.254
 20
39.0889
 11
266.474
 21
39.521
  0
LINE
  8
0
 10
266.474
 20
39.521
 11
266.55
 21
40
  0
LINE
  8
0
 10
266.55
 20
40
 11
266.474
 21
40.479
  0
LINE
  8
0
 10
266.474
 20
40.479
 11
266.254
 21
40.9111
  0
LINE
  8
0
 10
266.254
 20
40.9111
 11
265.911
 21
41.254
  0
LINE
  8
0
 10
265.911
 20
41.254
 11
265.479
 21
41.4741
  0
LINE
  8
0
 10
265.479
 20
41.4741
 11
265
 21
41.55
  0
LINE
  8
0
 10
265
 20
41.55
 11
264.521
 21
41.4741
  0
LINE
  8
0
 10
264.521
 20
41.4741
 11
264.089
 21
41.254
  0
LINE
  8
0
 10
264.089
 20
41.254
 11
263.746
 21
40.9111
  0
LINE
  8
0
 10
263.746
 20
40.9111
 11
263.526
 21
40.479
  0
LINE
  8
0
 10
263.526
 20
40.479
 11
263.45
 21
40
  0
LINE
  8
0
 10
263.45
 20
40
 11
263.526
 21
39.521
  0
LINE
  8
0
 10
263.526
 20
39.521
 11
263.746
 21
39.0889
  0
LINE
  8
0
 10
263.746
 20
39.0889
 11
264.089
 21
38.746
  0
LINE
  8
0
 10
264.089
 20
38.746
 11
264.521
 21
38.5259
  0
LINE
  8
0
 10
264.521
 20
38.5259
 11
265
 21
38.45
  0
LINE
  8
0
 10
265
 20
38.45
 11
265.479
 21
38.5259
  0
LINE
  8
0
 10
425.479
 20
38.5259
 11
425.911
 21
38.746
  0
LINE
  8
0
 10
425.911
 20
38.746
 11
426.254
 21
39.0889
  0
LINE
  8
0
 10
426.254
 20
39.0889
 11
426.474
 21
39.521
  0
LINE
  8
0
 10
426.474
 20
39.521
 11
426.55
 21
40
  0
LINE
  8
0
 10
426.55
 20
40
 11
426.474
 21
40.479
  0
LINE
  8
0
 10
426.474
 20
40.479
 11
426.254
 21
40.9111
  0
LINE
  8
0
 10
426.254
 20
40.9111
 11
425.911
 21
41.254
  0
LINE
  8
0
 10
425.911
 20
41.254
 11
425.479
 21
41.4741
  0
LINE
  8
0
 10
425.479
 20
41.4741
 11
425
 21
41.55
  0
LINE
  8
0
 10
425
 20
41.55
 11
424.521
 21
41.4741
  0
LINE
  8
0
 10
424.521
 20
41.4741
 11
424.089
 21
41.254
  0
LINE
  8
0
 10
424.089
 20
41.254
 11
423.746
 21
40.9111
  0
LINE
  8
0
 10
423.746
 20
40.9111
 11
423.526
 21
40.479
  0
LINE
  8
0
 10
423.526
 20
40.479
 11
423.45
 21
40
  0
LINE
  8
0
 10
423.45
 20
40
 11
423.526
 21
39.521
  0
LINE
  8
0
 10
423.526
 20
39.521
 11
423.746
 21
39.0889
  0
LINE
  8
0
 10
423.746
 20
39.0889
 11
424.089
 21
38.746
  0
LINE
  8
0
 10
424.089
 20
38.746
 11
424.521
 21
38.5259
  0
LINE
  8
0
 10
424.521
 20
38.5259
 11
425
 21
38.45
  0
LINE
  8
0
 10
425
 20
38.45
 11
425.479
 21
38.5259
  0
LINE
  8
0
 10
479.208
 20
281.563
 11
478.494
 21
281.927
  0
LINE
  8
0
 10
478.494
 20
281.927
 11
477.927
 21
282.494
  0
LINE
  8
0
 10
477.927
 20
282.494
 11
477.563
 21
283.208
  0
LINE
  8
0
 10
477.563
 20
283.208
 11
477.438
 21
284
  0
LINE
  8
0
 10
477.438
 20
284
 11
477.563
 21
284.792
  0
LINE
  8
0
 10
477.563
 20
284.792
 11
477.927
 21
285.506
  0
LINE
  8
0
 10
477.927
 20
285.506
 11
478.494
 21
286.073
  0
LINE
  8
0
 10
478.494
 20
286.073
 11
479.208
 21
286.437
  0
LINE
  8
0
 10
479.208
 20
286.437
 11
480
 21
286.562
  0
LINE
  8
0
 10
480
 20
286.562
 11
480.792
 21
286.437
  0
LINE
  8
0
 10
480.792
 20
286.437
 11
481.506
 21
286.073
  0
LINE
  8
0
 10
481.506
 20
286.073
 11
482.073
 21
285.506
  0
LINE
  8
0
 10
482.073
 20
285.506
 11
482.437
 21
284.792
  0
LINE
  8
0
 10
482.437
 20
284.792
 11
482.562
 21
284
  0
LINE
  8
0
 10
482.562
 20
284
 11
482.437
 21
283.208
  0
LINE
  8
0
 10
482.437
 20
283.208
 11
482.073
 21
282.494
  0
LINE
  8
0
 10
482.073
 20
282.494
 11
481.506
 21
281.927
  0
LINE
  8
0
 10
481.506
 20
281.927
 11
480.792
 21
281.563
  0
LINE
  8
0
 10
480.792
 20
281.563
 11
480
 21
281.438
  0
LINE
  8
0
 10
480
 20
281.438
 11
479.208
 21
281.563
  0
LINE
  8
0
 10
9.20813
 20
281.563
 11
8.49379
 21
281.927
  0
LINE
  8
0
 10
8.49379
 20
281.927
 11
7.92688
 21
282.494
  0
LINE
  8
0
 10
7.92688
 20
282.494
 11
7.56291
 21
283.208
  0
LINE
  8
0
 10
7.56291
 20
283.208
 11
7.4375
 21
284
  0
LINE
  8
0
 10
7.4375
 20
284
 11
7.56291
 21
284.792
  0
LINE
  8
0
 10
7.56291
 20
284.792
 11
7.92688
 21
285.506
  0
LINE
  8
0
 10
7.92688
 20
285.506
 11
8.49379
 21
286.073
  0
LINE
  8
0
 10
8.49379
 20
286.073
 11
9.20813
 21
286.437
  0
LINE
  8
0
 10
9.20813
 20
286.437
 11
10
 21
286.562
  0
LINE
  8
0
 10
10
 20
286.562
 11
10.7919
 21
286.437
  0
LINE
  8
0
 10
10.7919
 20
286.437
 11
11.5062
 21
286.073
  0
LINE
  8
0
 10
11.5062
 20
286.073
 11
12.0731
 21
285.506
  0
LINE
  8
0
 10
12.0731
 20
285.506
 11
12.4371
 21
284.792
  0
LINE
  8
0
 10
12.4371
 20
284.792
 11
12.5625
 21
284
  0
LINE
  8
0
 10
12.5625
 20
284
 11
12.4371
 21
283.208
  0
LINE
  8
0
 10
12.4371
 20
283.208
 11
12.0731
 21
282.494
  0
LINE
  8
0
 10
12.0731
 20
282.494
 11
11.5062
 21
281.927
  0
LINE
  8
0
 10
11.5062
 20
281.927
 11
10.7919
 21
281.563
  0
LINE
  8
0
 10
10.7919
 20
281.563
 11
10
 21
281.438
  0
LINE
  8
0
 10
10
 20
281.438
 11
9.20813
 21
281.563
  0
LINE
  8
0
 10
69.521
 20
271.526
 11
69.0889
 21
271.746
  0
LINE
  8
0
 10
69.0889
 20
271.746
 11
68.746
 21
272.089
  0
LINE
  8
0
 10
68.746
 20
272.089
 11
68.5259
 21
272.521
  0
LINE
  8
0
 10
68.5259
 20
272.521
 11
68.45
 21
273
  0
LINE
  8
0
 10
68.45
 20
273
 11
68.5259
 21
273.479
  0
LINE
  8
0
 10
68.5259
 20
273.479
 11
68.746
 21
273.911
  0
LINE
  8
0
 10
68.746
 20
273.911
 11
69.0889
 21
274.254
  0
LINE
  8
0
 10
69.0889
 20
274.254
 11
69.521
 21
274.474
  0
LINE
  8
0
 10
69.521
 20
274.474
 11
70
 21
274.55
  0
LINE
  8
0
 10
70
 20
274.55
 11
70.479
 21
274.474
  0
LINE
  8
0
 10
70.479
 20
274.474
 11
70.9111
 21
274.254
  0
LINE
  8
0
 10
70.9111
 20
274.254
 11
71.254
 21
273.911
  0
LINE
  8
0
 10
71.254
 20
273.911
 11
71.4741
 21
273.479
  0
LINE
  8
0
 10
71.4741
 20
273.479
 11
71.55
 21
273
  0
LINE
  8
0
 10
71.55
 20
273
 11
71.4741
 21
272.521
  0
LINE
  8
0
 10
71.4741
 20
272.521
 11
71.254
 21
272.089
  0
LINE
  8
0
 10
71.254
 20
272.089
 11
70.9111
 21
271.746
  0
LINE
  8
0
 10
70.9111
 20
271.746
 11
70.479
 21
271.526
  0
LINE
  8
0
 10
70.479
 20
271.526
 11
70
 21
271.45
  0
LINE
  8
0
 10
70
 20
271.45
 11
69.521
 21
271.526
  0
LINE
  8
0
 10
9.20813
 20
267.563
 11
8.49379
 21
267.927
  0
LINE
  8
0
 10
8.49379
 20
267.927
 11
7.92688
 21
268.494
  0
LINE
  8
0
 10
7.92688
 20
268.494
 11
7.56291
 21
269.208
  0
LINE
  8
0
 10
7.56291
 20
269.208
 11
7.4375
 21
270
  0
LINE
  8
0
 10
7.4375
 20
270
 11
7.56291
 21
270.792
  0
LINE
  8
0
 10
7.56291
 20
270.792
 11
7.92688
 21
271.506
  0
LINE
  8
0
 10
7.92688
 20
271.506
 11
8.49379
 21
272.073
  0
LINE
  8
0
 10
8.49379
 20
272.073
 11
9.20813
 21
272.437
  0
LINE
  8
0
 10
9.20813
 20
272.437
 11
10
 21
272.562
  0
LINE
  8
0
 10
10
 20
272.562
 11
10.7919
 21
272.437
  0
LINE
  8
0
 10
10.7919
 20
272.437
 11
11.5062
 21
272.073
  0
LINE
  8
0
 10
11.5062
 20
272.073
 11
12.0731
 21
271.506
  0
LINE
  8
0
 10
12.0731
 20
271.506
 11
12.4371
 21
270.792
  0
LINE
  8
0
 10
12.4371
 20
270.792
 11
12.5625
 21
270
  0
LINE
  8
0
 10
12.5625
 20
270
 11
12.4371
 21
269.208
  0
LINE
  8
0
 10
12.4371
 20
269.208
 11
12.0731
 21
268.494
  0
LINE
  8
0
 10
12.0731
 20
268.494
 11
11.5062
 21
267.927
  0
LINE
  8
0
 10
11.5062
 20
267.927
 11
10.7919
 21
267.563
  0
LINE
  8
0
 10
10.7919
 20
267.563
 11
10
 21
267.438
  0
LINE
  8
0
 10
10
 20
267.438
 11
9.20813
 21
267.563
  0
LINE
  8
0
 10
479.208
 20
267.563
 11
478.494
 21
267.927
  0
LINE
  8
0
 10
478.494
 20
267.927
 11
477.927
 21
268.494
  0
LINE
  8
0
 10
477.927
 20
268.494
 11
477.563
 21
269.208
  0
LINE
  8
0
 10
477.563
 20
269.208
 11
477.438
 21
270
  0
LINE
  8
0
 10
477.438
 20
270
 11
477.563
 21
270.792
  0
LINE
  8
0
 10
477.563
 20
270.792
 11
477.927
 21
271.506
  0
LINE
  8
0
 10
477.927
 20
271.506
 11
478.494
 21
272.073
  0
LINE
  8
0
 10
478.494
 20
272.073
 11
479.208
 21
272.437
  0
LINE
  8
0
 10
479.208
 20
272.437
 11
480
 21
272.562
  0
LINE
  8
0
 10
480
 20
272.562
 11
480.792
 21
272.437
  0
LINE
  8
0
 10
480.792
 20
272.437
 11
481.506
 21
272.073
  0
LINE
  8
0
 10
481.506
 20
272.073
 11
482.073
 21
271.506
  0
LINE
  8
0
 10
482.073
 20
271.506
 11
482.437
 21
270.792
  0
LINE
  8
0
 10
482.437
 20
270.792
 11
482.562
 21
270
  0
LINE
  8
0
 10
482.562
 20
270
 11
482.437
 21
269.208
  0
LINE
  8
0
 10
482.437
 20
269.208
 11
482.073
 21
268.494
  0
LINE
  8
0
 10
482.073
 20
268.494
 11
481.506
 21
267.927
  0
LINE
  8
0
 10
481.506
 20
267.927
 11
480.792
 21
267.563
  0
LINE
  8
0
 10
480.792
 20
267.563
 11
480
 21
267.438
  0
LINE
  8
0
 10
480
 20
267.438
 11
479.208
 21
267.563
  0
LINE
  8
0
 10
69.521
 20
251.526
 11
69.0889
 21
251.746
  0
LINE
  8
0
 10
69.0889
 20
251.746
 11
68.746
 21
252.089
  0
LINE
  8
0
 10
68.746
 20
252.089
 11
68.5259
 21
252.521
  0
LINE
  8
0
 10
68.5259
 20
252.521
 11
68.45
 21
253
  0
LINE
  8
0
 10
68.45
 20
253
 11
68.5259
 21
253.479
  0
LINE
  8
0
 10
68.5259
 20
253.479
 11
68.746
 21
253.911
  0
LINE
  8
0
 10
68.746
 20
253.911
 11
69.0889
 21
254.254
  0
LINE
  8
0
 10
69.0889
 20
254.254
 11
69.521
 21
254.474
  0
LINE
  8
0
 10
69.521
 20
254.474
 11
70
 21
254.55
  0
LINE
  8
0
 10
70
 20
254.55
 11
70.479
 21
254.474
  0
LINE
  8
0
 10
70.479
 20
254.474
 11
70.9111
 21
254.254
  0
LINE
  8
0
 10
70.9111
 20
254.254
 11
71.254
 21
253.911
  0
LINE
  8
0
 10
71.254
 20
253.911
 11
71.4741
 21
253.479
  0
LINE
  8
0
 10
71.4741
 20
253.479
 11
71.55
 21
253
  0
LINE
  8
0
 10
71.55
 20
253
 11
71.4741
 21
252.521
  0
LINE
  8
0
 10
71.4741
 20
252.521
 11
71.254
 21
252.089
  0
LINE
  8
0
 10
71.254
 20
252.089
 11
70.9111
 21
251.746
  0
LINE
  8
0
 10
70.9111
 20
251.746
 11
70.479
 21
251.526
  0
LINE
  8
0
 10
70.479
 20
251.526
 11
70
 21
251.45
  0
LINE
  8
0
 10
70
 20
251.45
 11
69.521
 21
251.526
  0
LINE
  8
0
 10
479.521
 20
243.526
 11
479.089
 21
243.746
  0
LINE
  8
0
 10
479.089
 20
243.746
 11
478.746
 21
244.089
  0
LINE
  8
0
 10
478.746
 20
244.089
 11
478.526
 21
244.521
  0
LINE
  8
0
 10
478.526
 20
244.521
 11
478.45
 21
245
  0
LINE
  8
0
 10
478.45
 20
245
 11
478.526
 21
245.479
  0
LINE
  8
0
 10
478.526
 20
245.479
 11
478.746
 21
245.911
  0
LINE
  8
0
 10
478.746
 20
245.911
 11
479.089
 21
246.254
  0
LINE
  8
0
 10
479.089
 20
246.254
 11
479.521
 21
246.474
  0
LINE
  8
0
 10
479.521
 20
246.474
 11
480
 21
246.55
  0
LINE
  8
0
 10
480
 20
246.55
 11
480.479
 21
246.474
  0
LINE
  8
0
 10
480.479
 20
246.474
 11
480.911
 21
246.254
  0
LINE
  8
0
 10
480.911
 20
246.254
 11
481.254
 21
245.911
  0
LINE
  8
0
 10
481.254
 20
245.911
 11
481.474
 21
245.479
  0
LINE
  8
0
 10
481.474
 20
245.479
 11
481.55
 21
245
  0
LINE
  8
0
 10
481.55
 20
245
 11
481.474
 21
244.521
  0
LINE
  8
0
 10
481.474
 20
244.521
 11
481.254
 21
244.089
  0
LINE
  8
0
 10
481.254
 20
244.089
 11
480.911
 21
243.746
  0
LINE
  8
0
 10
480.911
 20
243.746
 11
480.479
 21
243.526
  0
LINE
  8
0
 10
480.479
 20
243.526
 11
480
 21
243.45
  0
LINE
  8
0
 10
480
 20
243.45
 11
479.521
 21
243.526
  0
LINE
  8
0
 10
9.52101
 20
243.526
 11
9.08893
 21
243.746
  0
LINE
  8
0
 10
9.08893
 20
243.746
 11
8.74602
 21
244.089
  0
LINE
  8
0
 10
8.74602
 20
244.089
 11
8.52585
 21
244.521
  0
LINE
  8
0
 10
8.52585
 20
244.521
 11
8.45
 21
245
  0
LINE
  8
0
 10
8.45
 20
245
 11
8.52585
 21
245.479
  0
LINE
  8
0
 10
8.52585
 20
245.479
 11
8.74602
 21
245.911
  0
LINE
  8
0
 10
8.74602
 20
245.911
 11
9.08893
 21
246.254
  0
LINE
  8
0
 10
9.08893
 20
246.254
 11
9.52101
 21
246.474
  0
LINE
  8
0
 10
9.52101
 20
246.474
 11
10
 21
246.55
  0
LINE
  8
0
 10
10
 20
246.55
 11
10.479
 21
246.474
  0
LINE
  8
0
 10
10.479
 20
246.474
 11
10.9111
 21
246.254
  0
LINE
  8
0
 10
10.9111
 20
246.254
 11
11.254
 21
245.911
  0
LINE
  8
0
 10
11.254
 20
245.911
 11
11.4741
 21
245.479
  0
LINE
  8
0
 10
11.4741
 20
245.479
 11
11.55
 21
245
  0
LINE
  8
0
 10
11.55
 20
245
 11
11.4741
 21
244.521
  0
LINE
  8
0
 10
11.4741
 20
244.521
 11
11.254
 21
244.089
  0
LINE
  8
0
 10
11.254
 20
244.089
 11
10.9111
 21
243.746
  0
LINE
  8
0
 10
10.9111
 20
243.746
 11
10.479
 21
243.526
  0
LINE
  8
0
 10
10.479
 20
243.526
 11
10
 21
243.45
  0
LINE
  8
0
 10
10
 20
243.45
 11
9.52101
 21
243.526
  0
LINE
  8
0
 10
68.7639
 20
201.196
 11
67.6489
 21
201.764
  0
LINE
  8
0
 10
67.6489
 20
201.764
 11
66.7639
 21
202.649
  0
LINE
  8
0
 10
66.7639
 20
202.649
 11
66.1958
 21
203.764
  0
LINE
  8
0
 10
66.1958
 20
203.764
 11
66
 21
205
  0
LINE
  8
0
 10
66
 20
205
 11
66.1958
 21
206.236
  0
LINE
  8
0
 10
66.1958
 20
206.236
 11
66.7639
 21
207.351
  0
LINE
  8
0
 10
66.7639
 20
207.351
 11
67.6489
 21
208.236
  0
LINE
  8
0
 10
67.6489
 20
208.236
 11
68.7639
 21
208.804
  0
LINE
  8
0
 10
68.7639
 20
208.804
 11
70
 21
209
  0
LINE
  8
0
 10
70
 20
209
 11
71.2361
 21
208.804
  0
LINE
  8
0
 10
71.2361
 20
208.804
 11
72.3511
 21
208.236
  0
LINE
  8
0
 10
72.3511
 20
208.236
 11
73.2361
 21
207.351
  0
LINE
  8
0
 10
73.2361
 20
207.351
 11
73.8042
 21
206.236
  0
LINE
  8
0
 10
73.8042
 20
206.236
 11
74
 21
205
  0
LINE
  8
0
 10
74
 20
205
 11
73.8042
 21
203.764
  0
LINE
  8
0
 10
73.8042
 20
203.764
 11
73.2361
 21
202.649
  0
LINE
  8
0
 10
73.2361
 20
202.649
 11
72.3511
 21
201.764
  0
LINE
  8
0
 10
72.3511
 20
201.764
 11
71.2361
 21
201.196
  0
LINE
  8
0
 10
71.2361
 20
201.196
 11
70
 21
201
  0
LINE
  8
0
 10
70
 20
201
 11
68.7639
 21
201.196
  0
LINE
  8
0
 10
68.7639
 20
111.196
 11
67.6489
 21
111.764
  0
LINE
  8
0
 10
67.6489
 20
111.764
 11
66.7639
 21
112.649
  0
LINE
  8
0
 10
66.7639
 20
112.649
 11
66.1958
 21
113.764
  0
LINE
  8
0
 10
66.1958
 20
113.764
 11
66
 21
115
  0
LINE
  8
0
 10
66
 20
115
 11
66.1958
 21
116.236
  0
LINE
  8
0
 10
66.1958
 20
116.236
 11
66.7639
 21
117.351
  0
LINE
  8
0
 10
66.7639
 20
117.351
 11
67.6489
 21
118.236
  0
LINE
  8
0
 10
67.6489
 20
118.236
 11
68.7639
 21
118.804
  0
LINE
  8
0
 10
68.7639
 20
118.804
 11
70
 21
119
  0
LINE
  8
0
 10
70
 20
119
 11
71.2361
 21
118.804
  0
LINE
  8
0
 10
71.2361
 20
118.804
 11
72.3511
 21
118.236
  0
LINE
  8
0
 10
72.3511
 20
118.236
 11
73.2361
 21
117.351
  0
LINE
  8
0
 10
73.2361
 20
117.351
 11
73.8042
 21
116.236
  0
LINE
  8
0
 10
73.8042
 20
116.236
 11
74
 21
115
  0
LINE
  8
0
 10
74
 20
115
 11
73.8042
 21
113.764
  0
LINE
  8
0
 10
73.8042
 20
113.764
 11
73.2361
 21
112.649
  0
LINE
  8
0
 10
73.2361
 20
112.649
 11
72.3511
 21
111.764
  0
LINE
  8
0
 10
72.3511
 20
111.764
 11
71.2361
 21
111.196
  0
LINE
  8
0
 10
71.2361
 20
111.196
 11
70
 21
111
  0
LINE
  8
0
 10
70
 20
111
 11
68.7639
 21
111.196
  0
LINE
  8
0
 10
9.20813
 20
81.5629
 11
8.49379
 21
81.9269
  0
LINE
  8
0
 10
8.49379
 20
81.9269
 11
7.92688
 21
82.4938
  0
LINE
  8
0
 10
7.92688
 20
82.4938
 11
7.56291
 21
83.2081
  0
LINE
  8
0
 10
7.56291
 20
83.2081
 11
7.4375
 21
84
  0
LINE
  8
0
 10
7.4375
 20
84
 11
7.56291
 21
84.7919
  0
LINE
  8
0
 10
7.56291
 20
84.7919
 11
7.92688
 21
85.5062
  0
LINE
  8
0
 10
7.92688
 20
85.5062
 11
8.49379
 21
86.0731
  0
LINE
  8
0
 10
8.49379
 20
86.0731
 11
9.20813
 21
86.4371
  0
LINE
  8
0
 10
9.20813
 20
86.4371
 11
10
 21
86.5625
  0
LINE
  8
0
 10
10
 20
86.5625
 11
10.7919
 21
86.4371
  0
LINE
  8
0
 10
10.7919
 20
86.4371
 11
11.5062
 21
86.0731
  0
LINE
  8
0
 10
11.5062
 20
86.0731
 11
12.0731
 21
85.5062
  0
LINE
  8
0
 10
12.0731
 20
85.5062
 11
12.4371
 21
84.7919
  0
LINE
  8
0
 10
12.4371
 20
84.7919
 11
12.5625
 21
84
  0
LINE
  8
0
 10
12.5625
 20
84
 11
12.4371
 21
83.2081
  0
LINE
  8
0
 10
12.4371
 20
83.2081
 11
12.0731
 21
82.4938
  0
LINE
  8
0
 10
12.0731
 20
82.4938
 11
11.5062
 21
81.9269
  0
LINE
  8
0
 10
11.5062
 20
81.9269
 11
10.7919
 21
81.5629
  0
LINE
  8
0
 10
10.7919
 20
81.5629
 11
10
 21
81.4375
  0
LINE
  8
0
 10
10
 20
81.4375
 11
9.20813
 21
81.5629
  0
LINE
  8
0
 10
479.208
 20
81.5629
 11
478.494
 21
81.9269
  0
LINE
  8
0
 10
478.494
 20
81.9269
 11
477.927
 21
82.4938
  0
LINE
  8
0
 10
477.927
 20
82.4938
 11
477.563
 21
83.2081
  0
LINE
  8
0
 10
477.563
 20
83.2081
 11
477.438
 21
84
  0
LINE
  8
0
 10
477.438
 20
84
 11
477.563
 21
84.7919
  0
LINE
  8
0
 10
477.563
 20
84.7919
 11
477.927
 21
85.5062
  0
LINE
  8
0
 10
477.927
 20
85.5062
 11
478.494
 21
86.0731
  0
LINE
  8
0
 10
478.494
 20
86.0731
 11
479.208
 21
86.4371
  0
LINE
  8
0
 10
479.208
 20
86.4371
 11
480
 21
86.5625
  0
LINE
  8
0
 10
480
 20
86.5625
 11
480.792
 21
86.4371
  0
LINE
  8
0
 10
480.792
 20
86.4371
 11
481.506
 21
86.0731
  0
LINE
  8
0
 10
481.506
 20
86.0731
 11
482.073
 21
85.5062
  0
LINE
  8
0
 10
482.073
 20
85.5062
 11
482.437
 21
84.7919
  0
LINE
  8
0
 10
482.437
 20
84.7919
 11
482.562
 21
84
  0
LINE
  8
0
 10
482.562
 20
84
 11
482.437
 21
83.2081
  0
LINE
  8
0
 10
482.437
 20
83.2081
 11
482.073
 21
82.4938
  0
LINE
  8
0
 10
482.073
 20
82.4938
 11
481.506
 21
81.9269
  0
LINE
  8
0
 10
481.506
 20
81.9269
 11
480.792
 21
81.5629
  0
LINE
  8
0
 10
480.792
 20
81.5629
 11
480
 21
81.4375
  0
LINE
  8
0
 10
480
 20
81.4375
 11
479.208
 21
81.5629
  0
LINE
  8
0
 10
69.521
 20
83.5258
 11
69.0889
 21
83.746
  0
LINE
  8
0
 10
69.0889
 20
83.746
 11
68.746
 21
84.0889
  0
LINE
  8
0
 10
68.746
 20
84.0889
 11
68.5259
 21
84.521
  0
LINE
  8
0
 10
68.5259
 20
84.521
 11
68.45
 21
85
  0
LINE
  8
0
 10
68.45
 20
85
 11
68.5259
 21
85.479
  0
LINE
  8
0
 10
68.5259
 20
85.479
 11
68.746
 21
85.9111
  0
LINE
  8
0
 10
68.746
 20
85.9111
 11
69.0889
 21
86.254
  0
LINE
  8
0
 10
69.0889
 20
86.254
 11
69.521
 21
86.4741
  0
LINE
  8
0
 10
69.521
 20
86.4741
 11
70
 21
86.55
  0
LINE
  8
0
 10
70
 20
86.55
 11
70.479
 21
86.4741
  0
LINE
  8
0
 10
70.479
 20
86.4741
 11
70.9111
 21
86.254
  0
LINE
  8
0
 10
70.9111
 20
86.254
 11
71.254
 21
85.9111
  0
LINE
  8
0
 10
71.254
 20
85.9111
 11
71.4741
 21
85.479
  0
LINE
  8
0
 10
71.4741
 20
85.479
 11
71.55
 21
85
  0
LINE
  8
0
 10
71.55
 20
85
 11
71.4741
 21
84.521
  0
LINE
  8
0
 10
71.4741
 20
84.521
 11
71.254
 21
84.0889
  0
LINE
  8
0
 10
71.254
 20
84.0889
 11
70.9111
 21
83.746
  0
LINE
  8
0
 10
70.9111
 20
83.746
 11
70.479
 21
83.5258
  0
LINE
  8
0
 10
70.479
 20
83.5258
 11
70
 21
83.45
  0
LINE
  8
0
 10
70
 20
83.45
 11
69.521
 21
83.5258
  0
LINE
  8
0
 10
479.208
 20
67.5629
 11
478.494
 21
67.9269
  0
LINE
  8
0
 10
478.494
 20
67.9269
 11
477.927
 21
68.4938
  0
LINE
  8
0
 10
477.927
 20
68.4938
 11
477.563
 21
69.2081
  0
LINE
  8
0
 10
477.563
 20
69.2081
 11
477.438
 21
70
  0
LINE
  8
0
 10
477.438
 20
70
 11
477.563
 21
70.7919
  0
LINE
  8
0
 10
477.563
 20
70.7919
 11
477.927
 21
71.5062
  0
LINE
  8
0
 10
477.927
 20
71.5062
 11
478.494
 21
72.0731
  0
LINE
  8
0
 10
478.494
 20
72.0731
 11
479.208
 21
72.4371
  0
LINE
  8
0
 10
479.208
 20
72.4371
 11
480
 21
72.5625
  0
LINE
  8
0
 10
480
 20
72.5625
 11
480.792
 21
72.4371
  0
LINE
  8
0
 10
480.792
 20
72.4371
 11
481.506
 21
72.0731
  0
LINE
  8
0
 10
481.506
 20
72.0731
 11
482.073
 21
71.5062
  0
LINE
  8
0
 10
482.073
 20
71.5062
 11
482.437
 21
70.7919
  0
LINE
  8
0
 10
482.437
 20
70.7919
 11
482.562
 21
70
  0
LINE
  8
0
 10
482.562
 20
70
 11
482.437
 21
69.2081
  0
LINE
  8
0
 10
482.437
 20
69.2081
 11
482.073
 21
68.4938
  0
LINE
  8
0
 10
482.073
 20
68.4938
 11
481.506
 21
67.9269
  0
LINE
  8
0
 10
481.506
 20
67.9269
 11
480.792
 21
67.5629
  0
LINE
  8
0
 10
480.792
 20
67.5629
 11
480
 21
67.4375
  0
LINE
  8
0
 10
480
 20
67.4375
 11
479.208
 21
67.5629
  0
LINE
  8
0
 10
9.20813
 20
67.5629
 11
8.49379
 21
67.9269
  0
LINE
  8
0
 10
8.49379
 20
67.9269
 11
7.92688
 21
68.4938
  0
LINE
  8
0
 10
7.92688
 20
68.4938
 11
7.56291
 21
69.2081
  0
LINE
  8
0
 10
7.56291
 20
69.2081
 11
7.4375
 21
70
  0
LINE
  8
0
 10
7.4375
 20
70
 11
7.56291
 21
70.7919
  0
LINE
  8
0
 10
7.56291
 20
70.7919
 11
7.92688
 21
71.5062
  0
LINE
  8
0
 10
7.92688
 20
71.5062
 11
8.49379
 21
72.0731
  0
LINE
  8
0
 10
8.49379
 20
72.0731
 11
9.20813
 21
72.4371
  0
LINE
  8
0
 10
9.20813
 20
72.4371
 11
10
 21
72.5625
  0
LINE
  8
0
 10
10
 20
72.5625
 11
10.7919
 21
72.4371
  0
LINE
  8
0
 10
10.7919
 20
72.4371
 11
11.5062
 21
72.0731
  0
LINE
  8
0
 10
11.5062
 20
72.0731
 11
12.0731
 21
71.5062
  0
LINE
  8
0
 10
12.0731
 20
71.5062
 11
12.4371
 21
70.7919
  0
LINE
  8
0
 10
12.4371
 20
70.7919
 11
12.5625
 21
70
  0
LINE
  8
0
 10
12.5625
 20
70
 11
12.4371
 21
69.2081
  0
LINE
  8
0
 10
12.4371
 20
69.2081
 11
12.0731
 21
68.4938
  0
LINE
  8
0
 10
12.0731
 20
68.4938
 11
11.5062
 21
67.9269
  0
LINE
  8
0
 10
11.5062
 20
67.9269
 11
10.7919
 21
67.5629
  0
LINE
  8
0
 10
10.7919
 20
67.5629
 11
10
 21
67.4375
  0
LINE
  8
0
 10
10
 20
67.4375
 11
9.20813
 21
67.5629
  0
LINE
  8
0
 10
69.521
 20
63.5259
 11
69.0889
 21
63.746
  0
LINE
  8
0
 10
69.0889
 20
63.746
 11
68.746
 21
64.0889
  0
LINE
  8
0
 10
68.746
 20
64.0889
 11
68.5259
 21
64.521
  0
LINE
  8
0
 10
68.5259
 20
64.521
 11
68.45
 21
65
  0
LINE
  8
0
 10
68.45
 20
65
 11
68.5259
 21
65.479
  0
LINE
  8
0
 10
68.5259
 20
65.479
 11
68.746
 21
65.9111
  0
LINE
  8
0
 10
68.746
 20
65.9111
 11
69.0889
 21
66.254
  0
LINE
  8
0
 10
69.0889
 20
66.254
 11
69.521
 21
66.4741
  0
LINE
  8
0
 10
69.521
 20
66.4741
 11
70
 21
66.55
  0
LINE
  8
0
 10
70
 20
66.55
 11
70.479
 21
66.4741
  0
LINE
  8
0
 10
70.479
 20
66.4741
 11
70.9111
 21
66.254
  0
LINE
  8
0
 10
70.9111
 20
66.254
 11
71.254
 21
65.9111
  0
LINE
  8
0
 10
71.254
 20
65.9111
 11
71.4741
 21
65.479
  0
LINE
  8
0
 10
71.4741
 20
65.479
 11
71.55
 21
65
  0
LINE
  8
0
 10
71.55
 20
65
 11
71.4741
 21
64.521
  0
LINE
  8
0
 10
71.4741
 20
64.521
 11
71.254
 21
64.0889
  0
LINE
  8
0
 10
71.254
 20
64.0889
 11
70.9111
 21
63.746
  0
LINE
  8
0
 10
70.9111
 20
63.746
 11
70.479
 21
63.5259
  0
LINE
  8
0
 10
70.479
 20
63.5259
 11
70
 21
63.45
  0
LINE
  8
0
 10
70
 20
63.45
 11
69.521
 21
63.5259
  0
LINE
  8
0
 10
9.52101
 20
48.5258
 11
9.08893
 21
48.746
  0
LINE
  8
0
 10
9.08893
 20
48.746
 11
8.74602
 21
49.0889
  0
LINE
  8
0
 10
8.74602
 20
49.0889
 11
8.52585
 21
49.521
  0
LINE
  8
0
 10
8.52585
 20
49.521
 11
8.45
 21
50
  0
LINE
  8
0
 10
8.45
 20
50
 11
8.52585
 21
50.479
  0
LINE
  8
0
 10
8.52585
 20
50.479
 11
8.74602
 21
50.9111
  0
LINE
  8
0
 10
8.74602
 20
50.9111
 11
9.08893
 21
51.254
  0
LINE
  8
0
 10
9.08893
 20
51.254
 11
9.52101
 21
51.4741
  0
LINE
  8
0
 10
9.52101
 20
51.4741
 11
10
 21
51.55
  0
LINE
  8
0
 10
10
 20
51.55
 11
10.479
 21
51.4741
  0
LINE
  8
0
 10
10.479
 20
51.4741
 11
10.9111
 21
51.254
  0
LINE
  8
0
 10
10.9111
 20
51.254
 11
11.254
 21
50.9111
  0
LINE
  8
0
 10
11.254
 20
50.9111
 11
11.4741
 21
50.479
  0
LINE
  8
0
 10
11.4741
 20
50.479
 11
11.55
 21
50
  0
LINE
  8
0
 10
11.55
 20
50
 11
11.4741
 21
49.521
  0
LINE
  8
0
 10
11.4741
 20
49.521
 11
11.254
 21
49.0889
  0
LINE
  8
0
 10
11.254
 20
49.0889
 11
10.9111
 21
48.746
  0
LINE
  8
0
 10
10.9111
 20
48.746
 11
10.479
 21
48.5258
  0
LINE
  8
0
 10
10.479
 20
48.5258
 11
10
 21
48.45
  0
LINE
  8
0
 10
10
 20
48.45
 11
9.52101
 21
48.5258
  0
LINE
  8
0
 10
479.521
 20
48.5258
 11
479.089
 21
48.746
  0
LINE
  8
0
 10
479.089
 20
48.746
 11
478.746
 21
49.0889
  0
LINE
  8
0
 10
478.746
 20
49.0889
 11
478.526
 21
49.521
  0
LINE
  8
0
 10
478.526
 20
49.521
 11
478.45
 21
50
  0
LINE
  8
0
 10
478.45
 20
50
 11
478.526
 21
50.479
  0
LINE
  8
0
 10
478.526
 20
50.479
 11
478.746
 21
50.9111
  0
LINE
  8
0
 10
478.746
 20
50.9111
 11
479.089
 21
51.254
  0
LINE
  8
0
 10
479.089
 20
51.254
 11
479.521
 21
51.4741
  0
LINE
  8
0
 10
479.521
 20
51.4741
 11
480
 21
51.55
  0
LINE
  8
0
 10
480
 20
51.55
 11
480.479
 21
51.4741
  0
LINE
  8
0
 10
480.479
 20
51.4741
 11
480.911
 21
51.254
  0
LINE
  8
0
 10
480.911
 20
51.254
 11
481.254
 21
50.9111
  0
LINE
  8
0
 10
481.254
 20
50.9111
 11
481.474
 21
50.479
  0
LINE
  8
0
 10
481.474
 20
50.479
 11
481.55
 21
50
  0
LINE
  8
0
 10
481.55
 20
50
 11
481.474
 21
49.521
  0
LINE
  8
0
 10
481.474
 20
49.521
 11
481.254
 21
49.0889
  0
LINE
  8
0
 10
481.254
 20
49.0889
 11
480.911
 21
48.746
  0
LINE
  8
0
 10
480.911
 20
48.746
 11
480.479
 21
48.5258
  0
LINE
  8
0
 10
480.479
 20
48.5258
 11
480
 21
48.45
  0
LINE
  8
0
 10
480
 20
48.45
 11
479.521
 21
48.5258
  0
LINE
  8
0
 10
49.521
 20
8.52585
 11
49.0889
 21
8.74602
  0
LINE
  8
0
 10
49.0889
 20
8.74602
 11
48.746
 21
9.08893
  0
LINE
  8
0
 10
48.746
 20
9.08893
 11
48.5258
 21
9.52101
  0
LINE
  8
0
 10
48.5258
 20
9.52101
 11
48.45
 21
10
  0
LINE
  8
0
 10
48.45
 20
10
 11
48.5258
 21
10.479
  0
LINE
  8
0
 10
48.5258
 20
10.479
 11
48.746
 21
10.9111
  0
LINE
  8
0
 10
48.746
 20
10.9111
 11
49.0889
 21
11.254
  0
LINE
  8
0
 10
49.0889
 20
11.254
 11
49.521
 21
11.4741
  0
LINE
  8
0
 10
49.521
 20
11.4741
 11
50
 21
11.55
  0
LINE
  8
0
 10
50
 20
11.55
 11
50.479
 21
11.4741
  0
LINE
  8
0
 10
50.479
 20
11.4741
 11
50.9111
 21
11.254
  0
LINE
  8
0
 10
50.9111
 20
11.254
 11
51.254
 21
10.9111
  0
LINE
  8
0
 10
51.254
 20
10.9111
 11
51.4741
 21
10.479
  0
LINE
  8
0
 10
51.4741
 20
10.479
 11
51.55
 21
10
  0
LINE
  8
0
 10
51.55
 20
10
 11
51.4741
 21
9.52101
  0
LINE
  8
0
 10
51.4741
 20
9.52101
 11
51.254
 21
9.08893
  0
LINE
  8
0
 10
51.254
 20
9.08893
 11
50.9111
 21
8.74602
  0
LINE
  8
0
 10
50.9111
 20
8.74602
 11
50.479
 21
8.52585
  0
LINE
  8
0
 10
50.479
 20
8.52585
 11
50
 21
8.45
  0
LINE
  8
0
 10
50
 20
8.45
 11
49.521
 21
8.52585
  0
LINE
  8
0
 10
439.521
 20
8.52585
 11
439.089
 21
8.74602
  0
LINE
  8
0
 10
439.089
 20
8.74602
 11
438.746
 21
9.08893
  0
LINE
  8
0
 10
438.746
 20
9.08893
 11
438.526
 21
9.52101
  0
LINE
  8
0
 10
438.526
 20
9.52101
 11
438.45
 21
10
  0
LINE
  8
0
 10
438.45
 20
10
 11
438.526
 21
10.479
  0
LINE
  8
0
 10
438.526
 20
10.479
 11
438.746
 21
10.9111
  0
LINE
  8
0
 10
438.746
 20
10.9111
 11
439.089
 21
11.254
  0
LINE
  8
0
 10
439.089
 20
11.254
 11
439.521
 21
11.4741
  0
LINE
  8
0
 10
439.521
 20
11.4741
 11
440
 21
11.55
  0
LINE
  8
0
 10
440
 20
11.55
 11
440.479
 21
11.4741
  0
LINE
  8
0
 10
440.479
 20
11.4741
 11
440.911
 21
11.254
  0
LINE
  8
0
 10
440.911
 20
11.254
 11
441.254
 21
10.9111
  0
LINE
  8
0
 10
441.254
 20
10.9111
 11
441.474
 21
10.479
  0
LINE
  8
0
 10
441.474
 20
10.479
 11
441.55
 21
10
  0
LINE
  8
0
 10
441.55
 20
10
 11
441.474
 21
9.52101
  0
LINE
  8
0
 10
441.474
 20
9.52101
 11
441.254
 21
9.08893
  0
LINE
  8
0
 10
441.254
 20
9.08893
 11
440.911
 21
8.74602
  0
LINE
  8
0
 10
440.911
 20
8.74602
 11
440.479
 21
8.52585
  0
LINE
  8
0
 10
440.479
 20
8.52585
 11
440
 21
8.45
  0
LINE
  8
0
 10
440
 20
8.45
 11
439.521
 21
8.52585
  0
LINE
  8
0
 10
244.521
 20
8.52585
 11
244.089
 21
8.74602
  0
LINE
  8
0
 10
244.089
 20
8.74602
 11
243.746
 21
9.08893
  0
LINE
  8
0
 10
243.746
 20
9.08893
 11
243.526
 21
9.52101
  0
LINE
  8
0
 10
243.526
 20
9.52101
 11
243.45
 21
10
  0
LINE
  8
0
 10
243.45
 20
10
 11
243.526
 21
10.479
  0
LINE
  8
0
 10
243.526
 20
10.479
 11
243.746
 21
10.9111
  0
LINE
  8
0
 10
243.746
 20
10.9111
 11
244.089
 21
11.254
  0
LINE
  8
0
 10
244.089
 20
11.254
 11
244.521
 21
11.4741
  0
LINE
  8
0
 10
244.521
 20
11.4741
 11
245
 21
11.55
  0
LINE
  8
0
 10
245
 20
11.55
 11
245.479
 21
11.4741
  0
LINE
  8
0
 10
245.479
 20
11.4741
 11
245.911
 21
11.254
  0
LINE
  8
0
 10
245.911
 20
11.254
 11
246.254
 21
10.9111
  0
LINE
  8
0
 10
246.254
 20
10.9111
 11
246.474
 21
10.479
  0
LINE
  8
0
 10
246.474
 20
10.479
 11
246.55
 21
10
  0
LINE
  8
0
 10
246.55
 20
10
 11
246.474
 21
9.52101
  0
LINE
  8
0
 10
246.474
 20
9.52101
 11
246.254
 21
9.08893
  0
LINE
  8
0
 10
246.254
 20
9.08893
 11
245.911
 21
8.74602
  0
LINE
  8
0
 10
245.911
 20
8.74602
 11
245.479
 21
8.52585
  0
LINE
  8
0
 10
245.479
 20
8.52585
 11
245
 21
8.45
  0
LINE
  8
0
 10
245
 20
8.45
 11
244.521
 21
8.52585
  0
ENDSEC
  0
SECTION
  2
OBJECTS
  0
DICTIONARY
  0
ENDSEC
  0
EOF
