  0
SECTION
  2
BLOCKS
  0
ENDSEC
  0
SECTION
  2
ENTITIES
  0
LINE
  8
0
 10
19.618
 20
-21.9021
 11
20.1756
 21
-21.618
  0
LINE
  8
0
 10
20.1756
 20
-21.618
 11
20.618
 21
-21.1756
  0
LINE
  8
0
 10
20.618
 20
-21.1756
 11
20.9021
 21
-20.618
  0
LINE
  8
0
 10
20.9021
 20
-20.618
 11
21
 21
-20
  0
LINE
  8
0
 10
21
 20
-20
 11
21
 21
20
  0
LINE
  8
0
 10
21
 20
20
 11
20.9021
 21
20.618
  0
LINE
  8
0
 10
20.9021
 20
20.618
 11
20.618
 21
21.1756
  0
LINE
  8
0
 10
20.618
 20
21.1756
 11
20.1756
 21
21.618
  0
LINE
  8
0
 10
20.1756
 20
21.618
 11
19.618
 21
21.9021
  0
LINE
  8
0
 10
19.618
 20
21.9021
 11
19
 21
22
  0
LINE
  8
0
 10
19
 20
22
 11
2
 21
22
  0
LINE
  8
0
 10
2
 20
22
 11
1.38196
 21
21.9021
  0
LINE
  8
0
 10
1.38196
 20
21.9021
 11
0.824417
 21
21.618
  0
LINE
  8
0
 10
0.824417
 20
21.618
 11
0.381958
 21
21.1756
  0
LINE
  8
0
 10
0.381958
 20
21.1756
 11
0.0978851
 21
20.618
  0
LINE
  8
0
 10
0.0978851
 20
20.618
 11
0
 21
20
  0
LINE
  8
0
 10
0
 20
20
 11
0
 21
-20
  0
LINE
  8
0
 10
0
 20
-20
 11
0.0978851
 21
-20.618
  0
LINE
  8
0
 10
0.0978851
 20
-20.618
 11
0.381958
 21
-21.1756
  0
LINE
  8
0
 10
0.381958
 20
-21.1756
 11
0.824417
 21
-21.618
  0
LINE
  8
0
 10
0.824417
 20
-21.618
 11
1.38196
 21
-21.9021
  0
LINE
  8
0
 10
1.38196
 20
-21.9021
 11
2
 21
-22
  0
LINE
  8
0
 10
2
 20
-22
 11
19
 21
-22
  0
LINE
  8
0
 10
19
 20
-22
 11
19.618
 21
-21.9021
  0
LINE
  8
0
 10
9.20813
 20
4.56291
 11
8.49379
 21
4.92688
  0
LINE
  8
0
 10
8.49379
 20
4.92688
 11
7.92688
 21
5.49379
  0
LINE
  8
0
 10
7.92688
 20
5.49379
 11
7.56291
 21
6.20813
  0
LINE
  8
0
 10
7.56291
 20
6.20813
 11
7.4375
 21
7
  0
LINE
  8
0
 10
7.4375
 20
7
 11
7.56291
 21
7.79185
  0
LINE
  8
0
 10
7.56291
 20
7.79185
 11
7.92688
 21
8.5062
  0
LINE
  8
0
 10
7.92688
 20
8.5062
 11
8.49379
 21
9.0731
  0
LINE
  8
0
 10
8.49379
 20
9.0731
 11
9.20813
 21
9.43707
  0
LINE
  8
0
 10
9.20813
 20
9.43707
 11
10
 21
9.5625
  0
LINE
  8
0
 10
10
 20
9.5625
 11
10.7919
 21
9.43707
  0
LINE
  8
0
 10
10.7919
 20
9.43707
 11
11.5062
 21
9.0731
  0
LINE
  8
0
 10
11.5062
 20
9.0731
 11
12.0731
 21
8.5062
  0
LINE
  8
0
 10
12.0731
 20
8.5062
 11
12.4371
 21
7.79185
  0
LINE
  8
0
 10
12.4371
 20
7.79185
 11
12.5625
 21
7
  0
LINE
  8
0
 10
12.5625
 20
7
 11
12.4371
 21
6.20813
  0
LINE
  8
0
 10
12.4371
 20
6.20813
 11
12.0731
 21
5.49379
  0
LINE
  8
0
 10
12.0731
 20
5.49379
 11
11.5062
 21
4.92688
  0
LINE
  8
0
 10
11.5062
 20
4.92688
 11
10.7919
 21
4.56291
  0
LINE
  8
0
 10
10.7919
 20
4.56291
 11
10
 21
4.4375
  0
LINE
  8
0
 10
10
 20
4.4375
 11
9.20813
 21
4.56291
  0
LINE
  8
0
 10
9.20813
 20
-9.43707
 11
8.49379
 21
-9.0731
  0
LINE
  8
0
 10
8.49379
 20
-9.0731
 11
7.92688
 21
-8.5062
  0
LINE
  8
0
 10
7.92688
 20
-8.5062
 11
7.56291
 21
-7.79185
  0
LINE
  8
0
 10
7.56291
 20
-7.79185
 11
7.4375
 21
-7
  0
LINE
  8
0
 10
7.4375
 20
-7
 11
7.56291
 21
-6.20813
  0
LINE
  8
0
 10
7.56291
 20
-6.20813
 11
7.92688
 21
-5.49379
  0
LINE
  8
0
 10
7.92688
 20
-5.49379
 11
8.49379
 21
-4.92688
  0
LINE
  8
0
 10
8.49379
 20
-4.92688
 11
9.20813
 21
-4.56291
  0
LINE
  8
0
 10
9.20813
 20
-4.56291
 11
10
 21
-4.4375
  0
LINE
  8
0
 10
10
 20
-4.4375
 11
10.7919
 21
-4.56291
  0
LINE
  8
0
 10
10.7919
 20
-4.56291
 11
11.5062
 21
-4.92688
  0
LINE
  8
0
 10
11.5062
 20
-4.92688
 11
12.0731
 21
-5.49379
  0
LINE
  8
0
 10
12.0731
 20
-5.49379
 11
12.4371
 21
-6.20813
  0
LINE
  8
0
 10
12.4371
 20
-6.20813
 11
12.5625
 21
-7
  0
LINE
  8
0
 10
12.5625
 20
-7
 11
12.4371
 21
-7.79185
  0
LINE
  8
0
 10
12.4371
 20
-7.79185
 11
12.0731
 21
-8.5062
  0
LINE
  8
0
 10
12.0731
 20
-8.5062
 11
11.5062
 21
-9.0731
  0
LINE
  8
0
 10
11.5062
 20
-9.0731
 11
10.7919
 21
-9.43707
  0
LINE
  8
0
 10
10.7919
 20
-9.43707
 11
10
 21
-9.5625
  0
LINE
  8
0
 10
10
 20
-9.5625
 11
9.20813
 21
-9.43707
  0
ENDSEC
  0
SECTION
  2
OBJECTS
  0
DICTIONARY
  0
ENDSEC
  0
EOF
