  0
SECTION
  2
BLOCKS
  0
ENDSEC
  0
SECTION
  2
ENTITIES
  0
LINE
  8
0
 10
340.809
 20
-0.95105
 11
341.088
 21
-0.809006
  0
LINE
  8
0
 10
341.088
 20
-0.809006
 11
341.309
 21
-0.587784
  0
LINE
  8
0
 10
341.309
 20
-0.587784
 11
341.451
 21
-0.309006
  0
LINE
  8
0
 10
341.451
 20
-0.309006
 11
341.5
 21
0
  0
LINE
  8
0
 10
341.5
 20
0
 11
454
 21
0
  0
LINE
  8
0
 10
454
 20
0
 11
454
 21
74.6667
  0
LINE
  8
0
 10
454
 20
74.6667
 11
454.309
 21
74.7156
  0
LINE
  8
0
 10
454.309
 20
74.7156
 11
454.588
 21
74.8576
  0
LINE
  8
0
 10
454.588
 20
74.8576
 11
454.809
 21
75.0789
  0
LINE
  8
0
 10
454.809
 20
75.0789
 11
454.951
 21
75.3576
  0
LINE
  8
0
 10
454.951
 20
75.3576
 11
455
 21
75.6667
  0
LINE
  8
0
 10
455
 20
75.6667
 11
454.951
 21
75.9757
  0
LINE
  8
0
 10
454.951
 20
75.9757
 11
454.809
 21
76.2544
  0
LINE
  8
0
 10
454.809
 20
76.2544
 11
454.588
 21
76.4757
  0
LINE
  8
0
 10
454.588
 20
76.4757
 11
454.309
 21
76.6177
  0
LINE
  8
0
 10
454.309
 20
76.6177
 11
454
 21
76.6667
  0
LINE
  8
0
 10
454
 20
76.6667
 11
454
 21
150.333
  0
LINE
  8
0
 10
454
 20
150.333
 11
454.309
 21
150.382
  0
LINE
  8
0
 10
454.309
 20
150.382
 11
454.588
 21
150.524
  0
LINE
  8
0
 10
454.588
 20
150.524
 11
454.809
 21
150.746
  0
LINE
  8
0
 10
454.809
 20
150.746
 11
454.951
 21
151.024
  0
LINE
  8
0
 10
454.951
 20
151.024
 11
455
 21
151.333
  0
LINE
  8
0
 10
455
 20
151.333
 11
454.951
 21
151.642
  0
LINE
  8
0
 10
454.951
 20
151.642
 11
454.809
 21
151.921
  0
LINE
  8
0
 10
454.809
 20
151.921
 11
454.588
 21
152.142
  0
LINE
  8
0
 10
454.588
 20
152.142
 11
454.309
 21
152.284
  0
LINE
  8
0
 10
454.309
 20
152.284
 11
454
 21
152.333
  0
LINE
  8
0
 10
454
 20
152.333
 11
454
 21
226
  0
LINE
  8
0
 10
454
 20
226
 11
454.309
 21
226.049
  0
LINE
  8
0
 10
454.309
 20
226.049
 11
454.588
 21
226.191
  0
LINE
  8
0
 10
454.588
 20
226.191
 11
454.809
 21
226.412
  0
LINE
  8
0
 10
454.809
 20
226.412
 11
454.951
 21
226.691
  0
LINE
  8
0
 10
454.951
 20
226.691
 11
455
 21
227
  0
LINE
  8
0
 10
455
 20
227
 11
454.951
 21
227.309
  0
LINE
  8
0
 10
454.951
 20
227.309
 11
454.809
 21
227.588
  0
LINE
  8
0
 10
454.809
 20
227.588
 11
454.588
 21
227.809
  0
LINE
  8
0
 10
454.588
 20
227.809
 11
454.309
 21
227.951
  0
LINE
  8
0
 10
454.309
 20
227.951
 11
454
 21
228
  0
LINE
  8
0
 10
454
 20
228
 11
454
 21
301.667
  0
LINE
  8
0
 10
454
 20
301.667
 11
454.309
 21
301.716
  0
LINE
  8
0
 10
454.309
 20
301.716
 11
454.588
 21
301.858
  0
LINE
  8
0
 10
454.588
 20
301.858
 11
454.809
 21
302.079
  0
LINE
  8
0
 10
454.809
 20
302.079
 11
454.951
 21
302.358
  0
LINE
  8
0
 10
454.951
 20
302.358
 11
455
 21
302.667
  0
LINE
  8
0
 10
455
 20
302.667
 11
454.951
 21
302.976
  0
LINE
  8
0
 10
454.951
 20
302.976
 11
454.809
 21
303.254
  0
LINE
  8
0
 10
454.809
 20
303.254
 11
454.588
 21
303.476
  0
LINE
  8
0
 10
454.588
 20
303.476
 11
454.309
 21
303.618
  0
LINE
  8
0
 10
454.309
 20
303.618
 11
454
 21
303.667
  0
LINE
  8
0
 10
454
 20
303.667
 11
454
 21
377.333
  0
LINE
  8
0
 10
454
 20
377.333
 11
454.309
 21
377.382
  0
LINE
  8
0
 10
454.309
 20
377.382
 11
454.588
 21
377.524
  0
LINE
  8
0
 10
454.588
 20
377.524
 11
454.809
 21
377.746
  0
LINE
  8
0
 10
454.809
 20
377.746
 11
454.951
 21
378.024
  0
LINE
  8
0
 10
454.951
 20
378.024
 11
455
 21
378.333
  0
LINE
  8
0
 10
455
 20
378.333
 11
454.951
 21
378.642
  0
LINE
  8
0
 10
454.951
 20
378.642
 11
454.809
 21
378.921
  0
LINE
  8
0
 10
454.809
 20
378.921
 11
454.588
 21
379.142
  0
LINE
  8
0
 10
454.588
 20
379.142
 11
454.309
 21
379.284
  0
LINE
  8
0
 10
454.309
 20
379.284
 11
454
 21
379.333
  0
LINE
  8
0
 10
454
 20
379.333
 11
454
 21
454
  0
LINE
  8
0
 10
454
 20
454
 11
341.5
 21
454
  0
LINE
  8
0
 10
341.5
 20
454
 11
341.451
 21
454.309
  0
LINE
  8
0
 10
341.451
 20
454.309
 11
341.309
 21
454.588
  0
LINE
  8
0
 10
341.309
 20
454.588
 11
341.088
 21
454.809
  0
LINE
  8
0
 10
341.088
 20
454.809
 11
340.809
 21
454.951
  0
LINE
  8
0
 10
340.809
 20
454.951
 11
340.5
 21
455
  0
LINE
  8
0
 10
340.5
 20
455
 11
340.191
 21
454.951
  0
LINE
  8
0
 10
340.191
 20
454.951
 11
339.912
 21
454.809
  0
LINE
  8
0
 10
339.912
 20
454.809
 11
339.691
 21
454.588
  0
LINE
  8
0
 10
339.691
 20
454.588
 11
339.549
 21
454.309
  0
LINE
  8
0
 10
339.549
 20
454.309
 11
339.5
 21
454
  0
LINE
  8
0
 10
339.5
 20
454
 11
228
 21
454
  0
LINE
  8
0
 10
228
 20
454
 11
227.951
 21
454.309
  0
LINE
  8
0
 10
227.951
 20
454.309
 11
227.809
 21
454.588
  0
LINE
  8
0
 10
227.809
 20
454.588
 11
227.588
 21
454.809
  0
LINE
  8
0
 10
227.588
 20
454.809
 11
227.309
 21
454.951
  0
LINE
  8
0
 10
227.309
 20
454.951
 11
227
 21
455
  0
LINE
  8
0
 10
227
 20
455
 11
226.691
 21
454.951
  0
LINE
  8
0
 10
226.691
 20
454.951
 11
226.412
 21
454.809
  0
LINE
  8
0
 10
226.412
 20
454.809
 11
226.191
 21
454.588
  0
LINE
  8
0
 10
226.191
 20
454.588
 11
226.049
 21
454.309
  0
LINE
  8
0
 10
226.049
 20
454.309
 11
226
 21
454
  0
LINE
  8
0
 10
226
 20
454
 11
114.5
 21
454
  0
LINE
  8
0
 10
114.5
 20
454
 11
114.451
 21
454.309
  0
LINE
  8
0
 10
114.451
 20
454.309
 11
114.309
 21
454.588
  0
LINE
  8
0
 10
114.309
 20
454.588
 11
114.088
 21
454.809
  0
LINE
  8
0
 10
114.088
 20
454.809
 11
113.809
 21
454.951
  0
LINE
  8
0
 10
113.809
 20
454.951
 11
113.5
 21
455
  0
LINE
  8
0
 10
113.5
 20
455
 11
113.191
 21
454.951
  0
LINE
  8
0
 10
113.191
 20
454.951
 11
112.912
 21
454.809
  0
LINE
  8
0
 10
112.912
 20
454.809
 11
112.691
 21
454.588
  0
LINE
  8
0
 10
112.691
 20
454.588
 11
112.549
 21
454.309
  0
LINE
  8
0
 10
112.549
 20
454.309
 11
112.5
 21
454
  0
LINE
  8
0
 10
112.5
 20
454
 11
0
 21
454
  0
LINE
  8
0
 10
0
 20
454
 11
0
 21
379.333
  0
LINE
  8
0
 10
0
 20
379.333
 11
-0.309006
 21
379.284
  0
LINE
  8
0
 10
-0.309006
 20
379.284
 11
-0.587784
 21
379.142
  0
LINE
  8
0
 10
-0.587784
 20
379.142
 11
-0.809006
 21
378.921
  0
LINE
  8
0
 10
-0.809006
 20
378.921
 11
-0.95105
 21
378.642
  0
LINE
  8
0
 10
-0.95105
 20
378.642
 11
-1
 21
378.333
  0
LINE
  8
0
 10
-1
 20
378.333
 11
-0.95105
 21
378.024
  0
LINE
  8
0
 10
-0.95105
 20
378.024
 11
-0.809006
 21
377.746
  0
LINE
  8
0
 10
-0.809006
 20
377.746
 11
-0.587784
 21
377.524
  0
LINE
  8
0
 10
-0.587784
 20
377.524
 11
-0.309006
 21
377.382
  0
LINE
  8
0
 10
-0.309006
 20
377.382
 11
0
 21
377.333
  0
LINE
  8
0
 10
0
 20
377.333
 11
0
 21
303.667
  0
LINE
  8
0
 10
0
 20
303.667
 11
-0.309006
 21
303.618
  0
LINE
  8
0
 10
-0.309006
 20
303.618
 11
-0.587784
 21
303.476
  0
LINE
  8
0
 10
-0.587784
 20
303.476
 11
-0.809006
 21
303.254
  0
LINE
  8
0
 10
-0.809006
 20
303.254
 11
-0.95105
 21
302.976
  0
LINE
  8
0
 10
-0.95105
 20
302.976
 11
-1
 21
302.667
  0
LINE
  8
0
 10
-1
 20
302.667
 11
-0.95105
 21
302.358
  0
LINE
  8
0
 10
-0.95105
 20
302.358
 11
-0.809006
 21
302.079
  0
LINE
  8
0
 10
-0.809006
 20
302.079
 11
-0.587784
 21
301.858
  0
LINE
  8
0
 10
-0.587784
 20
301.858
 11
-0.309006
 21
301.716
  0
LINE
  8
0
 10
-0.309006
 20
301.716
 11
0
 21
301.667
  0
LINE
  8
0
 10
0
 20
301.667
 11
0
 21
228
  0
LINE
  8
0
 10
0
 20
228
 11
-0.309006
 21
227.951
  0
LINE
  8
0
 10
-0.309006
 20
227.951
 11
-0.587784
 21
227.809
  0
LINE
  8
0
 10
-0.587784
 20
227.809
 11
-0.809006
 21
227.588
  0
LINE
  8
0
 10
-0.809006
 20
227.588
 11
-0.95105
 21
227.309
  0
LINE
  8
0
 10
-0.95105
 20
227.309
 11
-1
 21
227
  0
LINE
  8
0
 10
-1
 20
227
 11
-0.95105
 21
226.691
  0
LINE
  8
0
 10
-0.95105
 20
226.691
 11
-0.809006
 21
226.412
  0
LINE
  8
0
 10
-0.809006
 20
226.412
 11
-0.587784
 21
226.191
  0
LINE
  8
0
 10
-0.587784
 20
226.191
 11
-0.309006
 21
226.049
  0
LINE
  8
0
 10
-0.309006
 20
226.049
 11
0
 21
226
  0
LINE
  8
0
 10
0
 20
226
 11
0
 21
152.333
  0
LINE
  8
0
 10
0
 20
152.333
 11
-0.309006
 21
152.284
  0
LINE
  8
0
 10
-0.309006
 20
152.284
 11
-0.587784
 21
152.142
  0
LINE
  8
0
 10
-0.587784
 20
152.142
 11
-0.809006
 21
151.921
  0
LINE
  8
0
 10
-0.809006
 20
151.921
 11
-0.95105
 21
151.642
  0
LINE
  8
0
 10
-0.95105
 20
151.642
 11
-1
 21
151.333
  0
LINE
  8
0
 10
-1
 20
151.333
 11
-0.95105
 21
151.024
  0
LINE
  8
0
 10
-0.95105
 20
151.024
 11
-0.809006
 21
150.746
  0
LINE
  8
0
 10
-0.809006
 20
150.746
 11
-0.587784
 21
150.524
  0
LINE
  8
0
 10
-0.587784
 20
150.524
 11
-0.309006
 21
150.382
  0
LINE
  8
0
 10
-0.309006
 20
150.382
 11
0
 21
150.333
  0
LINE
  8
0
 10
0
 20
150.333
 11
0
 21
76.6667
  0
LINE
  8
0
 10
0
 20
76.6667
 11
-0.309006
 21
76.6177
  0
LINE
  8
0
 10
-0.309006
 20
76.6177
 11
-0.587784
 21
76.4757
  0
LINE
  8
0
 10
-0.587784
 20
76.4757
 11
-0.809006
 21
76.2544
  0
LINE
  8
0
 10
-0.809006
 20
76.2544
 11
-0.95105
 21
75.9757
  0
LINE
  8
0
 10
-0.95105
 20
75.9757
 11
-1
 21
75.6667
  0
LINE
  8
0
 10
-1
 20
75.6667
 11
-0.95105
 21
75.3576
  0
LINE
  8
0
 10
-0.95105
 20
75.3576
 11
-0.809006
 21
75.0789
  0
LINE
  8
0
 10
-0.809006
 20
75.0789
 11
-0.587784
 21
74.8576
  0
LINE
  8
0
 10
-0.587784
 20
74.8576
 11
-0.309006
 21
74.7156
  0
LINE
  8
0
 10
-0.309006
 20
74.7156
 11
0
 21
74.6667
  0
LINE
  8
0
 10
0
 20
74.6667
 11
0
 21
0
  0
LINE
  8
0
 10
0
 20
0
 11
112.5
 21
0
  0
LINE
  8
0
 10
112.5
 20
0
 11
112.549
 21
-0.309006
  0
LINE
  8
0
 10
112.549
 20
-0.309006
 11
112.691
 21
-0.587784
  0
LINE
  8
0
 10
112.691
 20
-0.587784
 11
112.912
 21
-0.809006
  0
LINE
  8
0
 10
112.912
 20
-0.809006
 11
113.191
 21
-0.95105
  0
LINE
  8
0
 10
113.191
 20
-0.95105
 11
113.5
 21
-1
  0
LINE
  8
0
 10
113.5
 20
-1
 11
113.809
 21
-0.95105
  0
LINE
  8
0
 10
113.809
 20
-0.95105
 11
114.088
 21
-0.809006
  0
LINE
  8
0
 10
114.088
 20
-0.809006
 11
114.309
 21
-0.587784
  0
LINE
  8
0
 10
114.309
 20
-0.587784
 11
114.451
 21
-0.309006
  0
LINE
  8
0
 10
114.451
 20
-0.309006
 11
114.5
 21
0
  0
LINE
  8
0
 10
114.5
 20
0
 11
226
 21
0
  0
LINE
  8
0
 10
226
 20
0
 11
226.049
 21
-0.309006
  0
LINE
  8
0
 10
226.049
 20
-0.309006
 11
226.191
 21
-0.587784
  0
LINE
  8
0
 10
226.191
 20
-0.587784
 11
226.412
 21
-0.809006
  0
LINE
  8
0
 10
226.412
 20
-0.809006
 11
226.691
 21
-0.95105
  0
LINE
  8
0
 10
226.691
 20
-0.95105
 11
227
 21
-1
  0
LINE
  8
0
 10
227
 20
-1
 11
227.309
 21
-0.95105
  0
LINE
  8
0
 10
227.309
 20
-0.95105
 11
227.588
 21
-0.809006
  0
LINE
  8
0
 10
227.588
 20
-0.809006
 11
227.809
 21
-0.587784
  0
LINE
  8
0
 10
227.809
 20
-0.587784
 11
227.951
 21
-0.309006
  0
LINE
  8
0
 10
227.951
 20
-0.309006
 11
228
 21
0
  0
LINE
  8
0
 10
228
 20
0
 11
339.5
 21
0
  0
LINE
  8
0
 10
339.5
 20
0
 11
339.549
 21
-0.309006
  0
LINE
  8
0
 10
339.549
 20
-0.309006
 11
339.691
 21
-0.587784
  0
LINE
  8
0
 10
339.691
 20
-0.587784
 11
339.912
 21
-0.809006
  0
LINE
  8
0
 10
339.912
 20
-0.809006
 11
340.191
 21
-0.95105
  0
LINE
  8
0
 10
340.191
 20
-0.95105
 11
340.5
 21
-1
  0
LINE
  8
0
 10
340.5
 20
-1
 11
340.809
 21
-0.95105
  0
LINE
  8
0
 10
42.521
 20
58.0258
 11
42.0889
 21
58.246
  0
LINE
  8
0
 10
42.0889
 20
58.246
 11
41.746
 21
58.5889
  0
LINE
  8
0
 10
41.746
 20
58.5889
 11
41.5259
 21
59.021
  0
LINE
  8
0
 10
41.5259
 20
59.021
 11
41.45
 21
59.5
  0
LINE
  8
0
 10
41.45
 20
59.5
 11
41.5259
 21
59.979
  0
LINE
  8
0
 10
41.5259
 20
59.979
 11
41.746
 21
60.4111
  0
LINE
  8
0
 10
41.746
 20
60.4111
 11
42.0889
 21
60.754
  0
LINE
  8
0
 10
42.0889
 20
60.754
 11
42.521
 21
60.9741
  0
LINE
  8
0
 10
42.521
 20
60.9741
 11
43
 21
61.05
  0
LINE
  8
0
 10
43
 20
61.05
 11
43.479
 21
60.9741
  0
LINE
  8
0
 10
43.479
 20
60.9741
 11
43.9111
 21
60.754
  0
LINE
  8
0
 10
43.9111
 20
60.754
 11
44.254
 21
60.4111
  0
LINE
  8
0
 10
44.254
 20
60.4111
 11
44.4742
 21
59.979
  0
LINE
  8
0
 10
44.4742
 20
59.979
 11
44.55
 21
59.5
  0
LINE
  8
0
 10
44.55
 20
59.5
 11
44.4742
 21
59.021
  0
LINE
  8
0
 10
44.4742
 20
59.021
 11
44.254
 21
58.5889
  0
LINE
  8
0
 10
44.254
 20
58.5889
 11
43.9111
 21
58.246
  0
LINE
  8
0
 10
43.9111
 20
58.246
 11
43.479
 21
58.0258
  0
LINE
  8
0
 10
43.479
 20
58.0258
 11
43
 21
57.95
  0
LINE
  8
0
 10
43
 20
57.95
 11
42.521
 21
58.0258
  0
LINE
  8
0
 10
176.521
 20
58.0258
 11
176.089
 21
58.246
  0
LINE
  8
0
 10
176.089
 20
58.246
 11
175.746
 21
58.5889
  0
LINE
  8
0
 10
175.746
 20
58.5889
 11
175.526
 21
59.021
  0
LINE
  8
0
 10
175.526
 20
59.021
 11
175.45
 21
59.5
  0
LINE
  8
0
 10
175.45
 20
59.5
 11
175.526
 21
59.979
  0
LINE
  8
0
 10
175.526
 20
59.979
 11
175.746
 21
60.4111
  0
LINE
  8
0
 10
175.746
 20
60.4111
 11
176.089
 21
60.754
  0
LINE
  8
0
 10
176.089
 20
60.754
 11
176.521
 21
60.9741
  0
LINE
  8
0
 10
176.521
 20
60.9741
 11
177
 21
61.05
  0
LINE
  8
0
 10
177
 20
61.05
 11
177.479
 21
60.9741
  0
LINE
  8
0
 10
177.479
 20
60.9741
 11
177.911
 21
60.754
  0
LINE
  8
0
 10
177.911
 20
60.754
 11
178.254
 21
60.4111
  0
LINE
  8
0
 10
178.254
 20
60.4111
 11
178.474
 21
59.979
  0
LINE
  8
0
 10
178.474
 20
59.979
 11
178.55
 21
59.5
  0
LINE
  8
0
 10
178.55
 20
59.5
 11
178.474
 21
59.021
  0
LINE
  8
0
 10
178.474
 20
59.021
 11
178.254
 21
58.5889
  0
LINE
  8
0
 10
178.254
 20
58.5889
 11
177.911
 21
58.246
  0
LINE
  8
0
 10
177.911
 20
58.246
 11
177.479
 21
58.0258
  0
LINE
  8
0
 10
177.479
 20
58.0258
 11
177
 21
57.95
  0
LINE
  8
0
 10
177
 20
57.95
 11
176.521
 21
58.0258
  0
LINE
  8
0
 10
66.8712
 20
40.3706
 11
64.0487
 21
41.8087
  0
LINE
  8
0
 10
64.0487
 20
41.8087
 11
61.8087
 21
44.0487
  0
LINE
  8
0
 10
61.8087
 20
44.0487
 11
60.3706
 21
46.8712
  0
LINE
  8
0
 10
60.3706
 20
46.8712
 11
59.875
 21
50
  0
LINE
  8
0
 10
59.875
 20
50
 11
60.3706
 21
53.1288
  0
LINE
  8
0
 10
60.3706
 20
53.1288
 11
61.8087
 21
55.9513
  0
LINE
  8
0
 10
61.8087
 20
55.9513
 11
64.0487
 21
58.1913
  0
LINE
  8
0
 10
64.0487
 20
58.1913
 11
66.8712
 21
59.6294
  0
LINE
  8
0
 10
66.8712
 20
59.6294
 11
70
 21
60.125
  0
LINE
  8
0
 10
70
 20
60.125
 11
73.1288
 21
59.6294
  0
LINE
  8
0
 10
73.1288
 20
59.6294
 11
75.9513
 21
58.1913
  0
LINE
  8
0
 10
75.9513
 20
58.1913
 11
78.1913
 21
55.9513
  0
LINE
  8
0
 10
78.1913
 20
55.9513
 11
79.6295
 21
53.1288
  0
LINE
  8
0
 10
79.6295
 20
53.1288
 11
80.125
 21
50
  0
LINE
  8
0
 10
80.125
 20
50
 11
79.6295
 21
46.8712
  0
LINE
  8
0
 10
79.6295
 20
46.8712
 11
78.1913
 21
44.0487
  0
LINE
  8
0
 10
78.1913
 20
44.0487
 11
75.9513
 21
41.8087
  0
LINE
  8
0
 10
75.9513
 20
41.8087
 11
73.1288
 21
40.3706
  0
LINE
  8
0
 10
73.1288
 20
40.3706
 11
70
 21
39.875
  0
LINE
  8
0
 10
70
 20
39.875
 11
66.8712
 21
40.3706
  0
LINE
  8
0
 10
103.146
 20
44.2937
 11
101.473
 21
45.1459
  0
LINE
  8
0
 10
101.473
 20
45.1459
 11
100.146
 21
46.4733
  0
LINE
  8
0
 10
100.146
 20
46.4733
 11
99.2937
 21
48.1459
  0
LINE
  8
0
 10
99.2937
 20
48.1459
 11
99
 21
50
  0
LINE
  8
0
 10
99
 20
50
 11
99.2937
 21
51.8541
  0
LINE
  8
0
 10
99.2937
 20
51.8541
 11
100.146
 21
53.5267
  0
LINE
  8
0
 10
100.146
 20
53.5267
 11
101.473
 21
54.8541
  0
LINE
  8
0
 10
101.473
 20
54.8541
 11
103.146
 21
55.7063
  0
LINE
  8
0
 10
103.146
 20
55.7063
 11
105
 21
56
  0
LINE
  8
0
 10
105
 20
56
 11
106.854
 21
55.7063
  0
LINE
  8
0
 10
106.854
 20
55.7063
 11
108.527
 21
54.8541
  0
LINE
  8
0
 10
108.527
 20
54.8541
 11
109.854
 21
53.5267
  0
LINE
  8
0
 10
109.854
 20
53.5267
 11
110.706
 21
51.8541
  0
LINE
  8
0
 10
110.706
 20
51.8541
 11
111
 21
50
  0
LINE
  8
0
 10
111
 20
50
 11
110.706
 21
48.1459
  0
LINE
  8
0
 10
110.706
 20
48.1459
 11
109.854
 21
46.4733
  0
LINE
  8
0
 10
109.854
 20
46.4733
 11
108.527
 21
45.1459
  0
LINE
  8
0
 10
108.527
 20
45.1459
 11
106.854
 21
44.2937
  0
LINE
  8
0
 10
106.854
 20
44.2937
 11
105
 21
44
  0
LINE
  8
0
 10
105
 20
44
 11
103.146
 21
44.2937
  0
LINE
  8
0
 10
128.146
 20
44.2937
 11
126.473
 21
45.1459
  0
LINE
  8
0
 10
126.473
 20
45.1459
 11
125.146
 21
46.4733
  0
LINE
  8
0
 10
125.146
 20
46.4733
 11
124.294
 21
48.1459
  0
LINE
  8
0
 10
124.294
 20
48.1459
 11
124
 21
50
  0
LINE
  8
0
 10
124
 20
50
 11
124.294
 21
51.8541
  0
LINE
  8
0
 10
124.294
 20
51.8541
 11
125.146
 21
53.5267
  0
LINE
  8
0
 10
125.146
 20
53.5267
 11
126.473
 21
54.8541
  0
LINE
  8
0
 10
126.473
 20
54.8541
 11
128.146
 21
55.7063
  0
LINE
  8
0
 10
128.146
 20
55.7063
 11
130
 21
56
  0
LINE
  8
0
 10
130
 20
56
 11
131.854
 21
55.7063
  0
LINE
  8
0
 10
131.854
 20
55.7063
 11
133.527
 21
54.8541
  0
LINE
  8
0
 10
133.527
 20
54.8541
 11
134.854
 21
53.5267
  0
LINE
  8
0
 10
134.854
 20
53.5267
 11
135.706
 21
51.8541
  0
LINE
  8
0
 10
135.706
 20
51.8541
 11
136
 21
50
  0
LINE
  8
0
 10
136
 20
50
 11
135.706
 21
48.1459
  0
LINE
  8
0
 10
135.706
 20
48.1459
 11
134.854
 21
46.4733
  0
LINE
  8
0
 10
134.854
 20
46.4733
 11
133.527
 21
45.1459
  0
LINE
  8
0
 10
133.527
 20
45.1459
 11
131.854
 21
44.2937
  0
LINE
  8
0
 10
131.854
 20
44.2937
 11
130
 21
44
  0
LINE
  8
0
 10
130
 20
44
 11
128.146
 21
44.2937
  0
LINE
  8
0
 10
153.146
 20
44.2937
 11
151.473
 21
45.1459
  0
LINE
  8
0
 10
151.473
 20
45.1459
 11
150.146
 21
46.4733
  0
LINE
  8
0
 10
150.146
 20
46.4733
 11
149.294
 21
48.1459
  0
LINE
  8
0
 10
149.294
 20
48.1459
 11
149
 21
50
  0
LINE
  8
0
 10
149
 20
50
 11
149.294
 21
51.8541
  0
LINE
  8
0
 10
149.294
 20
51.8541
 11
150.146
 21
53.5267
  0
LINE
  8
0
 10
150.146
 20
53.5267
 11
151.473
 21
54.8541
  0
LINE
  8
0
 10
151.473
 20
54.8541
 11
153.146
 21
55.7063
  0
LINE
  8
0
 10
153.146
 20
55.7063
 11
155
 21
56
  0
LINE
  8
0
 10
155
 20
56
 11
156.854
 21
55.7063
  0
LINE
  8
0
 10
156.854
 20
55.7063
 11
158.527
 21
54.8541
  0
LINE
  8
0
 10
158.527
 20
54.8541
 11
159.854
 21
53.5267
  0
LINE
  8
0
 10
159.854
 20
53.5267
 11
160.706
 21
51.8541
  0
LINE
  8
0
 10
160.706
 20
51.8541
 11
161
 21
50
  0
LINE
  8
0
 10
161
 20
50
 11
160.706
 21
48.1459
  0
LINE
  8
0
 10
160.706
 20
48.1459
 11
159.854
 21
46.4733
  0
LINE
  8
0
 10
159.854
 20
46.4733
 11
158.527
 21
45.1459
  0
LINE
  8
0
 10
158.527
 20
45.1459
 11
156.854
 21
44.2937
  0
LINE
  8
0
 10
156.854
 20
44.2937
 11
155
 21
44
  0
LINE
  8
0
 10
155
 20
44
 11
153.146
 21
44.2937
  0
LINE
  8
0
 10
42.521
 20
39.0259
 11
42.0889
 21
39.246
  0
LINE
  8
0
 10
42.0889
 20
39.246
 11
41.746
 21
39.5889
  0
LINE
  8
0
 10
41.746
 20
39.5889
 11
41.5259
 21
40.021
  0
LINE
  8
0
 10
41.5259
 20
40.021
 11
41.45
 21
40.5
  0
LINE
  8
0
 10
41.45
 20
40.5
 11
41.5259
 21
40.979
  0
LINE
  8
0
 10
41.5259
 20
40.979
 11
41.746
 21
41.4111
  0
LINE
  8
0
 10
41.746
 20
41.4111
 11
42.0889
 21
41.754
  0
LINE
  8
0
 10
42.0889
 20
41.754
 11
42.521
 21
41.9742
  0
LINE
  8
0
 10
42.521
 20
41.9742
 11
43
 21
42.05
  0
LINE
  8
0
 10
43
 20
42.05
 11
43.479
 21
41.9742
  0
LINE
  8
0
 10
43.479
 20
41.9742
 11
43.9111
 21
41.754
  0
LINE
  8
0
 10
43.9111
 20
41.754
 11
44.254
 21
41.4111
  0
LINE
  8
0
 10
44.254
 20
41.4111
 11
44.4742
 21
40.979
  0
LINE
  8
0
 10
44.4742
 20
40.979
 11
44.55
 21
40.5
  0
LINE
  8
0
 10
44.55
 20
40.5
 11
44.4742
 21
40.021
  0
LINE
  8
0
 10
44.4742
 20
40.021
 11
44.254
 21
39.5889
  0
LINE
  8
0
 10
44.254
 20
39.5889
 11
43.9111
 21
39.246
  0
LINE
  8
0
 10
43.9111
 20
39.246
 11
43.479
 21
39.0259
  0
LINE
  8
0
 10
43.479
 20
39.0259
 11
43
 21
38.95
  0
LINE
  8
0
 10
43
 20
38.95
 11
42.521
 21
39.0259
  0
LINE
  8
0
 10
176.521
 20
39.0259
 11
176.089
 21
39.246
  0
LINE
  8
0
 10
176.089
 20
39.246
 11
175.746
 21
39.5889
  0
LINE
  8
0
 10
175.746
 20
39.5889
 11
175.526
 21
40.021
  0
LINE
  8
0
 10
175.526
 20
40.021
 11
175.45
 21
40.5
  0
LINE
  8
0
 10
175.45
 20
40.5
 11
175.526
 21
40.979
  0
LINE
  8
0
 10
175.526
 20
40.979
 11
175.746
 21
41.4111
  0
LINE
  8
0
 10
175.746
 20
41.4111
 11
176.089
 21
41.754
  0
LINE
  8
0
 10
176.089
 20
41.754
 11
176.521
 21
41.9742
  0
LINE
  8
0
 10
176.521
 20
41.9742
 11
177
 21
42.05
  0
LINE
  8
0
 10
177
 20
42.05
 11
177.479
 21
41.9742
  0
LINE
  8
0
 10
177.479
 20
41.9742
 11
177.911
 21
41.754
  0
LINE
  8
0
 10
177.911
 20
41.754
 11
178.254
 21
41.4111
  0
LINE
  8
0
 10
178.254
 20
41.4111
 11
178.474
 21
40.979
  0
LINE
  8
0
 10
178.474
 20
40.979
 11
178.55
 21
40.5
  0
LINE
  8
0
 10
178.55
 20
40.5
 11
178.474
 21
40.021
  0
LINE
  8
0
 10
178.474
 20
40.021
 11
178.254
 21
39.5889
  0
LINE
  8
0
 10
178.254
 20
39.5889
 11
177.911
 21
39.246
  0
LINE
  8
0
 10
177.911
 20
39.246
 11
177.479
 21
39.0259
  0
LINE
  8
0
 10
177.479
 20
39.0259
 11
177
 21
38.95
  0
LINE
  8
0
 10
177
 20
38.95
 11
176.521
 21
39.0259
  0
ENDSEC
  0
SECTION
  2
OBJECTS
  0
DICTIONARY
  0
ENDSEC
  0
EOF
