  0
SECTION
  2
BLOCKS
  0
ENDSEC
  0
SECTION
  2
ENTITIES
  0
LINE
  8
0
 10
73.2725
 20
-16.3776
 11
73.9695
 21
-16.0225
  0
LINE
  8
0
 10
73.9695
 20
-16.0225
 11
74.5225
 21
-15.4695
  0
LINE
  8
0
 10
74.5225
 20
-15.4695
 11
74.8776
 21
-14.7725
  0
LINE
  8
0
 10
74.8776
 20
-14.7725
 11
75
 21
-14
  0
LINE
  8
0
 10
75
 20
-14
 11
75
 21
15
  0
LINE
  8
0
 10
75
 20
15
 11
74.8776
 21
15.7725
  0
LINE
  8
0
 10
74.8776
 20
15.7725
 11
74.5225
 21
16.4695
  0
LINE
  8
0
 10
74.5225
 20
16.4695
 11
73.9695
 21
17.0225
  0
LINE
  8
0
 10
73.9695
 20
17.0225
 11
73.2725
 21
17.3776
  0
LINE
  8
0
 10
73.2725
 20
17.3776
 11
72.5
 21
17.5
  0
LINE
  8
0
 10
72.5
 20
17.5
 11
47
 21
17.5
  0
LINE
  8
0
 10
47
 20
17.5
 11
47
 21
0
  0
LINE
  8
0
 10
47
 20
0
 11
46.9021
 21
-0.618027
  0
LINE
  8
0
 10
46.9021
 20
-0.618027
 11
46.618
 21
-1.17557
  0
LINE
  8
0
 10
46.618
 20
-1.17557
 11
46.1756
 21
-1.61803
  0
LINE
  8
0
 10
46.1756
 20
-1.61803
 11
45.618
 21
-1.9021
  0
LINE
  8
0
 10
45.618
 20
-1.9021
 11
45
 21
-2
  0
LINE
  8
0
 10
45
 20
-2
 11
44.382
 21
-1.9021
  0
LINE
  8
0
 10
44.382
 20
-1.9021
 11
43.8244
 21
-1.61803
  0
LINE
  8
0
 10
43.8244
 20
-1.61803
 11
43.382
 21
-1.17557
  0
LINE
  8
0
 10
43.382
 20
-1.17557
 11
43.0979
 21
-0.618027
  0
LINE
  8
0
 10
43.0979
 20
-0.618027
 11
43
 21
0
  0
LINE
  8
0
 10
43
 20
0
 11
43
 21
17.5
  0
LINE
  8
0
 10
43
 20
17.5
 11
22
 21
17.5
  0
LINE
  8
0
 10
22
 20
17.5
 11
22
 21
0
  0
LINE
  8
0
 10
22
 20
0
 11
21.9021
 21
-0.618027
  0
LINE
  8
0
 10
21.9021
 20
-0.618027
 11
21.618
 21
-1.17557
  0
LINE
  8
0
 10
21.618
 20
-1.17557
 11
21.1756
 21
-1.61803
  0
LINE
  8
0
 10
21.1756
 20
-1.61803
 11
20.618
 21
-1.9021
  0
LINE
  8
0
 10
20.618
 20
-1.9021
 11
20
 21
-2
  0
LINE
  8
0
 10
20
 20
-2
 11
19.382
 21
-1.9021
  0
LINE
  8
0
 10
19.382
 20
-1.9021
 11
18.8244
 21
-1.61803
  0
LINE
  8
0
 10
18.8244
 20
-1.61803
 11
18.382
 21
-1.17557
  0
LINE
  8
0
 10
18.382
 20
-1.17557
 11
18.0979
 21
-0.618027
  0
LINE
  8
0
 10
18.0979
 20
-0.618027
 11
18
 21
0
  0
LINE
  8
0
 10
18
 20
0
 11
18
 21
17.5
  0
LINE
  8
0
 10
18
 20
17.5
 11
-3
 21
17.5
  0
LINE
  8
0
 10
-3
 20
17.5
 11
-3
 21
0
  0
LINE
  8
0
 10
-3
 20
0
 11
-3.09789
 21
-0.618027
  0
LINE
  8
0
 10
-3.09789
 20
-0.618027
 11
-3.38196
 21
-1.17557
  0
LINE
  8
0
 10
-3.38196
 20
-1.17557
 11
-3.82442
 21
-1.61803
  0
LINE
  8
0
 10
-3.82442
 20
-1.61803
 11
-4.38196
 21
-1.9021
  0
LINE
  8
0
 10
-4.38196
 20
-1.9021
 11
-5
 21
-2
  0
LINE
  8
0
 10
-5
 20
-2
 11
-5.61803
 21
-1.9021
  0
LINE
  8
0
 10
-5.61803
 20
-1.9021
 11
-6.17557
 21
-1.61803
  0
LINE
  8
0
 10
-6.17557
 20
-1.61803
 11
-6.61803
 21
-1.17557
  0
LINE
  8
0
 10
-6.61803
 20
-1.17557
 11
-6.9021
 21
-0.618027
  0
LINE
  8
0
 10
-6.9021
 20
-0.618027
 11
-7
 21
0
  0
LINE
  8
0
 10
-7
 20
0
 11
-7
 21
17.5
  0
LINE
  8
0
 10
-7
 20
17.5
 11
-36
 21
17.5
  0
LINE
  8
0
 10
-36
 20
17.5
 11
-36
 21
0
  0
LINE
  8
0
 10
-36
 20
0
 11
-36.1958
 21
-1.23605
  0
LINE
  8
0
 10
-36.1958
 20
-1.23605
 11
-36.7639
 21
-2.35114
  0
LINE
  8
0
 10
-36.7639
 20
-2.35114
 11
-37.6488
 21
-3.23605
  0
LINE
  8
0
 10
-37.6488
 20
-3.23605
 11
-38.7639
 21
-3.80421
  0
LINE
  8
0
 10
-38.7639
 20
-3.80421
 11
-40
 21
-4
  0
LINE
  8
0
 10
-40
 20
-4
 11
-41.2361
 21
-3.80421
  0
LINE
  8
0
 10
-41.2361
 20
-3.80421
 11
-42.3511
 21
-3.23605
  0
LINE
  8
0
 10
-42.3511
 20
-3.23605
 11
-43.2361
 21
-2.35114
  0
LINE
  8
0
 10
-43.2361
 20
-2.35114
 11
-43.8042
 21
-1.23605
  0
LINE
  8
0
 10
-43.8042
 20
-1.23605
 11
-44
 21
0
  0
LINE
  8
0
 10
-44
 20
0
 11
-44
 21
17.5
  0
LINE
  8
0
 10
-44
 20
17.5
 11
-72.5
 21
17.5
  0
LINE
  8
0
 10
-72.5
 20
17.5
 11
-73.2725
 21
17.3776
  0
LINE
  8
0
 10
-73.2725
 20
17.3776
 11
-73.9695
 21
17.0225
  0
LINE
  8
0
 10
-73.9695
 20
17.0225
 11
-74.5225
 21
16.4695
  0
LINE
  8
0
 10
-74.5225
 20
16.4695
 11
-74.8776
 21
15.7725
  0
LINE
  8
0
 10
-74.8776
 20
15.7725
 11
-75
 21
15
  0
LINE
  8
0
 10
-75
 20
15
 11
-75
 21
-14
  0
LINE
  8
0
 10
-75
 20
-14
 11
-74.8776
 21
-14.7725
  0
LINE
  8
0
 10
-74.8776
 20
-14.7725
 11
-74.5225
 21
-15.4695
  0
LINE
  8
0
 10
-74.5225
 20
-15.4695
 11
-73.9695
 21
-16.0225
  0
LINE
  8
0
 10
-73.9695
 20
-16.0225
 11
-73.2725
 21
-16.3776
  0
LINE
  8
0
 10
-73.2725
 20
-16.3776
 11
-72.5
 21
-16.5
  0
LINE
  8
0
 10
-72.5
 20
-16.5
 11
72.5
 21
-16.5
  0
LINE
  8
0
 10
72.5
 20
-16.5
 11
73.2725
 21
-16.3776
  0
LINE
  8
0
 10
-67.479
 20
8.02585
 11
-67.9111
 21
8.24602
  0
LINE
  8
0
 10
-67.9111
 20
8.24602
 11
-68.254
 21
8.58893
  0
LINE
  8
0
 10
-68.254
 20
8.58893
 11
-68.4741
 21
9.02101
  0
LINE
  8
0
 10
-68.4741
 20
9.02101
 11
-68.55
 21
9.5
  0
LINE
  8
0
 10
-68.55
 20
9.5
 11
-68.4741
 21
9.97897
  0
LINE
  8
0
 10
-68.4741
 20
9.97897
 11
-68.254
 21
10.4111
  0
LINE
  8
0
 10
-68.254
 20
10.4111
 11
-67.9111
 21
10.754
  0
LINE
  8
0
 10
-67.9111
 20
10.754
 11
-67.479
 21
10.9741
  0
LINE
  8
0
 10
-67.479
 20
10.9741
 11
-67
 21
11.05
  0
LINE
  8
0
 10
-67
 20
11.05
 11
-66.521
 21
10.9741
  0
LINE
  8
0
 10
-66.521
 20
10.9741
 11
-66.0889
 21
10.754
  0
LINE
  8
0
 10
-66.0889
 20
10.754
 11
-65.746
 21
10.4111
  0
LINE
  8
0
 10
-65.746
 20
10.4111
 11
-65.5258
 21
9.97897
  0
LINE
  8
0
 10
-65.5258
 20
9.97897
 11
-65.45
 21
9.5
  0
LINE
  8
0
 10
-65.45
 20
9.5
 11
-65.5258
 21
9.02101
  0
LINE
  8
0
 10
-65.5258
 20
9.02101
 11
-65.746
 21
8.58893
  0
LINE
  8
0
 10
-65.746
 20
8.58893
 11
-66.0889
 21
8.24602
  0
LINE
  8
0
 10
-66.0889
 20
8.24602
 11
-66.521
 21
8.02585
  0
LINE
  8
0
 10
-66.521
 20
8.02585
 11
-67
 21
7.95
  0
LINE
  8
0
 10
-67
 20
7.95
 11
-67.479
 21
8.02585
  0
LINE
  8
0
 10
66.521
 20
8.02585
 11
66.0889
 21
8.24602
  0
LINE
  8
0
 10
66.0889
 20
8.24602
 11
65.746
 21
8.58893
  0
LINE
  8
0
 10
65.746
 20
8.58893
 11
65.5258
 21
9.02101
  0
LINE
  8
0
 10
65.5258
 20
9.02101
 11
65.45
 21
9.5
  0
LINE
  8
0
 10
65.45
 20
9.5
 11
65.5258
 21
9.97897
  0
LINE
  8
0
 10
65.5258
 20
9.97897
 11
65.746
 21
10.4111
  0
LINE
  8
0
 10
65.746
 20
10.4111
 11
66.0889
 21
10.754
  0
LINE
  8
0
 10
66.0889
 20
10.754
 11
66.521
 21
10.9741
  0
LINE
  8
0
 10
66.521
 20
10.9741
 11
67
 21
11.05
  0
LINE
  8
0
 10
67
 20
11.05
 11
67.479
 21
10.9741
  0
LINE
  8
0
 10
67.479
 20
10.9741
 11
67.9111
 21
10.754
  0
LINE
  8
0
 10
67.9111
 20
10.754
 11
68.254
 21
10.4111
  0
LINE
  8
0
 10
68.254
 20
10.4111
 11
68.4741
 21
9.97897
  0
LINE
  8
0
 10
68.4741
 20
9.97897
 11
68.55
 21
9.5
  0
LINE
  8
0
 10
68.55
 20
9.5
 11
68.4741
 21
9.02101
  0
LINE
  8
0
 10
68.4741
 20
9.02101
 11
68.254
 21
8.58893
  0
LINE
  8
0
 10
68.254
 20
8.58893
 11
67.9111
 21
8.24602
  0
LINE
  8
0
 10
67.9111
 20
8.24602
 11
67.479
 21
8.02585
  0
LINE
  8
0
 10
67.479
 20
8.02585
 11
67
 21
7.95
  0
LINE
  8
0
 10
67
 20
7.95
 11
66.521
 21
8.02585
  0
LINE
  8
0
 10
-67.479
 20
-10.9741
 11
-67.9111
 21
-10.754
  0
LINE
  8
0
 10
-67.9111
 20
-10.754
 11
-68.254
 21
-10.4111
  0
LINE
  8
0
 10
-68.254
 20
-10.4111
 11
-68.4741
 21
-9.97897
  0
LINE
  8
0
 10
-68.4741
 20
-9.97897
 11
-68.55
 21
-9.5
  0
LINE
  8
0
 10
-68.55
 20
-9.5
 11
-68.4741
 21
-9.02101
  0
LINE
  8
0
 10
-68.4741
 20
-9.02101
 11
-68.254
 21
-8.58893
  0
LINE
  8
0
 10
-68.254
 20
-8.58893
 11
-67.9111
 21
-8.24602
  0
LINE
  8
0
 10
-67.9111
 20
-8.24602
 11
-67.479
 21
-8.02585
  0
LINE
  8
0
 10
-67.479
 20
-8.02585
 11
-67
 21
-7.95
  0
LINE
  8
0
 10
-67
 20
-7.95
 11
-66.521
 21
-8.02585
  0
LINE
  8
0
 10
-66.521
 20
-8.02585
 11
-66.0889
 21
-8.24602
  0
LINE
  8
0
 10
-66.0889
 20
-8.24602
 11
-65.746
 21
-8.58893
  0
LINE
  8
0
 10
-65.746
 20
-8.58893
 11
-65.5258
 21
-9.02101
  0
LINE
  8
0
 10
-65.5258
 20
-9.02101
 11
-65.45
 21
-9.5
  0
LINE
  8
0
 10
-65.45
 20
-9.5
 11
-65.5258
 21
-9.97897
  0
LINE
  8
0
 10
-65.5258
 20
-9.97897
 11
-65.746
 21
-10.4111
  0
LINE
  8
0
 10
-65.746
 20
-10.4111
 11
-66.0889
 21
-10.754
  0
LINE
  8
0
 10
-66.0889
 20
-10.754
 11
-66.521
 21
-10.9741
  0
LINE
  8
0
 10
-66.521
 20
-10.9741
 11
-67
 21
-11.05
  0
LINE
  8
0
 10
-67
 20
-11.05
 11
-67.479
 21
-10.9741
  0
LINE
  8
0
 10
66.521
 20
-10.9741
 11
66.0889
 21
-10.754
  0
LINE
  8
0
 10
66.0889
 20
-10.754
 11
65.746
 21
-10.4111
  0
LINE
  8
0
 10
65.746
 20
-10.4111
 11
65.5258
 21
-9.97897
  0
LINE
  8
0
 10
65.5258
 20
-9.97897
 11
65.45
 21
-9.5
  0
LINE
  8
0
 10
65.45
 20
-9.5
 11
65.5258
 21
-9.02101
  0
LINE
  8
0
 10
65.5258
 20
-9.02101
 11
65.746
 21
-8.58893
  0
LINE
  8
0
 10
65.746
 20
-8.58893
 11
66.0889
 21
-8.24602
  0
LINE
  8
0
 10
66.0889
 20
-8.24602
 11
66.521
 21
-8.02585
  0
LINE
  8
0
 10
66.521
 20
-8.02585
 11
67
 21
-7.95
  0
LINE
  8
0
 10
67
 20
-7.95
 11
67.479
 21
-8.02585
  0
LINE
  8
0
 10
67.479
 20
-8.02585
 11
67.9111
 21
-8.24602
  0
LINE
  8
0
 10
67.9111
 20
-8.24602
 11
68.254
 21
-8.58893
  0
LINE
  8
0
 10
68.254
 20
-8.58893
 11
68.4741
 21
-9.02101
  0
LINE
  8
0
 10
68.4741
 20
-9.02101
 11
68.55
 21
-9.5
  0
LINE
  8
0
 10
68.55
 20
-9.5
 11
68.4741
 21
-9.97897
  0
LINE
  8
0
 10
68.4741
 20
-9.97897
 11
68.254
 21
-10.4111
  0
LINE
  8
0
 10
68.254
 20
-10.4111
 11
67.9111
 21
-10.754
  0
LINE
  8
0
 10
67.9111
 20
-10.754
 11
67.479
 21
-10.9741
  0
LINE
  8
0
 10
67.479
 20
-10.9741
 11
67
 21
-11.05
  0
LINE
  8
0
 10
67
 20
-11.05
 11
66.521
 21
-10.9741
  0
ENDSEC
  0
SECTION
  2
OBJECTS
  0
DICTIONARY
  0
ENDSEC
  0
EOF
